<svg width="290" height="289" viewBox="0 0 290 289" fill="none" xmlns="http://www.w3.org/2000/svg">
<path d="M262.364 145.79C264.728 146.065 266.787 146.844 268.541 148.128C270.318 149.415 271.633 151.036 272.486 152.991C273.337 154.969 273.632 157.082 273.371 159.33C273.064 161.972 272.159 164.205 270.655 166.027C269.151 167.849 267.177 169.076 264.731 169.708L265.171 165.918C266.709 165.416 267.946 164.573 268.882 163.389C269.816 162.229 270.385 160.769 270.589 159.007C270.786 157.315 270.568 155.751 269.936 154.315C269.304 152.88 268.303 151.695 266.931 150.76C265.583 149.828 263.936 149.249 261.989 149.023C260.065 148.8 258.329 148.986 256.78 149.581C255.254 150.179 254.019 151.104 253.075 152.357C252.13 153.61 251.56 155.082 251.364 156.774C251.159 158.536 251.366 160.087 251.986 161.427C252.626 162.793 253.637 163.897 255.019 164.739L254.579 168.529C252.366 167.355 250.737 165.71 249.691 163.592C248.668 161.476 248.31 159.097 248.617 156.455C248.878 154.207 249.638 152.216 250.896 150.483C252.175 148.776 253.815 147.498 255.816 146.65C257.818 145.802 260 145.515 262.364 145.79Z" fill="white"/>
<path d="M270.082 181.569L245.162 174.511L246.03 171.446L270.95 178.504L270.082 181.569Z" fill="white"/>
<path d="M264.078 188.242C264.287 187.673 264.661 187.263 265.199 187.013C265.738 186.763 266.293 186.743 266.862 186.952C267.432 187.161 267.841 187.535 268.091 188.074C268.341 188.612 268.361 189.167 268.152 189.736C267.952 190.284 267.586 190.672 267.055 190.9C266.516 191.149 265.962 191.17 265.392 190.961C264.823 190.752 264.413 190.378 264.163 189.839C263.905 189.322 263.877 188.79 264.078 188.242ZM260.623 188.616L242.615 182.013L243.712 179.022L261.719 185.625L260.623 188.616Z" fill="white"/>
<path d="M250.366 189.54C252.12 190.466 253.462 191.623 254.391 193.011C255.342 194.409 255.851 195.918 255.92 197.538C255.978 199.178 255.582 200.802 254.733 202.412C253.633 204.496 252.223 205.942 250.504 206.75C248.774 207.578 246.897 207.735 244.873 207.221L246.474 204.187C247.659 204.443 248.773 204.306 249.818 203.776C250.852 203.266 251.696 202.392 252.349 201.154C253.199 199.544 253.328 197.95 252.736 196.372C252.165 194.804 250.869 193.486 248.846 192.419C246.804 191.341 244.964 191.003 243.326 191.405C241.689 191.808 240.446 192.814 239.597 194.423C238.943 195.662 238.687 196.846 238.83 197.976C238.972 199.107 239.498 200.11 240.407 200.986L238.806 204.019C237.313 202.65 236.399 201.007 236.065 199.09C235.752 197.183 236.135 195.208 237.213 193.165C238.063 191.556 239.181 190.312 240.567 189.435C241.943 188.578 243.476 188.147 245.167 188.142C246.858 188.138 248.591 188.604 250.366 189.54Z" fill="white"/>
<path d="M225.147 211.865L236.451 211.092L229.75 205.911L231.698 203.391L252.189 219.232L250.241 221.752L238.195 212.44L240.407 223.485L237.689 227.001L235.652 214.013L222.493 215.299L225.147 211.865Z" fill="white"/>
<path d="M222.683 237.58L215.385 228.947C214.782 228.234 214.201 227.854 213.642 227.807C213.098 227.778 212.452 228.08 211.704 228.713L209.913 230.227L208.173 228.168L210.365 226.316C211.719 225.171 212.998 224.624 214.203 224.675C215.407 224.727 216.612 225.465 217.817 226.89L225.115 235.524L227.013 233.92L228.708 235.924L226.81 237.529L229.928 241.217L227.496 243.273L224.378 239.585L220.555 242.816L218.861 240.811L222.683 237.58Z" fill="white"/>
<path d="M199.186 233.786C200.72 232.85 202.327 232.347 204.007 232.278C205.667 232.22 207.245 232.61 208.74 233.447C210.228 234.315 211.488 235.596 212.522 237.289C213.544 238.961 214.085 240.654 214.147 242.366C214.2 244.11 213.807 245.704 212.966 247.148C212.137 248.611 210.946 249.817 209.393 250.765C207.839 251.714 206.223 252.223 204.543 252.292C202.875 252.381 201.293 252.008 199.798 251.171C198.283 250.347 197.008 249.088 195.974 247.395C194.94 245.703 194.407 243.978 194.373 242.222C194.331 240.497 194.735 238.897 195.584 237.422C196.432 235.947 197.633 234.735 199.186 233.786ZM200.646 236.176C199.67 236.772 198.894 237.56 198.318 238.541C197.741 239.522 197.474 240.629 197.515 241.861C197.537 243.105 197.949 244.385 198.752 245.699C199.555 247.013 200.495 247.97 201.572 248.57C202.649 249.17 203.74 249.433 204.844 249.36C205.96 249.308 207.006 248.983 207.981 248.387C208.977 247.779 209.753 246.991 210.31 246.022C210.859 245.085 211.102 244.007 211.041 242.787C210.979 241.567 210.547 240.3 209.744 238.985C208.929 237.651 208.003 236.672 206.966 236.048C205.908 235.436 204.832 235.15 203.736 235.191C202.652 235.252 201.622 235.58 200.646 236.176Z" fill="white"/>
<path d="M185.086 252.287C185.606 254.176 185.678 255.935 185.303 257.563C184.934 259.213 184.194 260.615 183.084 261.767C181.95 262.926 180.562 263.731 178.92 264.183C177.3 264.628 175.798 264.667 174.414 264.297C173.03 263.928 171.9 263.295 171.024 262.398L171.952 265.773L168.848 266.627L163.761 248.134L166.865 247.28L167.812 250.722C168.123 249.475 168.786 248.324 169.803 247.27C170.804 246.245 172.103 245.512 173.7 245.073C175.342 244.621 176.938 244.618 178.489 245.063C180.039 245.507 181.397 246.356 182.565 247.608C183.732 248.86 184.572 250.419 185.086 252.287ZM169.418 256.56C169.802 257.955 170.417 259.092 171.264 259.973C172.111 260.853 173.093 261.43 174.209 261.704C175.308 262.006 176.432 262 177.579 261.684C178.727 261.368 179.699 260.811 180.495 260.011C181.291 259.211 181.828 258.216 182.106 257.027C182.384 255.837 182.331 254.545 181.947 253.15C181.558 251.733 180.936 250.573 180.083 249.67C179.236 248.79 178.262 248.198 177.163 247.896C176.069 247.616 174.949 247.634 173.801 247.949C172.654 248.265 171.682 248.822 170.886 249.622C170.073 250.451 169.528 251.46 169.25 252.65C168.978 253.862 169.034 255.165 169.418 256.56Z" fill="white"/>
<path d="M153.511 248.804C154.976 248.68 156.31 248.812 157.514 249.201C158.72 249.614 159.698 250.233 160.447 251.059C161.199 251.909 161.659 252.912 161.827 254.068L158.549 254.347C158.375 253.402 157.867 252.66 157.025 252.123C156.16 251.588 155.076 251.376 153.775 251.486C152.566 251.589 151.635 251.938 150.983 252.532C150.331 253.126 150.04 253.83 150.109 254.643C150.18 255.48 150.604 256.065 151.382 256.397C152.162 256.752 153.347 257.061 154.938 257.324C156.388 257.575 157.582 257.848 158.521 258.143C159.438 258.463 160.254 258.968 160.968 259.656C161.661 260.37 162.06 261.343 162.164 262.575C162.248 263.552 162.033 264.472 161.521 265.335C161.009 266.198 160.238 266.907 159.208 267.463C158.18 268.043 156.98 268.391 155.609 268.507C153.493 268.687 151.739 268.298 150.346 267.339C148.953 266.38 148.131 264.975 147.879 263.123L151.053 262.853C151.208 263.847 151.683 264.614 152.478 265.155C153.25 265.699 154.253 265.918 155.485 265.813C156.624 265.716 157.51 265.395 158.143 264.849C158.775 264.304 159.058 263.636 158.991 262.845C158.938 262.217 158.695 261.711 158.265 261.326C157.812 260.967 157.273 260.685 156.647 260.48C156 260.301 155.117 260.107 153.998 259.898C152.595 259.642 151.447 259.365 150.555 259.067C149.665 258.791 148.888 258.319 148.222 257.649C147.533 256.982 147.127 256.068 147.005 254.907C146.916 253.861 147.127 252.895 147.637 252.008C148.147 251.122 148.916 250.389 149.944 249.81C150.95 249.256 152.14 248.921 153.511 248.804Z" fill="white"/>
<path d="M132.211 248.869L139.061 257.894L139.714 249.449L142.889 249.695L140.893 275.518L137.718 275.272L138.891 260.093L130.873 268.003L126.441 267.661L136.18 258.83L127.884 248.535L132.211 248.869Z" fill="white"/>
<path d="M89.9419 256.725C88.5623 256.154 87.454 255.354 86.6172 254.325C85.7715 253.319 85.2727 252.114 85.1207 250.713C84.9688 249.311 85.2321 247.791 85.9107 246.153L90.2366 235.709L93.1469 236.914L88.995 246.938C88.2629 248.706 88.1468 250.236 88.6467 251.529C89.1161 252.835 90.0946 253.796 91.582 254.412C93.1126 255.046 94.536 255.054 95.8521 254.438C97.1593 253.843 98.1968 252.618 98.9647 250.764L103.009 240.999L105.92 242.204L101.768 252.228C101.036 253.996 100.92 255.526 101.419 256.82C101.889 258.125 102.867 259.086 104.355 259.702C105.885 260.336 107.309 260.345 108.625 259.728C109.932 259.133 110.97 257.909 111.737 256.055L115.782 246.289L118.725 247.508L111.385 265.228L108.443 264.009L109.501 261.455C108.535 262.141 107.464 262.531 106.289 262.625C105.092 262.71 103.9 262.507 102.715 262.016C101.227 261.4 100.051 260.521 99.1849 259.379C98.3191 258.238 97.8739 256.904 97.8491 255.379C96.8354 256.424 95.6144 257.054 94.1862 257.271C92.7579 257.488 91.3432 257.306 89.9419 256.725Z" fill="white"/>
<path d="M67.8029 231.143C68.1668 230.657 68.5798 230.165 69.0418 229.666L81.3059 238.864C82.3466 237.282 82.7222 235.711 82.4329 234.153C82.1109 232.599 81.2779 231.318 79.9338 230.31C78.8325 229.484 77.7288 229.05 76.6228 229.008C75.4842 228.97 74.4435 229.269 73.5008 229.904L70.7568 227.846C72.2735 226.679 73.9978 226.091 75.9298 226.082C77.8478 226.091 79.7215 226.782 81.5508 228.154C83.0068 229.246 84.0685 230.552 84.7359 232.074C85.3845 233.581 85.5875 235.177 85.3449 236.862C85.0882 238.565 84.3649 240.21 83.1749 241.797C81.9849 243.383 80.6246 244.536 79.0939 245.255C77.5633 245.973 75.9906 246.223 74.3759 246.004C72.7286 245.789 71.1583 245.122 69.6649 244.002C68.2089 242.91 67.1589 241.626 66.5149 240.152C65.8709 238.677 65.6702 237.156 65.9129 235.588C66.1229 234.024 66.7529 232.543 67.8029 231.143ZM70.0359 233.649C69.3079 234.619 68.8995 235.611 68.8109 236.624C68.7082 237.655 68.8972 238.628 69.3779 239.543C69.8259 240.462 70.4979 241.258 71.3939 241.93C72.6819 242.896 74.0913 243.311 75.6219 243.176C77.1339 243.026 78.5013 242.273 79.7239 240.915L70.0359 233.649Z" fill="white"/>
<path d="M59.8253 222.511C58.2703 223.704 56.6682 224.434 55.019 224.699C53.3513 224.979 51.7745 224.821 50.2885 224.226C48.7884 223.612 47.5199 222.629 46.4831 221.278C45.4604 219.945 44.8597 218.568 44.6808 217.147C44.5019 215.725 44.6628 214.44 45.1636 213.291L42.3868 215.422L40.4267 212.867L55.6439 201.192L57.604 203.746L54.7716 205.919C56.0437 205.738 57.3594 205.919 58.7188 206.464C60.0454 207.005 61.213 207.933 62.2214 209.247C63.2583 210.599 63.8624 212.076 64.034 213.68C64.2055 215.283 63.9311 216.861 63.2107 218.414C62.4903 219.967 61.3619 221.332 59.8253 222.511ZM49.9676 209.605C48.8198 210.486 47.9977 211.484 47.5012 212.6C47.0047 213.717 46.8397 214.843 47.0061 215.98C47.1399 217.113 47.5689 218.151 48.2933 219.095C49.0177 220.039 49.9003 220.73 50.9411 221.166C51.9819 221.603 53.1057 221.726 54.3123 221.535C55.519 221.345 56.6962 220.809 57.844 219.929C59.0103 219.034 59.8509 218.021 60.3659 216.891C60.8624 215.775 61.0438 214.65 60.91 213.518C60.7578 212.399 60.3195 211.368 59.5951 210.424C58.8708 209.48 57.9882 208.789 56.9473 208.353C55.8738 207.912 54.7337 207.787 53.527 207.977C52.3018 208.182 51.1154 208.725 49.9676 209.605Z" fill="white"/>
<path d="M32.3403 198.677C31.3128 196.582 31.1195 194.571 31.7604 192.646C32.3803 190.731 33.8844 189.187 36.2726 188.016L46.4226 183.038L47.8097 185.866L38.0682 190.644C36.3504 191.486 35.2517 192.558 34.7721 193.859C34.2716 195.17 34.3861 196.569 35.1156 198.056C35.8554 199.565 36.9176 200.538 38.3021 200.976C39.6764 201.394 41.2643 201.161 43.0659 200.277L52.5874 195.607L53.9899 198.467L36.7696 206.913L35.3671 204.053L37.8181 202.851C36.6608 202.717 35.605 202.286 34.6505 201.559C33.6857 200.811 32.9157 199.85 32.3403 198.677Z" fill="white"/>
<path d="M33.4773 175.122C31.5479 175.468 29.7898 175.379 28.2031 174.857C26.5934 174.339 25.2654 173.474 24.2191 172.263C23.1687 171.029 22.4935 169.573 22.1936 167.896C21.8978 166.243 21.997 164.743 22.4913 163.399C22.9856 162.054 23.7191 160.986 24.6918 160.196L21.2465 160.812L20.6795 157.643L39.5599 154.266L40.1268 157.435L36.6126 158.064C37.8261 158.487 38.9112 159.253 39.8681 160.362C40.7978 161.452 41.4086 162.812 41.7003 164.443C42.0002 166.119 41.8579 167.709 41.2734 169.212C40.689 170.715 39.7201 171.991 38.3668 173.039C37.0135 174.087 35.3837 174.781 33.4773 175.122ZM30.6522 159.13C29.2282 159.385 28.0392 159.894 27.0853 160.657C26.1315 161.42 25.4673 162.345 25.0927 163.431C24.691 164.498 24.595 165.618 24.8045 166.789C25.014 167.961 25.4807 168.979 26.2045 169.846C26.9283 170.712 27.8698 171.337 29.0291 171.723C30.1884 172.108 31.4801 172.173 32.9041 171.918C34.3512 171.659 35.5631 171.146 36.5399 170.379C37.4938 169.616 38.1715 168.701 38.5732 167.633C38.9519 166.57 39.0365 165.452 38.8269 164.281C38.6174 163.11 38.1507 162.091 37.4269 161.225C36.676 160.34 35.721 159.705 34.5617 159.32C33.3794 158.938 32.0763 158.875 30.6522 159.13Z" fill="white"/>
<path d="M20.0308 140.537C20.0938 138.205 20.8563 136.335 22.3182 134.927C23.7568 133.519 25.8056 132.85 28.4646 132.922L39.7655 133.228L39.6804 136.377L28.8343 136.083C26.9217 136.032 25.451 136.471 24.4222 137.4C23.37 138.328 22.8216 139.621 22.7768 141.277C22.7314 142.956 23.22 144.311 24.2425 145.343C25.2657 146.351 26.7802 146.882 28.7861 146.936L39.3873 147.223L39.3012 150.406L20.1282 149.888L20.2143 146.704L22.9433 146.778C21.9806 146.122 21.2456 145.25 20.7381 144.163C20.2313 143.052 19.9955 141.843 20.0308 140.537Z" fill="white"/>
<path d="M42.2006 122.156C41.8103 123.91 41.0568 125.416 39.9403 126.673C38.8288 127.908 37.453 128.773 35.8129 129.269C34.155 129.736 32.3581 129.755 30.4221 129.324C28.5089 128.898 26.9148 128.113 25.6396 126.968C24.3467 125.796 23.4728 124.406 23.0178 122.799C22.54 121.187 22.4988 119.492 22.8942 117.716C23.2897 115.939 24.0456 114.422 25.1622 113.165C26.2559 111.902 27.6229 111.023 29.263 110.528C30.9083 110.01 32.6989 109.966 34.6348 110.397C36.5708 110.828 38.1827 111.641 39.4705 112.836C40.7406 114.003 41.612 115.404 42.0847 117.039C42.5574 118.674 42.596 120.38 42.2006 122.156ZM39.4675 121.548C39.7159 120.432 39.6872 119.326 39.3813 118.23C39.0755 117.134 38.4646 116.174 37.5487 115.348C36.6379 114.5 35.4309 113.909 33.9276 113.574C32.4244 113.239 31.0831 113.252 29.9036 113.611C28.7241 113.97 27.7773 114.572 27.0633 115.417C26.3266 116.257 25.834 117.235 25.5856 118.351C25.3321 119.49 25.3608 120.596 25.6718 121.669C25.965 122.714 26.5721 123.638 27.493 124.441C28.414 125.243 29.6261 125.812 31.1293 126.146C32.6553 126.486 34.003 126.499 35.1723 126.186C36.3468 125.85 37.2998 125.273 38.0315 124.456C38.7404 123.633 39.2191 122.664 39.4675 121.548Z" fill="white"/>
<path d="M30.884 93.4461C31.8328 91.3144 33.2516 89.8771 35.1402 89.1343C37.0075 88.382 39.1563 88.5467 41.5864 89.6284L51.9144 94.2257L50.6334 97.1035L40.7211 92.6912C38.9731 91.9131 37.4463 91.7571 36.1406 92.223C34.8136 92.6795 33.8133 93.6645 33.1396 95.178C32.4564 96.7128 32.3904 98.152 32.9417 99.4957C33.5024 100.818 34.6994 101.887 36.5326 102.703L46.2211 107.016L44.9259 109.926L27.4035 102.126L28.6987 99.216L31.1927 100.326C30.5536 99.3521 30.2072 98.2657 30.1534 97.0669C30.1091 95.8467 30.3526 94.6398 30.884 93.4461Z" fill="white"/>
<path d="M46.9973 67.0673L63.7674 92.5225L61.9107 95.2386L56.416 86.9035L36.3903 82.5833L38.3853 79.665L54.6115 83.4653L45.1406 69.7833L46.9973 67.0673Z" fill="white"/>
<path d="M67.1265 46.6543C68.242 45.6615 69.4449 45.0126 70.7353 44.7075C72.0101 44.3851 73.3113 44.4608 74.639 44.9348C75.9666 45.4087 77.2199 46.308 78.3988 47.6327L85.9146 56.0776L83.5615 58.1718L76.3483 50.0668C75.0762 48.6375 73.7494 47.8661 72.3677 47.7527C70.988 47.6062 69.6968 48.0682 68.4941 49.1386C67.2565 50.2399 66.6285 51.5173 66.61 52.9706C66.576 54.4065 67.2261 55.8739 68.5601 57.3729L75.5873 65.2687L73.2342 67.3629L66.0209 59.2579C64.7489 57.8286 63.4221 57.0573 62.0404 56.9438C60.6606 56.7974 59.3694 57.2593 58.1667 58.3297C56.9292 59.4311 56.3012 60.7084 56.2827 62.1617C56.2487 63.5976 56.8987 65.065 58.2328 66.564L65.26 74.4599L62.8807 76.5773L50.1295 62.2498L52.5087 60.1323L54.3469 62.1978C54.1505 61.0295 54.2661 59.8958 54.6937 58.7969C55.1387 57.6824 55.8405 56.6986 56.7991 55.8454C58.0018 54.775 59.3055 54.0989 60.7102 53.8171C62.1149 53.5353 63.5092 53.7156 64.8931 54.3581C64.3943 52.9904 64.3585 51.6165 64.7859 50.2366C65.2133 48.8567 65.9935 47.6626 67.1265 46.6543Z" fill="white"/>
<path d="M96.1032 51.6439C94.505 52.4648 92.8656 52.8479 91.1849 52.7931C89.5249 52.7277 87.9802 52.2227 86.5506 51.2781C85.1312 50.3022 83.9684 48.9321 83.0622 47.1679C82.1667 45.4244 81.7514 43.6966 81.8162 41.9845C81.8912 40.2409 82.4012 38.6805 83.3463 37.3032C84.2808 35.9051 85.5575 34.7902 87.1764 33.9587C88.7953 33.1271 90.4451 32.7387 92.1258 32.7935C93.7959 32.8275 95.3457 33.3168 96.7752 34.2613C98.2255 35.1952 99.4037 36.5442 100.31 38.3084C101.216 40.0726 101.621 41.8318 101.526 43.5861C101.44 45.3089 100.92 46.8747 99.9644 48.2834C99.0092 49.6922 97.7221 50.8123 96.1032 51.6439ZM94.8239 49.1533C95.8409 48.6309 96.673 47.9018 97.3203 46.966C97.9676 46.0301 98.3158 44.9463 98.365 43.7143C98.435 42.4717 98.1182 41.1655 97.4145 39.7957C96.7109 38.4258 95.844 37.4021 94.814 36.7246C93.7839 36.047 92.7158 35.7038 91.6095 35.695C90.4926 35.6654 89.4256 35.9118 88.4086 36.4342C87.3708 36.9672 86.5387 37.6963 85.9122 38.6215C85.2957 39.5152 84.9733 40.5727 84.9448 41.794C84.9164 43.0152 85.254 44.3108 85.9576 45.6807C86.6719 47.0713 87.5233 48.116 88.5119 48.8149C89.5212 49.5031 90.5739 49.8673 91.6701 49.9076C92.7556 49.9271 93.8068 49.6757 94.8239 49.1533Z" fill="white"/>
<path d="M118.358 22.8087L123.585 41.2627L120.52 42.1307L119.748 39.403C119.431 40.5113 118.821 41.4842 117.919 42.3219C117.032 43.1307 115.96 43.7132 114.703 44.0693C113.266 44.4763 111.893 44.55 110.583 44.2906C109.266 44.0088 108.102 43.3683 107.092 42.3692C106.104 41.3638 105.368 40.0079 104.885 38.3017L101.823 27.492L104.854 26.6335L107.801 37.0392C108.316 38.8576 109.174 40.1304 110.374 40.8575C111.568 41.5622 112.962 41.6887 114.556 41.2373C116.195 40.7731 117.343 39.9023 117.999 38.625C118.656 37.3477 118.711 35.7436 118.164 33.8129L115.293 23.6767L118.358 22.8087Z" fill="white"/>
<path d="M134.16 40.3187C132.697 40.4602 131.361 40.3432 130.153 39.9677C128.942 39.5691 127.957 38.961 127.199 38.1436C126.437 37.303 125.966 36.3054 125.784 35.1509L129.059 34.8342C129.244 35.7775 129.76 36.5128 130.608 37.0403C131.479 37.5656 132.565 37.7653 133.866 37.6395C135.074 37.5228 136 37.1636 136.645 36.562C137.29 35.9605 137.574 35.2533 137.495 34.4404C137.414 33.6043 136.983 33.0248 136.202 32.7018C135.418 32.3556 134.229 32.0604 132.635 31.816C131.182 31.5814 129.985 31.3221 129.043 31.0381C128.123 30.7286 127.301 30.2337 126.579 29.5534C125.878 28.8476 125.468 27.8792 125.349 26.6483C125.254 25.6729 125.458 24.7506 125.96 23.8816C126.462 23.0126 127.225 22.2942 128.248 21.7264C129.269 21.1353 130.465 20.7736 131.835 20.6411C133.949 20.4367 135.708 20.8058 137.112 21.7484C138.515 22.691 139.354 24.0868 139.626 25.9358L136.456 26.2423C136.29 25.2504 135.806 24.4884 135.004 23.9565C134.226 23.4222 133.221 23.2146 131.99 23.3337C130.852 23.4437 129.97 23.7752 129.344 24.328C128.717 24.8809 128.442 25.5521 128.519 26.3418C128.579 26.9688 128.827 27.4723 129.263 27.8522C129.719 28.2066 130.261 28.4823 130.89 28.6794C131.539 28.851 132.424 29.035 133.545 29.2314C134.951 29.4705 136.102 29.7343 136.997 30.0228C137.89 30.2881 138.674 30.7515 139.347 31.4131C140.044 32.0724 140.46 32.9816 140.595 34.1406C140.697 35.1857 140.497 36.1544 139.997 37.0467C139.498 37.9389 138.737 38.6805 137.716 39.2716C136.716 39.8371 135.531 40.1862 134.16 40.3187Z" fill="white"/>
<path d="M153.167 29.6811C153.49 27.7479 154.163 26.1217 155.188 24.8025C156.217 23.4603 157.477 22.4998 158.97 21.9212C160.485 21.3463 162.094 21.2011 163.797 21.4856C165.431 21.7586 166.797 22.3652 167.893 23.3054C169.017 24.2264 169.778 25.2643 170.177 26.4191L170.753 22.967L173.929 23.4975L169.27 51.391L166.094 50.8605L168.176 38.3981C167.4 39.3569 166.33 40.1006 164.964 40.6295C163.598 41.1584 162.087 41.2844 160.43 41.0076C158.773 40.7308 157.335 40.0647 156.115 39.0094C154.896 37.9541 154.02 36.6131 153.487 34.9864C152.954 33.3598 152.848 31.5913 153.167 29.6811ZM169.179 32.3914C169.417 30.9645 169.337 29.6736 168.939 28.5189C168.54 27.3641 167.892 26.4279 166.995 25.7102C166.124 24.9734 165.102 24.5069 163.929 24.3109C162.755 24.1148 161.639 24.2122 160.58 24.6031C159.521 24.994 158.615 25.6707 157.863 26.6333C157.111 27.5958 156.616 28.7905 156.377 30.2174C156.135 31.6673 156.211 32.9812 156.606 34.159C157.004 35.3138 157.639 36.2596 158.509 36.9964C159.384 37.7102 160.408 38.1651 161.582 38.3612C162.755 38.5573 163.872 38.4599 164.93 38.069C166.016 37.6589 166.935 36.9726 167.687 36.0101C168.443 35.0245 168.941 33.8183 169.179 32.3914Z" fill="white"/>
<path d="M196.589 31.4465L189.716 49.3529L186.742 48.2116L187.758 45.5649C186.841 46.2624 185.77 46.6761 184.545 46.806C183.351 46.9224 182.144 46.7465 180.924 46.2783C179.53 45.7432 178.386 44.9793 177.492 43.9865C176.607 42.9719 176.059 41.762 175.849 40.3566C175.66 38.9596 175.884 37.4333 176.519 35.7777L180.545 25.2887L183.486 26.4174L179.61 36.5143C178.933 38.2788 178.857 39.8117 179.382 41.113C179.916 42.3925 180.956 43.3291 182.503 43.9227C184.093 44.533 185.534 44.5236 186.825 43.8945C188.116 43.2654 189.121 42.0141 189.84 40.1407L193.615 30.3052L196.589 31.4465Z" fill="white"/>
<path d="M212.757 51.1154C212.437 51.6308 212.068 52.1575 211.652 52.6954L198.628 44.609C197.73 46.2762 197.494 47.8734 197.919 49.4007C198.376 50.9204 199.318 52.1234 200.746 53.0096C201.915 53.7358 203.053 54.0713 204.158 54.016C205.296 53.9533 206.306 53.5645 207.189 52.8496L210.103 54.6589C208.695 55.9541 207.029 56.6911 205.105 56.87C203.194 57.0289 201.267 56.5053 199.324 55.2991C197.778 54.3391 196.606 53.1306 195.807 51.6737C195.029 50.2291 194.687 48.6571 194.781 46.9576C194.887 45.2383 195.463 43.5362 196.509 41.8513C197.555 40.1663 198.809 38.8987 200.271 38.0485C201.733 37.1983 203.277 36.8116 204.905 36.8884C206.565 36.9577 208.188 37.4847 209.774 38.4694C211.32 39.4294 212.478 40.6157 213.249 42.0281C214.02 43.4406 214.354 44.9385 214.249 46.5217C214.177 48.0974 213.68 49.6287 212.757 51.1154ZM210.312 48.815C210.952 47.7842 211.272 46.7605 211.272 45.744C211.283 44.7076 211.01 43.755 210.451 42.886C209.924 42.0095 209.185 41.2759 208.233 40.6851C206.865 39.8358 205.425 39.5457 203.912 39.8149C202.419 40.0963 201.123 40.967 200.024 42.4271L210.312 48.815Z" fill="white"/>
<path d="M214.2 66.3909C213.106 65.4096 212.288 64.3472 211.746 63.2035C211.22 62.0425 211.001 60.9061 211.089 59.7942C211.193 58.6649 211.608 57.6426 212.334 56.7272L214.784 58.9234C214.215 59.698 214.023 60.5759 214.209 61.5572C214.412 62.5541 215 63.4886 215.973 64.3609C216.876 65.1708 217.768 65.6096 218.647 65.6773C219.527 65.745 220.239 65.4748 220.784 64.8667C221.345 64.2413 221.48 63.5317 221.189 62.7379C220.913 61.9267 220.326 60.8517 219.426 59.5128C218.616 58.2847 217.996 57.2279 217.568 56.3425C217.173 55.4553 216.981 54.5156 216.993 53.5235C217.038 52.5297 217.473 51.5723 218.298 50.6515C218.953 49.9218 219.769 49.4476 220.749 49.229C221.728 49.0103 222.773 49.0855 223.884 49.4545C225.01 49.8061 226.086 50.4414 227.111 51.3604C228.692 52.7778 229.611 54.3222 229.867 55.9936C230.124 57.665 229.664 59.2268 228.487 60.679L226.116 58.5529C226.733 57.7591 226.967 56.8872 226.816 55.937C226.682 55.0025 226.155 54.1224 225.234 53.2969C224.383 52.5337 223.542 52.1087 222.711 52.0218C221.88 51.935 221.199 52.1869 220.67 52.7776C220.249 53.2467 220.047 53.77 220.062 54.3475C220.11 54.9232 220.274 55.5091 220.554 56.1052C220.867 56.6995 221.331 57.4756 221.945 58.4335C222.721 59.6304 223.306 60.6561 223.699 61.5103C224.108 62.3472 224.298 63.2375 224.266 64.181C224.253 65.1401 223.865 66.0618 223.104 66.9461C222.403 67.7279 221.555 68.2368 220.56 68.4729C219.565 68.7089 218.504 68.6511 217.378 68.2995C216.284 67.9461 215.225 67.3099 214.2 66.3909Z" fill="white"/>
<path d="M236.984 65.6153L228.377 72.945C227.667 73.5501 227.289 74.1323 227.244 74.6915C227.217 75.2355 227.521 75.8806 228.157 76.6267L229.677 78.412L227.625 80.1594L225.765 77.9743C224.615 76.6242 224.063 75.3469 224.11 74.1424C224.157 72.9378 224.891 71.7304 226.312 70.5201L234.919 63.1904L233.308 61.2985L235.307 59.5966L236.918 61.4885L240.595 58.3569L242.66 60.7817L238.983 63.9133L242.228 67.7238L240.229 69.4257L236.984 65.6153Z" fill="white"/>
<path d="M248.712 71.3805C248.364 70.8835 248.241 70.3425 248.345 69.7576C248.448 69.1727 248.748 68.7063 249.245 68.3584C249.742 68.0106 250.283 67.8883 250.868 67.9916C251.453 68.0949 251.919 68.3951 252.267 68.8921C252.602 69.37 252.711 69.8919 252.594 70.4577C252.491 71.0426 252.191 71.509 251.694 71.8568C251.196 72.2047 250.655 72.327 250.071 72.2237C249.499 72.1395 249.046 71.8585 248.712 71.3805ZM247.042 74.4283L231.328 85.4256L229.502 82.8162L245.216 71.8189L247.042 74.4283Z" fill="white"/>
<path d="M237.446 96.2779C236.625 94.6798 236.242 93.0403 236.296 91.3596C236.362 89.6996 236.867 88.1549 237.811 86.7254C238.787 85.306 240.157 84.1432 241.922 83.237C243.665 82.3414 245.393 81.9261 247.105 81.991C248.849 82.0659 250.409 82.576 251.786 83.5211C253.185 84.4555 254.299 85.7322 255.131 87.3511C255.962 88.97 256.351 90.6199 256.296 92.3006C256.262 93.9706 255.773 95.5204 254.828 96.9499C253.894 98.4002 252.545 99.5784 250.781 100.485C249.017 101.391 247.258 101.796 245.504 101.7C243.781 101.615 242.215 101.094 240.806 100.139C239.397 99.1839 238.277 97.8969 237.446 96.2779ZM239.936 94.9986C240.459 96.0156 241.188 96.8478 242.124 97.495C243.059 98.1423 244.143 98.4905 245.375 98.5398C246.618 98.6097 247.924 98.2929 249.294 97.5893C250.664 96.8856 251.687 96.0188 252.365 94.9887C253.043 93.9587 253.386 92.8905 253.395 91.7842C253.424 90.6673 253.178 89.6003 252.655 88.5833C252.122 87.5456 251.393 86.7134 250.468 86.0869C249.574 85.4705 248.517 85.148 247.296 85.1196C246.074 85.0911 244.779 85.4287 243.409 86.1323C242.018 86.8466 240.974 87.6981 240.275 88.6866C239.586 89.6959 239.222 90.7486 239.182 91.8448C239.162 92.9303 239.414 93.9816 239.936 94.9986Z" fill="white"/>
<path d="M264.476 111.015C265.112 113.26 264.942 115.273 263.967 117.052C263.014 118.826 261.258 120.075 258.699 120.8L247.821 123.881L246.963 120.85L257.402 117.893C259.243 117.372 260.516 116.514 261.221 115.32C261.948 114.12 262.086 112.723 261.634 111.129C261.176 109.513 260.305 108.365 259.022 107.685C257.744 107.029 256.14 106.974 254.21 107.521L244.006 110.411L243.138 107.346L261.592 102.119L262.46 105.184L259.834 105.928C260.948 106.267 261.91 106.88 262.719 107.766C263.534 108.675 264.12 109.758 264.476 111.015Z" fill="white"/>
<path d="M272.952 128.757L255.552 130.661L255.205 128.024L272.504 125.356L272.952 128.757ZM248.353 130.409C248.273 129.808 248.414 129.271 248.776 128.8C249.137 128.329 249.619 128.054 250.22 127.974C250.822 127.895 251.358 128.036 251.83 128.398C252.301 128.759 252.576 129.241 252.655 129.842C252.732 130.421 252.587 130.934 252.223 131.382C251.861 131.853 251.38 132.129 250.778 132.208C250.177 132.287 249.64 132.146 249.169 131.784C248.701 131.446 248.429 130.988 248.353 130.409Z" fill="white"/>
</svg>
