<svg width="242" height="70" viewBox="0 0 242 70" fill="none" xmlns="http://www.w3.org/2000/svg">
<path fill-rule="evenodd" clip-rule="evenodd" d="M242 40.5L242 29.5L187.556 29.5L217.056 2.18064e-06L201.5 3.54062e-06L172 29.5L172 40.5L172.005 40.5L172.003 40.5025L201.5 70L217.056 70L187.556 40.5L242 40.5Z" fill="white"/>
<path fill-rule="evenodd" clip-rule="evenodd" d="M156 40.5L156 29.5L101.556 29.5L131.056 2.18064e-06L115.5 3.54062e-06L86 29.5L86 40.5L86.005 40.5L86.0025 40.5025L115.5 70L131.056 70L101.556 40.5L156 40.5Z" fill="white"/>
<path fill-rule="evenodd" clip-rule="evenodd" d="M70 40.5L70 29.5L15.5563 29.5L45.0563 2.18064e-06L29.5 3.54062e-06L-3.54062e-06 29.5L-2.57897e-06 40.5L0.00504808 40.5L0.00252275 40.5025L29.5 70L45.0563 70L15.5563 40.5L70 40.5Z" fill="white"/>
</svg>