<svg width="2500" height="1500" viewBox="0 0 2500 1500" fill="none" xmlns="http://www.w3.org/2000/svg">
<rect width="2500" height="1500" fill="#080808"/>
<path fill-rule="evenodd" clip-rule="evenodd" d="M1039 704.286C1039 767.404 987.833 818.571 924.714 818.571V714.286C924.714 708.763 920.237 704.286 914.714 704.286H810.429C810.429 641.167 861.596 590 924.714 590C987.833 590 1039 641.167 1039 704.286ZM649 704.286H810.429C810.429 767.404 861.596 818.571 924.714 818.571V884.762C924.714 890.285 920.237 894.762 914.714 894.762H649C643.477 894.762 639 890.285 639 884.762V714.286C639 708.763 643.477 704.286 649 704.286ZM1103.1 713.2H1139.7V724.3H1089.45V619.75H1103.1V713.2ZM1161.25 628.75C1158.65 628.75 1156.45 627.85 1154.65 626.05C1152.85 624.25 1151.95 622.05 1151.95 619.45C1151.95 616.85 1152.85 614.65 1154.65 612.85C1156.45 611.05 1158.65 610.15 1161.25 610.15C1163.75 610.15 1165.85 611.05 1167.55 612.85C1169.35 614.65 1170.25 616.85 1170.25 619.45C1170.25 622.05 1169.35 624.25 1167.55 626.05C1165.85 627.85 1163.75 628.75 1161.25 628.75ZM1167.85 642.1V724.3H1154.2V642.1H1167.85ZM1186.01 682.9C1186.01 674.5 1187.71 667.15 1191.11 660.85C1194.51 654.45 1199.16 649.5 1205.06 646C1211.06 642.5 1217.71 640.75 1225.01 640.75C1232.21 640.75 1238.46 642.3 1243.76 645.4C1249.06 648.5 1253.01 652.4 1255.61 657.1V642.1H1269.41V724.3H1255.61V709C1252.91 713.8 1248.86 717.8 1243.46 721C1238.16 724.1 1231.96 725.65 1224.86 725.65C1217.56 725.65 1210.96 723.85 1205.06 720.25C1199.16 716.65 1194.51 711.6 1191.11 705.1C1187.71 698.6 1186.01 691.2 1186.01 682.9ZM1255.61 683.05C1255.61 676.85 1254.36 671.45 1251.86 666.85C1249.36 662.25 1245.96 658.75 1241.66 656.35C1237.46 653.85 1232.81 652.6 1227.71 652.6C1222.61 652.6 1217.96 653.8 1213.76 656.2C1209.56 658.6 1206.21 662.1 1203.71 666.7C1201.21 671.3 1199.96 676.7 1199.96 682.9C1199.96 689.2 1201.21 694.7 1203.71 699.4C1206.21 704 1209.56 707.55 1213.76 710.05C1217.96 712.45 1222.61 713.65 1227.71 713.65C1232.81 713.65 1237.46 712.45 1241.66 710.05C1245.96 707.55 1249.36 704 1251.86 699.4C1254.36 694.7 1255.61 689.25 1255.61 683.05ZM1244.96 618.85L1213.01 635.95V625.75L1244.96 607V618.85ZM1332.53 640.6C1342.53 640.6 1350.63 643.65 1356.83 649.75C1363.03 655.75 1366.13 664.45 1366.13 675.85V724.3H1352.63V677.8C1352.63 669.6 1350.58 663.35 1346.48 659.05C1342.38 654.65 1336.78 652.45 1329.68 652.45C1322.48 652.45 1316.73 654.7 1312.43 659.2C1308.23 663.7 1306.13 670.25 1306.13 678.85V724.3H1292.48V642.1H1306.13V653.8C1308.83 649.6 1312.48 646.35 1317.08 644.05C1321.78 641.75 1326.93 640.6 1332.53 640.6ZM1422.32 640.75C1429.42 640.75 1435.62 642.3 1440.92 645.4C1446.32 648.5 1450.32 652.4 1452.92 657.1V642.1H1466.72V726.1C1466.72 733.6 1465.12 740.25 1461.92 746.05C1458.72 751.95 1454.12 756.55 1448.12 759.85C1442.22 763.15 1435.32 764.8 1427.42 764.8C1416.62 764.8 1407.62 762.25 1400.42 757.15C1393.22 752.05 1388.97 745.1 1387.67 736.3H1401.17C1402.67 741.3 1405.77 745.3 1410.47 748.3C1415.17 751.4 1420.82 752.95 1427.42 752.95C1434.92 752.95 1441.02 750.6 1445.72 745.9C1450.52 741.2 1452.92 734.6 1452.92 726.1V708.85C1450.22 713.65 1446.22 717.65 1440.92 720.85C1435.62 724.05 1429.42 725.65 1422.32 725.65C1415.02 725.65 1408.37 723.85 1402.37 720.25C1396.47 716.65 1391.82 711.6 1388.42 705.1C1385.02 698.6 1383.32 691.2 1383.32 682.9C1383.32 674.5 1385.02 667.15 1388.42 660.85C1391.82 654.45 1396.47 649.5 1402.37 646C1408.37 642.5 1415.02 640.75 1422.32 640.75ZM1452.92 683.05C1452.92 676.85 1451.67 671.45 1449.17 666.85C1446.67 662.25 1443.27 658.75 1438.97 656.35C1434.77 653.85 1430.12 652.6 1425.02 652.6C1419.92 652.6 1415.27 653.8 1411.07 656.2C1406.87 658.6 1403.52 662.1 1401.02 666.7C1398.52 671.3 1397.27 676.7 1397.27 682.9C1397.27 689.2 1398.52 694.7 1401.02 699.4C1403.52 704 1406.87 707.55 1411.07 710.05C1415.27 712.45 1419.92 713.65 1425.02 713.65C1430.12 713.65 1434.77 712.45 1438.97 710.05C1443.27 707.55 1446.67 704 1449.17 699.4C1451.67 694.7 1452.92 689.25 1452.92 683.05ZM1771.98 619.75H1787.13L1772.73 653.8H1763.13L1771.98 619.75ZM1831.79 725.65C1825.49 725.65 1819.84 724.6 1814.84 722.5C1809.84 720.3 1805.89 717.3 1802.99 713.5C1800.09 709.6 1798.49 705.15 1798.19 700.15H1812.29C1812.69 704.25 1814.59 707.6 1817.99 710.2C1821.49 712.8 1826.04 714.1 1831.64 714.1C1836.84 714.1 1840.94 712.95 1843.94 710.65C1846.94 708.35 1848.44 705.45 1848.44 701.95C1848.44 698.35 1846.84 695.7 1843.64 694C1840.44 692.2 1835.49 690.45 1828.79 688.75C1822.69 687.15 1817.69 685.55 1813.79 683.95C1809.99 682.25 1806.69 679.8 1803.89 676.6C1801.19 673.3 1799.84 669 1799.84 663.7C1799.84 659.5 1801.09 655.65 1803.59 652.15C1806.09 648.65 1809.64 645.9 1814.24 643.9C1818.84 641.8 1824.09 640.75 1829.99 640.75C1839.09 640.75 1846.44 643.05 1852.04 647.65C1857.64 652.25 1860.64 658.55 1861.04 666.55H1847.39C1847.09 662.25 1845.34 658.8 1842.14 656.2C1839.04 653.6 1834.84 652.3 1829.54 652.3C1824.64 652.3 1820.74 653.35 1817.84 655.45C1814.94 657.55 1813.49 660.3 1813.49 663.7C1813.49 666.4 1814.34 668.65 1816.04 670.45C1817.84 672.15 1820.04 673.55 1822.64 674.65C1825.34 675.65 1829.04 676.8 1833.74 678.1C1839.64 679.7 1844.44 681.3 1848.14 682.9C1851.84 684.4 1854.99 686.7 1857.59 689.8C1860.29 692.9 1861.69 696.95 1861.79 701.95C1861.79 706.45 1860.54 710.5 1858.04 714.1C1855.54 717.7 1851.99 720.55 1847.39 722.65C1842.89 724.65 1837.69 725.65 1831.79 725.65ZM1483.53 706.82V696.93L1522.17 641.5H1538.04V695.435H1548.74V706.82H1538.04V724.3H1525.16V706.82H1483.53ZM1525.74 654.84L1498.6 695.435H1525.74V654.84ZM1612.73 650.585L1580.76 724.3H1567.53L1599.85 651.965H1557.3V640.81H1612.73V650.585ZM1640.28 701.53C1641.05 705.363 1642.7 708.277 1645.23 710.27C1647.76 712.263 1651.17 713.26 1655.46 713.26C1660.9 713.26 1664.89 711.113 1667.42 706.82C1669.95 702.527 1671.22 695.205 1671.22 684.855C1669.38 687.462 1666.77 689.493 1663.4 690.95C1660.1 692.33 1656.5 693.02 1652.59 693.02C1647.6 693.02 1643.08 692.023 1639.02 690.03C1634.95 687.96 1631.73 684.932 1629.36 680.945C1627.06 676.882 1625.91 671.975 1625.91 666.225C1625.91 657.792 1628.36 651.083 1633.27 646.1C1638.25 641.04 1645.07 638.51 1653.74 638.51C1664.16 638.51 1671.56 641.998 1675.93 648.975C1680.38 655.875 1682.6 666.493 1682.6 680.83C1682.6 690.72 1681.76 698.808 1680.07 705.095C1678.46 711.382 1675.62 716.135 1671.56 719.355C1667.5 722.575 1661.86 724.185 1654.66 724.185C1646.45 724.185 1640.13 722.038 1635.68 717.745C1631.23 713.452 1628.74 708.047 1628.21 701.53H1640.28ZM1654.89 681.98C1659.49 681.98 1663.09 680.562 1665.7 677.725C1668.38 674.812 1669.72 670.978 1669.72 666.225C1669.72 660.935 1668.3 656.833 1665.47 653.92C1662.71 650.93 1658.91 649.435 1654.08 649.435C1649.25 649.435 1645.42 650.968 1642.58 654.035C1639.82 657.025 1638.44 660.973 1638.44 665.88C1638.44 670.557 1639.78 674.428 1642.47 677.495C1645.23 680.485 1649.37 681.98 1654.89 681.98ZM1696.72 661.165C1697.18 654.035 1699.9 648.477 1704.88 644.49C1709.94 640.503 1716.38 638.51 1724.2 638.51C1729.57 638.51 1734.21 639.468 1738.12 641.385C1742.03 643.302 1744.98 645.908 1746.97 649.205C1748.97 652.502 1749.96 656.22 1749.96 660.36C1749.96 665.113 1748.7 669.177 1746.17 672.55C1743.64 675.923 1740.61 678.185 1737.08 679.335V679.795C1741.61 681.175 1745.13 683.705 1747.66 687.385C1750.19 690.988 1751.46 695.627 1751.46 701.3C1751.46 705.823 1750.42 709.848 1748.35 713.375C1746.28 716.902 1743.22 719.7 1739.15 721.77C1735.09 723.763 1730.22 724.76 1724.55 724.76C1716.27 724.76 1709.45 722.652 1704.08 718.435C1698.79 714.142 1695.95 708.008 1695.57 700.035H1708.22C1708.53 704.098 1710.1 707.433 1712.93 710.04C1715.77 712.57 1719.6 713.835 1724.43 713.835C1729.11 713.835 1732.71 712.57 1735.24 710.04C1737.77 707.433 1739.04 704.098 1739.04 700.035C1739.04 694.668 1737.31 690.873 1733.86 688.65C1730.49 686.35 1725.28 685.2 1718.22 685.2H1715.23V674.39H1718.34C1724.55 674.313 1729.26 673.278 1732.48 671.285C1735.78 669.292 1737.43 666.148 1737.43 661.855C1737.43 658.175 1736.24 655.262 1733.86 653.115C1731.49 650.892 1728.11 649.78 1723.74 649.78C1719.45 649.78 1716.12 650.892 1713.74 653.115C1711.36 655.262 1709.94 657.945 1709.48 661.165H1696.72ZM1144.05 868L1119.15 825.25H1102.65V868H1089V763.45H1122.75C1130.65 763.45 1137.3 764.8 1142.7 767.5C1148.2 770.2 1152.3 773.85 1155 778.45C1157.7 783.05 1159.05 788.3 1159.05 794.2C1159.05 801.4 1156.95 807.75 1152.75 813.25C1148.65 818.75 1142.45 822.4 1134.15 824.2L1160.4 868H1144.05ZM1102.65 814.3H1122.75C1130.15 814.3 1135.7 812.5 1139.4 808.9C1143.1 805.2 1144.95 800.3 1144.95 794.2C1144.95 788 1143.1 783.2 1139.4 779.8C1135.8 776.4 1130.25 774.7 1122.75 774.7H1102.65V814.3ZM1255.26 823.75C1255.26 826.35 1255.11 829.1 1254.81 832H1189.11C1189.61 840.1 1192.36 846.45 1197.36 851.05C1202.46 855.55 1208.61 857.8 1215.81 857.8C1221.71 857.8 1226.61 856.45 1230.51 853.75C1234.51 850.95 1237.31 847.25 1238.91 842.65H1253.61C1251.41 850.55 1247.01 857 1240.41 862C1233.81 866.9 1225.61 869.35 1215.81 869.35C1208.01 869.35 1201.01 867.6 1194.81 864.1C1188.71 860.6 1183.91 855.65 1180.41 849.25C1176.91 842.75 1175.16 835.25 1175.16 826.75C1175.16 818.25 1176.86 810.8 1180.26 804.4C1183.66 798 1188.41 793.1 1194.51 789.7C1200.71 786.2 1207.81 784.45 1215.81 784.45C1223.61 784.45 1230.51 786.15 1236.51 789.55C1242.51 792.95 1247.11 797.65 1250.31 803.65C1253.61 809.55 1255.26 816.25 1255.26 823.75ZM1241.16 820.9C1241.16 815.7 1240.01 811.25 1237.71 807.55C1235.41 803.75 1232.26 800.9 1228.26 799C1224.36 797 1220.01 796 1215.21 796C1208.31 796 1202.41 798.2 1197.51 802.6C1192.71 807 1189.96 813.1 1189.26 820.9H1241.16ZM1286.93 800.95C1289.63 796.25 1293.63 792.35 1298.93 789.25C1304.33 786.05 1310.58 784.45 1317.68 784.45C1324.98 784.45 1331.58 786.2 1337.48 789.7C1343.48 793.2 1348.18 798.15 1351.58 804.55C1354.98 810.85 1356.68 818.2 1356.68 826.6C1356.68 834.9 1354.98 842.3 1351.58 848.8C1348.18 855.3 1343.48 860.35 1337.48 863.95C1331.58 867.55 1324.98 869.35 1317.68 869.35C1310.68 869.35 1304.48 867.8 1299.08 864.7C1293.78 861.5 1289.73 857.55 1286.93 852.85V907H1273.28V785.8H1286.93V800.95ZM1342.73 826.6C1342.73 820.4 1341.48 815 1338.98 810.4C1336.48 805.8 1333.08 802.3 1328.78 799.9C1324.58 797.5 1319.93 796.3 1314.83 796.3C1309.83 796.3 1305.18 797.55 1300.88 800.05C1296.68 802.45 1293.28 806 1290.68 810.7C1288.18 815.3 1286.93 820.65 1286.93 826.75C1286.93 832.95 1288.18 838.4 1290.68 843.1C1293.28 847.7 1296.68 851.25 1300.88 853.75C1305.18 856.15 1309.83 857.35 1314.83 857.35C1319.93 857.35 1324.58 856.15 1328.78 853.75C1333.08 851.25 1336.48 847.7 1338.98 843.1C1341.48 838.4 1342.73 832.9 1342.73 826.6ZM1410.49 869.35C1402.79 869.35 1395.79 867.6 1389.49 864.1C1383.29 860.6 1378.39 855.65 1374.79 849.25C1371.29 842.75 1369.54 835.25 1369.54 826.75C1369.54 818.35 1371.34 810.95 1374.94 804.55C1378.64 798.05 1383.64 793.1 1389.94 789.7C1396.24 786.2 1403.29 784.45 1411.09 784.45C1418.89 784.45 1425.94 786.2 1432.24 789.7C1438.54 793.1 1443.49 798 1447.09 804.4C1450.79 810.8 1452.64 818.25 1452.64 826.75C1452.64 835.25 1450.74 842.75 1446.94 849.25C1443.24 855.65 1438.19 860.6 1431.79 864.1C1425.39 867.6 1418.29 869.35 1410.49 869.35ZM1410.49 857.35C1415.39 857.35 1419.99 856.2 1424.29 853.9C1428.59 851.6 1432.04 848.15 1434.64 843.55C1437.34 838.95 1438.69 833.35 1438.69 826.75C1438.69 820.15 1437.39 814.55 1434.79 809.95C1432.19 805.35 1428.79 801.95 1424.59 799.75C1420.39 797.45 1415.84 796.3 1410.94 796.3C1405.94 796.3 1401.34 797.45 1397.14 799.75C1393.04 801.95 1389.74 805.35 1387.24 809.95C1384.74 814.55 1383.49 820.15 1383.49 826.75C1383.49 833.45 1384.69 839.1 1387.09 843.7C1389.59 848.3 1392.89 851.75 1396.99 854.05C1401.09 856.25 1405.59 857.35 1410.49 857.35ZM1499.69 869.35C1493.39 869.35 1487.74 868.3 1482.74 866.2C1477.74 864 1473.79 861 1470.89 857.2C1467.99 853.3 1466.39 848.85 1466.09 843.85H1480.19C1480.59 847.95 1482.49 851.3 1485.89 853.9C1489.39 856.5 1493.94 857.8 1499.54 857.8C1504.74 857.8 1508.84 856.65 1511.84 854.35C1514.84 852.05 1516.34 849.15 1516.34 845.65C1516.34 842.05 1514.74 839.4 1511.54 837.7C1508.34 835.9 1503.39 834.15 1496.69 832.45C1490.59 830.85 1485.59 829.25 1481.69 827.65C1477.89 825.95 1474.59 823.5 1471.79 820.3C1469.09 817 1467.74 812.7 1467.74 807.4C1467.74 803.2 1468.99 799.35 1471.49 795.85C1473.99 792.35 1477.54 789.6 1482.14 787.6C1486.74 785.5 1491.99 784.45 1497.89 784.45C1506.99 784.45 1514.34 786.75 1519.94 791.35C1525.54 795.95 1528.54 802.25 1528.94 810.25H1515.29C1514.99 805.95 1513.24 802.5 1510.04 799.9C1506.94 797.3 1502.74 796 1497.44 796C1492.54 796 1488.64 797.05 1485.74 799.15C1482.84 801.25 1481.39 804 1481.39 807.4C1481.39 810.1 1482.24 812.35 1483.94 814.15C1485.74 815.85 1487.94 817.25 1490.54 818.35C1493.24 819.35 1496.94 820.5 1501.64 821.8C1507.54 823.4 1512.34 825 1516.04 826.6C1519.74 828.1 1522.89 830.4 1525.49 833.5C1528.19 836.6 1529.59 840.65 1529.69 845.65C1529.69 850.15 1528.44 854.2 1525.94 857.8C1523.44 861.4 1519.89 864.25 1515.29 866.35C1510.79 868.35 1505.59 869.35 1499.69 869.35ZM1556.01 772.45C1553.41 772.45 1551.21 771.55 1549.41 769.75C1547.61 767.95 1546.71 765.75 1546.71 763.15C1546.71 760.55 1547.61 758.35 1549.41 756.55C1551.21 754.75 1553.41 753.85 1556.01 753.85C1558.51 753.85 1560.61 754.75 1562.31 756.55C1564.11 758.35 1565.01 760.55 1565.01 763.15C1565.01 765.75 1564.11 767.95 1562.31 769.75C1560.61 771.55 1558.51 772.45 1556.01 772.45ZM1562.61 785.8V868H1548.96V785.8H1562.61ZM1602.53 797.05V845.5C1602.53 849.5 1603.38 852.35 1605.08 854.05C1606.78 855.65 1609.73 856.45 1613.92 856.45H1623.98V868H1611.67C1604.08 868 1598.38 866.25 1594.58 862.75C1590.78 859.25 1588.88 853.5 1588.88 845.5V797.05H1578.22V785.8H1588.88V765.1H1602.53V785.8H1623.98V797.05H1602.53ZM1676.36 869.35C1668.66 869.35 1661.66 867.6 1655.36 864.1C1649.16 860.6 1644.26 855.65 1640.66 849.25C1637.16 842.75 1635.41 835.25 1635.41 826.75C1635.41 818.35 1637.21 810.95 1640.81 804.55C1644.51 798.05 1649.51 793.1 1655.81 789.7C1662.11 786.2 1669.16 784.45 1676.96 784.45C1684.76 784.45 1691.81 786.2 1698.11 789.7C1704.41 793.1 1709.36 798 1712.96 804.4C1716.66 810.8 1718.51 818.25 1718.51 826.75C1718.51 835.25 1716.61 842.75 1712.81 849.25C1709.11 855.65 1704.06 860.6 1697.66 864.1C1691.26 867.6 1684.16 869.35 1676.36 869.35ZM1676.36 857.35C1681.26 857.35 1685.86 856.2 1690.16 853.9C1694.46 851.6 1697.91 848.15 1700.51 843.55C1703.21 838.95 1704.56 833.35 1704.56 826.75C1704.56 820.15 1703.26 814.55 1700.66 809.95C1698.06 805.35 1694.66 801.95 1690.46 799.75C1686.26 797.45 1681.71 796.3 1676.81 796.3C1671.81 796.3 1667.21 797.45 1663.01 799.75C1658.91 801.95 1655.61 805.35 1653.11 809.95C1650.61 814.55 1649.36 820.15 1649.36 826.75C1649.36 833.45 1650.56 839.1 1652.96 843.7C1655.46 848.3 1658.76 851.75 1662.86 854.05C1666.96 856.25 1671.46 857.35 1676.36 857.35ZM1750.11 799.15C1752.51 794.45 1755.91 790.8 1760.31 788.2C1764.81 785.6 1770.26 784.3 1776.66 784.3V798.4H1773.06C1757.76 798.4 1750.11 806.7 1750.11 823.3V868H1736.46V785.8H1750.11V799.15ZM1863.22 785.8L1813.72 906.7H1799.62L1815.82 867.1L1782.67 785.8H1797.82L1823.62 852.4L1849.12 785.8H1863.22Z" fill="white"/>
<rect x="539" y="705" width="20" height="190" fill="#FA6400"/>
<rect x="1922" y="590" width="20" height="385" fill="#FA6400"/>
<rect x="1054" y="975" width="20" height="928" transform="rotate(-90 1054 975)" fill="#FA6400"/>
<rect x="1054" y="935" width="20" height="40" fill="#FA6400"/>
<rect x="1942" y="590" width="20" height="40" transform="rotate(90 1942 590)" fill="#FA6400"/>
<rect x="925" y="955" width="20" height="286" transform="rotate(90 925 955)" fill="#FA6400"/>
<rect x="1039" y="510" width="20" height="229" transform="rotate(90 1039 510)" fill="#FA6400"/>
<rect x="443" y="361" width="20" height="79" transform="rotate(90 443 361)" fill="#FA6400"/>
<rect x="1752" y="510" width="20" height="270" transform="rotate(90 1752 510)" fill="#FA6400"/>
<rect x="539" y="705" width="40" height="20" fill="#FA6400"/>
<rect x="659" y="935" width="40" height="20" transform="rotate(90 659 935)" fill="#FA6400"/>
<rect x="830" y="510" width="40" height="20" transform="rotate(90 830 510)" fill="#FA6400"/>
<rect x="1502" y="510" width="40" height="20" transform="rotate(90 1502 510)" fill="#FA6400"/>
<rect x="925" y="935" width="40" height="20" transform="rotate(90 925 935)" fill="#FA6400"/>
<rect x="1039" y="510" width="40" height="20" transform="rotate(90 1039 510)" fill="#FA6400"/>
<rect x="1752" y="510" width="40" height="20" transform="rotate(90 1752 510)" fill="#FA6400"/>
<rect x="499" y="790" width="60" height="20" fill="#FA6400"/>
<rect x="792" y="955" width="60" height="20" transform="rotate(90 792 955)" fill="#FA6400"/>
<rect x="935" y="470" width="60" height="20" transform="rotate(90 935 470)" fill="#FA6400"/>
<rect x="1627" y="470" width="60" height="20" transform="rotate(90 1627 470)" fill="#FA6400"/>
<rect x="539" y="875" width="40" height="20" fill="#FA6400"/>
<path d="M182.5 854V841.7H212.2V755.75L182.5 777.95V762.95L207.25 744.5H225.7V841.7H250V854H182.5ZM286.091 839.9L275.291 832.4L283.391 820.7C284.691 818.8 286.241 816.95 288.041 815.15C289.841 813.25 291.641 811.5 293.441 809.9C295.341 808.2 296.991 806.75 298.391 805.55L297.941 804.5C296.041 804.3 293.891 804.1 291.491 803.9C289.091 803.6 286.641 803.2 284.141 802.7C281.741 802.1 279.491 801.45 277.391 800.75L264.191 795.95L268.691 783.5L281.891 788.3C283.991 789 286.141 790 288.341 791.3C290.641 792.5 292.841 793.8 294.941 795.2C297.041 796.5 298.841 797.75 300.341 798.95L301.091 798.35C300.591 796.45 300.041 794.3 299.441 791.9C298.841 789.4 298.341 786.85 297.941 784.25C297.541 781.55 297.341 779.05 297.341 776.75V762.5H310.541V776.75C310.541 779.05 310.341 781.55 309.941 784.25C309.541 786.85 309.041 789.4 308.441 791.9C307.841 794.3 307.241 796.45 306.641 798.35L307.391 798.95C308.991 797.75 310.791 796.5 312.791 795.2C314.891 793.8 317.041 792.5 319.241 791.3C321.541 790 323.741 789 325.841 788.3L339.191 783.5L343.691 795.95L330.341 800.75C328.341 801.45 326.091 802.1 323.591 802.7C321.191 803.2 318.791 803.6 316.391 803.9C313.991 804.1 311.841 804.3 309.941 804.5L309.341 805.7C310.841 806.9 312.491 808.35 314.291 810.05C316.191 811.65 317.991 813.4 319.691 815.3C321.491 817.1 322.991 818.9 324.191 820.7L332.441 832.4L321.641 839.9L313.391 828.2C312.191 826.4 310.991 824.35 309.791 822.05C308.691 819.75 307.641 817.45 306.641 815.15C305.741 812.85 304.991 810.8 304.391 809H303.341C302.741 810.8 301.941 812.85 300.941 815.15C300.041 817.45 298.991 819.75 297.791 822.05C296.691 824.35 295.491 826.4 294.191 828.2L286.091 839.9ZM362.683 854V744.5H376.183V791.45H392.383L416.683 744.5H431.383L404.233 797.15L432.883 854H417.433L391.933 803.3H376.183V854H362.683Z" fill="#FA6400"/>
<path d="M236.05 430.1C203.35 430.1 176.65 403.55 176.65 370.7C176.65 337.85 203.35 311.3 236.05 311.3C268.9 311.3 295.45 337.85 295.45 370.7C295.45 403.55 268.9 430.1 236.05 430.1ZM236.05 419.75C263.2 419.75 285.1 397.85 285.1 370.7C285.1 343.55 263.2 321.65 236.05 321.65C208.9 321.65 187 343.55 187 370.7C187 397.85 208.9 419.75 236.05 419.75ZM236.05 384.05C228.7 384.05 222.7 378.05 222.7 370.7C222.7 363.35 228.7 357.35 236.05 357.35C243.4 357.35 249.4 363.35 249.4 370.7C249.4 378.05 243.4 384.05 236.05 384.05Z" fill="#FA6400"/>
<path d="M2049.5 1019L2078 909.5H2096.15L2124.5 1019H2110.85L2103.65 989.9H2070.5L2063.3 1019H2049.5ZM2073.2 978.5H2100.8L2092.4 944.75C2090.8 938.35 2089.55 933 2088.65 928.7C2087.75 924.4 2087.2 921.6 2087 920.3C2086.8 921.6 2086.25 924.4 2085.35 928.7C2084.45 933 2083.2 938.3 2081.6 944.6L2073.2 978.5ZM2149.19 1019V909.5H2162.69V1006.7H2212.19V1019H2149.19ZM2237.63 1019V1006.7H2259.98V921.8H2237.63V909.5H2296.13V921.8H2273.78V1006.7H2296.13V1019H2237.63ZM2332.82 975.5V963.5H2380.82V975.5H2332.82Z" fill="#FA6400"/>
<path d="M1513.6 426.5C1506.4 426.5 1500.2 425.3 1495 422.9C1489.9 420.5 1485.95 417.05 1483.15 412.55C1480.35 408.05 1478.9 402.7 1478.8 396.5H1492.3C1492.3 402 1494.15 406.35 1497.85 409.55C1501.65 412.75 1506.9 414.35 1513.6 414.35C1519.9 414.35 1524.8 412.8 1528.3 409.7C1531.9 406.6 1533.7 402.3 1533.7 396.8C1533.7 392.4 1532.5 388.55 1530.1 385.25C1527.8 381.95 1524.45 379.65 1520.05 378.35L1505.2 373.7C1497.7 371.4 1491.9 367.55 1487.8 362.15C1483.8 356.75 1481.8 350.4 1481.8 343.1C1481.8 337.2 1483.1 332.1 1485.7 327.8C1488.4 323.4 1492.15 320 1496.95 317.6C1501.75 315.1 1507.4 313.85 1513.9 313.85C1523.5 313.85 1531.2 316.55 1537 321.95C1542.8 327.25 1545.75 334.35 1545.85 343.25H1532.35C1532.35 337.85 1530.7 333.65 1527.4 330.65C1524.2 327.55 1519.65 326 1513.75 326C1507.95 326 1503.4 327.4 1500.1 330.2C1496.9 333 1495.3 336.9 1495.3 341.9C1495.3 346.4 1496.5 350.3 1498.9 353.6C1501.3 356.9 1504.75 359.25 1509.25 360.65L1524.25 365.45C1531.55 367.75 1537.2 371.65 1541.2 377.15C1545.2 382.65 1547.2 389.1 1547.2 396.5C1547.2 402.5 1545.8 407.75 1543 412.25C1540.2 416.75 1536.25 420.25 1531.15 422.75C1526.15 425.25 1520.3 426.5 1513.6 426.5ZM1569.34 425V315.5H1587.04L1598.44 350.9C1599.54 354.1 1600.54 357.3 1601.44 360.5C1602.34 363.6 1602.99 366 1603.39 367.7C1603.89 366 1604.54 363.6 1605.34 360.5C1606.14 357.3 1607.04 354.05 1608.04 350.75L1618.84 315.5H1636.54V425H1623.34V385.25C1623.34 380.85 1623.49 375.85 1623.79 370.25C1624.09 364.65 1624.49 358.95 1624.99 353.15C1625.49 347.25 1625.99 341.65 1626.49 336.35C1627.09 330.95 1627.59 326.25 1627.99 322.25L1610.29 377H1596.04L1578.19 322.25C1578.69 326.15 1579.19 330.7 1579.69 335.9C1580.19 341 1580.64 346.45 1581.04 352.25C1581.44 357.95 1581.79 363.65 1582.09 369.35C1582.39 375.05 1582.54 380.35 1582.54 385.25V425H1569.34ZM1655.38 425L1683.88 315.5H1702.03L1730.38 425H1716.73L1709.53 395.9H1676.38L1669.18 425H1655.38ZM1679.08 384.5H1706.68L1698.28 350.75C1696.68 344.35 1695.43 339 1694.53 334.7C1693.63 330.4 1693.08 327.6 1692.88 326.3C1692.68 327.6 1692.13 330.4 1691.23 334.7C1690.33 339 1689.08 344.3 1687.48 350.6L1679.08 384.5ZM1755.07 425V315.5H1768.57V412.7H1818.07V425H1755.07ZM1845.02 425V315.5H1858.52V412.7H1908.02V425H1845.02ZM1932.71 425V315.5H1995.71V327.8H1946.06V361.7H1990.46V373.85H1946.06V412.7H1995.71V425H1932.71ZM2021.45 425V315.5H2055.35C2061.85 315.5 2067.55 316.85 2072.45 319.55C2077.35 322.15 2081.15 325.8 2083.85 330.5C2086.55 335.2 2087.9 340.7 2087.9 347C2087.9 354.4 2085.95 360.75 2082.05 366.05C2078.25 371.35 2073.05 375 2066.45 377L2089.4 425H2073.5L2052.5 378.5H2034.95V425H2021.45ZM2034.95 366.35H2055.35C2060.95 366.35 2065.45 364.6 2068.85 361.1C2072.25 357.5 2073.95 352.8 2073.95 347C2073.95 341.1 2072.25 336.4 2068.85 332.9C2065.45 329.4 2060.95 327.65 2055.35 327.65H2034.95V366.35Z" fill="#FA6400"/>
<path d="M2087.6 1169.5C2081 1169.5 2075.25 1168.25 2070.35 1165.75C2065.55 1163.25 2061.8 1159.65 2059.1 1154.95C2056.5 1150.15 2055.2 1144.5 2055.2 1138V1088.5C2055.2 1081.9 2056.5 1076.25 2059.1 1071.55C2061.8 1066.85 2065.55 1063.25 2070.35 1060.75C2075.25 1058.25 2081 1057 2087.6 1057C2094.2 1057 2099.9 1058.3 2104.7 1060.9C2109.5 1063.4 2113.2 1067 2115.8 1071.7C2118.4 1076.4 2119.7 1082 2119.7 1088.5H2106.2C2106.2 1082.3 2104.55 1077.55 2101.25 1074.25C2098.05 1070.85 2093.5 1069.15 2087.6 1069.15C2081.7 1069.15 2077.05 1070.8 2073.65 1074.1C2070.35 1077.4 2068.7 1082.15 2068.7 1088.35V1138C2068.7 1144.2 2070.35 1149 2073.65 1152.4C2077.05 1155.8 2081.7 1157.5 2087.6 1157.5C2093.5 1157.5 2098.05 1155.8 2101.25 1152.4C2104.55 1149 2106.2 1144.2 2106.2 1138V1124.5H2084V1112.2H2119.7V1138C2119.7 1144.4 2118.4 1150 2115.8 1154.8C2113.2 1159.5 2109.5 1163.15 2104.7 1165.75C2099.9 1168.25 2094.2 1169.5 2087.6 1169.5ZM2145.44 1168V1058.5H2163.44L2196.89 1152.25C2196.69 1149.75 2196.44 1146.7 2196.14 1143.1C2195.94 1139.4 2195.74 1135.55 2195.54 1131.55C2195.44 1127.45 2195.39 1123.6 2195.39 1120V1058.5H2208.44V1168H2190.44L2157.14 1074.25C2157.34 1076.65 2157.54 1079.7 2157.74 1083.4C2157.94 1087 2158.09 1090.85 2158.19 1094.95C2158.39 1098.95 2158.49 1102.8 2158.49 1106.5V1168H2145.44ZM2236.88 1168V1058.5H2299.88V1070.8H2250.23V1104.7H2294.63V1116.85H2250.23V1155.7H2299.88V1168H2236.88ZM2325.62 1168V1058.5H2353.97C2361.07 1058.5 2367.17 1059.85 2372.27 1062.55C2377.47 1065.25 2381.47 1069.05 2384.27 1073.95C2387.17 1078.85 2388.62 1084.65 2388.62 1091.35V1135C2388.62 1141.7 2387.17 1147.55 2384.27 1152.55C2381.47 1157.45 2377.47 1161.25 2372.27 1163.95C2367.17 1166.65 2361.07 1168 2353.97 1168H2325.62ZM2339.12 1156H2353.97C2360.57 1156 2365.72 1154.15 2369.42 1150.45C2373.22 1146.75 2375.12 1141.6 2375.12 1135V1091.35C2375.12 1084.85 2373.22 1079.75 2369.42 1076.05C2365.72 1072.35 2360.57 1070.5 2353.97 1070.5H2339.12V1156Z" fill="#FA6400"/>
<path d="M570.5 1168V1155.7H600.2V1069.75L570.5 1091.95V1076.95L595.25 1058.5H613.7V1155.7H638V1168H570.5ZM691.941 1169.5C688.141 1169.5 685.091 1168.4 682.791 1166.2C680.591 1164 679.491 1161.05 679.491 1157.35C679.491 1153.45 680.591 1150.35 682.791 1148.05C685.091 1145.75 688.141 1144.6 691.941 1144.6C695.741 1144.6 698.741 1145.75 700.941 1148.05C703.241 1150.35 704.391 1153.45 704.391 1157.35C704.391 1161.05 703.241 1164 700.941 1166.2C698.741 1168.4 695.741 1169.5 691.941 1169.5ZM781.583 1169.5C772.683 1169.5 765.383 1167.2 759.683 1162.6C753.983 1158 750.633 1151.8 749.633 1144H763.133C763.633 1148.3 765.483 1151.65 768.683 1154.05C771.883 1156.35 776.233 1157.5 781.733 1157.5C788.033 1157.5 792.733 1155.8 795.833 1152.4C799.033 1149 800.633 1144.2 800.633 1138V1127.35C800.633 1121.15 799.033 1116.35 795.833 1112.95C792.733 1109.55 788.083 1107.85 781.883 1107.85C777.983 1107.85 774.583 1108.9 771.683 1111C768.783 1113 766.683 1115.7 765.383 1119.1H751.883L752.633 1058.5H810.233V1070.8H765.683L765.233 1107.25H769.433L765.233 1111.15C765.233 1106.45 767.083 1102.75 770.783 1100.05C774.583 1097.35 779.633 1096 785.933 1096C794.833 1095.9 801.733 1098.65 806.633 1104.25C811.633 1109.75 814.133 1117.45 814.133 1127.35V1138C814.133 1147.7 811.283 1155.4 805.583 1161.1C799.883 1166.7 791.883 1169.5 781.583 1169.5ZM853.974 1153.9L843.174 1146.4L851.274 1134.7C852.574 1132.8 854.124 1130.95 855.924 1129.15C857.724 1127.25 859.524 1125.5 861.324 1123.9C863.224 1122.2 864.874 1120.75 866.274 1119.55L865.824 1118.5C863.924 1118.3 861.774 1118.1 859.374 1117.9C856.974 1117.6 854.524 1117.2 852.024 1116.7C849.624 1116.1 847.374 1115.45 845.274 1114.75L832.074 1109.95L836.574 1097.5L849.774 1102.3C851.874 1103 854.024 1104 856.224 1105.3C858.524 1106.5 860.724 1107.8 862.824 1109.2C864.924 1110.5 866.724 1111.75 868.224 1112.95L868.974 1112.35C868.474 1110.45 867.924 1108.3 867.324 1105.9C866.724 1103.4 866.224 1100.85 865.824 1098.25C865.424 1095.55 865.224 1093.05 865.224 1090.75V1076.5H878.424V1090.75C878.424 1093.05 878.224 1095.55 877.824 1098.25C877.424 1100.85 876.924 1103.4 876.324 1105.9C875.724 1108.3 875.124 1110.45 874.524 1112.35L875.274 1112.95C876.874 1111.75 878.674 1110.5 880.674 1109.2C882.774 1107.8 884.924 1106.5 887.124 1105.3C889.424 1104 891.624 1103 893.724 1102.3L907.074 1097.5L911.574 1109.95L898.224 1114.75C896.224 1115.45 893.974 1116.1 891.474 1116.7C889.074 1117.2 886.674 1117.6 884.274 1117.9C881.874 1118.1 879.724 1118.3 877.824 1118.5L877.224 1119.7C878.724 1120.9 880.374 1122.35 882.174 1124.05C884.074 1125.65 885.874 1127.4 887.574 1129.3C889.374 1131.1 890.874 1132.9 892.074 1134.7L900.324 1146.4L889.524 1153.9L881.274 1142.2C880.074 1140.4 878.874 1138.35 877.674 1136.05C876.574 1133.75 875.524 1131.45 874.524 1129.15C873.624 1126.85 872.874 1124.8 872.274 1123H871.224C870.624 1124.8 869.824 1126.85 868.824 1129.15C867.924 1131.45 866.874 1133.75 865.674 1136.05C864.574 1138.35 863.374 1140.4 862.074 1142.2L853.974 1153.9ZM930.566 1168V1058.5H944.066V1105.45H960.266L984.566 1058.5H999.266L972.116 1111.15L1000.77 1168H985.316L959.816 1117.3H944.066V1168H930.566Z" fill="#FA6400"/>
<path d="M712.5 425V412.7H742.2V326.75L712.5 348.95V333.95L737.25 315.5H755.7V412.7H780V425H712.5ZM833.941 426.5C830.141 426.5 827.091 425.4 824.791 423.2C822.591 421 821.491 418.05 821.491 414.35C821.491 410.45 822.591 407.35 824.791 405.05C827.091 402.75 830.141 401.6 833.941 401.6C837.741 401.6 840.741 402.75 842.941 405.05C845.241 407.35 846.391 410.45 846.391 414.35C846.391 418.05 845.241 421 842.941 423.2C840.741 425.4 837.741 426.5 833.941 426.5ZM892.683 425V411.2L926.133 375.65C931.833 369.55 935.983 364.15 938.583 359.45C941.183 354.65 942.483 350.05 942.483 345.65C942.483 339.55 940.783 334.75 937.383 331.25C934.083 327.75 929.533 326 923.733 326C917.333 326 912.283 327.8 908.583 331.4C904.983 335 903.183 339.95 903.183 346.25H889.683C889.883 339.65 891.383 333.95 894.183 329.15C897.083 324.25 901.033 320.5 906.033 317.9C911.133 315.3 917.033 314 923.733 314C930.333 314 936.033 315.3 940.833 317.9C945.733 320.4 949.483 324 952.083 328.7C954.683 333.4 955.983 339 955.983 345.5C955.983 351.7 954.333 357.85 951.033 363.95C947.733 370.05 942.333 377 934.833 384.8L907.833 412.7H957.783V425H892.683ZM995.974 410.9L985.174 403.4L993.274 391.7C994.574 389.8 996.124 387.95 997.924 386.15C999.724 384.25 1001.52 382.5 1003.32 380.9C1005.22 379.2 1006.87 377.75 1008.27 376.55L1007.82 375.5C1005.92 375.3 1003.77 375.1 1001.37 374.9C998.974 374.6 996.524 374.2 994.024 373.7C991.624 373.1 989.374 372.45 987.274 371.75L974.074 366.95L978.574 354.5L991.774 359.3C993.874 360 996.024 361 998.224 362.3C1000.52 363.5 1002.72 364.8 1004.82 366.2C1006.92 367.5 1008.72 368.75 1010.22 369.95L1010.97 369.35C1010.47 367.45 1009.92 365.3 1009.32 362.9C1008.72 360.4 1008.22 357.85 1007.82 355.25C1007.42 352.55 1007.22 350.05 1007.22 347.75V333.5H1020.42V347.75C1020.42 350.05 1020.22 352.55 1019.82 355.25C1019.42 357.85 1018.92 360.4 1018.32 362.9C1017.72 365.3 1017.12 367.45 1016.52 369.35L1017.27 369.95C1018.87 368.75 1020.67 367.5 1022.67 366.2C1024.77 364.8 1026.92 363.5 1029.12 362.3C1031.42 361 1033.62 360 1035.72 359.3L1049.07 354.5L1053.57 366.95L1040.22 371.75C1038.22 372.45 1035.97 373.1 1033.47 373.7C1031.07 374.2 1028.67 374.6 1026.27 374.9C1023.87 375.1 1021.72 375.3 1019.82 375.5L1019.22 376.7C1020.72 377.9 1022.37 379.35 1024.17 381.05C1026.07 382.65 1027.87 384.4 1029.57 386.3C1031.37 388.1 1032.87 389.9 1034.07 391.7L1042.32 403.4L1031.52 410.9L1023.27 399.2C1022.07 397.4 1020.87 395.35 1019.67 393.05C1018.57 390.75 1017.52 388.45 1016.52 386.15C1015.62 383.85 1014.87 381.8 1014.27 380H1013.22C1012.62 381.8 1011.82 383.85 1010.82 386.15C1009.92 388.45 1008.87 390.75 1007.67 393.05C1006.57 395.35 1005.37 397.4 1004.07 399.2L995.974 410.9ZM1072.57 425V315.5H1086.07V362.45H1102.27L1126.57 315.5H1141.27L1114.12 368.15L1142.77 425H1127.32L1101.82 374.3H1086.07V425H1072.57Z" fill="#FA6400"/>
<rect x="791.158" y="604.545" width="20" height="424.772" transform="rotate(125 791.158 604.545)" fill="#FA6400"/>
</svg>
