<svg width="76" height="419" viewBox="0 0 76 419" fill="none" xmlns="http://www.w3.org/2000/svg">
<path d="M0 -3.36578e-06L75.52 -6.46927e-08L75.52 7.68L-3.35703e-07 7.68L0 -3.36578e-06ZM-8.39259e-07 19.2L75.52 19.2L75.52 23.04L-1.00711e-06 23.04L-8.39259e-07 19.2ZM-1.17496e-06 26.88L75.52 26.88L75.52 38.4L-1.67852e-06 38.4L-1.17496e-06 26.88ZM-1.84681e-06 42.25L75.52 42.25L75.52 46.09L-2.01466e-06 46.09L-1.84681e-06 42.25ZM-2.18251e-06 49.93L75.52 49.93L75.52 57.61L-2.51821e-06 57.61L-2.18251e-06 49.93ZM-2.85392e-06 65.29L75.52 65.29L75.52 69.13L-3.02177e-06 69.13L-2.85392e-06 65.29ZM-3.69361e-06 84.5L75.52 84.5L75.52 88.34L-3.86146e-06 88.34L-3.69361e-06 84.5ZM-4.02932e-06 92.18L75.52 92.18L75.52 96.02L-4.19717e-06 96.02L-4.02932e-06 92.18ZM-4.53287e-06 103.7L75.52 103.7L75.52 119.06L-5.20428e-06 119.06L-4.53287e-06 103.7ZM-5.54042e-06 126.75L75.52 126.75L75.52 130.59L-5.70827e-06 130.59L-5.54042e-06 126.75ZM-6.21183e-06 142.11L75.52 142.11L75.52 157.47L-6.88323e-06 157.47L-6.21183e-06 142.11ZM-7.05108e-06 161.31L75.52 161.31L75.52 165.15L-7.21894e-06 165.15L-7.05108e-06 161.31ZM-7.38722e-06 169L75.52 169L75.52 172.84L-7.55508e-06 172.84L-7.38722e-06 169ZM-7.72293e-06 176.68L75.52 176.68L75.52 192.04L-8.39434e-06 192.04L-7.72293e-06 176.68ZM-8.73004e-06 199.72L75.52 199.72L75.52 203.56L-8.89789e-06 203.56L-8.73004e-06 199.72ZM-9.23403e-06 211.25L75.52 211.25L75.52 215.09L-9.40188e-06 215.09L-9.23403e-06 211.25ZM-1.00733e-05 230.45L75.52 230.45L75.52 238.13L-1.0409e-05 238.13L-1.00733e-05 230.45ZM-1.05768e-05 241.97L75.52 241.97L75.52 245.81L-1.07447e-05 245.81L-1.05768e-05 241.97ZM-1.10808e-05 253.5L75.52 253.5L75.52 257.34L-1.12487e-05 257.34L-1.10808e-05 253.5ZM-1.15844e-05 265.02L75.52 265.02L75.52 280.38L-1.22558e-05 280.38L-1.15844e-05 265.02ZM-1.24237e-05 284.22L75.52 284.22L75.52 288.06L-1.25915e-05 288.06L-1.24237e-05 284.22ZM-1.29276e-05 295.75L75.52 295.75L75.52 299.59L-1.30955e-05 299.59L-1.29276e-05 295.75ZM-1.35991e-05 311.11L75.52 311.11L75.52 326.47L-1.42705e-05 326.47L-1.35991e-05 311.11ZM-1.44383e-05 330.31L75.52 330.31L75.52 334.15L-1.46062e-05 334.15L-1.44383e-05 330.31ZM-1.47744e-05 338L75.52 338L75.52 341.84L-1.49423e-05 341.84L-1.47744e-05 338ZM-1.5278e-05 349.52L75.52 349.52L75.52 353.36L-1.54459e-05 353.36L-1.5278e-05 349.52ZM-1.57816e-05 361.04L75.52 361.04L75.52 376.4L-1.6453e-05 376.4L-1.57816e-05 361.04ZM-1.66213e-05 380.25L75.52 380.25L75.52 387.93L-1.6957e-05 387.93L-1.66213e-05 380.25ZM-1.71248e-05 391.77L75.52 391.77L75.52 399.45L-1.74605e-05 399.45L-1.71248e-05 391.77ZM-1.76284e-05 403.29L75.52 403.29L75.52 418.65L-1.82998e-05 418.65L-1.76284e-05 403.29Z" fill="white"/>
</svg>
