<svg width="77" height="374" viewBox="0 0 77 374" fill="none" xmlns="http://www.w3.org/2000/svg">
<path d="M0.5 0.499997L76.02 0.5L76.02 4.34L0.5 4.34L0.5 0.499997ZM0.499999 15.86L76.02 15.86L76.02 23.54L0.499999 23.54L0.499999 15.86ZM0.499999 27.38L76.02 27.38L76.02 38.9L0.499998 38.9L0.499999 27.38ZM0.499998 42.75L76.02 42.75L76.02 46.59L0.499998 46.59L0.499998 42.75ZM0.499997 61.95L76.02 61.95L76.02 69.63L0.499997 69.63L0.499997 61.95ZM0.499997 73.47L76.02 73.47L76.02 77.31L0.499997 77.31L0.499997 73.47ZM0.499996 85L76.02 85L76.02 88.84L0.499996 88.84L0.499996 85ZM0.499996 96.52L76.02 96.52L76.02 100.36L0.499996 100.36L0.499996 96.52ZM0.499995 104.2L76.02 104.2L76.02 111.88L0.499995 111.88L0.499995 104.2ZM0.499994 127.25L76.02 127.25L76.02 134.93L0.499994 134.93L0.499994 127.25ZM0.499993 150.29L76.02 150.29L76.02 154.13L0.499993 154.13L0.499993 150.29ZM0.499993 157.97L76.02 157.97L76.02 161.81L0.499993 161.81L0.499993 157.97ZM0.499993 169.5L76.02 169.5L76.02 173.34L0.499992 173.34L0.499993 169.5ZM0.499992 181.02L76.02 181.02L76.02 188.7L0.499992 188.7L0.499992 181.02ZM0.499992 192.54L76.02 192.54L76.02 196.38L0.499991 196.38L0.499992 192.54ZM0.499991 211.75L76.02 211.75L76.02 219.43L0.49999 219.43L0.499991 211.75ZM0.49999 227.11L76.02 227.11L76.02 230.95L0.49999 230.95L0.49999 227.11ZM0.49999 238.63L76.02 238.63L76.02 250.15L0.499989 250.15L0.49999 238.63ZM0.499989 254L76.02 254L76.02 265.52L0.499988 265.52L0.499989 254ZM0.499988 269.36L76.02 269.36L76.02 277.04L0.499988 277.04L0.499988 269.36ZM0.499988 280.88L76.02 280.88L76.02 292.4L0.499987 292.4L0.499988 280.88ZM0.499987 296.25L76.02 296.25L76.02 307.77L0.499987 307.77L0.499987 296.25ZM0.499986 315.45L76.02 315.45L76.02 319.29L0.499986 319.29L0.499986 315.45ZM0.499986 323.13L76.02 323.13L76.02 330.81L0.499986 330.81L0.499986 323.13ZM0.499985 338.5L76.02 338.5L76.02 346.18L0.499985 346.18L0.499985 338.5ZM0.499985 353.86L76.02 353.86L76.02 357.7L0.499984 357.7L0.499985 353.86ZM0.499984 361.54L76.02 361.54L76.02 373.06L0.499984 373.06L0.499984 361.54Z" fill="white"/>
</svg>
