<svg width="76" height="246" viewBox="0 0 76 246" fill="none" xmlns="http://www.w3.org/2000/svg">
<path d="M0 -3.36578e-06L75.52 -6.46927e-08L75.52 3.84L-1.67852e-07 3.84L0 -3.36578e-06ZM-3.35703e-07 7.68L75.52 7.68L75.52 23.04L-1.00711e-06 23.04L-3.35703e-07 7.68ZM-1.34281e-06 30.72L75.52 30.72L75.52 34.56L-1.51067e-06 34.56L-1.34281e-06 30.72ZM-1.84681e-06 42.25L75.52 42.25L75.52 49.93L-2.18251e-06 49.93L-1.84681e-06 42.25ZM-2.85392e-06 65.29L75.52 65.29L75.52 69.13L-3.02177e-06 69.13L-2.85392e-06 65.29ZM-3.35747e-06 76.81L75.52 76.81L75.52 80.65L-3.52532e-06 80.65L-3.35747e-06 76.81ZM-3.69361e-06 84.5L75.52 84.5L75.52 88.34L-3.86146e-06 88.34L-3.69361e-06 84.5ZM-4.53287e-06 103.7L75.52 103.7L75.52 111.38L-4.86857e-06 111.38L-4.53287e-06 103.7ZM-5.03643e-06 115.22L75.52 115.22L75.52 119.06L-5.20428e-06 119.06L-5.03643e-06 115.22ZM-5.54042e-06 126.75L75.52 126.75L75.52 134.43L-5.87612e-06 134.43L-5.54042e-06 126.75ZM-6.21183e-06 142.11L75.52 142.11L75.52 145.95L-6.37968e-06 145.95L-6.21183e-06 142.11ZM-6.54753e-06 149.79L75.52 149.79L75.52 153.63L-6.71538e-06 153.63L-6.54753e-06 149.79ZM-7.38722e-06 169L75.52 169L75.52 176.68L-7.72293e-06 176.68L-7.38722e-06 169ZM-8.05863e-06 184.36L75.52 184.36L75.52 188.2L-8.22648e-06 188.2L-8.05863e-06 184.36ZM-8.39434e-06 192.04L75.52 192.04L75.52 195.88L-8.56219e-06 195.88L-8.39434e-06 192.04ZM-9.23403e-06 211.25L75.52 211.25L75.52 215.09L-9.40188e-06 215.09L-9.23403e-06 211.25ZM-9.56973e-06 218.93L75.52 218.93L75.52 234.29L-1.02411e-05 234.29L-9.56973e-06 218.93ZM-1.05768e-05 241.97L75.52 241.97L75.52 245.81L-1.07447e-05 245.81L-1.05768e-05 241.97Z" fill="white"/>
</svg>
