<svg width="1001" height="230" viewBox="0 0 1001 230" fill="none" xmlns="http://www.w3.org/2000/svg">
<path fill-rule="evenodd" clip-rule="evenodd" d="M911.97 166.999C955.324 166.999 990.47 131.854 990.47 88.4997C990.47 45.1455 955.324 10 911.97 10C868.616 10 833.471 45.1454 833.47 88.4995H725.721C720.198 88.4995 715.721 92.9767 715.721 98.4995V209.332C715.721 214.855 720.198 219.332 725.721 219.332H901.97C907.493 219.332 911.97 214.855 911.97 209.332L911.97 166.999ZM911.97 166.999L911.97 98.4995C911.97 92.9767 907.493 88.4995 901.97 88.4995H833.47C833.47 88.4996 833.47 88.4996 833.47 88.4997C833.47 131.854 868.616 166.999 911.97 166.999Z" fill="white"/>
<path fill-rule="evenodd" clip-rule="evenodd" d="M844.617 78.3035C849.541 45.308 877.996 20 912.363 20C950.194 20 980.862 50.6684 980.862 88.4997C980.862 123.07 955.253 151.66 921.97 156.331V98.3035C921.97 87.2578 913.016 78.3035 901.97 78.3035H844.617ZM824.444 78.3035C829.5 34.229 866.934 0 912.363 0C961.24 0 1000.86 39.6227 1000.86 88.4997C1000.86 134.13 966.328 171.695 921.97 176.484V209.136C921.97 220.182 913.016 229.136 901.97 229.136H725.721C714.675 229.136 705.721 220.182 705.721 209.136V98.3035C705.721 87.2578 714.675 78.3035 725.721 78.3035H824.444ZM901.97 176.396V209.136L725.721 209.136V98.3035H824.4C828.902 139.152 861.203 171.627 901.97 176.396ZM901.97 156.216C872.264 151.695 848.828 128.092 844.559 98.3035H901.97V156.216Z" fill="#FA6400"/>
<path fill-rule="evenodd" clip-rule="evenodd" d="M196.249 166.999C239.603 166.999 274.749 131.854 274.749 88.4997C274.749 45.1455 239.603 10 196.249 10C152.895 10 117.75 45.1454 117.75 88.4995H10C4.47715 88.4995 0 92.9767 0 98.4995V209.332C0 214.855 4.47716 219.332 10 219.332H186.249C191.772 219.332 196.249 214.855 196.249 209.332L196.249 166.999ZM117.75 88.4997C117.75 131.854 152.895 166.999 196.249 166.999L196.249 98.4995C196.249 92.9767 191.772 88.4995 186.249 88.4995H117.75C117.75 88.4996 117.75 88.4996 117.75 88.4997Z" fill="white"/>
<path fill-rule="evenodd" clip-rule="evenodd" d="M486.756 78.3035C491.68 45.308 520.136 20 554.502 20C592.333 20 623.002 50.6684 623.002 88.4997C623.002 123.07 597.392 151.659 564.11 156.331V98.3035C564.11 87.2578 555.155 78.3035 544.11 78.3035H486.756ZM466.583 78.3035C471.639 34.229 509.073 0 554.502 0C603.379 0 643.002 39.6227 643.002 88.4997C643.002 134.13 608.468 171.695 564.11 176.484V209.136C564.11 220.182 555.155 229.136 544.11 229.136H367.86C356.815 229.136 347.86 220.182 347.86 209.136V98.3035C347.86 87.2578 356.815 78.3035 367.86 78.3035H466.583ZM544.11 176.396V209.136L367.86 209.136V98.3035H466.539C471.041 139.152 503.342 171.627 544.11 176.396ZM544.11 156.216C514.403 151.695 490.968 128.092 486.699 98.3035H544.11V156.216Z" fill="#FA6400"/>
</svg>
