<svg width="474" height="826" viewBox="0 0 474 826" fill="none" xmlns="http://www.w3.org/2000/svg">
<path fill-rule="evenodd" clip-rule="evenodd" d="M339.41 77.2996V197.941L0 393.9L7 406.024L353.41 206.024L353.396 206H353.41V69.2167L339.41 77.2996ZM379.41 54.2056V215.941L40 411.9L47 424.024L393.41 224.024L393.396 224H393.41V46.1227L379.41 54.2056ZM419.41 31.1116V233.941L80 429.9L87 442.024L433.41 242.024L433.396 242H433.41V23.0287L419.41 31.1116ZM459.41 8.01758V770H473.41V0H473.297L459.41 8.01758ZM459.4 798H473.4V826H459.4V798Z" fill="white"/>
</svg>
