<svg width="474" height="836" viewBox="0 0 474 836" fill="none" xmlns="http://www.w3.org/2000/svg">
<path fill-rule="evenodd" clip-rule="evenodd" d="M339.41 77.2995V201.941L0 397.9L7 410.024L353.41 210.024L353.396 210H353.41V69.2166L339.41 77.2995ZM379.41 54.2055V219.941L40 415.9L47 428.024L393.41 228.024L393.396 228H393.41V46.1226L379.41 54.2055ZM419.41 31.1115V237.941L80 433.9L87 446.024L433.41 246.024L433.396 246H433.41V23.0286L419.41 31.1115ZM459.41 8.01748V780H473.41V0H473.297L459.41 8.01748ZM459.4 808H473.4V836H459.4V808Z" fill="white"/>
</svg>