<svg width="52" height="52" viewBox="0 0 52 52" fill="none" xmlns="http://www.w3.org/2000/svg">
<path fill-rule="evenodd" clip-rule="evenodd" d="M18.348 22.6661L17.0584 21.3765L3.39463 7.71271L0.41547 7.71273L0.415491 13.8742L12.4881 25.9468L0.415489 38.0194L0.415445 44.1807L3.39471 44.1808L17.0584 30.5171L18.348 29.2275L18.348 22.6661Z" fill="#FA6400"/>
<path fill-rule="evenodd" clip-rule="evenodd" d="M33.5454 29.2273L34.835 30.5169L48.4988 44.1807L51.4779 44.1807L51.4779 38.0193L39.4053 25.9467L51.4779 13.874V7.71267H48.4987L34.835 21.3764L33.5454 22.666V29.2273Z" fill="#FA6400"/>
<path fill-rule="evenodd" clip-rule="evenodd" d="M22.6661 33.5453L21.3765 34.8349L7.71272 48.4987L7.71272 51.4778L13.8741 51.4778L25.9467 39.4052L38.0194 51.4778H44.1807V48.4986L30.517 34.8349L29.2274 33.5453H22.6661Z" fill="#FA6400"/>
<path fill-rule="evenodd" clip-rule="evenodd" d="M29.2273 18.348L30.5169 17.0584L44.1807 3.39464L44.1807 0.415461L38.0193 0.415461L25.9467 12.4881L13.874 0.415462H7.71267V3.39468L21.3764 17.0584L22.666 18.348H29.2273Z" fill="#FA6400"/>
</svg>
