<svg width="325" height="465" viewBox="0 0 325 465" fill="none" xmlns="http://www.w3.org/2000/svg">
<path fill-rule="evenodd" clip-rule="evenodd" d="M66.1431 37.0656L81.7695 10H123.32L315 120.666V144.619L298.751 154H268.68L66.1431 37.0656ZM57.4829 32.0656L75.9998 -0.0065918L76.0112 0H126L325 114.893V115.653V136V150.375L309 159.612L309.008 159.626L301.423 164.005L301 163.273V164H266L52.4779 40.7229L57.4779 32.0627L57.4829 32.0656ZM0 413.717L85.0001 436.493V464.9H95.064L133.151 454.695L133.151 454.696L133.211 454.679L162.415 425.476L308.995 386.2H309V289.2H308.995L309.005 289.189L196.16 176.344V176.34H180.156L139.816 136L139.8 136.016V136H76.0001V136.166L75.7241 136.007L30.1174 215H0V225H36V224.811L81.5016 146H135.674L176 186.326V186.34H176.014L176.018 186.344L176.022 186.34H192.014L299 293.326V378.526L157.272 416.501L157.26 416.489L157.238 416.51L157.221 416.515L157.224 416.525L128.037 445.712L95.0001 454.564V428.82L0 403.364V413.717ZM257.312 186.243L198 152L193 160.66L249.977 193.556L257.867 207.221L266.527 202.221L257.307 186.252L257.312 186.243ZM279.655 187.003L291.655 207.788L282.995 212.788L270.995 192.003L279.655 187.003Z" fill="white"/>
</svg>
