<svg width="70" height="144" viewBox="0 0 70 144" fill="none" xmlns="http://www.w3.org/2000/svg">
<path fill-rule="evenodd" clip-rule="evenodd" d="M5 25.9807L20 0L35 25.9807L26.3398 30.9807L20 20L13.6602 30.9807L5 25.9807ZM35 25.9807L50 0L65 25.9807L56.3397 30.9807L50 20L43.6602 30.9807L35 25.9807ZM44 45H70V55H54V70H44V55V50V45ZM26 50V70H16V55.7844L0 46.5469V35L25.9808 50H26ZM0 114.5V103.5H54.4436L24.9436 74H40.5L69.9975 103.498L69.9949 103.5H70V114.5L40.5 144H24.9436L54.4436 114.5H0Z" fill="white"/>
</svg>
