<svg width="70" height="144" viewBox="0 0 70 144" fill="none" xmlns="http://www.w3.org/2000/svg">
<path fill-rule="evenodd" clip-rule="evenodd" d="M29.9923 6L19.6 0L13.4949 10.5745L23.8872 16.5745L29.9923 6ZM0 57.9482V33.9482L10.9949 14.9045L21.3872 20.9045L0 57.9482ZM13.0419 70H2.56659L0.0307007 68.5359L30.9949 14.9045L41.3872 20.9045L13.0419 70ZM33.0419 70H19.1855L50.9949 14.9045L61.3872 20.9045L33.0419 70ZM53.0419 70H39.1855L51.0224 49.4978L61.4147 55.4978L53.0419 70ZM70 40.5986V40.6277L63.9147 51.1677L53.5224 45.1677L59.6203 34.606L70 40.5986ZM39.6 0L33.4949 10.5745L43.8872 16.5745L49.9923 6L39.6 0ZM59.6 0L69.9923 6L63.8872 16.5745L53.4949 10.5745L59.6 0ZM0 114.5V103.5H54.4436L24.9437 74H40.5L69.9975 103.498L69.9949 103.5H70V114.5L40.5 144H24.9437L54.4436 114.5H0Z" fill="white"/>
</svg>
