<svg width="200" height="200" viewBox="0 0 200 200" fill="none" xmlns="http://www.w3.org/2000/svg">
<path d="M100 192C87.9184 192 75.9551 189.62 64.7931 184.997C53.6312 180.373 43.4892 173.597 34.9462 165.054C26.4032 156.511 19.6265 146.369 15.0031 135.207C10.3796 124.045 8 112.082 8 100C8 87.9184 10.3797 75.9551 15.0031 64.7931C19.6265 53.6312 26.4032 43.4892 34.9462 34.9462C43.4892 26.4032 53.6312 19.6265 64.7931 15.0031C75.9551 10.3796 87.9184 8 100 8C112.082 8 124.045 10.3797 135.207 15.0031C146.369 19.6265 156.511 26.4032 165.054 34.9462C173.597 43.4892 180.373 53.6312 184.997 64.7931C189.62 75.9551 192 87.9184 192 100C192 112.082 189.62 124.045 184.997 135.207C180.373 146.369 173.597 156.511 165.054 165.054C156.511 173.597 146.369 180.373 135.207 184.997C124.045 189.62 112.082 192 100 192L100 192Z" stroke="#111111" stroke-width="16" stroke-linecap="round" stroke-linejoin="round"/>
<path d="M100 192C80.5715 192 61.6417 185.849 45.9237 174.43C30.2058 163.01 18.5065 146.907 12.5028 128.43" stroke="url(#paint0_linear_0_1)" stroke-width="16" stroke-linecap="round" stroke-linejoin="round"/>
<defs>
<linearGradient id="paint0_linear_0_1" x1="100" y1="0" x2="100" y2="200" gradientUnits="userSpaceOnUse">
<stop stop-color="#1CA4B4"/>
<stop offset="1" stop-color="#00E5B0"/>
</linearGradient>
</defs>
</svg>

