<svg width="200" height="200" viewBox="0 0 200 200" fill="none" xmlns="http://www.w3.org/2000/svg">
<path d="M100 192C87.9184 192 75.9551 189.62 64.7931 184.997C53.6312 180.373 43.4892 173.597 34.9462 165.054C26.4032 156.511 19.6265 146.369 15.0031 135.207C10.3796 124.045 8 112.082 8 100C8 87.9184 10.3797 75.9551 15.0031 64.7931C19.6265 53.6312 26.4032 43.4892 34.9462 34.9462C43.4892 26.4032 53.6312 19.6265 64.7931 15.0031C75.9551 10.3796 87.9184 8 100 8C112.082 8 124.045 10.3797 135.207 15.0031C146.369 19.6265 156.511 26.4032 165.054 34.9462C173.597 43.4892 180.373 53.6312 184.997 64.7931C189.62 75.9551 192 87.9184 192 100C192 112.082 189.62 124.045 184.997 135.207C180.373 146.369 173.597 156.511 165.054 165.054C156.511 173.597 146.369 180.373 135.207 184.997C124.045 189.62 112.082 192 100 192L100 192Z" stroke="#111111" stroke-width="16" stroke-linecap="round" stroke-linejoin="round"/>
<path d="M100 192C85.4814 192 71.169 188.564 58.2329 181.973C45.2967 175.381 34.1042 165.822 25.5704 154.076C17.0366 142.33 11.4039 128.732 9.13267 114.392C6.86147 100.052 8.01632 85.3784 12.5028 71.5704C16.9893 57.7625 24.68 45.2123 34.9462 34.9462C45.2124 24.68 57.7625 16.9893 71.5705 12.5028C85.3784 8.01632 100.052 6.86147 114.392 9.13268C128.732 11.4039 142.331 17.0367 154.076 25.5705" stroke="url(#paint0_linear_0_1)" stroke-width="16" stroke-linecap="round" stroke-linejoin="round"/>
<defs>
<linearGradient id="paint0_linear_0_1" x1="100" y1="0" x2="100" y2="200" gradientUnits="userSpaceOnUse">
<stop stop-color="#1CA4B4"/>
<stop offset="1" stop-color="#00E5B0"/>
</linearGradient>
</defs>
</svg>

