<svg width="200" height="200" viewBox="0 0 200 200" fill="none" xmlns="http://www.w3.org/2000/svg">
<path d="M100 192C87.9184 192 75.9551 189.62 64.7931 184.997C53.6312 180.373 43.4892 173.597 34.9462 165.054C26.4032 156.511 19.6265 146.369 15.0031 135.207C10.3796 124.045 8 112.082 8 100C8 87.9184 10.3797 75.9551 15.0031 64.7931C19.6265 53.6312 26.4032 43.4892 34.9462 34.9462C43.4892 26.4032 53.6312 19.6265 64.7931 15.0031C75.9551 10.3796 87.9184 8 100 8C112.082 8 124.045 10.3797 135.207 15.0031C146.369 19.6265 156.511 26.4032 165.054 34.9462C173.597 43.4892 180.373 53.6312 184.997 64.7931C189.62 75.9551 192 87.9184 192 100C192 112.082 189.62 124.045 184.997 135.207C180.373 146.369 173.597 156.511 165.054 165.054C156.511 173.597 146.369 180.373 135.207 184.997C124.045 189.62 112.082 192 100 192L100 192Z" stroke="#111111" stroke-width="16" stroke-linecap="round" stroke-linejoin="round"/>
<path d="M100 192C83.0331 192 66.3968 187.308 51.9301 178.443C37.4635 169.578 25.7302 156.885 18.0274 141.767C10.3246 126.65 6.9524 109.696 8.28361 92.7818C9.61481 75.8672 15.5976 59.6502 25.5704 45.9238C35.5433 32.1973 49.1178 21.496 64.7931 15.0031C80.4685 8.51015 97.634 6.47847 114.392 9.13267C131.15 11.7869 146.848 19.0236 159.749 30.0427C172.651 41.0617 182.254 55.434 187.497 71.5704" stroke="url(#paint0_linear_0_1)" stroke-width="16" stroke-linecap="round" stroke-linejoin="round"/>
<defs>
<linearGradient id="paint0_linear_0_1" x1="100" y1="0" x2="100" y2="200" gradientUnits="userSpaceOnUse">
<stop stop-color="#1CA4B4"/>
<stop offset="1" stop-color="#00E5B0"/>
</linearGradient>
</defs>
</svg>


