<?xml version="1.0" standalone="no"?><!DOCTYPE svg PUBLIC "-//W3C//DTD SVG 1.1//EN" "http://www.w3.org/Graphics/SVG/1.1/DTD/svg11.dtd"><svg t="1660749991013" class="icon" viewBox="0 0 1024 1024" version="1.1" xmlns="http://www.w3.org/2000/svg" p-id="2536" xmlns:xlink="http://www.w3.org/1999/xlink" width="200" height="200"><defs><style type="text/css"></style></defs><path d="M947.368 607.782c-19.538-19.572-51.196-19.572-70.734 0l-58.855 58.98c-0.601 0.604-1.632 0.178-1.632-0.675V311.256c0-97.337-78.735-176.243-175.865-176.243-88.322 0-161.419 65.24-173.958 150.252a0.95 0.95 0 0 1-0.939 0.814h-0.018a0.956 0.956 0 0 0-0.956 0.955v427.063c0 41.714-33.747 75.532-75.371 75.532-41.63 0-75.372-33.818-75.372-75.532V236.678c0-0.528-0.064-1.07-0.073-1.557-0.232-12.572-6.916-28.194-16.49-37.788-19.623-19.664-58.22-16.88-77.844 2.784L77.139 342.542c-19.624 19.668-19.624 51.549 0 71.211 19.624 19.67 51.437 19.67 71.061 0l63.332-63.465c0.601-0.603 1.632-0.177 1.632 0.675v363.134c0 97.337 78.74 176.243 175.876 176.243 88.312 0 161.413-65.241 173.952-150.252a0.95 0.95 0 0 1 0.939-0.814h0.018a0.956 0.956 0 0 0 0.956-0.956V311.256c0-41.714 33.748-75.532 75.377-75.532 41.624 0 75.371 33.818 75.371 75.532v477.418c0 0.528 0.103 2.972 0.155 3.456 1.2 10.934 6.132 24.789 14.497 33.173 19.533 19.572 56.072 14.683 75.605-4.89L947.368 678.66c19.527-19.57 19.527-51.304 0-70.877z" p-id="2537"></path></svg>