<?xml version="1.0" standalone="no"?><!DOCTYPE svg PUBLIC "-//W3C//DTD SVG 1.1//EN" "http://www.w3.org/Graphics/SVG/1.1/DTD/svg11.dtd"><svg t="1661311943953" class="icon" viewBox="0 0 1024 1024" version="1.1" xmlns="http://www.w3.org/2000/svg" p-id="2563" xmlns:xlink="http://www.w3.org/1999/xlink" width="200" height="200"><defs><style type="text/css"></style></defs><path d="M203.946667 389.76a42.666667 42.666667 0 0 1-3.2 85.248 202.709333 202.709333 0 0 1-93.994667-27.178667 42.666667 42.666667 0 1 1 42.666667-73.898666c16.64 9.642667 35.242667 15.104 54.528 15.786666z m43.690666 151.509333a42.666667 42.666667 0 1 1 24.021334 81.92 195.584 195.584 0 0 1-55.210667 7.722667c-13.397333 0-26.453333-1.28-39.253333-3.84a42.666667 42.666667 0 1 1 17.024-83.626667c7.082667 1.408 14.506667 2.133333 22.186666 2.133334 11.093333 0 21.418667-1.450667 31.232-4.309334z m620.842667-157.994666c-6.485333 4.138667-13.824 8.448-15.402667 18.005333C844.544 671.146667 637.013333 896 341.333333 896c-76.885333 0-184.234667-27.306667-235.946666-69.589333-11.989333-9.813333-20.053333-21.034667-20.053334-40.064 0-27.178667 21.674667-50.261333 49.792-50.261334 40.448 0 123.136-40.32 179.114667-86.357333a42.666667 42.666667 0 1 1 54.186667 65.877333 566.442667 566.442667 0 0 1-130.133334 79.573334C272.853333 804.693333 311.082667 810.666667 341.333333 810.666667c252.586667 0 426.666667-194.389333 426.666667-426.666667 0-20.352 4.864-30.805333 35.84-53.632a640.426667 640.426667 0 0 1-32.853333-35.157333c-6.229333-7.253333-30.122667-36.48-34.773334-41.642667-23.338667-26.026667-53.333333-40.234667-86.357333-40.234667-65.92 0-120.490667 56.576-121.557333 127.573334l0.597333 5.418666a68.736 68.736 0 0 1-76.928 75.434667c-131.84-16.554667-231.936-75.434667-314.965333-182.229333a42.666667 42.666667 0 1 1 67.328-52.394667c65.28 83.882667 139.733333 130.432 238.805333 147.114667C447.573333 220.074667 538.069333 128 649.856 128c58.026667 0 110.848 24.96 149.930667 68.608 6.144 6.912 30.848 37.034667 35.968 43.008 15.530667 18.090667 25.898667 31.573333 38.272 37.034667 12.373333 5.504 49.450667 2.901333 60.074666 23.893333a42.666667 42.666667 0 0 1-18.858666 57.344c-27.605333 13.909333-32.554667 16.384-46.762667 25.386667z" p-id="2564" fill="#ffffff"></path></svg>