<svg width="500" height="300" viewBox="0 0 500 300" fill="none" xmlns="http://www.w3.org/2000/svg">
<rect width="500" height="300" fill="#080808"/>
<path fill-rule="evenodd" clip-rule="evenodd" d="M198.022 139.011C198.022 154.482 185.483 167.023 170.015 167.023V141.462C170.015 140.109 168.918 139.011 167.565 139.011H142.009C142.009 123.541 154.548 111 170.015 111C185.483 111 198.022 123.541 198.022 139.011ZM102.451 139.011H142.009C142.009 154.482 154.548 167.023 170.015 167.023V183.246C170.015 184.6 168.918 185.697 167.565 185.697H102.451C101.097 185.697 100 184.6 100 183.246V141.462C100 140.109 101.097 139.011 102.451 139.011ZM213.73 141.196H222.699V143.917H210.385V118.292H213.73V141.196ZM227.978 120.498C227.341 120.498 226.802 120.277 226.361 119.836C225.92 119.395 225.699 118.855 225.699 118.218C225.699 117.581 225.92 117.042 226.361 116.601C226.802 116.159 227.341 115.939 227.978 115.939C228.591 115.939 229.106 116.159 229.522 116.601C229.963 117.042 230.184 117.581 230.184 118.218C230.184 118.855 229.963 119.395 229.522 119.836C229.106 120.277 228.591 120.498 227.978 120.498ZM229.596 123.77V143.917H226.251V123.77H229.596ZM234.047 133.77C234.047 131.711 234.464 129.909 235.297 128.365C236.13 126.797 237.269 125.583 238.715 124.726C240.186 123.868 241.815 123.439 243.604 123.439C245.368 123.439 246.9 123.819 248.199 124.579C249.498 125.338 250.466 126.294 251.103 127.446V123.77H254.484V143.917H251.103V140.167C250.441 141.343 249.449 142.324 248.125 143.108C246.827 143.868 245.307 144.248 243.567 144.248C241.778 144.248 240.161 143.807 238.715 142.924C237.269 142.042 236.13 140.804 235.297 139.211C234.464 137.618 234.047 135.804 234.047 133.77ZM251.103 133.807C251.103 132.287 250.796 130.963 250.184 129.836C249.571 128.708 248.738 127.851 247.684 127.262C246.655 126.65 245.516 126.343 244.266 126.343C243.016 126.343 241.876 126.637 240.847 127.226C239.818 127.814 238.997 128.672 238.384 129.799C237.772 130.927 237.465 132.25 237.465 133.77C237.465 135.314 237.772 136.662 238.384 137.814C238.997 138.941 239.818 139.811 240.847 140.424C241.876 141.012 243.016 141.307 244.266 141.307C245.516 141.307 246.655 141.012 247.684 140.424C248.738 139.811 249.571 138.941 250.184 137.814C250.796 136.662 251.103 135.326 251.103 133.807ZM248.493 118.071L240.663 122.262V119.762L248.493 115.167V118.071ZM269.952 123.402C272.402 123.402 274.387 124.15 275.906 125.645C277.426 127.115 278.185 129.248 278.185 132.042V143.917H274.877V132.52C274.877 130.51 274.375 128.978 273.37 127.924C272.365 126.846 270.993 126.306 269.253 126.306C267.489 126.306 266.08 126.858 265.026 127.961C263.997 129.064 263.482 130.669 263.482 132.777V143.917H260.137V123.77H263.482V126.637C264.144 125.608 265.038 124.811 266.165 124.248C267.317 123.684 268.579 123.402 269.952 123.402ZM291.957 123.439C293.697 123.439 295.216 123.819 296.515 124.579C297.838 125.338 298.818 126.294 299.456 127.446V123.77H302.837V144.358C302.837 146.196 302.445 147.826 301.661 149.248C300.877 150.694 299.75 151.821 298.279 152.63C296.834 153.439 295.143 153.843 293.207 153.843C290.56 153.843 288.355 153.218 286.59 151.968C284.826 150.718 283.784 149.015 283.466 146.858H286.774C287.142 148.084 287.901 149.064 289.053 149.799C290.205 150.559 291.589 150.939 293.207 150.939C295.045 150.939 296.539 150.363 297.691 149.211C298.867 148.059 299.456 146.441 299.456 144.358V140.13C298.794 141.307 297.814 142.287 296.515 143.071C295.216 143.856 293.697 144.248 291.957 144.248C290.168 144.248 288.538 143.807 287.068 142.924C285.622 142.042 284.483 140.804 283.65 139.211C282.816 137.618 282.4 135.804 282.4 133.77C282.4 131.711 282.816 129.909 283.65 128.365C284.483 126.797 285.622 125.583 287.068 124.726C288.538 123.868 290.168 123.439 291.957 123.439ZM299.456 133.807C299.456 132.287 299.149 130.963 298.537 129.836C297.924 128.708 297.091 127.851 296.037 127.262C295.008 126.65 293.868 126.343 292.619 126.343C291.369 126.343 290.229 126.637 289.2 127.226C288.171 127.814 287.35 128.672 286.737 129.799C286.125 130.927 285.818 132.25 285.818 133.77C285.818 135.314 286.125 136.662 286.737 137.814C287.35 138.941 288.171 139.811 289.2 140.424C290.229 141.012 291.369 141.307 292.619 141.307C293.868 141.307 295.008 141.012 296.037 140.424C297.091 139.811 297.924 138.941 298.537 137.814C299.149 136.662 299.456 135.326 299.456 133.807ZM377.641 118.292H381.354L377.825 126.637H375.473L377.641 118.292ZM392.298 144.248C390.754 144.248 389.37 143.99 388.144 143.476C386.919 142.936 385.951 142.201 385.24 141.27C384.53 140.314 384.138 139.223 384.064 137.998H387.519C387.617 139.003 388.083 139.824 388.916 140.461C389.774 141.098 390.889 141.417 392.261 141.417C393.535 141.417 394.54 141.135 395.275 140.571C396.011 140.008 396.378 139.297 396.378 138.439C396.378 137.557 395.986 136.907 395.202 136.49C394.418 136.049 393.205 135.62 391.563 135.204C390.068 134.811 388.843 134.419 387.887 134.027C386.956 133.61 386.147 133.01 385.461 132.226C384.799 131.417 384.468 130.363 384.468 129.064C384.468 128.034 384.775 127.091 385.387 126.233C386 125.375 386.87 124.701 387.997 124.211C389.125 123.696 390.411 123.439 391.857 123.439C394.087 123.439 395.888 124.003 397.26 125.13C398.633 126.257 399.368 127.802 399.466 129.762H396.121C396.047 128.708 395.618 127.863 394.834 127.226C394.075 126.588 393.045 126.27 391.747 126.27C390.546 126.27 389.59 126.527 388.879 127.042C388.169 127.556 387.813 128.23 387.813 129.064C387.813 129.726 388.022 130.277 388.438 130.718C388.879 131.135 389.419 131.478 390.056 131.748C390.717 131.993 391.624 132.275 392.776 132.593C394.222 132.985 395.398 133.378 396.305 133.77C397.211 134.137 397.983 134.701 398.62 135.461C399.282 136.221 399.625 137.213 399.65 138.439C399.65 139.542 399.343 140.534 398.731 141.417C398.118 142.299 397.248 142.998 396.121 143.512C395.018 144.003 393.744 144.248 392.298 144.248ZM306.956 139.633V137.208L316.425 123.623H320.314V136.842H322.935V139.633H320.314V143.917H317.158V139.633H306.956ZM317.298 126.892L310.648 136.842H317.298V126.892ZM338.616 125.849L330.782 143.917H327.541L335.46 126.188H325.033V123.454H338.616V125.849ZM345.368 138.336C345.556 139.275 345.961 139.99 346.581 140.478C347.201 140.967 348.036 141.211 349.088 141.211C350.421 141.211 351.398 140.685 352.018 139.633C352.638 138.58 352.95 136.786 352.95 134.249C352.499 134.888 351.859 135.386 351.033 135.743C350.225 136.081 349.342 136.25 348.384 136.25C347.161 136.25 346.054 136.006 345.059 135.517C344.062 135.01 343.273 134.268 342.69 133.291C342.127 132.295 341.845 131.092 341.845 129.683C341.845 127.616 342.446 125.971 343.649 124.75C344.87 123.51 346.541 122.89 348.666 122.89C351.22 122.89 353.033 123.745 354.104 125.455C355.194 127.146 355.738 129.748 355.738 133.262C355.738 135.686 355.533 137.669 355.118 139.21C354.724 140.751 354.028 141.916 353.033 142.705C352.038 143.494 350.656 143.889 348.892 143.889C346.88 143.889 345.331 143.362 344.24 142.31C343.151 141.258 342.54 139.933 342.409 138.336H345.368ZM348.948 133.544C350.075 133.544 350.957 133.197 351.597 132.501C352.254 131.787 352.582 130.848 352.582 129.683C352.582 128.386 352.234 127.381 351.541 126.667C350.864 125.934 349.933 125.567 348.749 125.567C347.566 125.567 346.627 125.943 345.931 126.695C345.255 127.428 344.917 128.396 344.917 129.598C344.917 130.744 345.245 131.693 345.904 132.445C346.581 133.178 347.595 133.544 348.948 133.544ZM359.199 128.443C359.311 126.695 359.978 125.333 361.198 124.355C362.438 123.378 364.016 122.89 365.933 122.89C367.249 122.89 368.386 123.125 369.344 123.594C370.302 124.064 371.025 124.703 371.512 125.511C372.003 126.319 372.245 127.23 372.245 128.245C372.245 129.41 371.936 130.406 371.316 131.233C370.696 132.06 369.954 132.614 369.089 132.896V133.009C370.199 133.347 371.062 133.967 371.682 134.869C372.302 135.752 372.613 136.889 372.613 138.28C372.613 139.388 372.358 140.375 371.851 141.239C371.343 142.104 370.594 142.789 369.596 143.297C368.601 143.785 367.408 144.03 366.018 144.03C363.989 144.03 362.318 143.513 361.002 142.479C359.706 141.427 359.01 139.924 358.917 137.97H362.017C362.093 138.965 362.477 139.783 363.171 140.422C363.867 141.042 364.805 141.352 365.989 141.352C367.136 141.352 368.018 141.042 368.638 140.422C369.258 139.783 369.569 138.965 369.569 137.97C369.569 136.654 369.145 135.724 368.3 135.179C367.474 134.615 366.197 134.333 364.467 134.333H363.734V131.684H364.497C366.018 131.665 367.173 131.411 367.962 130.923C368.77 130.434 369.175 129.664 369.175 128.612C369.175 127.71 368.883 126.996 368.3 126.469C367.719 125.925 366.891 125.652 365.82 125.652C364.769 125.652 363.953 125.925 363.369 126.469C362.786 126.996 362.438 127.653 362.325 128.443H359.199ZM223.765 179.138L217.663 168.66H213.619V179.138H210.274V153.513H218.545C220.481 153.513 222.11 153.843 223.434 154.505C224.782 155.167 225.786 156.062 226.448 157.189C227.11 158.316 227.44 159.603 227.44 161.049C227.44 162.814 226.926 164.37 225.896 165.718C224.892 167.067 223.372 167.961 221.338 168.402L227.771 179.138H223.765ZM213.619 165.976H218.545C220.358 165.976 221.718 165.535 222.625 164.652C223.532 163.745 223.985 162.544 223.985 161.049C223.985 159.53 223.532 158.353 222.625 157.52C221.743 156.687 220.383 156.27 218.545 156.27H213.619V165.976ZM251.017 168.292C251.017 168.929 250.98 169.603 250.907 170.314H234.807C234.929 172.299 235.603 173.856 236.828 174.983C238.078 176.086 239.585 176.638 241.35 176.638C242.795 176.638 243.996 176.307 244.952 175.645C245.932 174.959 246.618 174.052 247.01 172.924H250.613C250.074 174.861 248.995 176.442 247.378 177.667C245.761 178.868 243.751 179.469 241.35 179.469C239.438 179.469 237.723 179.04 236.203 178.182C234.709 177.324 233.532 176.111 232.675 174.542C231.817 172.949 231.388 171.111 231.388 169.027C231.388 166.944 231.805 165.118 232.638 163.549C233.471 161.981 234.635 160.78 236.13 159.946C237.649 159.089 239.389 158.66 241.35 158.66C243.261 158.66 244.952 159.076 246.422 159.91C247.893 160.743 249.02 161.895 249.804 163.366C250.613 164.812 251.017 166.454 251.017 168.292ZM247.562 167.593C247.562 166.319 247.28 165.228 246.716 164.321C246.153 163.39 245.381 162.691 244.401 162.226C243.445 161.736 242.379 161.49 241.203 161.49C239.512 161.49 238.066 162.03 236.865 163.108C235.689 164.187 235.015 165.682 234.843 167.593H247.562ZM258.777 162.704C259.439 161.552 260.419 160.596 261.718 159.836C263.041 159.052 264.573 158.66 266.313 158.66C268.101 158.66 269.719 159.089 271.165 159.946C272.635 160.804 273.787 162.017 274.62 163.586C275.453 165.13 275.87 166.932 275.87 168.991C275.87 171.025 275.453 172.839 274.62 174.432C273.787 176.025 272.635 177.263 271.165 178.145C269.719 179.027 268.101 179.469 266.313 179.469C264.597 179.469 263.078 179.089 261.755 178.329C260.456 177.545 259.463 176.576 258.777 175.424V188.697H255.432V158.99H258.777V162.704ZM272.451 168.991C272.451 167.471 272.145 166.147 271.532 165.02C270.92 163.892 270.086 163.035 269.033 162.446C268.003 161.858 266.864 161.564 265.614 161.564C264.389 161.564 263.249 161.87 262.196 162.483C261.166 163.071 260.333 163.941 259.696 165.093C259.083 166.221 258.777 167.532 258.777 169.027C258.777 170.547 259.083 171.883 259.696 173.035C260.333 174.162 261.166 175.032 262.196 175.645C263.249 176.233 264.389 176.527 265.614 176.527C266.864 176.527 268.003 176.233 269.033 175.645C270.086 175.032 270.92 174.162 271.532 173.035C272.145 171.883 272.451 170.535 272.451 168.991ZM289.058 179.469C287.171 179.469 285.456 179.04 283.912 178.182C282.392 177.324 281.192 176.111 280.31 174.542C279.452 172.949 279.023 171.111 279.023 169.027C279.023 166.968 279.464 165.155 280.346 163.586C281.253 161.993 282.478 160.78 284.022 159.946C285.566 159.089 287.294 158.66 289.205 158.66C291.116 158.66 292.844 159.089 294.388 159.946C295.932 160.78 297.145 161.981 298.027 163.549C298.934 165.118 299.387 166.944 299.387 169.027C299.387 171.111 298.921 172.949 297.99 174.542C297.083 176.111 295.846 177.324 294.278 178.182C292.709 179.04 290.969 179.469 289.058 179.469ZM289.058 176.527C290.259 176.527 291.386 176.245 292.44 175.682C293.493 175.118 294.339 174.272 294.976 173.145C295.638 172.018 295.968 170.645 295.968 169.027C295.968 167.41 295.65 166.037 295.013 164.91C294.376 163.782 293.542 162.949 292.513 162.41C291.484 161.846 290.369 161.564 289.168 161.564C287.943 161.564 286.816 161.846 285.786 162.41C284.782 162.949 283.973 163.782 283.36 164.91C282.748 166.037 282.441 167.41 282.441 169.027C282.441 170.669 282.736 172.054 283.324 173.182C283.936 174.309 284.745 175.155 285.75 175.719C286.754 176.258 287.857 176.527 289.058 176.527ZM310.916 179.469C309.372 179.469 307.988 179.211 306.762 178.696C305.537 178.157 304.569 177.422 303.858 176.491C303.148 175.535 302.756 174.444 302.682 173.219H306.137C306.235 174.223 306.701 175.044 307.534 175.682C308.392 176.319 309.507 176.638 310.879 176.638C312.154 176.638 313.158 176.356 313.893 175.792C314.629 175.228 314.996 174.518 314.996 173.66C314.996 172.777 314.604 172.128 313.82 171.711C313.036 171.27 311.823 170.841 310.181 170.424C308.686 170.032 307.461 169.64 306.505 169.248C305.574 168.831 304.765 168.231 304.079 167.446C303.417 166.638 303.087 165.584 303.087 164.285C303.087 163.255 303.393 162.312 304.006 161.454C304.618 160.596 305.488 159.922 306.615 159.432C307.743 158.917 309.029 158.66 310.475 158.66C312.705 158.66 314.506 159.223 315.878 160.351C317.251 161.478 317.986 163.022 318.084 164.983H314.739C314.665 163.929 314.236 163.084 313.452 162.446C312.693 161.809 311.663 161.49 310.365 161.49C309.164 161.49 308.208 161.748 307.498 162.263C306.787 162.777 306.432 163.451 306.432 164.285C306.432 164.946 306.64 165.498 307.056 165.939C307.498 166.356 308.037 166.699 308.674 166.968C309.335 167.214 310.242 167.495 311.394 167.814C312.84 168.206 314.016 168.598 314.923 168.991C315.829 169.358 316.601 169.922 317.238 170.682C317.9 171.442 318.243 172.434 318.268 173.66C318.268 174.763 317.961 175.755 317.349 176.638C316.736 177.52 315.866 178.219 314.739 178.733C313.636 179.223 312.362 179.469 310.916 179.469ZM324.717 155.718C324.08 155.718 323.541 155.498 323.1 155.057C322.659 154.615 322.438 154.076 322.438 153.439C322.438 152.802 322.659 152.262 323.1 151.821C323.541 151.38 324.08 151.16 324.717 151.16C325.33 151.16 325.844 151.38 326.261 151.821C326.702 152.262 326.923 152.802 326.923 153.439C326.923 154.076 326.702 154.615 326.261 155.057C325.844 155.498 325.33 155.718 324.717 155.718ZM326.335 158.99V179.138H322.99V158.99H326.335ZM336.116 161.748V173.623C336.116 174.603 336.324 175.302 336.741 175.719C337.157 176.111 337.88 176.307 338.909 176.307H341.372V179.138H338.358C336.495 179.138 335.099 178.709 334.167 177.851C333.236 176.993 332.771 175.584 332.771 173.623V161.748H330.161V158.99H332.771V153.917H336.116V158.99H341.372V161.748H336.116ZM354.209 179.469C352.322 179.469 350.607 179.04 349.063 178.182C347.544 177.324 346.343 176.111 345.461 174.542C344.604 172.949 344.175 171.111 344.175 169.027C344.175 166.968 344.616 165.155 345.498 163.586C346.404 161.993 347.63 160.78 349.173 159.946C350.717 159.089 352.445 158.66 354.356 158.66C356.268 158.66 357.995 159.089 359.539 159.946C361.083 160.78 362.296 161.981 363.178 163.549C364.085 165.118 364.538 166.944 364.538 169.027C364.538 171.111 364.073 172.949 363.141 174.542C362.235 176.111 360.997 177.324 359.429 178.182C357.861 179.04 356.121 179.469 354.209 179.469ZM354.209 176.527C355.41 176.527 356.537 176.245 357.591 175.682C358.645 175.118 359.49 174.272 360.127 173.145C360.789 172.018 361.12 170.645 361.12 169.027C361.12 167.41 360.801 166.037 360.164 164.91C359.527 163.782 358.694 162.949 357.664 162.41C356.635 161.846 355.52 161.564 354.32 161.564C353.094 161.564 351.967 161.846 350.938 162.41C349.933 162.949 349.124 163.782 348.512 164.91C347.899 166.037 347.593 167.41 347.593 169.027C347.593 170.669 347.887 172.054 348.475 173.182C349.088 174.309 349.896 175.155 350.901 175.719C351.906 176.258 353.008 176.527 354.209 176.527ZM372.282 162.263C372.87 161.111 373.703 160.216 374.782 159.579C375.884 158.941 377.22 158.623 378.788 158.623V162.079H377.906C374.157 162.079 372.282 164.113 372.282 168.182V179.138H368.937V158.99H372.282V162.263ZM400 158.99L387.87 188.623H384.415L388.384 178.917L380.261 158.99H383.973L390.296 175.314L396.545 158.99H400Z" fill="white"/>
<path fill-rule="evenodd" clip-rule="evenodd" d="M480 20H6.81189e-06V0H480H500V20V80.5535V108.838V109H499.838L439.838 169H500V189H431L411 189L411 169.553L411 169V100H431V149.553L480 100.553V20ZM499.919 300V280L19.9188 280L19.9188 199.447L68.9188 150.447L68.9188 200H88.9188L88.9188 131L88.9188 130.447L88.9188 111L68.9188 111L0 111V131H60.081L0.081052 191H0V300L19.9188 300L499.919 300Z" fill="#FA6400"/>
</svg>
