<svg width="500" height="300" viewBox="0 0 500 300" fill="none" xmlns="http://www.w3.org/2000/svg">
<rect width="500" height="300" fill="#080808"/>
<path fill-rule="evenodd" clip-rule="evenodd" d="M15.363 0L0 15.363V43.6473L43.6473 0H15.363ZM71.9316 0L0 71.9316V100.216L100.216 0H71.9316ZM128.5 0L0 128.5V156.784L156.784 0H128.5ZM185.069 0L0 185.069V213.353L213.353 0H185.069ZM241.637 0L0 241.637V269.921L269.921 0H241.637ZM298.206 0L0 298.206V299.716H26.774L326.49 0H298.206ZM354.774 0L55.0584 299.716H83.3427L383.059 0H354.774ZM411.343 0L111.627 299.716H139.911L439.627 0H411.343ZM467.911 0L168.195 299.716H196.48L496.196 0H467.911ZM422.754 299.716H394.47L500 194.186V222.47L422.754 299.716ZM337.901 299.716H366.185L500 165.901V137.617L337.901 299.716ZM451.038 299.716H479.322L500 279.038V250.754L451.038 299.716ZM500 81.0485V109.333L309.617 299.716H281.333L500 81.0485ZM224.764 299.716H253.048L500 52.7642V24.48L224.764 299.716Z" fill="#FA6400"/>
<path fill-rule="evenodd" clip-rule="evenodd" d="M203.035 139.732C203.035 156.705 189.215 170.464 172.168 170.464V142.421C172.168 140.936 170.958 139.732 169.467 139.732H141.301C141.301 122.759 155.12 109 172.168 109C189.215 109 203.035 122.759 203.035 139.732ZM97.7009 139.732H141.301C141.301 156.705 155.12 170.464 172.168 170.464V188.263C172.168 189.748 170.958 190.952 169.467 190.952H97.7009C96.2092 190.952 95 189.748 95 188.263V142.421C95 140.936 96.2092 139.732 97.7009 139.732ZM234.006 141.807V144.899H220.357H219.605H216.539V116.223H220.357V141.807H234.006ZM241.8 123.589V144.899H238.121V123.589H241.8ZM237.844 117.936C237.844 117.345 238.022 116.846 238.378 116.439C238.747 116.032 239.288 115.829 240 115.829C240.699 115.829 241.233 116.032 241.602 116.439C241.985 116.846 242.176 117.345 242.176 117.936C242.176 118.501 241.985 118.986 241.602 119.394C241.233 119.787 240.699 119.984 240 119.984C239.288 119.984 238.747 119.787 238.378 119.394C238.022 118.986 237.844 118.501 237.844 117.936ZM259.821 143.185C260.019 143.008 260.204 142.828 260.379 142.646C260.4 142.835 260.425 143.028 260.455 143.224C260.56 143.92 260.705 144.479 260.89 144.899H264.708V144.584C264.457 144.006 264.266 143.316 264.134 142.516C264.015 141.715 263.956 140.96 263.956 140.251V130.324C263.956 128.736 263.613 127.416 262.927 126.366C262.255 125.302 261.318 124.508 260.118 123.982C258.931 123.457 257.56 123.195 256.003 123.195C254.711 123.195 253.537 123.378 252.482 123.746C251.441 124.101 250.544 124.586 249.792 125.204C249.054 125.808 248.486 126.484 248.091 127.232C247.695 127.981 247.497 128.736 247.497 129.497H251.157C251.157 128.906 251.348 128.355 251.731 127.843C252.126 127.331 252.667 126.917 253.353 126.602C254.052 126.287 254.863 126.129 255.786 126.129C256.775 126.129 257.606 126.3 258.278 126.641C258.951 126.983 259.452 127.469 259.782 128.099C260.125 128.716 260.296 129.445 260.296 130.285V131.979H256.676C255.212 131.979 253.887 132.13 252.7 132.432C251.513 132.734 250.497 133.18 249.653 133.771C248.809 134.349 248.163 135.077 247.715 135.957C247.267 136.824 247.042 137.828 247.042 138.97C247.042 140.152 247.339 141.222 247.932 142.181C248.539 143.126 249.383 143.881 250.465 144.446C251.559 145.01 252.832 145.293 254.282 145.293C255.443 145.293 256.485 145.096 257.408 144.702C258.344 144.295 259.149 143.789 259.821 143.185ZM259.821 139.66C260.012 139.406 260.171 139.155 260.296 138.907V134.539H257.27C256.228 134.539 255.298 134.624 254.48 134.795C253.663 134.953 252.977 135.196 252.423 135.524C251.869 135.852 251.447 136.266 251.157 136.765C250.867 137.251 250.722 137.822 250.722 138.478C250.722 139.148 250.873 139.758 251.177 140.31C251.48 140.861 251.935 141.301 252.542 141.629C253.162 141.945 253.92 142.102 254.817 142.102C255.938 142.102 256.927 141.866 257.784 141.393C258.641 140.92 259.32 140.343 259.821 139.66ZM254.381 120.437L258.219 114.647H262.63L257.329 120.437H254.381ZM273.372 144.899V129.691C273.604 129.231 273.874 128.806 274.183 128.414C274.724 127.744 275.363 127.219 276.102 126.838C276.853 126.457 277.684 126.267 278.594 126.267C279.517 126.267 280.296 126.425 280.928 126.74C281.562 127.042 282.043 127.534 282.373 128.217C282.702 128.887 282.867 129.779 282.867 130.895V144.899H286.546V130.935C286.546 129.53 286.388 128.342 286.072 127.37C285.755 126.385 285.294 125.584 284.687 124.967C284.094 124.35 283.375 123.904 282.531 123.628C281.687 123.339 280.737 123.195 279.682 123.195C278.39 123.195 277.21 123.451 276.141 123.963C275.086 124.462 274.176 125.171 273.411 126.09C273.37 126.139 273.33 126.189 273.289 126.24L273.174 123.589H269.712V144.899H273.372ZM305.972 123.589H309.296V144.446C309.296 146.323 308.913 147.925 308.148 149.251C307.383 150.577 306.315 151.582 304.943 152.265C303.585 152.96 302.016 153.308 300.236 153.308C299.497 153.308 298.627 153.19 297.624 152.954C296.635 152.731 295.659 152.344 294.697 151.792C293.747 151.254 292.949 150.525 292.303 149.606L294.222 147.439C295.118 148.516 296.055 149.264 297.031 149.685C298.02 150.105 298.996 150.315 299.958 150.315C301.119 150.315 302.121 150.098 302.965 149.665C303.809 149.232 304.462 148.588 304.924 147.735C305.399 146.894 305.636 145.857 305.636 144.623V142.744C304.963 143.542 304.152 144.161 303.203 144.603C302.187 145.063 301 145.293 299.642 145.293C298.363 145.293 297.202 145.023 296.16 144.485C295.132 143.947 294.248 143.192 293.51 142.22C292.771 141.249 292.204 140.106 291.809 138.793C291.426 137.467 291.235 136.029 291.235 134.48V134.066C291.235 132.438 291.426 130.961 291.809 129.635C292.204 128.296 292.765 127.147 293.49 126.188C294.228 125.23 295.118 124.495 296.16 123.982C297.202 123.457 298.376 123.195 299.682 123.195C301.027 123.195 302.2 123.431 303.203 123.904C304.218 124.363 305.076 125.039 305.774 125.932C305.781 125.941 305.788 125.949 305.794 125.957L305.801 125.966L305.972 123.589ZM305.636 138.999V129.368C305.38 128.872 305.07 128.423 304.706 128.02C304.244 127.482 303.671 127.055 302.985 126.74C302.299 126.425 301.495 126.267 300.572 126.267C299.57 126.267 298.706 126.477 297.98 126.897C297.268 127.304 296.681 127.869 296.22 128.591C295.771 129.3 295.435 130.127 295.211 131.073C295 132.005 294.894 133.003 294.894 134.066V134.48C294.894 135.544 295 136.541 295.211 137.474C295.435 138.406 295.771 139.226 296.22 139.936C296.681 140.645 297.268 141.203 297.98 141.61C298.693 142.003 299.543 142.2 300.532 142.2C301.746 142.2 302.748 141.945 303.539 141.432C304.33 140.92 304.957 140.244 305.418 139.404C305.493 139.271 305.566 139.136 305.636 138.999ZM386.097 114.647V117.168C386.097 117.956 385.959 118.79 385.681 119.669C385.416 120.536 385.027 121.376 384.514 122.19C383.998 122.991 383.38 123.694 382.653 124.298L380.557 122.86C381.178 121.993 381.646 121.107 381.962 120.201C382.291 119.282 382.456 118.291 382.456 117.227V114.647H386.097ZM400.754 139.246C400.754 138.721 400.635 138.235 400.398 137.789C400.174 137.329 399.706 136.915 398.993 136.548C398.294 136.167 397.24 135.839 395.828 135.563C394.642 135.314 393.567 135.018 392.603 134.677C391.655 134.336 390.845 133.922 390.172 133.436C389.511 132.95 389.003 132.379 388.649 131.723C388.292 131.066 388.114 130.298 388.114 129.418C388.114 128.578 388.298 127.784 388.668 127.035C389.051 126.287 389.583 125.624 390.269 125.046C390.969 124.468 391.806 124.015 392.781 123.687C393.759 123.359 394.847 123.195 396.047 123.195C397.762 123.195 399.226 123.497 400.438 124.101C401.651 124.705 402.58 125.512 403.228 126.523C403.874 127.521 404.195 128.631 404.195 129.852H400.535C400.535 129.261 400.36 128.69 400.003 128.138C399.66 127.574 399.153 127.107 398.48 126.74C397.821 126.372 397.008 126.188 396.047 126.188C395.031 126.188 394.207 126.346 393.573 126.661C392.954 126.963 392.498 127.35 392.209 127.823C391.931 128.296 391.793 128.795 391.793 129.32C391.793 129.714 391.86 130.068 391.99 130.383C392.136 130.685 392.387 130.968 392.743 131.23C393.1 131.48 393.6 131.716 394.245 131.939C394.893 132.163 395.717 132.386 396.719 132.609C398.472 133.003 399.917 133.476 401.051 134.027C402.186 134.578 403.028 135.255 403.582 136.056C404.136 136.857 404.414 137.828 404.414 138.97C404.414 139.903 404.217 140.756 403.82 141.531C403.439 142.305 402.877 142.975 402.14 143.54C401.413 144.091 400.544 144.524 399.528 144.84C398.526 145.142 397.397 145.293 396.147 145.293C394.259 145.293 392.662 144.958 391.358 144.288C390.053 143.618 389.062 142.752 388.39 141.689C387.717 140.625 387.382 139.502 387.382 138.32H391.061C391.115 139.318 391.404 140.113 391.93 140.704C392.46 141.281 393.105 141.695 393.87 141.945C394.634 142.181 395.393 142.299 396.147 142.299C397.149 142.299 397.986 142.168 398.658 141.905C399.344 141.643 399.863 141.281 400.219 140.822C400.576 140.362 400.754 139.837 400.754 139.246ZM328.211 137.403V140.176H325.57V144.899H322.074V140.176H312.979L312.863 138.081L321.973 123.87H322.074H324.773H325.57V137.403H328.211ZM321.741 129.04L322.074 128.471V137.403H316.504L321.741 129.04ZM344.574 123.87V125.776L336.131 144.899H332.447L340.875 126.643H329.937V123.87H344.574ZM350.246 142.155H350.536C351.871 142.155 352.983 141.981 353.873 141.634C354.773 141.278 355.488 140.787 356.02 140.161C356.552 139.535 356.934 138.799 357.166 137.952C357.33 137.352 357.436 136.715 357.484 136.043C357.475 136.053 357.466 136.064 357.456 136.074C356.924 136.652 356.3 137.114 355.585 137.461C354.879 137.807 354.11 137.98 353.278 137.98C352.272 137.98 351.383 137.793 350.609 137.417C349.845 137.032 349.207 136.512 348.694 135.857C348.191 135.203 347.814 134.452 347.563 133.604C347.311 132.757 347.186 131.866 347.186 130.932C347.186 129.921 347.34 128.973 347.65 128.087C347.959 127.201 348.409 126.421 348.999 125.747C349.589 125.064 350.304 124.534 351.146 124.158C351.997 123.773 352.959 123.581 354.032 123.581C355.174 123.581 356.175 123.802 357.035 124.245C357.896 124.688 358.622 125.299 359.211 126.079C359.801 126.859 360.246 127.764 360.546 128.795C360.846 129.825 360.996 130.932 360.996 132.117V133.344C360.996 134.586 360.885 135.785 360.662 136.94C360.44 138.086 360.077 139.15 359.574 140.132C359.081 141.105 358.428 141.962 357.616 142.703C356.813 143.435 355.827 144.008 354.656 144.422C353.496 144.826 352.132 145.029 350.565 145.029H350.246V142.155ZM357.514 131.568V132.958C357.322 133.388 357.061 133.777 356.731 134.124C356.392 134.48 355.996 134.764 355.541 134.976C355.087 135.178 354.589 135.28 354.047 135.28C353.476 135.28 352.978 135.159 352.553 134.918C352.127 134.678 351.774 134.35 351.494 133.936C351.213 133.522 351.001 133.051 350.856 132.521C350.72 131.982 350.653 131.423 350.653 130.846C350.653 130.229 350.725 129.652 350.87 129.112C351.025 128.564 351.242 128.087 351.523 127.683C351.813 127.268 352.166 126.946 352.582 126.715C353.008 126.474 353.486 126.354 354.018 126.354C354.502 126.354 354.951 126.464 355.367 126.686C355.793 126.907 356.165 127.24 356.484 127.683C356.813 128.116 357.064 128.66 357.238 129.315C357.422 129.96 357.514 130.711 357.514 131.568ZM368.422 132.81H370.513C371.326 132.81 371.995 132.67 372.527 132.391C373.07 132.112 373.47 131.727 373.732 131.236C373.994 130.744 374.124 130.181 374.124 129.546C374.124 128.881 374.002 128.313 373.762 127.841C373.529 127.36 373.17 126.989 372.687 126.729C372.214 126.469 371.609 126.339 370.875 126.339C370.256 126.339 369.694 126.464 369.192 126.715C368.698 126.956 368.306 127.302 368.017 127.755C367.728 128.198 367.582 128.727 367.582 129.343H364.071C364.071 128.227 364.366 127.235 364.956 126.368C365.546 125.502 366.348 124.823 367.363 124.332C368.39 123.831 369.54 123.581 370.818 123.581C372.179 123.581 373.37 123.807 374.386 124.26C375.409 124.702 376.209 125.367 376.779 126.253C377.349 127.138 377.635 128.236 377.635 129.546C377.635 130.143 377.494 130.749 377.213 131.366C376.933 131.982 376.517 132.545 375.966 133.055C375.517 133.464 374.977 133.811 374.348 134.098C375.166 134.383 375.836 134.767 376.357 135.251C376.908 135.751 377.311 136.324 377.562 136.97C377.824 137.615 377.954 138.298 377.954 139.02C377.954 140.002 377.775 140.879 377.416 141.649C377.07 142.41 376.571 143.055 375.922 143.584C375.274 144.114 374.515 144.514 373.646 144.783C372.784 145.053 371.847 145.187 370.831 145.187C369.921 145.187 369.051 145.062 368.22 144.812C367.388 144.562 366.642 144.191 365.986 143.7C365.33 143.199 364.806 142.578 364.419 141.837C364.042 141.086 363.854 140.219 363.854 139.237H367.35C367.35 139.863 367.496 140.417 367.785 140.898C368.085 141.37 368.5 141.74 369.033 142.01C369.573 142.28 370.194 142.415 370.888 142.415C371.625 142.415 372.257 142.284 372.789 142.025C373.322 141.765 373.727 141.379 374.008 140.869C374.299 140.359 374.442 139.742 374.442 139.02C374.442 138.202 374.283 137.537 373.964 137.027C373.646 136.517 373.192 136.141 372.6 135.901C372.012 135.65 371.315 135.525 370.513 135.525H368.422V134.745V133.619V132.81ZM216.539 153.6H226.074C228.237 153.6 230.063 153.928 231.553 154.585C233.057 155.242 234.198 156.213 234.976 157.5C235.767 158.774 236.162 160.343 236.162 162.207C236.162 163.52 235.892 164.721 235.351 165.811C234.824 166.888 234.059 167.807 233.057 168.568C232.363 169.094 231.571 169.525 230.683 169.863L237.448 182.04V182.276H233.373L227.113 170.656H220.357V182.276H216.539V153.6ZM226.192 167.564H220.357V156.712H226.074C227.538 156.712 228.731 156.942 229.654 157.401C230.59 157.848 231.276 158.485 231.712 159.312C232.147 160.139 232.364 161.104 232.364 162.207C232.364 163.192 232.133 164.091 231.672 164.905C231.21 165.719 230.525 166.369 229.615 166.855C228.705 167.328 227.564 167.564 226.192 167.564ZM249.832 182.67C248.341 182.67 246.99 182.421 245.776 181.922C244.576 181.41 243.541 180.694 242.671 179.775C241.813 178.856 241.154 177.766 240.693 176.506C240.231 175.245 240 173.867 240 172.37V171.542C240 169.809 240.257 168.266 240.772 166.914C241.286 165.549 241.985 164.393 242.868 163.448C243.752 162.502 244.754 161.787 245.875 161.301C246.996 160.815 248.157 160.572 249.357 160.572C250.887 160.572 252.206 160.835 253.313 161.36C254.434 161.885 255.351 162.621 256.063 163.566C256.775 164.498 257.303 165.601 257.645 166.875C257.988 168.135 258.16 169.514 258.16 171.011V172.646H243.683C243.706 173.554 243.843 174.414 244.095 175.225C244.385 176.105 244.801 176.88 245.341 177.55C245.895 178.219 246.561 178.744 247.339 179.125C248.13 179.506 249.027 179.696 250.029 179.696C251.322 179.696 252.416 179.434 253.313 178.909C254.21 178.383 254.995 177.681 255.667 176.801L257.883 178.554C257.421 179.25 256.834 179.913 256.122 180.543C255.41 181.173 254.533 181.686 253.491 182.079C252.463 182.473 251.243 182.67 249.832 182.67ZM244.095 168.135C243.961 168.612 243.859 169.124 243.79 169.671H254.5V169.396C254.447 168.45 254.25 167.531 253.907 166.638C253.577 165.745 253.05 165.01 252.324 164.433C251.599 163.855 250.61 163.566 249.357 163.566C248.526 163.566 247.761 163.743 247.062 164.098C246.363 164.439 245.763 164.951 245.262 165.634C244.761 166.317 244.372 167.15 244.095 168.135ZM266.092 190.47V180.209C266.791 180.985 267.628 181.582 268.604 182.001C269.646 182.447 270.846 182.67 272.205 182.67C273.537 182.67 274.717 182.401 275.746 181.863C276.774 181.324 277.638 180.569 278.337 179.598C279.049 178.626 279.59 177.484 279.959 176.171C280.329 174.845 280.513 173.407 280.513 171.858V171.444C280.513 169.816 280.329 168.339 279.959 167.013C279.603 165.673 279.069 164.524 278.357 163.566C277.645 162.607 276.768 161.872 275.726 161.36C274.684 160.835 273.49 160.572 272.145 160.572C270.8 160.572 269.613 160.809 268.585 161.281C267.557 161.74 266.681 162.415 265.956 163.307L265.776 160.966H262.413V190.47H266.092ZM266.231 176.998C266.184 176.917 266.137 176.836 266.092 176.754V166.58C266.336 166.149 266.619 165.755 266.943 165.397C267.418 164.859 267.991 164.433 268.664 164.118C269.35 163.802 270.154 163.645 271.077 163.645C272.08 163.645 272.943 163.855 273.668 164.275C274.394 164.682 274.987 165.247 275.449 165.969C275.924 166.678 276.273 167.505 276.497 168.45C276.722 169.383 276.834 170.381 276.834 171.444V171.858C276.834 172.921 276.722 173.926 276.497 174.871C276.273 175.803 275.924 176.63 275.449 177.352C274.987 178.075 274.394 178.646 273.668 179.066C272.957 179.473 272.106 179.677 271.117 179.677C269.917 179.677 268.921 179.434 268.13 178.948C267.338 178.449 266.705 177.799 266.231 176.998ZM284.212 171.858V171.405C284.212 169.868 284.437 168.444 284.885 167.131C285.333 165.805 285.979 164.656 286.823 163.684C287.667 162.699 288.69 161.938 289.89 161.399C291.09 160.848 292.435 160.572 293.925 160.572C295.429 160.572 296.78 160.848 297.98 161.399C299.194 161.938 300.222 162.699 301.066 163.684C301.924 164.656 302.576 165.805 303.025 167.131C303.473 168.444 303.697 169.868 303.697 171.405V171.858C303.697 173.394 303.473 174.819 303.025 176.131C302.576 177.444 301.924 178.593 301.066 179.578C300.222 180.55 299.2 181.311 298 181.863C296.813 182.401 295.468 182.67 293.965 182.67C292.461 182.67 291.11 182.401 289.909 181.863C288.709 181.311 287.681 180.55 286.823 179.578C285.979 178.593 285.333 177.444 284.885 176.131C284.437 174.819 284.212 173.394 284.212 171.858ZM287.872 171.405V171.858C287.872 172.921 287.997 173.926 288.248 174.871C288.498 175.803 288.874 176.63 289.375 177.352C289.89 178.075 290.529 178.646 291.294 179.066C292.059 179.473 292.949 179.677 293.965 179.677C294.967 179.677 295.844 179.473 296.596 179.066C297.36 178.646 297.994 178.075 298.495 177.352C298.996 176.63 299.372 175.803 299.622 174.871C299.886 173.926 300.018 172.921 300.018 171.858V171.405C300.018 170.354 299.886 169.363 299.622 168.431C299.372 167.485 298.989 166.652 298.475 165.929C297.974 165.194 297.341 164.616 296.576 164.196C295.824 163.776 294.941 163.566 293.925 163.566C292.923 163.566 292.039 163.776 291.274 164.196C290.523 164.616 289.89 165.194 289.375 165.929C288.874 166.652 288.498 167.485 288.248 168.431C287.997 169.363 287.872 170.354 287.872 171.405ZM320.749 176.624C320.749 176.099 320.63 175.613 320.393 175.167C320.169 174.707 319.701 174.293 318.988 173.926C318.289 173.545 317.235 173.217 315.824 172.941C314.637 172.691 313.562 172.396 312.599 172.054C311.649 171.713 310.839 171.3 310.166 170.814C309.507 170.328 308.999 169.757 308.643 169.1C308.287 168.444 308.109 167.676 308.109 166.796C308.109 165.956 308.293 165.161 308.663 164.413C309.045 163.664 309.579 163.001 310.265 162.424C310.964 161.846 311.801 161.393 312.777 161.065C313.753 160.736 314.841 160.572 316.041 160.572C317.756 160.572 319.219 160.874 320.433 161.478C321.646 162.082 322.576 162.89 323.222 163.901C323.868 164.899 324.191 166.008 324.191 167.229H320.531C320.531 166.638 320.353 166.067 319.998 165.516C319.655 164.951 319.147 164.485 318.474 164.118C317.815 163.75 317.004 163.566 316.041 163.566C315.026 163.566 314.201 163.724 313.568 164.039C312.949 164.341 312.493 164.728 312.203 165.201C311.927 165.673 311.788 166.172 311.788 166.697C311.788 167.091 311.854 167.446 311.986 167.761C312.131 168.063 312.381 168.345 312.738 168.608C313.094 168.857 313.595 169.094 314.241 169.317C314.887 169.54 315.712 169.763 316.714 169.987C318.468 170.381 319.912 170.853 321.046 171.405C322.18 171.956 323.024 172.632 323.578 173.433C324.132 174.234 324.409 175.206 324.409 176.348C324.409 177.28 324.211 178.134 323.815 178.909C323.433 179.683 322.872 180.353 322.134 180.917C321.408 181.469 320.538 181.902 319.523 182.217C318.52 182.519 317.393 182.67 316.14 182.67C314.254 182.67 312.658 182.335 311.353 181.666C310.047 180.996 309.058 180.13 308.385 179.066C307.713 178.002 307.377 176.88 307.377 175.698H311.056C311.109 176.696 311.399 177.49 311.927 178.081C312.454 178.659 313.1 179.073 313.865 179.322C314.63 179.559 315.388 179.677 316.14 179.677C317.142 179.677 317.98 179.545 318.652 179.283C319.338 179.02 319.859 178.659 320.215 178.199C320.571 177.74 320.749 177.215 320.749 176.624ZM333.192 160.966V182.276H329.512V160.966H333.192ZM329.236 155.314C329.236 154.723 329.414 154.224 329.77 153.817C330.139 153.41 330.679 153.206 331.392 153.206C332.091 153.206 332.625 153.41 332.994 153.817C333.377 154.224 333.568 154.723 333.568 155.314C333.568 155.878 333.377 156.364 332.994 156.771C332.625 157.165 332.091 157.362 331.392 157.362C330.679 157.362 330.139 157.165 329.77 156.771C329.414 156.364 329.236 155.878 329.236 155.314ZM348.028 160.966V163.763H344.032V176.998C344.032 177.72 344.144 178.265 344.369 178.633C344.593 179 344.883 179.243 345.239 179.361C345.595 179.48 345.977 179.539 346.386 179.539C346.69 179.539 347.006 179.513 347.336 179.46C347.679 179.394 347.936 179.342 348.107 179.302L348.127 182.276C347.837 182.368 347.455 182.454 346.98 182.532C346.518 182.624 345.958 182.67 345.298 182.67C344.401 182.67 343.577 182.493 342.826 182.138C342.074 181.784 341.474 181.193 341.025 180.366C340.59 179.526 340.373 178.396 340.373 176.978V163.763H336.456V160.966H340.373V155.786H344.032V160.966H348.028ZM350.956 171.858V171.405C350.956 169.868 351.18 168.444 351.628 167.131C352.077 165.805 352.723 164.656 353.567 163.684C354.411 162.699 355.433 161.938 356.633 161.399C357.833 160.848 359.178 160.572 360.669 160.572C362.172 160.572 363.524 160.848 364.724 161.399C365.937 161.938 366.966 162.699 367.809 163.684C368.668 164.656 369.319 165.805 369.767 167.131C370.216 168.444 370.44 169.868 370.44 171.405V171.858C370.44 173.394 370.216 174.819 369.767 176.131C369.319 177.444 368.668 178.593 367.809 179.578C366.966 180.55 365.943 181.311 364.744 181.863C363.557 182.401 362.212 182.67 360.708 182.67C359.205 182.67 357.853 182.401 356.653 181.863C355.453 181.311 354.424 180.55 353.567 179.578C352.723 178.593 352.077 177.444 351.628 176.131C351.18 174.819 350.956 173.394 350.956 171.858ZM354.615 171.405V171.858C354.615 172.921 354.741 173.926 354.991 174.871C355.242 175.803 355.618 176.63 356.119 177.352C356.633 178.075 357.273 178.646 358.038 179.066C358.802 179.473 359.693 179.677 360.708 179.677C361.711 179.677 362.587 179.473 363.339 179.066C364.104 178.646 364.737 178.075 365.238 177.352C365.74 176.63 366.116 175.803 366.367 174.871C366.629 173.926 366.761 172.921 366.761 171.858V171.405C366.761 170.354 366.629 169.363 366.367 168.431C366.116 167.485 365.732 166.652 365.219 165.929C364.717 165.194 364.084 164.616 363.319 164.196C362.568 163.776 361.684 163.566 360.669 163.566C359.666 163.566 358.783 163.776 358.018 164.196C357.266 164.616 356.633 165.194 356.119 165.929C355.618 166.652 355.242 167.485 354.991 168.431C354.741 169.363 354.615 170.354 354.615 171.405ZM378.691 182.276V167.126C378.947 166.53 379.282 166.013 379.698 165.575C380.147 165.102 380.695 164.735 381.34 164.472C381.986 164.209 382.731 164.078 383.577 164.078C383.92 164.078 384.222 164.091 384.487 164.118C384.762 164.131 385.054 164.17 385.357 164.236L385.375 160.848C385.243 160.782 385.005 160.723 384.665 160.671C384.322 160.605 384.017 160.572 383.755 160.572C382.594 160.572 381.592 160.822 380.746 161.321C379.917 161.807 379.231 162.489 378.691 163.369C378.68 163.383 378.672 163.398 378.664 163.412L378.591 160.966H375.031V182.276H378.691ZM386.761 160.966L394.402 182.046L393.605 184.207C393.316 185.086 392.965 185.776 392.557 186.274C392.16 186.786 391.674 187.148 391.093 187.358C390.513 187.581 389.808 187.693 388.976 187.693C388.884 187.693 388.719 187.679 388.481 187.653C388.257 187.64 388.093 187.627 387.987 187.614L388.006 190.568C388.192 190.62 388.508 190.686 388.957 190.765C389.405 190.844 389.775 190.883 390.064 190.883C391.039 190.883 391.876 190.706 392.576 190.351C393.289 190.01 393.897 189.564 394.396 189.012C394.899 188.461 395.307 187.876 395.623 187.259C395.952 186.655 396.217 186.091 396.414 185.565L405 160.966H401.084L396.114 176.91L390.756 160.966H386.761Z" fill="white"/>
</svg>
