<svg width="500" height="300" viewBox="0 0 500 300" fill="none" xmlns="http://www.w3.org/2000/svg">
<rect width="500" height="300" fill="#080808"/>
<path fill-rule="evenodd" clip-rule="evenodd" d="M15.363 0L0 15.363V43.6473L43.6473 0H15.363ZM71.9316 0L0 71.9316V100.216L100.216 0H71.9316ZM128.5 0L0 128.5V156.784L156.784 0H128.5ZM185.069 0L0 185.069V213.353L213.353 0H185.069ZM241.637 0L0 241.637V269.921L269.921 0H241.637ZM298.206 0L0 298.206V299.716H26.774L326.49 0H298.206ZM354.774 0L55.0584 299.716H83.3427L383.059 0H354.774ZM411.343 0L111.627 299.716H139.911L439.627 0H411.343ZM467.911 0L168.195 299.716H196.48L496.196 0H467.911ZM422.754 299.716H394.47L500 194.186V222.47L422.754 299.716ZM337.901 299.716H366.185L500 165.901V137.617L337.901 299.716ZM451.038 299.716H479.322L500 279.038V250.754L451.038 299.716ZM500 81.0485V109.333L309.617 299.716H281.333L500 81.0485ZM224.764 299.716H253.048L500 52.7642V24.48L224.764 299.716Z" fill="#FA6400"/>
<path fill-rule="evenodd" clip-rule="evenodd" d="M198.911 99H194.066H189.994H185.184V150.118H195.681V135.583L194.633 111.843L208.459 150.118H215.621L229.447 111.843L228.399 135.583V150.118H238.931V99H234.086H230.014H225.169L212.04 136.531L198.911 99ZM270.596 99H273.264L292.361 150.118H281.127L277.582 139.34H259.212L255.676 150.118H244.477L263.469 99H266.067H270.596ZM261.918 131.089H274.869L268.385 111.376L261.918 131.089ZM308.299 150.118V99H297.802V150.118H308.299ZM359.763 150.118V99H349.266V133.301L328.695 99H318.163V150.118H328.695V115.852L349.231 150.118H359.763ZM158.894 164.235L151.893 188.847L150.923 193.035L150.222 188.363L144.651 164.235H140L148.551 199.506H149.423H151.893H152.79L160.323 173.803L160.876 171.103L161.437 173.803L168.704 199.506H169.6H172.071H172.943L181.469 164.235H176.794L171.344 188.338L170.595 193.138L169.6 188.847L162.793 164.235H162.285H159.451H158.894ZM191.11 199.07C192.595 199.684 194.25 199.991 196.075 199.991C197.803 199.991 199.297 199.748 200.556 199.264C201.832 198.779 202.906 198.15 203.778 197.374C204.65 196.599 205.369 195.784 205.934 194.928L203.221 192.772C202.397 193.854 201.436 194.718 200.339 195.364C199.24 196.01 197.9 196.333 196.317 196.333C195.09 196.333 193.992 196.099 193.023 195.63C192.071 195.162 191.255 194.516 190.577 193.692C189.915 192.869 189.406 191.916 189.051 190.833C188.743 189.836 188.574 188.778 188.546 187.66H206.273V185.65C206.273 183.808 206.063 182.113 205.643 180.562C205.223 178.996 204.578 177.639 203.705 176.493C202.833 175.33 201.711 174.425 200.339 173.779C198.982 173.133 197.367 172.81 195.494 172.81C194.024 172.81 192.603 173.109 191.231 173.707C189.858 174.304 188.631 175.184 187.549 176.347C186.467 177.51 185.611 178.931 184.981 180.611C184.352 182.274 184.037 184.172 184.037 186.304V187.321C184.037 189.162 184.319 190.858 184.884 192.408C185.45 193.959 186.257 195.299 187.307 196.43C188.372 197.56 189.64 198.44 191.11 199.07ZM188.678 184.002C188.762 183.329 188.887 182.699 189.051 182.113C189.39 180.901 189.866 179.876 190.48 179.036C191.094 178.196 191.828 177.566 192.684 177.146C193.54 176.71 194.477 176.493 195.494 176.493C197.028 176.493 198.239 176.848 199.127 177.558C200.015 178.269 200.661 179.173 201.065 180.272C201.485 181.37 201.727 182.5 201.792 183.663V184.002H188.678ZM215.986 162.296H211.481V199.506H215.599L215.83 196.476C215.873 196.534 215.917 196.591 215.962 196.648C216.818 197.73 217.867 198.562 219.111 199.143C220.37 199.708 221.832 199.991 223.495 199.991C225.126 199.991 226.571 199.66 227.831 198.997C229.091 198.335 230.157 197.407 231.029 196.211C231.9 195.016 232.562 193.611 233.015 191.997C233.467 190.365 233.693 188.597 233.693 186.691V186.182C233.693 184.18 233.467 182.363 233.015 180.732C232.562 179.085 231.9 177.671 231.029 176.493C230.173 175.314 229.107 174.409 227.831 173.779C226.555 173.133 225.094 172.81 223.447 172.81C221.8 172.81 220.354 173.101 219.111 173.682C217.879 174.242 216.838 175.064 215.986 176.147V162.296ZM215.986 192.046V180.661C216.334 179.949 216.762 179.31 217.27 178.745C217.851 178.083 218.554 177.558 219.377 177.171C220.217 176.783 221.202 176.589 222.332 176.589C223.608 176.589 224.682 176.848 225.554 177.365C226.426 177.865 227.129 178.56 227.661 179.448C228.194 180.32 228.582 181.337 228.824 182.5C229.067 183.647 229.188 184.874 229.188 186.182V186.691C229.188 187.999 229.058 189.227 228.8 190.373C228.542 191.52 228.138 192.529 227.589 193.401C227.056 194.274 226.354 194.96 225.482 195.461C224.626 195.945 223.592 196.187 222.381 196.187C220.911 196.187 219.676 195.856 218.675 195.194C217.69 194.532 216.899 193.684 216.301 192.65C216.19 192.451 216.085 192.249 215.986 192.046ZM254.185 190.761C254.476 191.31 254.621 191.908 254.621 192.554C254.621 193.28 254.403 193.926 253.967 194.492C253.531 195.057 252.893 195.501 252.054 195.824C251.23 196.147 250.205 196.308 248.977 196.308C248.057 196.308 247.129 196.163 246.192 195.872C245.255 195.566 244.464 195.057 243.818 194.346C243.172 193.619 242.817 192.643 242.752 191.415H238.247C238.247 192.869 238.658 194.249 239.482 195.557C240.306 196.866 241.517 197.932 243.116 198.755C244.714 199.579 246.668 199.991 248.977 199.991C250.512 199.991 251.892 199.805 253.12 199.433C254.363 199.046 255.429 198.513 256.317 197.835C257.221 197.14 257.907 196.316 258.376 195.364C258.86 194.411 259.102 193.361 259.102 192.214C259.102 190.809 258.763 189.614 258.085 188.629C257.407 187.644 256.373 186.812 254.985 186.134C253.596 185.456 251.828 184.874 249.68 184.39C248.452 184.115 247.443 183.841 246.652 183.566C245.861 183.292 245.247 183.001 244.811 182.694C244.375 182.371 244.068 182.024 243.891 181.652C243.729 181.265 243.648 180.829 243.648 180.344C243.648 179.698 243.818 179.085 244.157 178.503C244.512 177.922 245.069 177.445 245.829 177.074C246.604 176.686 247.613 176.493 248.856 176.493C250.035 176.493 251.028 176.719 251.835 177.171C252.659 177.623 253.281 178.196 253.701 178.891C254.137 179.569 254.355 180.272 254.355 180.998H258.836C258.836 179.496 258.44 178.132 257.649 176.904C256.858 175.661 255.719 174.668 254.234 173.925C252.748 173.182 250.955 172.81 248.856 172.81C247.387 172.81 246.054 173.012 244.859 173.416C243.665 173.82 242.639 174.377 241.783 175.088C240.944 175.798 240.289 176.614 239.821 177.534C239.369 178.455 239.143 179.432 239.143 180.466C239.143 181.547 239.361 182.492 239.797 183.3C240.233 184.107 240.855 184.81 241.662 185.407C242.486 186.005 243.479 186.514 244.642 186.933C245.82 187.353 247.136 187.717 248.59 188.024C250.318 188.363 251.61 188.766 252.465 189.235C253.337 189.687 253.911 190.196 254.185 190.761ZM269.857 199.506V173.295H265.352V199.506H269.857ZM265.667 164.501C265.231 165.002 265.013 165.615 265.013 166.342C265.013 167.037 265.231 167.634 265.667 168.135C266.119 168.619 266.781 168.862 267.653 168.862C268.509 168.862 269.163 168.619 269.615 168.135C270.083 167.634 270.318 167.037 270.318 166.342C270.318 165.615 270.083 165.002 269.615 164.501C269.163 164.001 268.509 163.75 267.653 163.75C266.781 163.75 266.119 164.001 265.667 164.501ZM288.024 176.735V173.295H283.131V166.924H278.65V173.295H273.854V176.735H278.65V192.99C278.65 194.734 278.916 196.123 279.449 197.156C279.998 198.174 280.733 198.901 281.654 199.337C282.574 199.773 283.583 199.991 284.682 199.991C285.489 199.991 286.175 199.934 286.74 199.821C287.322 199.724 287.79 199.619 288.145 199.506L288.121 195.848C287.911 195.896 287.596 195.961 287.176 196.042C286.773 196.106 286.385 196.139 286.014 196.139C285.513 196.139 285.045 196.066 284.609 195.921C284.173 195.776 283.817 195.477 283.543 195.025C283.269 194.572 283.131 193.902 283.131 193.014V176.735H288.024ZM299.191 199.07C300.677 199.684 302.332 199.991 304.156 199.991C305.884 199.991 307.378 199.748 308.638 199.264C309.913 198.779 310.987 198.15 311.859 197.374C312.731 196.599 313.45 195.784 314.015 194.928L311.302 192.772C310.478 193.854 309.518 194.718 308.42 195.364C307.322 196.01 305.981 196.333 304.399 196.333C303.171 196.333 302.073 196.099 301.104 195.63C300.152 195.162 299.336 194.516 298.658 193.692C297.996 192.869 297.487 191.916 297.132 190.833C296.824 189.836 296.655 188.778 296.627 187.66H314.354V185.65C314.354 183.808 314.144 182.113 313.725 180.562C313.305 178.996 312.659 177.639 311.787 176.493C310.914 175.33 309.792 174.425 308.42 173.779C307.063 173.133 305.448 172.81 303.575 172.81C302.105 172.81 300.684 173.109 299.312 173.707C297.939 174.304 296.712 175.184 295.63 176.347C294.548 177.51 293.692 178.931 293.062 180.611C292.433 182.274 292.118 184.172 292.118 186.304V187.321C292.118 189.162 292.4 190.858 292.965 192.408C293.531 193.959 294.338 195.299 295.388 196.43C296.454 197.56 297.721 198.44 299.191 199.07ZM296.759 184.002C296.843 183.329 296.968 182.699 297.132 182.113C297.471 180.901 297.947 179.876 298.561 179.036C299.175 178.196 299.909 177.566 300.765 177.146C301.621 176.71 302.558 176.493 303.575 176.493C305.109 176.493 306.32 176.848 307.209 177.558C308.097 178.269 308.743 179.173 309.146 180.272C309.566 181.37 309.808 182.5 309.873 183.663V184.002H296.759ZM179.542 99.0674V106.258H140V99.0674H179.542ZM179.542 149.399V137.535H140V149.399H179.542ZM179.542 123.155V133.581H140V123.155H179.542ZM179.542 119.2V110.212H140V119.2H179.542ZM318.759 200.09V195.057H359.739V200.09H318.759ZM318.572 163.78V172.408H359.553V163.78H318.572ZM318.642 182.834V175.284H359.622V182.834H318.642ZM318.704 185.71V192.181H359.685V185.71H318.704Z" fill="white"/>
</svg>
