<svg width="500" height="300" viewBox="0 0 500 300" fill="none" xmlns="http://www.w3.org/2000/svg">
<rect width="500" height="300" fill="#080808"/>
<path fill-rule="evenodd" clip-rule="evenodd" d="M151.479 89V98.3598H100V89L151.479 89ZM233.096 154.899V89.1931H214.283L196.032 134.682L177.593 89.1931H158.686V154.899H174.691V115.4L189.48 154.899H202.396L217.091 115.494V154.899H233.096ZM257.055 154.899L260.986 143.293H285.509L289.44 154.899H306.381L282.607 89.1931H264.075L240.301 154.899H257.055ZM273.247 106.883L281.39 130.938H265.198L273.247 106.883ZM329.622 154.899V89.1931H313.616V154.899H329.622ZM383.995 154.899H400V89.1931H383.995V129.908L357.226 89.1931H341.22V154.899H357.226V114.371L383.995 154.899ZM147.098 211.058L160.143 166.044H153.814L143.933 204.083L133.6 166.044H127.012L116.163 204.212L106.346 166.044H100.081L112.675 211.122L119.198 211.058L130.048 174.827L140.51 211.058H147.098ZM198.672 195.558C198.802 194.309 198.866 193.125 198.866 192.006C198.866 188.777 198.156 185.892 196.735 183.352C195.357 180.768 193.377 178.745 190.793 177.281C188.21 175.817 185.239 175.085 181.881 175.085C178.437 175.085 175.38 175.839 172.71 177.346C170.084 178.809 168.039 180.919 166.575 183.675C165.111 186.43 164.379 189.638 164.379 193.297C164.379 196.957 165.133 200.186 166.639 202.985C168.146 205.74 170.213 207.872 172.839 209.379C175.509 210.885 178.523 211.639 181.881 211.639C186.1 211.639 189.631 210.584 192.473 208.474C195.314 206.322 197.209 203.545 198.156 200.143H191.827C191.138 202.124 189.932 203.717 188.21 204.922C186.531 206.085 184.421 206.666 181.881 206.666C178.781 206.666 176.133 205.697 173.937 203.76C171.785 201.779 170.601 199.045 170.385 195.558H198.672ZM191.31 185.031C192.3 186.624 192.795 188.54 192.795 190.779H170.45C170.751 187.42 171.935 184.794 174.002 182.9C176.112 181.005 178.652 180.058 181.623 180.058C183.689 180.058 185.562 180.489 187.241 181.35C188.964 182.168 190.32 183.395 191.31 185.031ZM217.796 177.087C215.471 178.422 213.706 180.144 212.501 182.254V163.267H206.624V211.058H212.501V204.535C213.663 206.602 215.385 208.302 217.667 209.637C219.992 210.972 222.683 211.639 225.74 211.639C228.883 211.639 231.725 210.864 234.265 209.314C236.848 207.764 238.872 205.59 240.336 202.791C241.8 199.993 242.532 196.806 242.532 193.233C242.532 189.616 241.8 186.452 240.336 183.739C238.872 180.984 236.87 178.852 234.33 177.346C231.789 175.839 228.926 175.085 225.74 175.085C222.769 175.085 220.121 175.753 217.796 177.087ZM234.911 186.258C235.987 188.239 236.525 190.563 236.525 193.233C236.525 195.945 235.987 198.313 234.911 200.337C233.834 202.318 232.371 203.846 230.519 204.922C228.711 205.956 226.709 206.472 224.513 206.472C222.36 206.472 220.358 205.956 218.507 204.922C216.699 203.846 215.235 202.318 214.115 200.337C213.039 198.313 212.501 195.967 212.501 193.297C212.501 190.671 213.039 188.368 214.115 186.387C215.235 184.364 216.699 182.835 218.507 181.802C220.358 180.725 222.36 180.187 224.513 180.187C226.709 180.187 228.711 180.704 230.519 181.737C232.371 182.771 233.834 184.277 234.911 186.258ZM255.499 210.283C257.651 211.187 260.084 211.639 262.796 211.639C265.337 211.639 267.576 211.208 269.513 210.347C271.494 209.443 273.022 208.216 274.098 206.666C275.175 205.116 275.713 203.372 275.713 201.435C275.67 199.282 275.067 197.538 273.905 196.204C272.785 194.869 271.429 193.879 269.836 193.233C268.243 192.544 266.176 191.855 263.636 191.166C261.612 190.607 260.019 190.111 258.857 189.681C257.738 189.207 256.79 188.604 256.015 187.873C255.283 187.098 254.917 186.129 254.917 184.966C254.917 183.502 255.542 182.318 256.79 181.414C258.039 180.51 259.718 180.058 261.828 180.058C264.11 180.058 265.918 180.618 267.253 181.737C268.63 182.857 269.384 184.342 269.513 186.193H275.39C275.218 182.749 273.926 180.037 271.515 178.056C269.104 176.075 265.94 175.085 262.022 175.085C259.481 175.085 257.221 175.537 255.24 176.441C253.26 177.303 251.731 178.487 250.655 179.993C249.579 181.5 249.04 183.158 249.04 184.966C249.04 187.248 249.622 189.1 250.784 190.52C251.99 191.898 253.41 192.953 255.047 193.685C256.726 194.374 258.878 195.063 261.505 195.752C264.39 196.484 266.521 197.237 267.899 198.012C269.276 198.744 269.965 199.885 269.965 201.435C269.965 202.942 269.319 204.19 268.028 205.181C266.736 206.171 264.971 206.666 262.732 206.666C260.321 206.666 258.362 206.106 256.855 204.987C255.391 203.868 254.573 202.425 254.401 200.66H248.33C248.459 202.813 249.148 204.729 250.397 206.408C251.645 208.044 253.346 209.336 255.499 210.283ZM284.203 168.756C284.978 169.531 285.926 169.919 287.045 169.919C288.121 169.919 289.025 169.531 289.757 168.756C290.532 167.981 290.92 167.034 290.92 165.914C290.92 164.795 290.532 163.848 289.757 163.073C289.025 162.298 288.121 161.91 287.045 161.91C285.926 161.91 284.978 162.298 284.203 163.073C283.428 163.848 283.041 164.795 283.041 165.914C283.041 167.034 283.428 167.981 284.203 168.756ZM289.887 211.058V175.666H284.01V211.058H289.887ZM307.072 201.37V180.51H316.307V175.666H307.072V166.754H301.194V175.666H296.609V180.51H301.194V201.37C301.194 204.815 302.013 207.29 303.649 208.797C305.285 210.304 307.739 211.058 311.011 211.058H316.307V206.085H311.98C310.172 206.085 308.901 205.74 308.17 205.052C307.438 204.32 307.072 203.093 307.072 201.37ZM355.525 195.558C355.654 194.309 355.719 193.125 355.719 192.006C355.719 188.777 355.008 185.892 353.588 183.352C352.21 180.768 350.229 178.745 347.646 177.281C345.063 175.817 342.092 175.085 338.734 175.085C335.289 175.085 332.232 175.839 329.563 177.346C326.936 178.809 324.891 180.919 323.427 183.675C321.964 186.43 321.232 189.638 321.232 193.297C321.232 196.957 321.985 200.186 323.492 202.985C324.999 205.74 327.066 207.872 329.692 209.379C332.361 210.885 335.375 211.639 338.734 211.639C342.953 211.639 346.483 210.584 349.325 208.474C352.167 206.322 354.061 203.545 355.008 200.143H348.679C347.99 202.124 346.785 203.717 345.063 204.922C343.383 206.085 341.274 206.666 338.734 206.666C335.634 206.666 332.986 205.697 330.79 203.76C328.637 201.779 327.453 199.045 327.238 195.558H355.525ZM348.163 185.031C349.153 186.624 349.648 188.54 349.648 190.779H327.302C327.604 187.42 328.788 184.794 330.854 182.9C332.964 181.005 335.504 180.058 338.475 180.058C340.542 180.058 342.415 180.489 344.094 181.35C345.816 182.168 347.172 183.395 348.163 185.031ZM151.479 154.519V139.075H100V154.519H151.479ZM151.479 120.355V133.927H100V120.355H151.479ZM151.479 115.207V103.508H100V115.207H151.479ZM362.543 211.526V204.974H399.982V211.526H362.543ZM362.543 164.259V175.49H399.982V164.259H362.543ZM362.543 189.062V179.234H399.982V189.062H362.543ZM362.543 192.806V201.23H399.982V192.806H362.543Z" fill="white"/>
<path fill-rule="evenodd" clip-rule="evenodd" d="M0 20L1.14441e-05 0H20H40H60L371.711 3.14713e-05L399.711 3.43323e-05L427.711 3.71933e-05L455.711 0L455.853 0.14209L385.142 70.8528L371 56.7106L407.711 20L379.995 20L329.142 70.8528L315 56.7106L351.711 20L60 20L60 212H40L40 20H20L20 252H0V20Z" fill="#FA6400"/>
<path fill-rule="evenodd" clip-rule="evenodd" d="M44 299.858L114.711 229.147L128.853 243.289L92.1422 280L119.858 280L170.711 229.147L184.853 243.289L148.142 280L439.853 280L439.853 87.9999L459.853 87.9999L459.853 280L479.853 280L479.853 47.9999L499.853 47.9999L499.853 280L499.853 300L479.853 300L459.853 300L439.853 300L128.142 300L128.142 300L100.142 300L100.142 300L72.1422 300L72.1421 300L44.1421 300L44 299.858Z" fill="#FA6400"/>
</svg>
