<svg width="500" height="300" viewBox="0 0 500 300" fill="none" xmlns="http://www.w3.org/2000/svg">
<rect width="500" height="300" fill="#080808"/>
<path fill-rule="evenodd" clip-rule="evenodd" d="M164.615 97V105.112H120V97L164.615 97ZM235.35 154.112V97.1673H219.045L203.227 136.591L187.247 97.1673H170.861V154.112H184.732V119.88L197.549 154.112H208.743L221.479 119.962V154.112H235.35ZM256.114 154.112L259.521 144.054H280.774L284.181 154.112H298.863L278.259 97.1673H262.198L241.594 154.112H256.114ZM270.148 112.499L277.205 133.346H263.171L270.148 112.499ZM319.006 154.112V97.1673H305.134V154.112H319.006ZM366.129 154.112H380V97.1673H366.129V132.454L342.929 97.1673H329.058V154.112H342.929V118.988L366.129 154.112ZM160.818 202.783L172.124 163.771H166.639L158.075 196.738L149.12 163.771H143.411L134.008 196.85L125.5 163.771H120.071L130.985 202.839L136.638 202.783L146.041 171.383L155.109 202.783H160.818ZM205.516 189.35C205.628 188.268 205.684 187.242 205.684 186.272C205.684 183.473 205.068 180.973 203.837 178.772C202.643 176.533 200.926 174.779 198.688 173.51C196.449 172.241 193.874 171.607 190.964 171.607C187.978 171.607 185.329 172.26 183.016 173.566C180.739 174.835 178.967 176.663 177.698 179.051C176.43 181.439 175.795 184.219 175.795 187.391C175.795 190.563 176.448 193.361 177.754 195.787C179.06 198.175 180.851 200.022 183.127 201.328C185.441 202.634 188.053 203.287 190.964 203.287C194.62 203.287 197.68 202.373 200.143 200.544C202.606 198.679 204.247 196.272 205.068 193.324H199.583C198.986 195.041 197.941 196.421 196.449 197.466C194.993 198.474 193.165 198.977 190.964 198.977C188.277 198.977 185.982 198.138 184.079 196.459C182.213 194.742 181.187 192.373 181.001 189.35H205.516ZM199.135 180.227C199.994 181.607 200.423 183.268 200.423 185.208H181.057C181.318 182.298 182.344 180.022 184.135 178.38C185.963 176.738 188.165 175.917 190.74 175.917C192.531 175.917 194.154 176.29 195.609 177.036C197.102 177.745 198.277 178.809 199.135 180.227ZM222.09 173.342C220.075 174.499 218.545 175.992 217.501 177.82V161.364H212.407V202.783H217.501V197.13C218.508 198.921 220.001 200.395 221.978 201.552C223.993 202.709 226.325 203.287 228.975 203.287C231.699 203.287 234.161 202.615 236.363 201.272C238.602 199.929 240.356 198.044 241.624 195.619C242.893 193.194 243.527 190.432 243.527 187.335C243.527 184.201 242.893 181.458 241.624 179.107C240.356 176.719 238.621 174.872 236.419 173.566C234.217 172.26 231.736 171.607 228.975 171.607C226.4 171.607 224.105 172.186 222.09 173.342ZM236.923 181.29C237.856 183.007 238.322 185.022 238.322 187.335C238.322 189.686 237.856 191.738 236.923 193.492C235.99 195.209 234.721 196.533 233.117 197.466C231.549 198.362 229.814 198.809 227.911 198.809C226.046 198.809 224.31 198.362 222.706 197.466C221.139 196.533 219.87 195.209 218.9 193.492C217.967 191.738 217.501 189.705 217.501 187.391C217.501 185.115 217.967 183.119 218.9 181.402C219.87 179.648 221.139 178.324 222.706 177.428C224.31 176.495 226.046 176.029 227.911 176.029C229.814 176.029 231.549 176.477 233.117 177.372C234.721 178.268 235.99 179.574 236.923 181.29ZM254.766 202.112C256.631 202.895 258.739 203.287 261.09 203.287C263.292 203.287 265.232 202.914 266.911 202.168C268.628 201.384 269.952 200.321 270.885 198.977C271.818 197.634 272.285 196.123 272.285 194.444C272.247 192.578 271.725 191.067 270.717 189.91C269.747 188.753 268.572 187.895 267.191 187.335C265.811 186.738 264.019 186.141 261.818 185.544C260.064 185.059 258.684 184.63 257.676 184.257C256.706 183.846 255.885 183.324 255.213 182.69C254.579 182.018 254.262 181.178 254.262 180.171C254.262 178.902 254.803 177.876 255.885 177.092C256.967 176.309 258.422 175.917 260.251 175.917C262.228 175.917 263.796 176.402 264.952 177.372C266.146 178.342 266.799 179.63 266.911 181.234H272.005C271.856 178.249 270.736 175.898 268.646 174.182C266.557 172.465 263.814 171.607 260.419 171.607C258.217 171.607 256.258 171.999 254.542 172.783C252.825 173.529 251.5 174.555 250.568 175.861C249.635 177.167 249.168 178.604 249.168 180.171C249.168 182.148 249.672 183.753 250.68 184.984C251.724 186.178 252.956 187.093 254.374 187.727C255.829 188.324 257.695 188.921 259.971 189.518C262.471 190.152 264.318 190.805 265.512 191.477C266.706 192.111 267.303 193.1 267.303 194.444C267.303 195.75 266.743 196.832 265.624 197.69C264.505 198.548 262.975 198.977 261.034 198.977C258.945 198.977 257.247 198.492 255.941 197.522C254.672 196.552 253.963 195.302 253.814 193.772H248.553C248.665 195.638 249.262 197.298 250.344 198.753C251.426 200.171 252.9 201.291 254.766 202.112ZM279.643 166.122C280.315 166.794 281.135 167.129 282.106 167.129C283.038 167.129 283.822 166.794 284.456 166.122C285.128 165.45 285.464 164.629 285.464 163.659C285.464 162.689 285.128 161.868 284.456 161.196C283.822 160.525 283.038 160.189 282.106 160.189C281.135 160.189 280.315 160.525 279.643 161.196C278.971 161.868 278.635 162.689 278.635 163.659C278.635 164.629 278.971 165.45 279.643 166.122ZM284.568 202.783V172.111H279.475V202.783H284.568ZM299.462 194.388V176.309H307.466V172.111H299.462V164.387H294.368V172.111H290.395V176.309H294.368V194.388C294.368 197.373 295.078 199.518 296.496 200.824C297.914 202.13 300.04 202.783 302.876 202.783H307.466V198.474H303.716C302.149 198.474 301.048 198.175 300.414 197.578C299.779 196.944 299.462 195.88 299.462 194.388ZM341.455 189.35C341.567 188.268 341.623 187.242 341.623 186.272C341.623 183.473 341.007 180.973 339.776 178.772C338.582 176.533 336.865 174.779 334.626 173.51C332.388 172.241 329.813 171.607 326.902 171.607C323.917 171.607 321.268 172.26 318.954 173.566C316.678 174.835 314.906 176.663 313.637 179.051C312.368 181.439 311.734 184.219 311.734 187.391C311.734 190.563 312.387 193.361 313.693 195.787C314.999 198.175 316.79 200.022 319.066 201.328C321.38 202.634 323.992 203.287 326.902 203.287C330.559 203.287 333.619 202.373 336.082 200.544C338.544 198.679 340.186 196.272 341.007 193.324H335.522C334.925 195.041 333.88 196.421 332.388 197.466C330.932 198.474 329.104 198.977 326.902 198.977C324.216 198.977 321.921 198.138 320.018 196.459C318.152 194.742 317.126 192.373 316.939 189.35H341.455ZM335.074 180.227C335.932 181.607 336.362 183.268 336.362 185.208H316.995C317.257 182.298 318.283 180.022 320.074 178.38C321.902 176.738 324.104 175.917 326.678 175.917C328.47 175.917 330.093 176.29 331.548 177.036C333.041 177.745 334.216 178.809 335.074 180.227ZM164.615 153.783V140.398H120V153.783H164.615ZM164.615 124.175V135.937H120V124.175H164.615ZM164.615 119.713V109.573H120V119.713H164.615ZM347.537 203.189V197.511H379.984V203.189H347.537ZM347.537 162.224V171.958H379.984V162.224H347.537ZM347.537 183.721V175.203H379.984V183.721H347.537ZM347.537 186.965V194.266H379.984V186.965H347.537Z" fill="white"/>
<path fill-rule="evenodd" clip-rule="evenodd" d="M455.853 0.142129L385.142 70.8528L371 56.7107L407.711 20L20 20L20 252H0V20L1.14441e-05 3.78408e-05L20 3.87945e-05L427.711 7.59878e-05L427.711 0H455.711L455.853 0.142129Z" fill="#FA6400"/>
<path fill-rule="evenodd" clip-rule="evenodd" d="M44 299.858L114.711 229.147L128.853 243.289L92.1422 280L479.853 280L479.853 48L499.853 48L499.853 280L499.853 300L479.853 300L72.1422 300L72.1422 300L44.1421 300L44 299.858Z" fill="#FA6400"/>
</svg>
