<?xml version="1.0" standalone="no"?><!DOCTYPE svg PUBLIC "-//W3C//DTD SVG 1.1//EN" "http://www.w3.org/Graphics/SVG/1.1/DTD/svg11.dtd"><svg t="1648985101353" class="icon" viewBox="0 0 1024 1024" version="1.1" xmlns="http://www.w3.org/2000/svg" p-id="4771" xmlns:xlink="http://www.w3.org/1999/xlink" width="200" height="200"><defs><style type="text/css"></style></defs><path d="M585.412525 512.594747L973.601616 124.418586c19.600808-19.600808 19.600808-51.898182 0-71.49899l-2.120404-2.120404c-19.600808-19.600808-51.898182-19.600808-71.49899 0L511.793131 439.518384 123.61697 50.799192c-19.600808-19.600808-51.898182-19.600808-71.49899 0l-2.120404 2.120404c-20.11798 19.600808-20.11798 51.898182 0 71.49899l388.189091 388.189091L49.997576 900.783838c-19.587879 19.600808-19.587879 51.898182 0 71.49899l2.120404 2.120404c19.600808 19.600808 51.898182 19.600808 71.49899 0L511.793131 586.214141l388.189091 388.176162c19.600808 19.600808 51.898182 19.600808 71.49899 0l2.120404-2.120404c19.600808-19.600808 19.600808-51.898182 0-71.49899L585.412525 512.594747z m0 0" p-id="4772" fill="#ffffff"></path></svg>