<svg width="414" height="70" viewBox="0 0 414 70" fill="none" xmlns="http://www.w3.org/2000/svg">
<path d="M40.5 70H29.5V59H40.5V70ZM11 41H0V30H11V41ZM70 41H59V30H70V41ZM40.5 22.2129L50.7129 12L58.4912 19.7783L37.2783 40.9912L29.5 33.2129L29.5127 33.2002H29.5V0H40.5V22.2129Z" fill="white"/>
<path d="M298.5 70H287.5V59H298.5V70ZM269 41H258V30H269V41ZM328 41H317V30H328V41ZM298.5 33.2002H298.479L298.491 33.2129L290.713 40.9912L269.5 19.7783L277.278 12L287.5 22.2217V0H298.5V33.2002Z" fill="white"/>
<path d="M126.5 70H115.5V59H126.5V70ZM126.5 36.4219L144.491 54.4131L136.713 62.1914L115.521 41H115.5V0H126.5V36.4219ZM97 41H86V30H97V41ZM156 41H145V30H156V41Z" fill="white"/>
<path d="M212.5 70H201.5V59H212.5V70ZM212.5 41H212.47L191.278 62.1914L183.5 54.4131L201.5 36.4131V0H212.5V41ZM183 41H172V30H183V41ZM242 41H231V30H242V41Z" fill="white"/>
<path d="M358 69.9785L344 55.9785V24.7998H344.202L358 11.002L358.001 11L358.021 10.9795L358.042 11H392.03L403 0.0302734V0H414V55.7998H413.942L414 55.8574L400 69.8574V70H358V69.9785ZM403 51.3018V15.5869L396.6 21.9873V22H362.558L355 29.5586V51.4219L362.578 59H395.302L403 51.3018Z" fill="white"/>
</svg>
