<svg width="1070" height="309" viewBox="0 0 1070 309" fill="none" xmlns="http://www.w3.org/2000/svg">
<path fill-rule="evenodd" clip-rule="evenodd" d="M30.6045 88.5742H87.8311V150H117.03V7.8125H87.8311V65.7227H30.6045V7.8125H1.30762V150H30.6045V88.5742ZM195.644 143.457C196.824 142.361 197.913 141.235 198.911 140.079C199.62 144.013 200.614 147.32 201.894 150H230.312V148.34C228.944 145.605 227.903 142.415 227.187 138.77C226.47 135.059 226.112 130.306 226.112 124.512V79.2969C226.112 71.0938 224.257 64.2578 220.546 58.7891C216.9 53.3203 211.887 49.2188 205.507 46.4844C199.127 43.75 191.835 42.3828 183.632 42.3828C176.796 42.3828 170.611 43.2617 165.077 45.0195C159.608 46.7773 154.888 49.2188 150.917 52.3438C146.946 55.4036 143.918 58.9518 141.835 62.9883C139.752 67.0247 138.71 71.2891 138.71 75.7812H166.835C166.835 73.112 167.453 70.8008 168.69 68.8477C169.927 66.8294 171.685 65.2995 173.964 64.2578C176.243 63.151 178.944 62.5977 182.069 62.5977C185.715 62.5977 188.677 63.2812 190.956 64.6484C193.3 66.0156 195.025 67.9362 196.132 70.4102C197.239 72.819 197.792 75.7161 197.792 79.1016V85.6445H185.194C177.121 85.6445 170.025 86.4258 163.905 87.9883C157.785 89.4857 152.675 91.7318 148.573 94.7266C144.537 97.6562 141.477 101.27 139.394 105.566C137.31 109.863 136.269 114.779 136.269 120.312C136.269 126.432 137.831 131.901 140.956 136.719C144.146 141.471 148.443 145.215 153.847 147.949C159.315 150.618 165.403 151.953 172.108 151.953C177.382 151.953 181.939 151.172 185.78 149.609C189.621 147.982 192.909 145.931 195.644 143.457ZM196.522 122.168C197.011 121.48 197.434 120.803 197.792 120.135V101.562H185.976C182.265 101.562 179.042 101.986 176.308 102.832C173.573 103.678 171.327 104.883 169.569 106.445C167.812 107.943 166.509 109.701 165.663 111.719C164.882 113.737 164.491 115.951 164.491 118.359C164.491 120.768 165.045 122.949 166.151 124.902C167.258 126.79 168.853 128.288 170.937 129.395C173.02 130.436 175.461 130.957 178.261 130.957C182.493 130.957 186.171 130.111 189.296 128.418C192.421 126.725 194.83 124.642 196.522 122.168ZM275.917 150V80.3055C276.839 78.2419 278.043 76.4408 279.53 74.9023C281.483 72.9492 283.892 71.4844 286.757 70.5078C289.687 69.4661 293.137 68.9453 297.108 68.9453C298.671 68.9453 300.396 69.043 302.284 69.2383C304.237 69.3685 305.897 69.5312 307.265 69.7266L307.753 43.6523C306.711 43.2617 305.377 42.9688 303.749 42.7734C302.121 42.513 300.526 42.3828 298.964 42.3828C294.016 42.3828 289.621 43.5547 285.78 45.8984C281.939 48.2422 278.684 51.5625 276.015 55.8594C275.732 56.3252 275.457 56.7998 275.189 57.2833L274.257 44.3359H247.792V150H275.917ZM372.206 148.047C376.337 145.752 379.912 142.647 382.931 138.734L384.315 150H409.804V0H381.483V53.9443C378.788 50.7793 375.695 48.2275 372.206 46.2891C367.584 43.6849 362.18 42.3828 355.995 42.3828C349.42 42.3828 343.56 43.6849 338.417 46.2891C333.274 48.8932 328.944 52.5716 325.429 57.3242C321.913 62.0768 319.244 67.7734 317.421 74.4141C315.598 80.9896 314.687 88.3138 314.687 96.3867V98.4375C314.687 106.12 315.598 113.216 317.421 119.727C319.244 126.237 321.881 131.901 325.331 136.719C328.847 141.536 333.144 145.28 338.222 147.949C343.365 150.618 349.224 151.953 355.8 151.953C362.05 151.953 367.519 150.651 372.206 148.047ZM379.042 71.875C379.975 73.0749 380.789 74.4028 381.483 75.8586V118.562C379.882 121.894 377.668 124.561 374.843 126.562C371.718 128.711 367.746 129.785 362.929 129.785C359.218 129.785 356.06 129.004 353.456 127.441C350.917 125.814 348.834 123.568 347.206 120.703C345.644 117.773 344.504 114.421 343.788 110.645C343.137 106.868 342.812 102.799 342.812 98.4375V96.3867C342.812 91.8945 343.17 87.7279 343.886 83.8867C344.667 79.9805 345.839 76.5951 347.401 73.7305C349.029 70.8659 351.145 68.6198 353.749 66.9922C356.353 65.2995 359.478 64.4531 363.124 64.4531C366.705 64.4531 369.797 65.1042 372.401 66.4062C375.071 67.7083 377.284 69.5312 379.042 71.875ZM450.429 150H459.12H468.007H474.062L494.068 81.8002L514.101 150H520.253H529.14H537.733L564.491 44.3359H537.245L523.563 113.01L504.237 44.3359H501.796H486.562H483.925L464.638 113.084L450.819 44.3359H423.671L450.429 150ZM633.534 143.457C634.714 142.361 635.803 141.235 636.802 140.079C637.511 144.013 638.505 147.32 639.784 150H668.202V148.34C666.835 145.605 665.793 142.415 665.077 138.77C664.361 135.059 664.003 130.306 664.003 124.512V79.2969C664.003 71.0938 662.147 64.2578 658.437 58.7891C654.791 53.3203 649.778 49.2188 643.397 46.4844C637.017 43.75 629.726 42.3828 621.522 42.3828C614.687 42.3828 608.502 43.2617 602.968 45.0195C597.499 46.7773 592.779 49.2188 588.808 52.3438C584.836 55.4036 581.809 58.9518 579.726 62.9883C577.642 67.0247 576.601 71.2891 576.601 75.7812H604.726C604.726 73.112 605.344 70.8008 606.581 68.8477C607.818 66.8294 609.576 65.2995 611.854 64.2578C614.133 63.151 616.835 62.5977 619.96 62.5977C623.606 62.5977 626.568 63.2812 628.847 64.6484C631.19 66.0156 632.916 67.9362 634.022 70.4102C635.129 72.819 635.683 75.7161 635.683 79.1016V85.6445H623.085C615.012 85.6445 607.916 86.4258 601.796 87.9883C595.676 89.4857 590.565 91.7318 586.464 94.7266C582.427 97.6562 579.367 101.27 577.284 105.566C575.201 109.863 574.159 114.779 574.159 120.312C574.159 126.432 575.722 131.901 578.847 136.719C582.037 141.471 586.334 145.215 591.737 147.949C597.206 150.618 603.293 151.953 609.999 151.953C615.272 151.953 619.83 151.172 623.671 149.609C627.512 147.982 630.8 145.931 633.534 143.457ZM634.413 122.168C634.902 121.48 635.325 120.803 635.683 120.135V101.562H623.866C620.155 101.562 616.933 101.986 614.198 102.832C611.464 103.678 609.218 104.883 607.46 106.445C605.702 107.943 604.4 109.701 603.554 111.719C602.772 113.737 602.382 115.951 602.382 118.359C602.382 120.768 602.935 122.949 604.042 124.902C605.149 126.79 606.744 128.288 608.827 129.395C610.91 130.436 613.352 130.957 616.151 130.957C620.383 130.957 624.062 130.111 627.187 128.418C630.312 126.725 632.72 124.642 634.413 122.168ZM713.808 150V80.3055C714.729 78.2419 715.934 76.4408 717.421 74.9023C719.374 72.9492 721.783 71.4844 724.647 70.5078C727.577 69.4661 731.028 68.9453 734.999 68.9453C736.562 68.9453 738.287 69.043 740.175 69.2383C742.128 69.3685 743.788 69.5312 745.155 69.7266L745.644 43.6523C744.602 43.2617 743.267 42.9688 741.64 42.7734C740.012 42.513 738.417 42.3828 736.854 42.3828C731.907 42.3828 727.512 43.5547 723.671 45.8984C719.83 48.2422 716.575 51.5625 713.905 55.8594C713.623 56.3252 713.348 56.7998 713.08 57.2833L712.147 44.3359H685.683V150H713.808ZM805.604 151.953C797.401 151.953 790.045 150.651 783.534 148.047C777.024 145.378 771.49 141.699 766.933 137.012C762.44 132.324 758.99 126.888 756.581 120.703C754.172 114.453 752.968 107.812 752.968 100.781V96.875C752.968 88.8672 754.107 81.543 756.386 74.9023C758.664 68.2617 761.92 62.5 766.151 57.6172C770.448 52.7344 775.657 48.9909 781.776 46.3867C787.896 43.7174 794.797 42.3828 802.479 42.3828C809.966 42.3828 816.607 43.6198 822.401 46.0938C828.196 48.5677 833.046 52.0833 836.952 56.6406C840.924 61.1979 843.918 66.6667 845.937 73.0469C847.955 79.362 848.964 86.3932 848.964 94.1406V105.859H781.49C781.775 108.185 782.26 110.399 782.948 112.5C784.185 116.081 785.91 119.173 788.124 121.777C790.403 124.382 793.137 126.4 796.327 127.832C799.582 129.264 803.261 129.98 807.362 129.98C812.44 129.98 817.16 129.004 821.522 127.051C825.95 125.033 829.758 122.005 832.948 117.969L846.62 132.812C844.407 136.003 841.379 139.062 837.538 141.992C833.762 144.922 829.205 147.331 823.866 149.219C818.528 151.042 812.44 151.953 805.604 151.953ZM782.362 83.9844C782.159 84.9997 781.983 86.0413 781.832 87.1094H821.327V84.9609C821.327 81.0547 820.611 77.5716 819.179 74.5117C817.812 71.3867 815.728 68.9128 812.929 67.0898C810.129 65.2669 806.549 64.3555 802.187 64.3555C798.476 64.3555 795.285 65.1693 792.616 66.7969C789.947 68.4245 787.766 70.7031 786.073 73.6328C784.446 76.5625 783.209 80.013 782.362 83.9844ZM26.5488 280.949H13.0049H6.06445H0V182.84H5.66016H13.0049H27.7617C34.1855 182.84 40.0479 183.918 45.3486 186.074C50.6494 188.186 55.209 191.263 59.0273 195.306C62.8906 199.304 65.8555 204.155 67.9219 209.86C69.9883 215.521 71.0215 221.899 71.0215 228.997V234.859C71.0215 241.957 69.9883 248.358 67.9219 254.063C65.8555 259.724 62.8682 264.553 58.96 268.551C55.0967 272.549 50.4248 275.626 44.9443 277.782C39.5088 279.894 33.377 280.949 26.5488 280.949ZM26.5488 270.37H13.0049V193.486H27.7617C32.6133 193.486 36.9033 194.272 40.6318 195.845C44.4053 197.417 47.5947 199.73 50.2002 202.785C52.8057 205.795 54.7822 209.501 56.1299 213.903C57.4775 218.261 58.1514 223.247 58.1514 228.862V234.859C58.1514 242.002 56.9609 248.246 54.5801 253.592C52.2441 258.893 48.7402 263.025 44.0684 265.99C39.3965 268.91 33.5566 270.37 26.5488 270.37ZM118.931 282.297C113.854 282.297 109.25 281.443 105.117 279.736C101.029 277.984 97.5029 275.536 94.5381 272.392C91.6182 269.247 89.3721 265.519 87.7998 261.206C86.2275 256.894 85.4414 252.177 85.4414 247.056V244.226C85.4414 238.296 86.3174 233.018 88.0693 228.391C89.8213 223.719 92.2021 219.766 95.2119 216.531C98.2217 213.297 101.636 210.849 105.454 209.187C109.272 207.524 113.226 206.693 117.313 206.693C122.524 206.693 127.017 207.592 130.79 209.389C134.608 211.186 137.73 213.701 140.156 216.936C142.582 220.125 144.379 223.898 145.547 228.256C146.715 232.568 147.299 237.285 147.299 242.406V247.999H97.9864C98.0648 251.108 98.5325 254.051 99.3896 256.826C100.378 259.836 101.793 262.486 103.635 264.777C105.521 267.068 107.79 268.865 110.44 270.168C113.136 271.471 116.19 272.122 119.604 272.122C124.007 272.122 127.735 271.224 130.79 269.427C133.845 267.63 136.518 265.227 138.809 262.217L146.355 268.214C144.783 270.595 142.784 272.863 140.358 275.02C137.933 277.176 134.945 278.928 131.396 280.275C127.893 281.623 123.737 282.297 118.931 282.297ZM99.3896 232.568C98.933 234.199 98.5869 235.951 98.3513 237.824H134.833V236.881C134.653 233.646 133.979 230.502 132.812 227.447C131.688 224.393 129.892 221.877 127.421 219.9C124.95 217.924 121.581 216.936 117.313 216.936C114.483 216.936 111.878 217.542 109.497 218.755C107.116 219.923 105.072 221.675 103.365 224.011C101.658 226.347 100.333 229.199 99.3896 232.568ZM180.047 280.949H181.192H188.402H189.548L215.76 208.041H203.024L184.954 263.9L166.436 208.041H153.633L180.047 280.949ZM257.065 282.297C251.989 282.297 247.385 281.443 243.252 279.736C239.164 277.984 235.638 275.536 232.673 272.392C229.753 269.247 227.507 265.519 225.935 261.206C224.362 256.894 223.576 252.177 223.576 247.056V244.226C223.576 238.296 224.452 233.018 226.204 228.391C227.956 223.719 230.337 219.766 233.347 216.531C236.356 213.297 239.771 210.849 243.589 209.187C247.407 207.524 251.36 206.693 255.448 206.693C260.659 206.693 265.151 207.592 268.925 209.389C272.743 211.186 275.865 213.701 278.291 216.936C280.717 220.125 282.514 223.898 283.682 228.256C284.85 232.568 285.434 237.285 285.434 242.406V247.999H236.121C236.2 251.108 236.667 254.051 237.524 256.826C238.513 259.836 239.928 262.486 241.77 264.777C243.656 267.068 245.925 268.865 248.575 270.168C251.271 271.471 254.325 272.122 257.739 272.122C262.142 272.122 265.87 271.224 268.925 269.427C271.979 267.63 274.652 265.227 276.943 262.217L284.49 268.214C282.918 270.595 280.919 272.863 278.493 275.02C276.067 277.176 273.08 278.928 269.531 280.275C266.027 281.623 261.872 282.297 257.065 282.297ZM237.524 232.568C237.068 234.199 236.722 235.951 236.486 237.824H272.968V236.881C272.788 233.646 272.114 230.502 270.946 227.447C269.823 224.393 268.026 221.877 265.556 219.9C263.085 217.924 259.716 216.936 255.448 216.936C252.618 216.936 250.013 217.542 247.632 218.755C245.251 219.923 243.207 221.675 241.5 224.011C239.793 226.347 238.468 229.199 237.524 232.568ZM313.532 177.449V280.949H300.999V177.449H313.532ZM330.243 245.304V243.754C330.243 238.498 331.007 233.624 332.534 229.132C334.062 224.595 336.263 220.664 339.138 217.34C342.013 213.971 345.494 211.365 349.582 209.523C353.67 207.637 358.252 206.693 363.328 206.693C368.449 206.693 373.054 207.637 377.142 209.523C381.274 211.365 384.778 213.971 387.653 217.34C390.573 220.664 392.797 224.595 394.324 229.132C395.852 233.624 396.615 238.498 396.615 243.754V245.304C396.615 250.56 395.852 255.434 394.324 259.926C392.797 264.418 390.573 268.349 387.653 271.718C384.778 275.042 381.297 277.647 377.209 279.534C373.166 281.376 368.584 282.297 363.463 282.297C358.342 282.297 353.737 281.376 349.649 279.534C345.562 277.647 342.058 275.042 339.138 271.718C336.263 268.349 334.062 264.418 332.534 259.926C331.007 255.434 330.243 250.56 330.243 245.304ZM342.709 243.754V245.304C342.709 248.942 343.136 252.379 343.989 255.613C344.843 258.803 346.123 261.633 347.83 264.104C349.582 266.574 351.761 268.528 354.366 269.966C356.972 271.358 360.004 272.055 363.463 272.055C366.877 272.055 369.864 271.358 372.425 269.966C375.03 268.528 377.187 266.574 378.894 264.104C380.601 261.633 381.881 258.803 382.734 255.613C383.633 252.379 384.082 248.942 384.082 245.304V243.754C384.082 240.16 383.633 236.769 382.734 233.579C381.881 230.345 380.578 227.492 378.826 225.021C377.119 222.506 374.963 220.529 372.357 219.092C369.797 217.654 366.787 216.936 363.328 216.936C359.914 216.936 356.904 217.654 354.299 219.092C351.738 220.529 349.582 222.506 347.83 225.021C346.123 227.492 344.843 230.345 343.989 233.579C343.136 236.769 342.709 240.16 342.709 243.754ZM424.714 308.98V273.877C427.093 276.531 429.945 278.574 433.271 280.006C436.82 281.533 440.908 282.297 445.535 282.297C450.072 282.297 454.093 281.376 457.597 279.534C461.101 277.692 464.043 275.109 466.424 271.785C468.85 268.461 470.691 264.553 471.949 260.061C473.207 255.523 473.836 250.604 473.836 245.304V243.889C473.836 238.318 473.207 233.265 471.949 228.728C470.736 224.146 468.917 220.215 466.491 216.936C464.065 213.656 461.078 211.141 457.529 209.389C453.98 207.592 449.915 206.693 445.333 206.693C440.751 206.693 436.708 207.502 433.204 209.119C429.705 210.689 426.721 212.999 424.252 216.048L423.636 208.041H412.181V308.98H424.714ZM424.875 262.345C424.821 262.248 424.767 262.152 424.714 262.055V227.248C425.544 225.774 426.51 224.426 427.611 223.202C429.229 221.36 431.183 219.9 433.474 218.822C435.81 217.744 438.55 217.205 441.694 217.205C445.108 217.205 448.051 217.924 450.521 219.361C452.992 220.754 455.014 222.686 456.586 225.156C458.203 227.582 459.394 230.412 460.157 233.646C460.921 236.836 461.303 240.25 461.303 243.889V245.304C461.303 248.942 460.921 252.379 460.157 255.613C459.394 258.803 458.203 261.633 456.586 264.104C455.014 266.574 452.992 268.528 450.521 269.966C448.096 271.358 445.198 272.055 441.829 272.055C437.741 272.055 434.35 271.224 431.654 269.562C428.959 267.854 426.803 265.631 425.186 262.891C425.08 262.71 424.977 262.528 424.875 262.345ZM502.137 280.949V227.533C502.608 226.482 503.147 225.488 503.754 224.55C505.236 222.259 507.213 220.462 509.684 219.159C512.154 217.856 515.231 217.205 518.915 217.205C522.06 217.205 524.8 217.744 527.136 218.822C529.472 219.855 531.269 221.518 532.526 223.809C533.829 226.1 534.48 229.154 534.48 232.973V280.949H546.946V232.385C547.111 230.907 547.425 229.486 547.89 228.121C548.653 226.01 549.754 224.146 551.191 222.528C552.629 220.866 554.403 219.563 556.515 218.62C558.626 217.677 561.052 217.205 563.792 217.205C566.981 217.205 569.722 217.677 572.013 218.62C574.349 219.519 576.146 221.113 577.403 223.404C578.706 225.65 579.357 228.817 579.357 232.905V280.949H591.891V233.04C591.891 228.458 591.352 224.505 590.273 221.181C589.195 217.856 587.601 215.139 585.489 213.027C583.423 210.871 580.862 209.276 577.808 208.243C574.798 207.21 571.339 206.693 567.431 206.693C562.804 206.693 558.693 207.547 555.1 209.254C551.506 210.916 548.474 213.185 546.003 216.06C545.38 216.798 544.794 217.564 544.244 218.356C543.189 216.136 541.866 214.247 540.275 212.69C538.164 210.624 535.671 209.119 532.796 208.176C529.921 207.188 526.776 206.693 523.362 206.693C518.511 206.693 514.243 207.569 510.56 209.321C507.122 210.914 504.213 213.133 501.832 215.977L501.463 208.041H489.604V280.949H502.137ZM641.013 282.297C635.937 282.297 631.332 281.443 627.199 279.736C623.111 277.984 619.585 275.536 616.62 272.392C613.7 269.247 611.454 265.519 609.882 261.206C608.31 256.894 607.523 252.177 607.523 247.056V244.226C607.523 238.296 608.399 233.018 610.151 228.391C611.903 223.719 614.284 219.766 617.294 216.531C620.304 213.297 623.718 210.849 627.536 209.187C631.354 207.524 635.308 206.693 639.396 206.693C644.606 206.693 649.099 207.592 652.872 209.389C656.69 211.186 659.812 213.701 662.238 216.936C664.664 220.125 666.461 223.898 667.629 228.256C668.797 232.568 669.381 237.285 669.381 242.406V247.999H620.068C620.147 251.108 620.615 254.051 621.472 256.826C622.46 259.836 623.875 262.486 625.717 264.777C627.604 267.068 629.872 268.865 632.522 270.168C635.218 271.471 638.272 272.122 641.687 272.122C646.089 272.122 649.817 271.224 652.872 269.427C655.927 267.63 658.6 265.227 660.891 262.217L668.438 268.214C666.865 270.595 664.866 272.863 662.44 275.02C660.015 277.176 657.027 278.928 653.479 280.275C649.975 281.623 645.819 282.297 641.013 282.297ZM621.472 232.568C621.015 234.199 620.669 235.951 620.433 237.824H656.915V236.881C656.735 233.646 656.062 230.502 654.894 227.447C653.771 224.393 651.974 221.877 649.503 219.9C647.032 217.924 643.663 216.936 639.396 216.936C636.565 216.936 633.96 217.542 631.579 218.755C629.198 219.923 627.154 221.675 625.447 224.011C623.74 226.347 622.415 229.199 621.472 232.568ZM696.401 280.949V228.919C697.191 227.347 698.112 225.891 699.164 224.55C701.006 222.259 703.185 220.462 705.7 219.159C708.261 217.856 711.091 217.205 714.19 217.205C717.335 217.205 719.985 217.744 722.142 218.822C724.298 219.855 725.938 221.54 727.061 223.876C728.184 226.167 728.745 229.222 728.745 233.04V280.949H741.278V233.175C741.278 228.368 740.739 224.303 739.661 220.979C738.583 217.609 737.011 214.869 734.944 212.758C732.923 210.646 730.475 209.119 727.6 208.176C724.725 207.188 721.49 206.693 717.896 206.693C713.494 206.693 709.474 207.569 705.835 209.321C702.241 211.028 699.142 213.454 696.536 216.599C696.396 216.768 696.257 216.939 696.12 217.112L695.728 208.041H683.936V280.949H696.401ZM790.737 208.041V217.609H777.126V262.891C777.126 265.361 777.508 267.226 778.271 268.483C779.035 269.741 780.023 270.572 781.236 270.977C782.449 271.381 783.752 271.583 785.145 271.583C786.178 271.583 787.256 271.493 788.379 271.313C789.547 271.089 790.423 270.909 791.007 270.774L791.074 280.949C790.086 281.264 788.783 281.556 787.166 281.825C785.594 282.14 783.685 282.297 781.438 282.297C778.384 282.297 775.576 281.69 773.016 280.478C770.455 279.265 768.411 277.243 766.884 274.413C765.401 271.538 764.66 267.675 764.66 262.823V217.609H751.318V208.041H764.66V190.319H777.126V208.041H790.737ZM1061.09 283.5H825V263.5H1040.3L932.05 75.9999L881 164.421V124.421L925.122 47.9999C928.201 42.6666 935.899 42.6666 938.978 47.9999L1068.02 271.5C1071.09 276.833 1067.25 283.5 1061.09 283.5ZM825.24 261L825 261.415V261H825.24ZM942.05 121V111H922.05V121V201V211H942.05V201V121ZM942 224V234V242V252H922V242V234V224H942Z" fill="white"/>
</svg>
