<svg width="1214" height="304" viewBox="0 0 1214 304" fill="none" xmlns="http://www.w3.org/2000/svg">
<path fill-rule="evenodd" clip-rule="evenodd" d="M123.374 7.6V148H89.174V90.2H35.974V148H1.774V7.6H35.974V62.6H89.174V7.6H123.374ZM141.263 92C141.263 80.5333 143.396 70.4667 147.663 61.8C152.063 53.1333 157.996 46.4667 165.463 41.8C172.93 37.1333 181.263 34.8 190.463 34.8C198.33 34.8 205.196 36.4 211.063 39.6C217.063 42.8 221.663 47 224.863 52.2V36.4H259.063V148H224.863V132.2C221.53 137.4 216.863 141.6 210.863 144.8C204.996 148 198.13 149.6 190.263 149.6C181.196 149.6 172.93 147.267 165.463 142.6C157.996 137.8 152.063 131.067 147.663 122.4C143.396 113.6 141.263 103.467 141.263 92ZM224.863 92.2C224.863 83.6667 222.463 76.9333 217.663 72C212.996 67.0667 207.263 64.6 200.463 64.6C193.663 64.6 187.863 67.0667 183.063 72C178.396 76.8 176.063 83.4667 176.063 92C176.063 100.533 178.396 107.333 183.063 112.4C187.863 117.333 193.663 119.8 200.463 119.8C207.263 119.8 212.996 117.333 217.663 112.4C222.463 107.467 224.863 100.733 224.863 92.2ZM318.005 55C322.005 48.8667 327.005 44.0667 333.005 40.6C339.005 37 345.672 35.2 353.005 35.2V71.4H343.605C335.072 71.4 328.672 73.2667 324.405 77C320.139 80.6 318.005 87 318.005 96.2V148H283.805V36.4H318.005V55ZM362.552 92C362.552 80.5333 364.685 70.4667 368.952 61.8C373.352 53.1333 379.285 46.4667 386.752 41.8C394.219 37.1333 402.552 34.8 411.752 34.8C419.085 34.8 425.752 36.3333 431.752 39.4C437.885 42.4667 442.685 46.6 446.152 51.8V0H480.352V148H446.152V132C442.952 137.333 438.352 141.6 432.352 144.8C426.485 148 419.619 149.6 411.752 149.6C402.552 149.6 394.219 147.267 386.752 142.6C379.285 137.8 373.352 131.067 368.952 122.4C364.685 113.6 362.552 103.467 362.552 92ZM446.152 92.2C446.152 83.6667 443.752 76.9333 438.952 72C434.285 67.0667 428.552 64.6 421.752 64.6C414.952 64.6 409.152 67.0667 404.352 72C399.685 76.8 397.352 83.4667 397.352 92C397.352 100.533 399.685 107.333 404.352 112.4C409.152 117.333 414.952 119.8 421.752 119.8C428.552 119.8 434.285 117.333 438.952 112.4C443.752 107.467 446.152 100.733 446.152 92.2ZM635.094 148H597.294L579.694 75.6L561.494 148H523.894L493.494 36.4H527.694L543.494 116.2L562.294 36.4H598.494L617.494 115.8L633.094 36.4H665.294L635.094 148ZM671.536 92C671.536 80.5333 673.67 70.4667 677.937 61.8C682.336 53.1333 688.27 46.4667 695.737 41.8C703.203 37.1333 711.536 34.8 720.737 34.8C728.603 34.8 735.47 36.4 741.336 39.6C747.336 42.8 751.937 47 755.136 52.2V36.4H789.336V148H755.136V132.2C751.803 137.4 747.136 141.6 741.136 144.8C735.27 148 728.403 149.6 720.536 149.6C711.47 149.6 703.203 147.267 695.737 142.6C688.27 137.8 682.336 131.067 677.937 122.4C673.67 113.6 671.536 103.467 671.536 92ZM755.136 92.2C755.136 83.6667 752.737 76.9333 747.937 72C743.27 67.0667 737.536 64.6 730.737 64.6C723.937 64.6 718.136 67.0667 713.336 72C708.67 76.8 706.336 83.4667 706.336 92C706.336 100.533 708.67 107.333 713.336 112.4C718.136 117.333 723.937 119.8 730.737 119.8C737.536 119.8 743.27 117.333 747.937 112.4C752.737 107.467 755.136 100.733 755.136 92.2ZM848.279 55C852.279 48.8667 857.279 44.0667 863.279 40.6C869.279 37 875.945 35.2 883.279 35.2V71.4H873.879C865.345 71.4 858.945 73.2667 854.679 77C850.412 80.6 848.279 87 848.279 96.2V148H814.079V36.4H848.279V55ZM1004.83 90.4C1004.83 93.6 1004.63 96.9333 1004.23 100.4H926.826C927.359 107.333 929.559 112.667 933.426 116.4C937.426 120 942.292 121.8 948.026 121.8C956.559 121.8 962.492 118.2 965.826 111H1002.23C1000.36 118.333 996.959 124.933 992.026 130.8C987.226 136.667 981.159 141.267 973.826 144.6C966.492 147.933 958.292 149.6 949.226 149.6C938.292 149.6 928.559 147.267 920.026 142.6C911.492 137.933 904.826 131.267 900.026 122.6C895.226 113.933 892.826 103.8 892.826 92.2C892.826 80.6 895.159 70.4667 899.826 61.8C904.626 53.1333 911.292 46.4667 919.826 41.8C928.359 37.1333 938.159 34.8 949.226 34.8C960.026 34.8 969.626 37.0667 978.026 41.6C986.426 46.1333 992.959 52.6 997.626 61C1002.43 69.4 1004.83 79.2 1004.83 90.4ZM969.826 81.4C969.826 75.5333 967.826 70.8667 963.826 67.4C959.826 63.9333 954.826 62.2 948.826 62.2C943.092 62.2 938.226 63.8667 934.226 67.2C930.359 70.5333 927.959 75.2667 927.026 81.4H969.826ZM29.946 171.763C40.434 171.763 49.496 173.741 57.132 177.697C64.86 181.561 70.748 187.127 74.796 194.395C78.936 201.663 81.006 210.219 81.006 220.063C81.006 229.907 78.936 238.463 74.796 245.731C70.748 252.907 64.86 258.427 57.132 262.291C49.496 266.063 40.434 267.949 29.946 267.949H0V171.763H29.946ZM29.946 257.599C42.366 257.599 51.842 254.333 58.374 247.801C64.906 241.177 68.172 231.931 68.172 220.063C68.172 208.103 64.86 198.765 58.236 192.049C51.704 185.333 42.274 181.975 29.946 181.975H12.558V257.599H29.946ZM166.57 227.239C166.57 229.631 166.432 232.161 166.156 234.829H105.712C106.172 242.281 108.702 248.123 113.302 252.355C117.994 256.495 123.652 258.565 130.276 258.565C135.704 258.565 140.212 257.323 143.8 254.839C147.48 252.263 150.056 248.859 151.528 244.627H165.052C163.028 251.895 158.98 257.829 152.908 262.429C146.836 266.937 139.292 269.191 130.276 269.191C123.1 269.191 116.66 267.581 110.956 264.361C105.344 261.141 100.928 256.587 97.7083 250.699C94.4883 244.719 92.8783 237.819 92.8783 229.999C92.8783 222.179 94.4423 215.325 97.5703 209.437C100.698 203.549 105.068 199.041 110.68 195.913C116.384 192.693 122.916 191.083 130.276 191.083C137.452 191.083 143.8 192.647 149.32 195.775C154.84 198.903 159.072 203.227 162.016 208.747C165.052 214.175 166.57 220.339 166.57 227.239ZM153.598 224.617C153.598 219.833 152.54 215.739 150.424 212.335C148.308 208.839 145.41 206.217 141.73 204.469C138.142 202.629 134.14 201.709 129.724 201.709C123.376 201.709 117.948 203.733 113.44 207.781C109.024 211.829 106.494 217.441 105.85 224.617H153.598ZM211.298 256.357L234.758 192.325H248.144L218.474 267.949H203.846L174.176 192.325H187.7L211.298 256.357ZM329.502 227.239C329.502 229.631 329.364 232.161 329.088 234.829H268.644C269.104 242.281 271.634 248.123 276.234 252.355C280.926 256.495 286.584 258.565 293.208 258.565C298.636 258.565 303.144 257.323 306.732 254.839C310.412 252.263 312.988 248.859 314.46 244.627H327.984C325.96 251.895 321.912 257.829 315.84 262.429C309.768 266.937 302.224 269.191 293.208 269.191C286.032 269.191 279.592 267.581 273.888 264.361C268.276 261.141 263.86 256.587 260.64 250.699C257.42 244.719 255.81 237.819 255.81 229.999C255.81 222.179 257.374 215.325 260.502 209.437C263.63 203.549 268 199.041 273.612 195.913C279.316 192.693 285.848 191.083 293.208 191.083C300.384 191.083 306.732 192.647 312.252 195.775C317.772 198.903 322.004 203.227 324.948 208.747C327.984 214.175 329.502 220.339 329.502 227.239ZM316.53 224.617C316.53 219.833 315.472 215.739 313.356 212.335C311.24 208.839 308.342 206.217 304.662 204.469C301.074 202.629 297.072 201.709 292.656 201.709C286.308 201.709 280.88 203.733 276.372 207.781C271.956 211.829 269.426 217.441 268.782 224.617H316.53ZM358.636 165.829V267.949H346.078V165.829H358.636ZM413.021 269.191C405.937 269.191 399.497 267.581 393.701 264.361C387.997 261.141 383.489 256.587 380.177 250.699C376.957 244.719 375.347 237.819 375.347 229.999C375.347 222.271 377.003 215.463 380.315 209.575C383.719 203.595 388.319 199.041 394.115 195.913C399.911 192.693 406.397 191.083 413.573 191.083C420.749 191.083 427.235 192.693 433.031 195.913C438.827 199.041 443.381 203.549 446.693 209.437C450.097 215.325 451.799 222.179 451.799 229.999C451.799 237.819 450.051 244.719 446.555 250.699C443.151 256.587 438.505 261.141 432.617 264.361C426.729 267.581 420.197 269.191 413.021 269.191ZM413.021 258.151C417.529 258.151 421.761 257.093 425.717 254.977C429.673 252.861 432.847 249.687 435.239 245.455C437.723 241.223 438.965 236.071 438.965 229.999C438.965 223.927 437.769 218.775 435.377 214.543C432.985 210.311 429.857 207.183 425.993 205.159C422.129 203.043 417.943 201.985 413.435 201.985C408.835 201.985 404.603 203.043 400.739 205.159C396.967 207.183 393.931 210.311 391.631 214.543C389.331 218.775 388.181 223.927 388.181 229.999C388.181 236.163 389.285 241.361 391.493 245.593C393.793 249.825 396.829 252.999 400.601 255.115C404.373 257.139 408.513 258.151 413.021 258.151ZM480.869 206.263C483.353 201.939 487.033 198.351 491.909 195.499C496.877 192.555 502.627 191.083 509.159 191.083C515.875 191.083 521.947 192.693 527.375 195.913C532.895 199.133 537.219 203.687 540.347 209.575C543.475 215.371 545.039 222.133 545.039 229.861C545.039 237.497 543.475 244.305 540.347 250.285C537.219 256.265 532.895 260.911 527.375 264.223C521.947 267.535 515.875 269.191 509.159 269.191C502.719 269.191 497.015 267.765 492.047 264.913C487.171 261.969 483.445 258.335 480.869 254.011V303.829H468.311V192.325H480.869V206.263ZM532.205 229.861C532.205 224.157 531.055 219.189 528.755 214.957C526.455 210.725 523.327 207.505 519.371 205.297C515.507 203.089 511.229 201.985 506.537 201.985C501.937 201.985 497.659 203.135 493.703 205.435C489.839 207.643 486.711 210.909 484.319 215.233C482.019 219.465 480.869 224.387 480.869 229.999C480.869 235.703 482.019 240.717 484.319 245.041C486.711 249.273 489.839 252.539 493.703 254.839C497.659 257.047 501.937 258.151 506.537 258.151C511.229 258.151 515.507 257.047 519.371 254.839C523.327 252.539 526.455 249.273 528.755 245.041C531.055 240.717 532.205 235.657 532.205 229.861ZM652.51 190.945C658.398 190.945 663.642 192.187 668.242 194.671C672.842 197.063 676.476 200.697 679.144 205.573C681.812 210.449 683.146 216.383 683.146 223.375V267.949H670.726V225.169C670.726 217.625 668.84 211.875 665.068 207.919C661.388 203.871 656.374 201.847 650.026 201.847C643.494 201.847 638.296 203.963 634.432 208.195C630.568 212.335 628.636 218.361 628.636 226.273V267.949H616.216V225.169C616.216 217.625 614.33 211.875 610.558 207.919C606.878 203.871 601.864 201.847 595.516 201.847C588.984 201.847 583.786 203.963 579.922 208.195C576.058 212.335 574.126 218.361 574.126 226.273V267.949H561.568V192.325H574.126V203.227C576.61 199.271 579.922 196.235 584.062 194.119C588.294 192.003 592.94 190.945 598 190.945C604.348 190.945 609.96 192.371 614.836 195.223C619.712 198.075 623.346 202.261 625.738 207.781C627.854 202.445 631.35 198.305 636.226 195.361C641.102 192.417 646.53 190.945 652.51 190.945ZM772.746 227.239C772.746 229.631 772.608 232.161 772.332 234.829H711.888C712.348 242.281 714.878 248.123 719.478 252.355C724.17 256.495 729.828 258.565 736.452 258.565C741.88 258.565 746.388 257.323 749.976 254.839C753.656 252.263 756.232 248.859 757.704 244.627H771.228C769.204 251.895 765.156 257.829 759.084 262.429C753.012 266.937 745.468 269.191 736.452 269.191C729.276 269.191 722.836 267.581 717.132 264.361C711.52 261.141 707.104 256.587 703.884 250.699C700.664 244.719 699.054 237.819 699.054 229.999C699.054 222.179 700.618 215.325 703.746 209.437C706.874 203.549 711.244 199.041 716.856 195.913C722.56 192.693 729.092 191.083 736.452 191.083C743.628 191.083 749.976 192.647 755.496 195.775C761.016 198.903 765.248 203.227 768.192 208.747C771.228 214.175 772.746 220.339 772.746 227.239ZM759.774 224.617C759.774 219.833 758.716 215.739 756.6 212.335C754.484 208.839 751.586 206.217 747.906 204.469C744.318 202.629 740.316 201.709 735.9 201.709C729.552 201.709 724.124 203.733 719.616 207.781C715.2 211.829 712.67 217.441 712.026 224.617H759.774ZM826.168 190.945C835.368 190.945 842.82 193.751 848.524 199.363C854.228 204.883 857.08 212.887 857.08 223.375V267.949H844.66V225.169C844.66 217.625 842.774 211.875 839.002 207.919C835.23 203.871 830.078 201.847 823.546 201.847C816.922 201.847 811.632 203.917 807.676 208.057C803.812 212.197 801.88 218.223 801.88 226.135V267.949H789.322V192.325H801.88V203.089C804.364 199.225 807.722 196.235 811.954 194.119C816.278 192.003 821.016 190.945 826.168 190.945ZM892.912 202.675V247.249C892.912 250.929 893.694 253.551 895.258 255.115C896.822 256.587 899.536 257.323 903.4 257.323H912.646V267.949H901.33C894.338 267.949 889.094 266.339 885.598 263.119C882.102 259.899 880.354 254.609 880.354 247.249V202.675H870.556V192.325H880.354V173.281H892.912V192.325H912.646V202.675H892.912ZM1205.85 271.5H969.762V251.5H1185.06L1076.81 64L1025.76 152.421V112.421L1069.88 36C1072.96 30.6667 1080.66 30.6667 1083.74 36L1212.78 259.5C1215.86 264.833 1212.01 271.5 1205.85 271.5ZM970.002 249L969.762 249.416V249H970.002ZM1086.81 109V99H1066.81V109V189V199H1086.81V189V109ZM1086.76 212V222V230V240H1066.76V230V222V212H1086.76Z" fill="white"/>
</svg>
