<svg width="230" height="70" viewBox="0 0 230 70" fill="none" xmlns="http://www.w3.org/2000/svg">
<path fill-rule="evenodd" clip-rule="evenodd" d="M8.48529 -2.68889e-06L34.598 26.1127L60.7107 -4.0605e-07L70 0V7.6813L43.0833 34.598L70 61.5147V69.9066L69.9066 70H61.5148L34.598 43.0833L7.68122 70H-3.0598e-06L-2.65375e-06 60.7107L26.1127 34.5979L-3.70901e-07 8.48522L0 -3.0598e-06L8.48529 -2.68889e-06Z" fill="white"/>
<path fill-rule="evenodd" clip-rule="evenodd" d="M88.4853 3.70904e-07L114.598 26.1127L140.711 2.65375e-06L150 3.0598e-06V7.68126L123.083 34.598L150 61.5147V69.9066L149.907 70H141.515L114.598 43.0833L87.6813 70H80L80 60.7107L106.113 34.598L80 8.48527L80 0L88.4853 3.70904e-07Z" fill="white"/>
<path fill-rule="evenodd" clip-rule="evenodd" d="M168.485 3.70904e-07L194.598 26.1127L220.711 2.65375e-06L230 3.0598e-06V7.68126L203.083 34.598L230 61.5147V69.9066L229.907 70H221.515L194.598 43.0833L167.681 70H160L160 60.7107L186.113 34.598L160 8.48527L160 0L168.485 3.70904e-07Z" fill="white"/>
</svg>
