<svg width="242" height="70" viewBox="0 0 242 70" fill="none" xmlns="http://www.w3.org/2000/svg">
<path fill-rule="evenodd" clip-rule="evenodd" d="M40.5 0H29.5L29.5 54.4436L-1.90735e-06 24.9436V40.5L29.5 70H40.5V69.9949L40.5025 69.9975L70 40.5V24.9437L40.5 54.4436L40.5 0ZM126.5 0H115.5V54.4436L86 24.9436V40.5L115.5 70H126.5V69.9949L126.503 69.9975L156 40.5V24.9437L126.5 54.4436V0ZM201.5 0H212.5V54.4436L242 24.9437V40.5L212.503 69.9975L212.5 69.9949V70H201.5L172 40.5V24.9437L201.5 54.4436V0Z" fill="white"/>
</svg>
