<svg width="1300" height="305" viewBox="0 0 1300 305" fill="none" xmlns="http://www.w3.org/2000/svg">
<path fill-rule="evenodd" clip-rule="evenodd" d="M285.714 228.571C348.833 228.571 400 177.404 400 114.286C400 51.1675 348.833 0 285.714 0C222.596 0 171.429 51.1675 171.429 114.286H10C4.47715 114.286 0 118.763 0 124.286V294.762C0 300.285 4.47716 304.762 10 304.762H275.714C281.237 304.762 285.714 300.285 285.714 294.762V228.571ZM171.429 114.286C171.429 177.404 222.596 228.571 285.714 228.571V124.286C285.714 118.763 281.237 114.286 275.714 114.286H171.429Z" fill="white"/>
<path fill-rule="evenodd" clip-rule="evenodd" d="M735.714 228.571C798.833 228.571 850 177.404 850 114.286C850 51.1675 798.833 0 735.714 0C672.596 0 621.429 51.1675 621.429 114.286H460C454.477 114.286 450 118.763 450 124.286V294.762C450 300.285 454.477 304.762 460 304.762H725.714C731.237 304.762 735.714 300.285 735.714 294.762V228.571ZM621.429 114.286C621.429 177.404 672.596 228.571 735.714 228.571V124.286C735.714 118.763 731.237 114.286 725.714 114.286H621.429Z" fill="white"/>
<path fill-rule="evenodd" clip-rule="evenodd" d="M1185.71 228.571C1248.83 228.571 1300 177.404 1300 114.286C1300 51.1675 1248.83 0 1185.71 0C1122.6 0 1071.43 51.1675 1071.43 114.286H910C904.477 114.286 900 118.763 900 124.286V294.762C900 300.285 904.477 304.762 910 304.762H1175.71C1181.24 304.762 1185.71 300.285 1185.71 294.762V228.571ZM1071.43 114.286C1071.43 177.404 1122.6 228.571 1185.71 228.571V124.286C1185.71 118.763 1181.24 114.286 1175.71 114.286H1071.43Z" fill="white"/>
</svg>
