<svg width="242" height="70" viewBox="0 0 242 70" fill="none" xmlns="http://www.w3.org/2000/svg">
<path fill-rule="evenodd" clip-rule="evenodd" d="M8.48529 -2.68889e-06L34.598 26.1127L60.7107 -4.0605e-07L70 0V7.6813L43.0833 34.598L70 61.5147V69.9066L69.9066 70H61.5148L34.598 43.0833L7.68122 70H-3.0598e-06L-2.65375e-06 60.7107L26.1127 34.5979L-3.70901e-07 8.48522L0 -3.0598e-06L8.48529 -2.68889e-06Z" fill="white"/>
<path fill-rule="evenodd" clip-rule="evenodd" d="M94.4853 3.70904e-07L120.598 26.1127L146.711 2.65375e-06L156 3.0598e-06V7.68126L129.083 34.598L156 61.5147V69.9066L155.907 70H147.515L120.598 43.0833L93.6813 70H86L86 60.7107L112.113 34.598L86 8.48527L86 0L94.4853 3.70904e-07Z" fill="white"/>
<path fill-rule="evenodd" clip-rule="evenodd" d="M180.485 3.70904e-07L206.598 26.1127L232.711 2.65375e-06L242 3.0598e-06V7.68126L215.083 34.598L242 61.5147V69.9066L241.907 70H233.515L206.598 43.0833L179.681 70H172L172 60.7107L198.113 34.598L172 8.48527L172 0L180.485 3.70904e-07Z" fill="white"/>
</svg>
