<svg width="230" height="70" viewBox="0 0 230 70" fill="none" xmlns="http://www.w3.org/2000/svg">
<path fill-rule="evenodd" clip-rule="evenodd" d="M40.5 0H29.5L29.5 54.4436L-1.90735e-06 24.9436V40.5L29.5 70H40.5V69.995L40.5025 69.9974L70 40.5V24.9436L40.5 54.4436L40.5 0ZM120.5 0H109.5V54.4436L80 24.9436V40.5L109.5 70H120.5V69.995L120.503 69.9974L150 40.5V24.9436L120.5 54.4436V0ZM189.5 0H200.5V54.4436L230 24.9436V40.5L200.503 69.9974L200.5 69.995V70H189.5L160 40.5V24.9436L189.5 54.4436V0Z" fill="white"/>
</svg>
