<svg width="500" height="500" viewBox="0 0 500 500" fill="none" xmlns="http://www.w3.org/2000/svg">
<rect width="500" height="500" rx="100" fill="#111111"/>
<path fill-rule="evenodd" clip-rule="evenodd" d="M335.714 326.571C398.833 326.571 450 275.404 450 212.286C450 149.167 398.833 98 335.714 98C272.596 98 221.429 149.167 221.429 212.286H60C54.4772 212.286 50 216.763 50 222.286V392.762C50 398.285 54.4772 402.762 60 402.762H325.714C331.237 402.762 335.714 398.285 335.714 392.762V326.571ZM221.429 212.286C221.429 275.404 272.596 326.571 335.714 326.571V222.286C335.714 216.763 331.237 212.286 325.714 212.286H221.429Z" fill="white"/>
</svg>
