<svg width="242" height="70" viewBox="0 0 242 70" fill="none" xmlns="http://www.w3.org/2000/svg">
<path fill-rule="evenodd" clip-rule="evenodd" d="M41.7193 0H27.7193L4.65686 23.0624L34.8883 53.2939L41.637 46.5452L18.0565 22.9646L34.8143 6.20679L69.8827 41.2751L70 41.1578V28.2808L41.7193 0ZM41.158 70L41.2752 69.8828L58.033 53.1249L64.7817 46.3762L58.1308 39.7253L34.5504 16.1448L27.8016 22.8936L51.3821 46.474L34.6243 63.2318L0 28.6077V41.7194L28.2806 70H41.158Z" fill="white"/>
<path fill-rule="evenodd" clip-rule="evenodd" d="M114.281 70L128.281 70L151.343 46.9376L151.343 46.9375L121.112 16.7061L114.363 23.4548L137.944 47.0354L121.186 63.7932L86.1173 28.7248L86 28.8421L86 41.7193L114.281 70ZM114.842 -3.59815e-06L114.725 0.117176L114.725 0.117237L97.967 16.8751L91.2183 23.6238L97.8692 30.2747L121.45 53.8552L128.198 47.1065L104.618 23.526L121.376 6.76814L156 41.3924L156 28.2806L127.719 -2.47237e-06L114.842 -3.59815e-06Z" fill="white"/>
<path fill-rule="evenodd" clip-rule="evenodd" d="M213.719 0L199.719 0L176.657 23.0624L176.657 23.0625L206.888 53.2939L213.637 46.5452L190.056 22.9646L206.814 6.20679L241.883 41.2752L242 41.1579V28.2807L213.719 0ZM213.158 70L213.275 69.8828L213.275 69.8828L230.033 53.1249L236.782 46.3762L230.131 39.7253L206.55 16.1448L199.802 22.8935L223.382 46.474L206.624 63.2319L172 28.6076L172 41.7194L200.281 70L213.158 70Z" fill="white"/>
</svg>
