<svg width="242" height="70" viewBox="0 0 242 70" fill="none" xmlns="http://www.w3.org/2000/svg">
<path fill-rule="evenodd" clip-rule="evenodd" d="M105.6 0L115.992 6L109.887 16.5744L99.4949 10.5744L105.6 0ZM86 33.9482V57.9482L107.387 20.9045L96.9949 14.9045L86 33.9482ZM88.5666 70H99.0419L127.387 20.9045L116.995 14.9045L86.0308 68.5359L88.5666 70ZM105.185 70H119.042L147.387 20.9045L136.995 14.9045L105.185 70ZM125.186 70H139.042L147.415 55.4979L137.022 49.4979L125.186 70ZM156 40.6278V40.5987L145.62 34.606L139.522 45.1678L149.915 51.1678L156 40.6278ZM119.495 10.5744L125.6 0L135.992 6L129.887 16.5744L119.495 10.5744ZM155.992 6L145.6 0L139.495 10.5744L149.887 16.5744L155.992 6Z" fill="white"/>
<path fill-rule="evenodd" clip-rule="evenodd" d="M191.6 0L201.992 6L195.887 16.5744L185.495 10.5744L191.6 0ZM172 33.9482V57.9482L193.387 20.9045L182.995 14.9045L172 33.9482ZM174.567 70H185.042L213.387 20.9045L202.995 14.9045L172.031 68.5359L174.567 70ZM191.185 70H205.042L233.387 20.9045L222.995 14.9045L191.185 70ZM211.186 70H225.042L233.415 55.4979L223.022 49.4979L211.186 70ZM242 40.6278V40.5987L231.62 34.606L225.522 45.1678L235.915 51.1678L242 40.6278ZM205.495 10.5744L211.6 0L221.992 6L215.887 16.5744L205.495 10.5744ZM241.992 6L231.6 0L225.495 10.5744L235.887 16.5744L241.992 6Z" fill="white"/>
<path fill-rule="evenodd" clip-rule="evenodd" d="M19.6 0L29.9923 6L23.8872 16.5744L13.4949 10.5744L19.6 0ZM0 33.9482V57.9482L21.3872 20.9045L10.9949 14.9045L0 33.9482ZM2.56658 70H13.0419L41.3872 20.9045L30.9949 14.9045L0.0307606 68.5359L2.56658 70ZM19.1855 70H33.0419L61.3872 20.9045L50.9949 14.9045L19.1855 70ZM39.1855 70H53.0419L61.4147 55.4979L51.0224 49.4979L39.1855 70ZM70 40.6278V40.5987L59.6203 34.606L53.5224 45.1678L63.9147 51.1678L70 40.6278ZM33.4949 10.5744L39.6 0L49.9923 6L43.8872 16.5744L33.4949 10.5744ZM69.9923 6L59.6 0L53.4949 10.5744L63.8872 16.5744L69.9923 6Z" fill="white"/>
</svg>
