<?xml version="1.0" standalone="no"?><!DOCTYPE svg PUBLIC "-//W3C//DTD SVG 1.1//EN" "http://www.w3.org/Graphics/SVG/1.1/DTD/svg11.dtd"><svg t="1653880831417" class="icon" viewBox="0 0 1024 1024" version="1.1" xmlns="http://www.w3.org/2000/svg" p-id="8683" xmlns:xlink="http://www.w3.org/1999/xlink" width="200" height="200"><defs><style type="text/css"></style></defs><path d="M64 64h896v896H64z" fill="#FFCA28" p-id="8684"></path><path d="M608 809.216l65.952-43.648c5.184 16.224 37.92 54.816 79.264 54.816 41.376 0 60.576-22.592 60.576-37.568 0-40.8-42.24-55.2-62.528-62.08a118.048 118.048 0 0 1-7.872-2.88 117.76 117.76 0 0 0-4.256-1.696c-22.56-8.64-105.792-40.416-105.792-132.576 0-101.504 97.984-113.184 120.128-113.184 14.496 0 84.16 1.792 118.912 67.008l-64 44.672c-14.048-28.448-37.344-37.824-51.712-37.824-35.456 0-42.816 25.984-42.816 37.824 0 33.184 38.496 48.064 71.04 60.608 8.48 3.296 16.576 6.4 23.488 9.664 35.424 16.768 87.616 44.16 87.616 130.464C896 826.016 859.744 896 768.48 896c-122.56 0-155.072-73.6-160.48-86.784zM288 817.888l68.768-43.648c5.376 16.256 26.304 46.176 56.704 46.176 30.368 0 45.92-31.2 45.92-46.176V480h84.544v294.24c1.376 40.576-21.12 121.76-120.48 121.76-91.328 0-129.28-54.272-135.456-78.112z" fill="#3E3E3E" p-id="8685"></path></svg>