<svg width="444" height="93" viewBox="0 0 444 93" fill="none" xmlns="http://www.w3.org/2000/svg">
<path fill-rule="evenodd" clip-rule="evenodd" d="M152 36.4C154 38.3667 156.75 39.35 160.25 39.35C163.717 39.35 166.45 38.3667 168.45 36.4C170.483 34.4333 171.5 31.75 171.5 28.35V2.35H158.25V6.45H167V28.35C167 30.5833 166.4 32.3167 165.2 33.55C164.033 34.75 162.383 35.35 160.25 35.35C158.117 35.35 156.45 34.75 155.25 33.55C154.083 32.3167 153.5 30.5833 153.5 28.35H149C149 31.75 150 34.4333 152 36.4ZM182.48 37.15C184.147 38.6167 186.43 39.35 189.33 39.35C191.897 39.35 193.947 38.7667 195.48 37.6C196.846 36.5832 197.616 35.2498 197.792 33.6H197.83V38.85H202.23V19.95C202.23 17.15 201.314 14.9333 199.48 13.3C197.647 11.6667 195.147 10.85 191.98 10.85C189.08 10.85 186.664 11.55 184.73 12.95C182.797 14.35 181.68 16.2333 181.38 18.6H185.88C186.047 17.4333 186.68 16.5167 187.78 15.85C188.88 15.15 190.247 14.8 191.88 14.8C193.747 14.8 195.18 15.2667 196.18 16.2C197.214 17.1 197.73 18.4 197.73 20.1V22.85H189.23C186.397 22.85 184.147 23.5833 182.48 25.05C180.814 26.5167 179.98 28.5333 179.98 31.1C179.98 33.6333 180.814 35.65 182.48 37.15ZM195.68 34.2C194.314 35.2667 192.564 35.8 190.43 35.8C188.564 35.8 187.097 35.3667 186.03 34.5C184.997 33.6 184.48 32.3833 184.48 30.85C184.48 29.4167 184.914 28.2833 185.78 27.45C186.647 26.6167 187.83 26.2 189.33 26.2H197.73V30.1C197.73 31.7667 197.047 33.1333 195.68 34.2ZM209.461 11.35L218.661 38.85H224.761L233.961 11.35H229.411L223.461 29.85C223.128 30.95 222.811 32.0167 222.511 33.05C222.211 34.05 221.978 34.8333 221.811 35.4C221.678 34.8333 221.461 34.05 221.161 33.05C220.861 32.0167 220.528 30.95 220.161 29.85L214.061 11.35H209.461ZM242.441 37.15C244.108 38.6167 246.391 39.35 249.291 39.35C251.858 39.35 253.908 38.7667 255.441 37.6C256.807 36.5832 257.577 35.2498 257.753 33.6H257.791V38.85H262.191V19.95C262.191 17.15 261.275 14.9333 259.441 13.3C257.608 11.6667 255.108 10.85 251.941 10.85C249.041 10.85 246.625 11.55 244.691 12.95C242.758 14.35 241.641 16.2333 241.341 18.6H245.841C246.008 17.4333 246.641 16.5167 247.741 15.85C248.841 15.15 250.208 14.8 251.841 14.8C253.708 14.8 255.141 15.2667 256.141 16.2C257.175 17.1 257.691 18.4 257.691 20.1V22.85H249.191C246.358 22.85 244.108 23.5833 242.441 25.05C240.775 26.5167 239.941 28.5333 239.941 31.1C239.941 33.6333 240.775 35.65 242.441 37.15ZM255.641 34.2C254.275 35.2667 252.525 35.8 250.391 35.8C248.525 35.8 247.058 35.3667 245.991 34.5C244.958 33.6 244.441 32.3833 244.441 30.85C244.441 29.4167 244.875 28.2833 245.741 27.45C246.608 26.6167 247.791 26.2 249.291 26.2H257.691V30.1C257.691 31.7667 257.008 33.1333 255.641 34.2ZM275.922 38.4C277.322 38.9667 278.955 39.25 280.822 39.25H282.922C286.189 39.25 288.622 38.5333 290.222 37.1C291.855 35.6333 292.672 33.6333 292.672 31.1C292.672 28.7 291.989 26.8667 290.622 25.6C289.289 24.3333 287.139 23.4667 284.172 23L280.472 22.4C279.039 22.1667 277.989 21.7833 277.322 21.25C276.655 20.7167 276.322 19.8833 276.322 18.75C276.322 17.4833 276.705 16.5333 277.472 15.9C278.272 15.2667 279.522 14.95 281.222 14.95H283.122C284.489 14.95 285.572 15.2167 286.372 15.75C287.172 16.25 287.672 16.9333 287.872 17.8H292.372C292.039 15.7 291.072 14.0333 289.472 12.8C287.872 11.5667 285.755 10.95 283.122 10.95H281.222C278.089 10.95 275.739 11.6333 274.172 13C272.605 14.3333 271.822 16.2333 271.822 18.7C271.822 21.0333 272.472 22.8167 273.772 24.05C275.105 25.25 277.122 26.0833 279.822 26.55L283.522 27.15C285.055 27.3833 286.205 27.85 286.972 28.55C287.772 29.2167 288.172 30.1333 288.172 31.3C288.172 32.5 287.739 33.4667 286.872 34.2C286.005 34.9 284.689 35.25 282.922 35.25H280.822C279.355 35.25 278.172 34.9667 277.272 34.4C276.405 33.8333 275.872 33.0667 275.672 32.1H271.172C271.339 33.5667 271.822 34.8333 272.622 35.9C273.455 36.9667 274.555 37.8 275.922 38.4ZM306.052 38.1C307.719 38.9333 309.652 39.35 311.852 39.35C315.019 39.35 317.569 38.5 319.502 36.8C321.436 35.1 322.452 32.7833 322.552 29.85H318.052C317.952 31.5833 317.352 32.9333 316.252 33.9C315.186 34.8667 313.719 35.35 311.852 35.35C309.886 35.35 308.319 34.7833 307.152 33.65C305.986 32.5167 305.402 30.9167 305.402 28.85V21.3C305.402 19.2333 305.986 17.65 307.152 16.55C308.319 15.4167 309.886 14.85 311.852 14.85C313.719 14.85 315.186 15.3333 316.252 16.3C317.352 17.2333 317.952 18.5833 318.052 20.35H322.552C322.452 17.4167 321.436 15.1 319.502 13.4C317.569 11.7 315.019 10.85 311.852 10.85C309.652 10.85 307.719 11.2667 306.052 12.1C304.419 12.9333 303.152 14.1333 302.252 15.7C301.352 17.2667 300.902 19.15 300.902 21.35V28.85C300.902 31.0167 301.352 32.9 302.252 34.5C303.152 36.0667 304.419 37.2667 306.052 38.1ZM332.183 11.35V38.85H336.683V21.35C336.683 19.2167 337.216 17.5667 338.283 16.4C339.383 15.2333 340.883 14.65 342.783 14.65C344.716 14.65 346.199 15.2333 347.233 16.4C348.299 17.5333 348.833 19.1833 348.833 21.35V22.6H353.333V20.95C353.333 17.85 352.466 15.4 350.733 13.6C349.033 11.7667 346.733 10.85 343.833 10.85C341.299 10.85 339.383 11.6167 338.083 13.15C337.397 13.9618 336.897 14.9883 336.583 16.2296V11.35H332.183ZM370.613 34.75H360.863V38.85H384.363V34.75H375.113V11.35H362.113V15.45H370.613V34.75ZM369.763 5.55C370.397 6.11667 371.263 6.4 372.363 6.4C373.463 6.4 374.33 6.11667 374.963 5.55C375.597 4.98333 375.913 4.21667 375.913 3.25C375.913 2.25 375.597 1.46666 374.963 0.899997C374.33 0.299999 373.463 0 372.363 0C371.263 0 370.397 0.299999 369.763 0.899997C369.13 1.46666 368.813 2.25 368.813 3.25C368.813 4.21667 369.13 4.98333 369.763 5.55ZM391.194 11.35V47.85H395.694V39.85L395.594 33.6H395.758C395.961 35.1832 396.64 36.4832 397.794 37.5C399.194 38.7333 401.01 39.35 403.244 39.35C405.11 39.35 406.71 38.9333 408.044 38.1C409.41 37.2667 410.46 36.0833 411.194 34.55C411.96 33.0167 412.344 31.2 412.344 29.1V21.05C412.344 17.8833 411.51 15.4 409.844 13.6C408.21 11.7667 406.01 10.85 403.244 10.85C400.977 10.85 399.144 11.4667 397.744 12.7C396.614 13.6923 395.951 14.9923 395.755 16.6H395.694V11.35H391.194ZM406.194 33.75C405.127 34.8833 403.644 35.45 401.744 35.45C399.91 35.45 398.444 34.8667 397.344 33.7C396.244 32.5333 395.694 30.9167 395.694 28.85V21.35C395.694 19.2833 396.244 17.6667 397.344 16.5C398.444 15.3333 399.91 14.75 401.744 14.75C403.644 14.75 405.127 15.3167 406.194 16.45C407.294 17.5833 407.844 19.2167 407.844 21.35V28.85C407.844 30.9833 407.294 32.6167 406.194 33.75ZM429.024 36.95C430.358 38.2167 432.208 38.85 434.574 38.85H442.074V34.75H434.574C432.574 34.75 431.574 33.7 431.574 31.6V15.45H442.574V11.35H431.574V3.6H427.074V11.35H419.324V15.45H427.074V31.6C427.074 33.9 427.724 35.6833 429.024 36.95ZM182.25 53.35V89.85H186.6V69.35C186.6 68.1167 186.567 66.8333 186.5 65.5C186.467 64.1333 186.417 62.85 186.35 61.65C186.283 60.4167 186.217 59.4 186.15 58.6L197.25 89.85H203.25V53.35H198.9V73.85C198.9 75.05 198.917 76.3333 198.95 77.7C199.017 79.0333 199.083 80.3167 199.15 81.55C199.25 82.75 199.333 83.7667 199.4 84.6L188.25 53.35H182.25ZM217.03 89.05C218.664 89.9167 220.564 90.35 222.73 90.35C225.63 90.35 228.047 89.6833 229.98 88.35C231.947 86.9833 233.08 85.15 233.38 82.85H228.88C228.647 84.0833 227.997 85.0167 226.93 85.65C225.864 86.25 224.464 86.55 222.73 86.55C220.697 86.55 219.13 85.9833 218.03 84.85C216.93 83.6833 216.38 82.0167 216.38 79.85V77.2H233.48V72.35C233.48 70.2167 233.03 68.3667 232.13 66.8C231.264 65.2333 230.014 64.0167 228.38 63.15C226.78 62.2833 224.897 61.85 222.73 61.85C220.564 61.85 218.664 62.2833 217.03 63.15C215.43 64.0167 214.18 65.2333 213.28 66.8C212.414 68.3667 211.98 70.2167 211.98 72.35V79.85C211.98 81.95 212.414 83.8 213.28 85.4C214.18 86.9667 215.43 88.1833 217.03 89.05ZM229.08 73.8V72.35C229.08 70.1833 228.53 68.5167 227.43 67.35C226.364 66.1833 224.797 65.6 222.73 65.6C220.697 65.6 219.13 66.1833 218.03 67.35C216.93 68.5167 216.38 70.1833 216.38 72.35V73.8H229.08ZM247.011 89.05C248.644 89.9167 250.544 90.35 252.711 90.35C255.611 90.35 258.028 89.6833 259.961 88.35C261.928 86.9833 263.061 85.15 263.361 82.85H258.861C258.628 84.0833 257.978 85.0167 256.911 85.65C255.844 86.25 254.444 86.55 252.711 86.55C250.678 86.55 249.111 85.9833 248.011 84.85C246.911 83.6833 246.361 82.0167 246.361 79.85V77.2H263.461V72.35C263.461 70.2167 263.011 68.3667 262.111 66.8C261.244 65.2333 259.994 64.0167 258.361 63.15C256.761 62.2833 254.878 61.85 252.711 61.85C250.544 61.85 248.644 62.2833 247.011 63.15C245.411 64.0167 244.161 65.2333 243.261 66.8C242.394 68.3667 241.961 70.2167 241.961 72.35V79.85C241.961 81.95 242.394 83.8 243.261 85.4C244.161 86.9667 245.411 88.1833 247.011 89.05ZM259.061 73.8V72.35C259.061 70.1833 258.511 68.5167 257.411 67.35C256.344 66.1833 254.778 65.6 252.711 65.6C250.678 65.6 249.111 66.1833 248.011 67.35C246.911 68.5167 246.361 70.1833 246.361 72.35V73.8H259.061ZM274.441 87.6C276.141 89.4333 278.358 90.35 281.091 90.35C283.358 90.35 285.175 89.75 286.541 88.55C287.672 87.5298 288.335 86.2132 288.53 84.6H288.591V89.85H293.091V53.35H288.591V61.35L288.691 67.6H288.528C288.33 66.0168 287.668 64.7168 286.541 63.7C285.175 62.4667 283.358 61.85 281.091 61.85C278.325 61.85 276.108 62.7667 274.441 64.6C272.775 66.4333 271.941 68.9333 271.941 72.1V80.15C271.941 83.2833 272.775 85.7667 274.441 87.6ZM286.991 84.7C285.925 85.8667 284.458 86.45 282.591 86.45C280.691 86.45 279.191 85.8833 278.091 84.75C276.991 83.6167 276.441 81.9833 276.441 79.85V72.35C276.441 70.2167 276.991 68.5833 278.091 67.45C279.191 66.3167 280.691 65.75 282.591 65.75C284.458 65.75 285.925 66.3333 286.991 67.5C288.058 68.6667 288.591 70.2833 288.591 72.35V79.85C288.591 81.9167 288.058 83.5333 286.991 84.7ZM306.972 89.05C308.605 89.9167 310.505 90.35 312.672 90.35C315.572 90.35 317.989 89.6833 319.922 88.35C321.889 86.9833 323.022 85.15 323.322 82.85H318.822C318.589 84.0833 317.939 85.0167 316.872 85.65C315.805 86.25 314.405 86.55 312.672 86.55C310.639 86.55 309.072 85.9833 307.972 84.85C306.872 83.6833 306.322 82.0167 306.322 79.85V77.2H323.422V72.35C323.422 70.2167 322.972 68.3667 322.072 66.8C321.205 65.2333 319.955 64.0167 318.322 63.15C316.722 62.2833 314.839 61.85 312.672 61.85C310.505 61.85 308.605 62.2833 306.972 63.15C305.372 64.0167 304.122 65.2333 303.222 66.8C302.355 68.3667 301.922 70.2167 301.922 72.35V79.85C301.922 81.95 302.355 83.8 303.222 85.4C304.122 86.9667 305.372 88.1833 306.972 89.05ZM319.022 73.8V72.35C319.022 70.1833 318.472 68.5167 317.372 67.35C316.305 66.1833 314.739 65.6 312.672 65.6C310.639 65.6 309.072 66.1833 307.972 67.35C306.872 68.5167 306.322 70.1833 306.322 72.35V73.8H319.022ZM334.402 87.6C336.102 89.4333 338.319 90.35 341.052 90.35C343.319 90.35 345.136 89.75 346.502 88.55C347.633 87.5298 348.296 86.2132 348.491 84.6H348.552V89.85H353.052V53.35H348.552V61.35L348.652 67.6H348.489C348.291 66.0168 347.629 64.7168 346.502 63.7C345.136 62.4667 343.319 61.85 341.052 61.85C338.286 61.85 336.069 62.7667 334.402 64.6C332.736 66.4333 331.902 68.9333 331.902 72.1V80.15C331.902 83.2833 332.736 85.7667 334.402 87.6ZM346.952 84.7C345.886 85.8667 344.419 86.45 342.552 86.45C340.652 86.45 339.152 85.8833 338.052 84.75C336.952 83.6167 336.402 81.9833 336.402 79.85V72.35C336.402 70.2167 336.952 68.5833 338.052 67.45C339.152 66.3167 340.652 65.75 342.552 65.75C344.419 65.75 345.886 66.3333 346.952 67.5C348.019 68.6667 348.552 70.2833 348.552 72.35V79.85C348.552 81.9167 348.019 83.5333 346.952 84.7ZM0.466563 88.381C1.08865 89.6252 1.71073 90.2473 2.9549 90.2473H96.2675C98.1338 90.2473 99.3779 89.0031 100 86.5148C100 85.8927 100 85.2706 99.3779 84.6485L52.7216 4.39969C51.4774 2.53344 48.367 2.53344 47.1229 4.39969L0.466563 85.2706C-0.155521 86.5148 -0.155521 87.1369 0.466563 88.381ZM91.2908 84.0264H8.55365L49.6112 12.4868L91.2908 84.0264ZM50.2333 62.8756C48.367 62.8756 47.1229 61.6314 47.1229 59.7652V34.2597C47.1229 32.3935 48.367 31.1493 50.2333 31.1493C52.0995 31.1493 53.3437 32.3935 53.3437 34.2597V59.7652C53.3437 61.0093 52.0995 62.8756 50.2333 62.8756ZM45.8787 72.2068C45.8787 73.3618 46.3375 74.4694 47.1541 75.286C47.9708 76.1026 49.0784 76.5614 50.2333 76.5614C51.3882 76.5614 52.4958 76.1026 53.3124 75.286C54.1291 74.4694 54.5879 73.3618 54.5879 72.2068C54.5879 71.0519 54.1291 69.9443 53.3124 69.1277C52.4958 68.311 51.3882 67.8523 50.2333 67.8523C49.0784 67.8523 47.9708 68.311 47.1541 69.1277C46.3375 69.9443 45.8787 71.0519 45.8787 72.2068ZM109.851 90.2473H127.774C129.64 90.2473 130.884 89.0031 131.506 86.5148C131.506 85.8927 131.506 85.2706 130.884 84.6485L84.2278 4.39969C82.9836 2.53344 79.8732 2.53344 78.629 4.39969L69 21.09L72.6417 27.255L81.1173 12.4868L122.797 84.0264H106.177L109.851 90.2473ZM84.8498 47.9223V34.2597C84.8498 32.3935 83.6057 31.1493 81.7394 31.1493C79.8732 31.1493 78.629 32.3935 78.629 34.2597V37.391L84.8498 47.9223ZM158.774 90.2473H140.851L137.177 84.0264H153.797L112.117 12.4868L103.642 27.255L100 21.09L109.629 4.39969C110.873 2.53344 113.984 2.53344 115.228 4.39969L161.884 84.6485C162.506 85.2706 162.506 85.8927 162.506 86.5148C161.884 89.0031 160.64 90.2473 158.774 90.2473ZM115.85 34.2597V47.9223L109.629 37.391V34.2597C109.629 32.3935 110.873 31.1493 112.739 31.1493C114.606 31.1493 115.85 32.3935 115.85 34.2597ZM361.104 53.24V62H362.184V58.4H363.924C364.468 58.4 364.94 58.296 365.34 58.088C365.74 57.872 366.048 57.572 366.264 57.188C366.488 56.796 366.6 56.34 366.6 55.82C366.6 55.292 366.488 54.836 366.264 54.452C366.048 54.068 365.74 53.772 365.34 53.564C364.94 53.348 364.468 53.24 363.924 53.24H361.104ZM363.924 57.428H362.184V54.212H363.924C364.396 54.212 364.772 54.356 365.052 54.644C365.34 54.932 365.484 55.324 365.484 55.82C365.484 56.308 365.34 56.7 365.052 56.996C364.772 57.284 364.396 57.428 363.924 57.428ZM370.447 61.772C370.735 61.924 371.071 62 371.455 62H373.555V61.016H371.455C371.199 61.016 370.995 60.94 370.843 60.788C370.691 60.628 370.615 60.412 370.615 60.14V53.24H367.315V54.224H369.535V60.14C369.535 60.516 369.615 60.844 369.775 61.124C369.935 61.404 370.159 61.62 370.447 61.772ZM376.143 61.808C376.535 62.016 376.991 62.12 377.511 62.12C378.207 62.12 378.787 61.96 379.251 61.64C379.723 61.312 379.995 60.872 380.067 60.32H378.987C378.931 60.616 378.775 60.84 378.519 60.992C378.263 61.136 377.927 61.208 377.511 61.208C377.023 61.208 376.647 61.072 376.383 60.8C376.119 60.52 375.987 60.12 375.987 59.6V58.964H380.091V57.8C380.091 57.288 379.983 56.844 379.767 56.468C379.559 56.092 379.259 55.8 378.867 55.592C378.483 55.384 378.031 55.28 377.511 55.28C376.991 55.28 376.535 55.384 376.143 55.592C375.759 55.8 375.459 56.092 375.243 56.468C375.035 56.844 374.931 57.288 374.931 57.8V59.6C374.931 60.104 375.035 60.548 375.243 60.932C375.459 61.308 375.759 61.6 376.143 61.808ZM379.035 58.148V57.8C379.035 57.28 378.903 56.88 378.639 56.6C378.383 56.32 378.007 56.18 377.511 56.18C377.023 56.18 376.647 56.32 376.383 56.6C376.119 56.88 375.987 57.28 375.987 57.8V58.148H379.035ZM382.246 61.592C382.646 61.944 383.194 62.12 383.89 62.12C384.506 62.12 384.998 61.98 385.366 61.7C385.694 61.456 385.879 61.136 385.921 60.74H385.93V62H386.986V57.464C386.986 56.792 386.766 56.26 386.326 55.868C385.886 55.476 385.286 55.28 384.526 55.28C383.83 55.28 383.25 55.448 382.786 55.784C382.322 56.12 382.054 56.572 381.982 57.14H383.062C383.102 56.86 383.254 56.64 383.518 56.48C383.782 56.312 384.11 56.228 384.502 56.228C384.95 56.228 385.294 56.34 385.534 56.564C385.782 56.78 385.906 57.092 385.906 57.5V58.16H383.866C383.186 58.16 382.646 58.336 382.246 58.688C381.846 59.04 381.646 59.524 381.646 60.14C381.646 60.748 381.846 61.232 382.246 61.592ZM385.414 60.884C385.086 61.14 384.666 61.268 384.154 61.268C383.706 61.268 383.354 61.164 383.098 60.956C382.85 60.74 382.726 60.448 382.726 60.08C382.726 59.736 382.83 59.464 383.038 59.264C383.246 59.064 383.53 58.964 383.89 58.964H385.906V59.9C385.906 60.3 385.742 60.628 385.414 60.884ZM390.041 61.892C390.377 62.028 390.769 62.096 391.217 62.096H391.721C392.505 62.096 393.089 61.924 393.473 61.58C393.865 61.228 394.061 60.748 394.061 60.14C394.061 59.564 393.897 59.124 393.569 58.82C393.249 58.516 392.733 58.308 392.021 58.196L391.133 58.052C390.789 57.996 390.537 57.904 390.377 57.776C390.217 57.648 390.137 57.448 390.137 57.176C390.137 56.872 390.229 56.644 390.413 56.492C390.605 56.34 390.905 56.264 391.313 56.264H391.769C392.097 56.264 392.357 56.328 392.549 56.456C392.741 56.576 392.861 56.74 392.909 56.948H393.989C393.909 56.444 393.677 56.044 393.293 55.748C392.909 55.452 392.401 55.304 391.769 55.304H391.313C390.561 55.304 389.997 55.468 389.621 55.796C389.245 56.116 389.057 56.572 389.057 57.164C389.057 57.724 389.213 58.152 389.525 58.448C389.845 58.736 390.329 58.936 390.977 59.048L391.865 59.192C392.233 59.248 392.509 59.36 392.693 59.528C392.885 59.688 392.981 59.908 392.981 60.188C392.981 60.476 392.877 60.708 392.669 60.884C392.461 61.052 392.145 61.136 391.721 61.136H391.217C390.865 61.136 390.581 61.068 390.365 60.932C390.157 60.796 390.029 60.612 389.981 60.38H388.901C388.941 60.732 389.057 61.036 389.249 61.292C389.449 61.548 389.713 61.748 390.041 61.892ZM397.009 61.808C397.401 62.016 397.857 62.12 398.377 62.12C399.073 62.12 399.653 61.96 400.117 61.64C400.589 61.312 400.861 60.872 400.933 60.32H399.853C399.797 60.616 399.641 60.84 399.385 60.992C399.129 61.136 398.793 61.208 398.377 61.208C397.889 61.208 397.513 61.072 397.249 60.8C396.985 60.52 396.853 60.12 396.853 59.6V58.964H400.957V57.8C400.957 57.288 400.849 56.844 400.633 56.468C400.425 56.092 400.125 55.8 399.733 55.592C399.349 55.384 398.897 55.28 398.377 55.28C397.857 55.28 397.401 55.384 397.009 55.592C396.625 55.8 396.325 56.092 396.109 56.468C395.901 56.844 395.797 57.288 395.797 57.8V59.6C395.797 60.104 395.901 60.548 396.109 60.932C396.325 61.308 396.625 61.6 397.009 61.808ZM399.901 57.8V58.148H396.853V57.8C396.853 57.28 396.985 56.88 397.249 56.6C397.513 56.32 397.889 56.18 398.377 56.18C398.873 56.18 399.249 56.32 399.505 56.6C399.769 56.88 399.901 57.28 399.901 57.8ZM410.955 61.82C411.347 62.02 411.807 62.12 412.335 62.12C412.863 62.12 413.319 62.02 413.703 61.82C414.087 61.612 414.383 61.32 414.591 60.944C414.799 60.56 414.903 60.112 414.903 59.6H413.823C413.823 60.096 413.691 60.48 413.427 60.752C413.171 61.016 412.807 61.148 412.335 61.148C411.863 61.148 411.491 61.016 411.219 60.752C410.955 60.48 410.823 60.096 410.823 59.6V55.628C410.823 55.132 410.955 54.752 411.219 54.488C411.491 54.224 411.863 54.092 412.335 54.092C412.807 54.092 413.171 54.228 413.427 54.5C413.691 54.764 413.823 55.144 413.823 55.64H414.903C414.903 55.12 414.799 54.672 414.591 54.296C414.383 53.92 414.087 53.632 413.703 53.432C413.319 53.224 412.863 53.12 412.335 53.12C411.807 53.12 411.347 53.22 410.955 53.42C410.571 53.62 410.271 53.908 410.055 54.284C409.847 54.66 409.743 55.112 409.743 55.64V59.6C409.743 60.12 409.847 60.572 410.055 60.956C410.271 61.332 410.571 61.62 410.955 61.82ZM416.746 53.24V62H417.827V57.8C417.827 57.288 417.954 56.892 418.211 56.612C418.474 56.332 418.831 56.192 419.279 56.192C419.711 56.192 420.051 56.324 420.298 56.588C420.555 56.844 420.682 57.208 420.682 57.68V62H421.763V57.56C421.763 56.856 421.566 56.3 421.174 55.892C420.783 55.484 420.255 55.28 419.591 55.28C419.039 55.28 418.607 55.424 418.294 55.712C418.035 55.9449 417.883 56.2609 417.84 56.66H417.827V55.4V53.24H416.746ZM424.83 61.808C425.222 62.016 425.678 62.12 426.198 62.12C426.894 62.12 427.474 61.96 427.938 61.64C428.41 61.312 428.682 60.872 428.754 60.32H427.674C427.618 60.616 427.462 60.84 427.206 60.992C426.95 61.136 426.614 61.208 426.198 61.208C425.71 61.208 425.334 61.072 425.07 60.8C424.806 60.52 424.674 60.12 424.674 59.6V58.964H428.778V57.8C428.778 57.288 428.67 56.844 428.454 56.468C428.246 56.092 427.946 55.8 427.554 55.592C427.17 55.384 426.718 55.28 426.198 55.28C425.678 55.28 425.222 55.384 424.83 55.592C424.446 55.8 424.146 56.092 423.93 56.468C423.722 56.844 423.618 57.288 423.618 57.8V59.6C423.618 60.104 423.722 60.548 423.93 60.932C424.146 61.308 424.446 61.6 424.83 61.808ZM427.722 57.8V58.148H424.674V57.8C424.674 57.28 424.806 56.88 425.07 56.6C425.334 56.32 425.71 56.18 426.198 56.18C426.694 56.18 427.07 56.32 427.326 56.6C427.59 56.88 427.722 57.28 427.722 57.8ZM431.809 61.82C432.209 62.02 432.673 62.12 433.201 62.12C433.961 62.12 434.573 61.916 435.037 61.508C435.501 61.1 435.745 60.544 435.769 59.84H434.689C434.665 60.256 434.521 60.58 434.257 60.812C434.001 61.044 433.649 61.16 433.201 61.16C432.729 61.16 432.353 61.024 432.073 60.752C431.793 60.48 431.653 60.096 431.653 59.6V57.788C431.653 57.292 431.793 56.912 432.073 56.648C432.353 56.376 432.729 56.24 433.201 56.24C433.649 56.24 434.001 56.356 434.257 56.588C434.521 56.812 434.665 57.136 434.689 57.56H435.769C435.745 56.856 435.501 56.3 435.037 55.892C434.573 55.484 433.961 55.28 433.201 55.28C432.673 55.28 432.209 55.38 431.809 55.58C431.417 55.78 431.113 56.068 430.897 56.444C430.681 56.82 430.573 57.272 430.573 57.8V59.6C430.573 60.12 430.681 60.572 430.897 60.956C431.113 61.332 431.417 61.62 431.809 61.82ZM437.648 53.24V62H438.728V59.06H440.012L441.932 62H443.192L440.936 58.544L443.156 55.4H441.92L440 58.124H438.728V53.24H437.648ZM362.676 75.688C363.004 75.976 363.44 76.12 363.984 76.12C364.648 76.12 365.18 75.9 365.58 75.46C365.98 75.02 366.18 74.424 366.18 73.672V71.74C366.18 70.98 365.98 70.38 365.58 69.94C365.18 69.5 364.648 69.28 363.984 69.28C363.448 69.28 363.012 69.428 362.676 69.724C362.406 69.968 362.247 70.28 362.199 70.66H362.16L362.184 69.16V67.24H361.104V76H362.184V74.74H362.199C362.246 75.1272 362.405 75.4432 362.676 75.688ZM364.704 74.776C364.44 75.048 364.08 75.184 363.624 75.184C363.184 75.184 362.832 75.044 362.568 74.764C362.312 74.484 362.184 74.096 362.184 73.6V71.8C362.184 71.304 362.312 70.916 362.568 70.636C362.832 70.356 363.184 70.216 363.624 70.216C364.08 70.216 364.44 70.352 364.704 70.624C364.968 70.896 365.1 71.288 365.1 71.8V73.6C365.1 74.112 364.968 74.504 364.704 74.776ZM368.287 69.4V76H369.367V71.8C369.367 71.288 369.495 70.892 369.751 70.612C370.015 70.332 370.375 70.192 370.831 70.192C371.295 70.192 371.651 70.332 371.899 70.612C372.155 70.884 372.283 71.28 372.283 71.8V72.1H373.363V71.704C373.363 70.96 373.155 70.372 372.739 69.94C372.331 69.5 371.779 69.28 371.083 69.28C370.475 69.28 370.015 69.464 369.703 69.832C369.539 70.0268 369.419 70.2732 369.343 70.5711V69.4H368.287ZM376.143 75.796C376.527 75.996 376.983 76.096 377.511 76.096C378.039 76.096 378.495 75.996 378.879 75.796C379.263 75.596 379.559 75.308 379.767 74.932C379.983 74.548 380.091 74.096 380.091 73.576V71.812C380.091 71.292 379.983 70.844 379.767 70.468C379.559 70.092 379.263 69.804 378.879 69.604C378.495 69.404 378.039 69.304 377.511 69.304C376.983 69.304 376.527 69.404 376.143 69.604C375.759 69.804 375.459 70.092 375.243 70.468C375.035 70.844 374.931 71.296 374.931 71.824V73.576C374.931 74.096 375.035 74.548 375.243 74.932C375.459 75.308 375.759 75.596 376.143 75.796ZM378.615 74.74C378.351 75.004 377.983 75.136 377.511 75.136C377.047 75.136 376.679 75.004 376.407 74.74C376.143 74.476 376.011 74.088 376.011 73.576V71.824C376.011 71.312 376.143 70.924 376.407 70.66C376.679 70.396 377.047 70.264 377.511 70.264C377.983 70.264 378.351 70.396 378.615 70.66C378.879 70.924 379.011 71.312 379.011 71.824V73.576C379.011 74.088 378.879 74.476 378.615 74.74ZM381.286 69.4L382.342 76H383.53L384.274 71.44C384.314 71.216 384.35 70.992 384.382 70.768C384.414 70.544 384.438 70.368 384.454 70.24C384.47 70.368 384.498 70.544 384.538 70.768C384.578 70.992 384.614 71.216 384.646 71.44L385.354 76H386.542L387.646 69.4H386.734L386.05 74.08C386.026 74.256 385.994 74.448 385.954 74.656C385.922 74.856 385.898 75.024 385.882 75.16C385.866 75.024 385.838 74.856 385.798 74.656C385.766 74.448 385.738 74.256 385.714 74.08L384.982 69.4H383.95L383.218 74.08C383.194 74.256 383.162 74.448 383.122 74.656C383.09 74.856 383.066 75.024 383.05 75.16C383.034 75.024 383.01 74.856 382.978 74.656C382.954 74.448 382.93 74.256 382.906 74.08L382.246 69.4H381.286ZM390.041 75.892C390.377 76.028 390.769 76.096 391.217 76.096H391.721C392.505 76.096 393.089 75.924 393.473 75.58C393.865 75.228 394.061 74.748 394.061 74.14C394.061 73.564 393.897 73.124 393.569 72.82C393.249 72.516 392.733 72.308 392.021 72.196L391.133 72.052C390.789 71.996 390.537 71.904 390.377 71.776C390.217 71.648 390.137 71.448 390.137 71.176C390.137 70.872 390.229 70.644 390.413 70.492C390.605 70.34 390.905 70.264 391.313 70.264H391.769C392.097 70.264 392.357 70.328 392.549 70.456C392.741 70.576 392.861 70.74 392.909 70.948H393.989C393.909 70.444 393.677 70.044 393.293 69.748C392.909 69.452 392.401 69.304 391.769 69.304H391.313C390.561 69.304 389.997 69.468 389.621 69.796C389.245 70.116 389.057 70.572 389.057 71.164C389.057 71.724 389.213 72.152 389.525 72.448C389.845 72.736 390.329 72.936 390.977 73.048L391.865 73.192C392.233 73.248 392.509 73.36 392.693 73.528C392.885 73.688 392.981 73.908 392.981 74.188C392.981 74.476 392.877 74.708 392.669 74.884C392.461 75.052 392.145 75.136 391.721 75.136H391.217C390.865 75.136 390.581 75.068 390.365 74.932C390.157 74.796 390.029 74.612 389.981 74.38H388.901C388.941 74.732 389.057 75.036 389.249 75.292C389.449 75.548 389.713 75.748 390.041 75.892ZM397.009 75.808C397.401 76.016 397.857 76.12 398.377 76.12C399.073 76.12 399.653 75.96 400.117 75.64C400.589 75.312 400.861 74.872 400.933 74.32H399.853C399.797 74.616 399.641 74.84 399.385 74.992C399.129 75.136 398.793 75.208 398.377 75.208C397.889 75.208 397.513 75.072 397.249 74.8C396.985 74.52 396.853 74.12 396.853 73.6V72.964H400.957V71.8C400.957 71.288 400.849 70.844 400.633 70.468C400.425 70.092 400.125 69.8 399.733 69.592C399.349 69.384 398.897 69.28 398.377 69.28C397.857 69.28 397.401 69.384 397.009 69.592C396.625 69.8 396.325 70.092 396.109 70.468C395.901 70.844 395.797 71.288 395.797 71.8V73.6C395.797 74.104 395.901 74.548 396.109 74.932C396.325 75.308 396.625 75.6 397.009 75.808ZM399.901 71.8V72.148H396.853V71.8C396.853 71.28 396.985 70.88 397.249 70.6C397.513 70.32 397.889 70.18 398.377 70.18C398.873 70.18 399.249 70.32 399.505 70.6C399.769 70.88 399.901 71.28 399.901 71.8ZM403.064 69.4V76H404.144V71.8C404.144 71.288 404.272 70.892 404.528 70.612C404.792 70.332 405.152 70.192 405.608 70.192C406.072 70.192 406.428 70.332 406.676 70.612C406.932 70.884 407.06 71.28 407.06 71.8V72.1H408.14V71.704C408.14 70.96 407.932 70.372 407.516 69.94C407.108 69.5 406.556 69.28 405.86 69.28C405.252 69.28 404.792 69.464 404.48 69.832C404.315 70.0268 404.195 70.2732 404.12 70.5711V69.4H403.064ZM362.22 89.892C362.556 90.028 362.948 90.096 363.396 90.096H363.9C364.684 90.096 365.268 89.924 365.652 89.58C366.044 89.228 366.24 88.748 366.24 88.14C366.24 87.564 366.076 87.124 365.748 86.82C365.428 86.516 364.912 86.308 364.2 86.196L363.312 86.052C362.968 85.996 362.716 85.904 362.556 85.776C362.396 85.648 362.316 85.448 362.316 85.176C362.316 84.872 362.408 84.644 362.592 84.492C362.784 84.34 363.084 84.264 363.492 84.264H363.948C364.276 84.264 364.536 84.328 364.728 84.456C364.92 84.576 365.04 84.74 365.088 84.948H366.168C366.088 84.444 365.856 84.044 365.472 83.748C365.088 83.452 364.58 83.304 363.948 83.304H363.492C362.74 83.304 362.176 83.468 361.8 83.796C361.424 84.116 361.236 84.572 361.236 85.164C361.236 85.724 361.392 86.152 361.704 86.448C362.024 86.736 362.508 86.936 363.156 87.048L364.044 87.192C364.412 87.248 364.688 87.36 364.872 87.528C365.064 87.688 365.16 87.908 365.16 88.188C365.16 88.476 365.056 88.708 364.848 88.884C364.64 89.052 364.324 89.136 363.9 89.136H363.396C363.044 89.136 362.76 89.068 362.544 88.932C362.336 88.796 362.208 88.612 362.16 88.38H361.08C361.12 88.732 361.236 89.036 361.428 89.292C361.628 89.548 361.892 89.748 362.22 89.892ZM369.187 89.808C369.579 90.016 370.035 90.12 370.555 90.12C371.251 90.12 371.831 89.96 372.295 89.64C372.767 89.312 373.039 88.872 373.111 88.32H372.031C371.975 88.616 371.819 88.84 371.563 88.992C371.307 89.136 370.971 89.208 370.555 89.208C370.067 89.208 369.691 89.072 369.427 88.8C369.163 88.52 369.031 88.12 369.031 87.6V86.964H373.135V85.8C373.135 85.288 373.027 84.844 372.811 84.468C372.603 84.092 372.303 83.8 371.911 83.592C371.527 83.384 371.075 83.28 370.555 83.28C370.035 83.28 369.579 83.384 369.187 83.592C368.803 83.8 368.503 84.092 368.287 84.468C368.079 84.844 367.975 85.288 367.975 85.8V87.6C367.975 88.104 368.079 88.548 368.287 88.932C368.503 89.308 368.803 89.6 369.187 89.808ZM372.079 85.8V86.148H369.031V85.8C369.031 85.28 369.163 84.88 369.427 84.6C369.691 84.32 370.067 84.18 370.555 84.18C371.051 84.18 371.427 84.32 371.683 84.6C371.947 84.88 372.079 85.28 372.079 85.8ZM376.899 89.544C377.219 89.848 377.663 90 378.231 90H380.031V89.016H378.231C377.751 89.016 377.511 88.764 377.511 88.26V84.384H380.151V83.4H377.511V81.54H376.431V83.4H374.571V84.384H376.431V88.26C376.431 88.812 376.587 89.24 376.899 89.544ZM383.854 89.544C384.174 89.848 384.618 90 385.186 90H386.986V89.016H385.186C384.706 89.016 384.466 88.764 384.466 88.26V84.384H387.106V83.4H384.466V81.54H383.386V83.4H381.526V84.384H383.386V88.26C383.386 88.812 383.542 89.24 383.854 89.544ZM388.841 89.016V90H394.481V89.016H392.261V83.4H389.141V84.384H391.181V89.016H388.841ZM390.977 82.008C391.129 82.144 391.337 82.212 391.601 82.212C391.865 82.212 392.073 82.144 392.225 82.008C392.377 81.872 392.453 81.688 392.453 81.456C392.453 81.216 392.377 81.028 392.225 80.892C392.073 80.748 391.865 80.676 391.601 80.676C391.337 80.676 391.129 80.748 390.977 80.892C390.825 81.028 390.749 81.216 390.749 81.456C390.749 81.688 390.825 81.872 390.977 82.008ZM395.881 83.4V90H396.961V85.8C396.961 85.288 397.089 84.896 397.345 84.624C397.609 84.352 397.965 84.216 398.413 84.216C398.845 84.216 399.185 84.344 399.433 84.6C399.689 84.848 399.817 85.208 399.817 85.68V90H400.897V85.56C400.897 84.856 400.701 84.3 400.309 83.892C399.917 83.484 399.389 83.28 398.725 83.28C398.173 83.28 397.741 83.424 397.429 83.712C397.169 83.9449 397.017 84.2609 396.974 84.66H396.961V83.4H395.881ZM403.664 91.176V92.16H405.752C406.4 92.16 406.904 91.988 407.264 91.644C407.632 91.3 407.816 90.832 407.816 90.24V83.4H406.748V84.66H406.74C406.704 84.264 406.547 83.944 406.268 83.7C405.948 83.42 405.52 83.28 404.984 83.28C404.304 83.28 403.768 83.5 403.376 83.94C402.984 84.38 402.788 84.976 402.788 85.728V87.12C402.788 87.872 402.984 88.472 403.376 88.92C403.768 89.36 404.304 89.58 404.984 89.58C405.52 89.58 405.948 89.44 406.268 89.16C406.547 88.916 406.704 88.596 406.74 88.2H406.76L406.736 89.4V90.24C406.736 90.56 406.656 90.796 406.496 90.948C406.344 91.1 406.1 91.176 405.764 91.176H403.664ZM406.364 88.224C406.108 88.504 405.756 88.644 405.308 88.644C404.852 88.644 404.496 88.508 404.24 88.236C403.992 87.964 403.868 87.572 403.868 87.06V85.8C403.868 85.288 403.992 84.896 404.24 84.624C404.496 84.352 404.852 84.216 405.308 84.216C405.756 84.216 406.108 84.356 406.364 84.636C406.62 84.916 406.748 85.304 406.748 85.8V87.06C406.748 87.556 406.62 87.944 406.364 88.224ZM410.907 89.892C411.243 90.028 411.635 90.096 412.083 90.096H412.587C413.371 90.096 413.955 89.924 414.339 89.58C414.731 89.228 414.927 88.748 414.927 88.14C414.927 87.564 414.763 87.124 414.435 86.82C414.115 86.516 413.599 86.308 412.887 86.196L411.999 86.052C411.655 85.996 411.403 85.904 411.243 85.776C411.083 85.648 411.003 85.448 411.003 85.176C411.003 84.872 411.095 84.644 411.279 84.492C411.471 84.34 411.771 84.264 412.179 84.264H412.635C412.963 84.264 413.223 84.328 413.415 84.456C413.607 84.576 413.727 84.74 413.775 84.948H414.855C414.775 84.444 414.543 84.044 414.159 83.748C413.775 83.452 413.267 83.304 412.635 83.304H412.179C411.427 83.304 410.863 83.468 410.487 83.796C410.111 84.116 409.923 84.572 409.923 85.164C409.923 85.724 410.079 86.152 410.391 86.448C410.711 86.736 411.195 86.936 411.843 87.048L412.731 87.192C413.099 87.248 413.375 87.36 413.559 87.528C413.751 87.688 413.847 87.908 413.847 88.188C413.847 88.476 413.743 88.708 413.535 88.884C413.327 89.052 413.011 89.136 412.587 89.136H412.083C411.731 89.136 411.447 89.068 411.231 88.932C411.023 88.796 410.895 88.612 410.847 88.38H409.767C409.807 88.732 409.923 89.036 410.115 89.292C410.315 89.548 410.579 89.748 410.907 89.892Z" fill="white"/>
</svg>
