<svg width="399" height="91" viewBox="0 0 399 91" fill="none" xmlns="http://www.w3.org/2000/svg">
<path fill-rule="evenodd" clip-rule="evenodd" d="M157.15 3.99993V29.7499C157.15 32.6166 156.267 34.9166 154.5 36.6499C152.733 38.3499 150.4 39.1999 147.5 39.1999C144.567 39.1999 142.217 38.3333 140.45 36.5999C138.683 34.8333 137.8 32.4333 137.8 29.3999H142.35C142.383 31.0999 142.817 32.4833 143.65 33.5499C144.517 34.6166 145.8 35.1499 147.5 35.1499C149.2 35.1499 150.467 34.6499 151.3 33.6499C152.133 32.6166 152.55 31.3166 152.55 29.7499V3.99993H157.15ZM164.414 25.0499C164.414 22.2499 164.98 19.7999 166.114 17.6999C167.247 15.5666 168.797 13.9166 170.764 12.7499C172.764 11.5833 174.98 10.9999 177.414 10.9999C179.814 10.9999 181.897 11.5166 183.664 12.5499C185.43 13.5833 186.747 14.8833 187.614 16.4499V11.4499H192.214V38.8499H187.614V33.7499C186.714 35.3499 185.364 36.6833 183.564 37.7499C181.797 38.7833 179.73 39.2999 177.364 39.2999C174.93 39.2999 172.73 38.6999 170.764 37.4999C168.797 36.2999 167.247 34.6166 166.114 32.4499C164.98 30.2833 164.414 27.8166 164.414 25.0499ZM187.614 25.0999C187.614 23.0333 187.197 21.2333 186.364 19.6999C185.53 18.1666 184.397 16.9999 182.964 16.1999C181.564 15.3666 180.014 14.9499 178.314 14.9499C176.614 14.9499 175.064 15.3499 173.664 16.1499C172.264 16.9499 171.147 18.1166 170.314 19.6499C169.48 21.1833 169.064 22.9833 169.064 25.0499C169.064 27.1499 169.48 28.9833 170.314 30.5499C171.147 32.0833 172.264 33.2666 173.664 34.0999C175.064 34.8999 176.614 35.2999 178.314 35.2999C180.014 35.2999 181.564 34.8999 182.964 34.0999C184.397 33.2666 185.53 32.0833 186.364 30.5499C187.197 28.9833 187.614 27.1666 187.614 25.0999ZM210.103 34.6499L218.603 11.4499H223.453L212.703 38.8499H207.403L196.653 11.4499H201.553L210.103 34.6499ZM226.23 25.0499C226.23 22.2499 226.797 19.7999 227.93 17.6999C229.063 15.5666 230.613 13.9166 232.58 12.7499C234.58 11.5833 236.797 10.9999 239.23 10.9999C241.63 10.9999 243.713 11.5166 245.48 12.5499C247.247 13.5833 248.563 14.8833 249.43 16.4499V11.4499H254.03V38.8499H249.43V33.7499C248.53 35.3499 247.18 36.6833 245.38 37.7499C243.613 38.7833 241.547 39.2999 239.18 39.2999C236.747 39.2999 234.547 38.6999 232.58 37.4999C230.613 36.2999 229.063 34.6166 227.93 32.4499C226.797 30.2833 226.23 27.8166 226.23 25.0499ZM249.43 25.0999C249.43 23.0333 249.013 21.2333 248.18 19.6999C247.347 18.1666 246.213 16.9999 244.78 16.1999C243.38 15.3666 241.83 14.9499 240.13 14.9499C238.43 14.9499 236.88 15.3499 235.48 16.1499C234.08 16.9499 232.963 18.1166 232.13 19.6499C231.297 21.1833 230.88 22.9833 230.88 25.0499C230.88 27.1499 231.297 28.9833 232.13 30.5499C232.963 32.0833 234.08 33.2666 235.48 34.0999C236.88 34.8999 238.43 35.2999 240.13 35.2999C241.83 35.2999 243.38 34.8999 244.78 34.0999C246.213 33.2666 247.347 32.0833 248.18 30.5499C249.013 28.9833 249.43 27.1666 249.43 25.0999ZM272.769 39.1999C270.469 39.1999 268.402 38.7999 266.569 37.9999C264.769 37.1666 263.352 36.0333 262.319 34.5999C261.286 33.1333 260.752 31.4499 260.719 29.5499H265.569C265.736 31.1833 266.402 32.5666 267.569 33.6999C268.769 34.7999 270.502 35.3499 272.769 35.3499C274.936 35.3499 276.636 34.8166 277.869 33.7499C279.136 32.6499 279.769 31.2499 279.769 29.5499C279.769 28.2166 279.402 27.1333 278.669 26.2999C277.936 25.4666 277.019 24.8333 275.919 24.3999C274.819 23.9666 273.336 23.4999 271.469 22.9999C269.169 22.3999 267.319 21.7999 265.919 21.1999C264.552 20.5999 263.369 19.6666 262.369 18.3999C261.402 17.0999 260.919 15.3666 260.919 13.1999C260.919 11.2999 261.402 9.61659 262.369 8.14993C263.336 6.68326 264.686 5.54993 266.419 4.74993C268.186 3.94993 270.202 3.54993 272.469 3.54993C275.736 3.54993 278.402 4.3666 280.469 5.99993C282.569 7.63326 283.752 9.79993 284.019 12.4999H279.019C278.852 11.1666 278.152 9.99993 276.919 8.99993C275.686 7.9666 274.052 7.44993 272.019 7.44993C270.119 7.44993 268.569 7.94993 267.369 8.94993C266.169 9.9166 265.569 11.2833 265.569 13.0499C265.569 14.3166 265.919 15.3499 266.619 16.1499C267.352 16.9499 268.236 17.5666 269.269 17.9999C270.336 18.3999 271.819 18.8666 273.719 19.3999C276.019 20.0333 277.869 20.6666 279.269 21.2999C280.669 21.8999 281.869 22.8499 282.869 24.1499C283.869 25.4166 284.369 27.1499 284.369 29.3499C284.369 31.0499 283.919 32.6499 283.019 34.1499C282.119 35.6499 280.786 36.8666 279.019 37.7999C277.252 38.7333 275.169 39.1999 272.769 39.1999ZM289.365 25.0999C289.365 22.2666 289.932 19.7999 291.065 17.6999C292.198 15.5666 293.765 13.9166 295.765 12.7499C297.798 11.5833 300.115 10.9999 302.715 10.9999C306.081 10.9999 308.848 11.8166 311.015 13.4499C313.215 15.0833 314.665 17.3499 315.365 20.2499H310.465C309.998 18.5833 309.081 17.2666 307.715 16.2999C306.382 15.3333 304.715 14.8499 302.715 14.8499C300.115 14.8499 298.015 15.7499 296.415 17.5499C294.815 19.3166 294.015 21.8333 294.015 25.0999C294.015 28.3999 294.815 30.9499 296.415 32.7499C298.015 34.5499 300.115 35.4499 302.715 35.4499C304.715 35.4499 306.382 34.9833 307.715 34.0499C309.048 33.1166 309.965 31.7833 310.465 30.0499H315.365C314.632 32.8499 313.165 35.0999 310.965 36.7999C308.765 38.4666 306.015 39.2999 302.715 39.2999C300.115 39.2999 297.798 38.7166 295.765 37.5499C293.765 36.3833 292.198 34.7333 291.065 32.5999C289.932 30.4666 289.365 27.9666 289.365 25.0999ZM325.986 15.8999C326.786 14.3333 327.919 13.1166 329.386 12.2499C330.886 11.3833 332.703 10.9499 334.836 10.9499V15.6499H333.636C328.536 15.6499 325.986 18.4166 325.986 23.9499V38.8499H321.436V11.4499H325.986V15.8999ZM342.438 6.99993C341.572 6.99993 340.838 6.69993 340.238 6.09993C339.638 5.49993 339.338 4.76659 339.338 3.89993C339.338 3.03326 339.638 2.29993 340.238 1.69993C340.838 1.09993 341.572 0.799927 342.438 0.799927C343.272 0.799927 343.972 1.09993 344.538 1.69993C345.138 2.29993 345.438 3.03326 345.438 3.89993C345.438 4.76659 345.138 5.49993 344.538 6.09993C343.972 6.69993 343.272 6.99993 342.438 6.99993ZM344.638 11.4499V38.8499H340.088V11.4499H344.638ZM356.943 16.4999C357.843 14.9333 359.176 13.6333 360.943 12.5999C362.743 11.5333 364.826 10.9999 367.193 10.9999C369.626 10.9999 371.826 11.5833 373.793 12.7499C375.793 13.9166 377.36 15.5666 378.493 17.6999C379.626 19.7999 380.193 22.2499 380.193 25.0499C380.193 27.8166 379.626 30.2833 378.493 32.4499C377.36 34.6166 375.793 36.2999 373.793 37.4999C371.826 38.6999 369.626 39.2999 367.193 39.2999C364.86 39.2999 362.793 38.7833 360.993 37.7499C359.226 36.6833 357.876 35.3666 356.943 33.7999V51.8499H352.393V11.4499H356.943V16.4999ZM375.543 25.0499C375.543 22.9833 375.126 21.1833 374.293 19.6499C373.46 18.1166 372.326 16.9499 370.893 16.1499C369.493 15.3499 367.943 14.9499 366.243 14.9499C364.576 14.9499 363.026 15.3666 361.593 16.1999C360.193 16.9999 359.06 18.1833 358.193 19.7499C357.36 21.2833 356.943 23.0666 356.943 25.0999C356.943 27.1666 357.36 28.9833 358.193 30.5499C359.06 32.0833 360.193 33.2666 361.593 34.0999C363.026 34.8999 364.576 35.2999 366.243 35.2999C367.943 35.2999 369.493 34.8999 370.893 34.0999C372.326 33.2666 373.46 32.0833 374.293 30.5499C375.126 28.9833 375.543 27.1499 375.543 25.0499ZM391.732 15.1999V31.3499C391.732 32.6833 392.015 33.6333 392.582 34.1999C393.149 34.7333 394.132 34.9999 395.532 34.9999H398.882V38.8499H394.782C392.249 38.8499 390.349 38.2666 389.082 37.0999C387.815 35.9333 387.182 34.0166 387.182 31.3499V15.1999H383.632V11.4499H387.182V4.54993H391.732V11.4499H398.882V15.1999H391.732ZM238.25 90H233.7L215.4 62.25V90H210.85V55.1H215.4L233.7 82.8V55.1H238.25V90ZM271.006 75.25C271.006 76.1167 270.956 77.0333 270.856 78H248.956C249.123 80.7 250.04 82.8167 251.706 84.35C253.406 85.85 255.456 86.6 257.856 86.6C259.823 86.6 261.456 86.15 262.756 85.25C264.09 84.3167 265.023 83.0833 265.556 81.55H270.456C269.723 84.1833 268.256 86.3333 266.056 88C263.856 89.6333 261.123 90.45 257.856 90.45C255.256 90.45 252.923 89.8667 250.856 88.7C248.823 87.5333 247.223 85.8833 246.056 83.75C244.89 81.5833 244.306 79.0833 244.306 76.25C244.306 73.4167 244.873 70.9333 246.006 68.8C247.14 66.6667 248.723 65.0333 250.756 63.9C252.823 62.7333 255.19 62.15 257.856 62.15C260.456 62.15 262.756 62.7167 264.756 63.85C266.756 64.9833 268.29 66.55 269.356 68.55C270.456 70.5167 271.006 72.75 271.006 75.25ZM266.306 74.3C266.306 72.5667 265.923 71.0833 265.156 69.85C264.39 68.5833 263.34 67.6333 262.006 67C260.706 66.3333 259.256 66 257.656 66C255.356 66 253.39 66.7333 251.756 68.2C250.156 69.6667 249.24 71.7 249.006 74.3H266.306ZM302.012 75.25C302.012 76.1167 301.962 77.0333 301.862 78H279.962C280.129 80.7 281.045 82.8167 282.712 84.35C284.412 85.85 286.462 86.6 288.862 86.6C290.829 86.6 292.462 86.15 293.762 85.25C295.095 84.3167 296.029 83.0833 296.562 81.55H301.462C300.729 84.1833 299.262 86.3333 297.062 88C294.862 89.6333 292.129 90.45 288.862 90.45C286.262 90.45 283.929 89.8667 281.862 88.7C279.829 87.5333 278.229 85.8833 277.062 83.75C275.895 81.5833 275.312 79.0833 275.312 76.25C275.312 73.4167 275.879 70.9333 277.012 68.8C278.145 66.6667 279.729 65.0333 281.762 63.9C283.829 62.7333 286.195 62.15 288.862 62.15C291.462 62.15 293.762 62.7167 295.762 63.85C297.762 64.9833 299.295 66.55 300.362 68.55C301.462 70.5167 302.012 72.75 302.012 75.25ZM297.312 74.3C297.312 72.5667 296.929 71.0833 296.162 69.85C295.395 68.5833 294.345 67.6333 293.012 67C291.712 66.3333 290.262 66 288.662 66C286.362 66 284.395 66.7333 282.762 68.2C281.162 69.6667 280.245 71.7 280.012 74.3H297.312ZM306.318 76.2C306.318 73.4 306.885 70.95 308.018 68.85C309.151 66.7167 310.701 65.0667 312.668 63.9C314.668 62.7333 316.901 62.15 319.368 62.15C321.501 62.15 323.485 62.65 325.318 63.65C327.151 64.6167 328.551 65.9 329.518 67.5V53H334.118V90H329.518V84.85C328.618 86.4833 327.285 87.8333 325.518 88.9C323.751 89.9333 321.685 90.45 319.318 90.45C316.885 90.45 314.668 89.85 312.668 88.65C310.701 87.45 309.151 85.7667 308.018 83.6C306.885 81.4333 306.318 78.9667 306.318 76.2ZM329.518 76.25C329.518 74.1833 329.101 72.3833 328.268 70.85C327.435 69.3167 326.301 68.15 324.868 67.35C323.468 66.5167 321.918 66.1 320.218 66.1C318.518 66.1 316.968 66.5 315.568 67.3C314.168 68.1 313.051 69.2667 312.218 70.8C311.385 72.3333 310.968 74.1333 310.968 76.2C310.968 78.3 311.385 80.1333 312.218 81.7C313.051 83.2333 314.168 84.4167 315.568 85.25C316.968 86.05 318.518 86.45 320.218 86.45C321.918 86.45 323.468 86.05 324.868 85.25C326.301 84.4167 327.435 83.2333 328.268 81.7C329.101 80.1333 329.518 78.3167 329.518 76.25ZM366.807 75.25C366.807 76.1167 366.757 77.0333 366.657 78H344.757C344.924 80.7 345.84 82.8167 347.507 84.35C349.207 85.85 351.257 86.6 353.657 86.6C355.624 86.6 357.257 86.15 358.557 85.25C359.89 84.3167 360.824 83.0833 361.357 81.55H366.257C365.524 84.1833 364.057 86.3333 361.857 88C359.657 89.6333 356.924 90.45 353.657 90.45C351.057 90.45 348.724 89.8667 346.657 88.7C344.624 87.5333 343.024 85.8833 341.857 83.75C340.69 81.5833 340.107 79.0833 340.107 76.25C340.107 73.4167 340.674 70.9333 341.807 68.8C342.94 66.6667 344.524 65.0333 346.557 63.9C348.624 62.7333 350.99 62.15 353.657 62.15C356.257 62.15 358.557 62.7167 360.557 63.85C362.557 64.9833 364.09 66.55 365.157 68.55C366.257 70.5167 366.807 72.75 366.807 75.25ZM362.107 74.3C362.107 72.5667 361.724 71.0833 360.957 69.85C360.19 68.5833 359.14 67.6333 357.807 67C356.507 66.3333 355.057 66 353.457 66C351.157 66 349.19 66.7333 347.557 68.2C345.957 69.6667 345.04 71.7 344.807 74.3H362.107ZM371.113 76.2C371.113 73.4 371.68 70.95 372.813 68.85C373.946 66.7167 375.496 65.0667 377.463 63.9C379.463 62.7333 381.696 62.15 384.163 62.15C386.296 62.15 388.28 62.65 390.113 63.65C391.946 64.6167 393.346 65.9 394.313 67.5V53H398.913V90H394.313V84.85C393.413 86.4833 392.08 87.8333 390.313 88.9C388.546 89.9333 386.48 90.45 384.113 90.45C381.68 90.45 379.463 89.85 377.463 88.65C375.496 87.45 373.946 85.7667 372.813 83.6C371.68 81.4333 371.113 78.9667 371.113 76.2ZM394.313 76.25C394.313 74.1833 393.896 72.3833 393.063 70.85C392.23 69.3167 391.096 68.15 389.663 67.35C388.263 66.5167 386.713 66.1 385.013 66.1C383.313 66.1 381.763 66.5 380.363 67.3C378.963 68.1 377.846 69.2667 377.013 70.8C376.18 72.3333 375.763 74.1333 375.763 76.2C375.763 78.3 376.18 80.1333 377.013 81.7C377.846 83.2333 378.963 84.4167 380.363 85.25C381.763 86.05 383.313 86.45 385.013 86.45C386.713 86.45 388.263 86.05 389.663 85.25C391.096 84.4167 392.23 83.2333 393.063 81.7C393.896 80.1333 394.313 78.3167 394.313 76.25ZM2.9549 90.2473C1.71073 90.2473 1.08865 89.6252 0.466563 88.381C-0.155521 87.1369 -0.155521 86.5148 0.466563 85.2706L47.1229 4.39969C48.367 2.53344 51.4774 2.53344 52.7216 4.39969L99.3779 84.6485C100 85.2706 100 85.8927 100 86.5148C99.3779 89.0031 98.1338 90.2473 96.2675 90.2473H2.9549ZM8.55365 84.0264H91.2908L49.6112 12.4868L8.55365 84.0264ZM47.1229 59.7652C47.1229 61.6314 48.367 62.8756 50.2333 62.8756C52.0995 62.8756 53.3437 61.0093 53.3437 59.7652V34.2597C53.3437 32.3935 52.0995 31.1493 50.2333 31.1493C48.367 31.1493 47.1229 32.3935 47.1229 34.2597V59.7652ZM47.1541 75.286C46.3375 74.4694 45.8787 73.3618 45.8787 72.2068C45.8787 71.0519 46.3375 69.9443 47.1541 69.1277C47.9708 68.311 49.0784 67.8523 50.2333 67.8523C51.3882 67.8523 52.4958 68.311 53.3124 69.1277C54.1291 69.9443 54.5879 71.0519 54.5879 72.2068C54.5879 73.3618 54.1291 74.4694 53.3124 75.286C52.4958 76.1026 51.3882 76.5614 50.2333 76.5614C49.0784 76.5614 47.9708 76.1026 47.1541 75.286ZM127.774 90.2473H109.851L106.177 84.0264H122.797L81.1173 12.4868L72.6417 27.255L69 21.09L78.629 4.39969C79.8732 2.53344 82.9836 2.53344 84.2278 4.39969L130.884 84.6485C131.506 85.2706 131.506 85.8927 131.506 86.5148C130.884 89.0031 129.64 90.2473 127.774 90.2473ZM84.8498 34.2597V47.9223L78.629 37.391V34.2597C78.629 32.3935 79.8732 31.1493 81.7394 31.1493C83.6057 31.1493 84.8498 32.3935 84.8498 34.2597ZM140.851 90.2473H158.774C160.64 90.2473 161.884 89.0031 162.506 86.5148C162.506 85.8927 162.506 85.2706 161.884 84.6485L115.228 4.39969C113.984 2.53344 110.873 2.53344 109.629 4.39969L100 21.09L103.642 27.255L112.117 12.4868L153.797 84.0264H137.177L140.851 90.2473ZM115.85 47.9223V34.2597C115.85 32.3935 114.606 31.1493 112.739 31.1493C110.873 31.1493 109.629 32.3935 109.629 34.2597V37.391L115.85 47.9223Z" fill="white"/>
</svg>
