<svg width="1066" height="285" viewBox="0 0 1066 285" fill="none" xmlns="http://www.w3.org/2000/svg">
<path fill-rule="evenodd" clip-rule="evenodd" d="M750 259C814.617 259 867 206.617 867 142C867 77.3827 814.617 25 750 25C685.383 25 633 77.3827 633 142C633 206.617 685.383 259 750 259ZM750 284C828.424 284 892 220.424 892 142C892 63.5756 828.424 0 750 0C671.576 0 608 63.5756 608 142C608 220.424 671.576 284 750 284ZM35.974 136.8H80.774V163.2H1.774V22.8H35.974V136.8ZM114.286 40C108.286 40 103.353 38.2667 99.4865 34.8C95.7532 31.2 93.8865 26.8 93.8865 21.6C93.8865 16.2667 95.7532 11.8667 99.4865 8.4C103.353 4.8 108.286 3 114.286 3C120.153 3 124.953 4.8 128.687 8.4C132.553 11.8667 134.486 16.2667 134.486 21.6C134.486 26.8 132.553 31.2 128.687 34.8C124.953 38.2667 120.153 40 114.286 40ZM131.286 51.6V163.2H97.0865V51.6H131.286ZM212.071 80H193.671V163.2H159.471V80H147.071V51.6H159.471V48.4C159.471 34.6667 163.404 24.2667 171.271 17.2C179.138 10 190.671 6.4 205.871 6.4C208.404 6.4 210.271 6.46667 211.471 6.6V35.6C204.938 35.2 200.338 36.1333 197.671 38.4C195.004 40.6667 193.671 44.7333 193.671 50.6V51.6H212.071V80ZM333.341 105.6C333.341 108.8 333.141 112.133 332.741 115.6H255.341C255.875 122.533 258.075 127.867 261.941 131.6C265.941 135.2 270.808 137 276.541 137C285.075 137 291.008 133.4 294.341 126.2H330.741C328.875 133.533 325.475 140.133 320.541 146C315.741 151.867 309.675 156.467 302.341 159.8C295.008 163.133 286.808 164.8 277.741 164.8C266.808 164.8 257.075 162.467 248.541 157.8C240.008 153.133 233.341 146.467 228.541 137.8C223.741 129.133 221.341 119 221.341 107.4C221.341 95.8 223.675 85.6667 228.341 77C233.141 68.3333 239.808 61.6667 248.341 57C256.875 52.3333 266.675 50 277.741 50C288.541 50 298.141 52.2667 306.541 56.8C314.941 61.3333 321.475 67.8 326.141 76.2C330.941 84.6 333.341 94.4 333.341 105.6ZM298.341 96.6C298.341 90.7333 296.341 86.0667 292.341 82.6C288.341 79.1333 283.341 77.4 277.341 77.4C271.608 77.4 266.741 79.0667 262.741 82.4C258.875 85.7333 256.475 90.4667 255.541 96.6H298.341ZM12.558 219.807C14.766 215.483 17.894 212.125 21.942 209.733C26.082 207.341 31.096 206.145 36.984 206.145V219.117H33.672C19.596 219.117 12.558 226.753 12.558 242.025V283.149H0V207.525H12.558V219.807ZM120.48 242.439C120.48 244.831 120.342 247.361 120.066 250.029H59.6225C60.0825 257.481 62.6125 263.323 67.2125 267.555C71.9045 271.695 77.5625 273.765 84.1865 273.765C89.6145 273.765 94.1225 272.523 97.7105 270.039C101.39 267.463 103.966 264.059 105.438 259.827H118.962C116.938 267.095 112.89 273.029 106.818 277.629C100.746 282.137 93.2025 284.391 84.1865 284.391C77.0105 284.391 70.5705 282.781 64.8665 279.561C59.2545 276.341 54.8385 271.787 51.6185 265.899C48.3985 259.919 46.7885 253.019 46.7885 245.199C46.7885 237.379 48.3525 230.525 51.4805 224.637C54.6085 218.749 58.9785 214.241 64.5905 211.113C70.2945 207.893 76.8265 206.283 84.1865 206.283C91.3625 206.283 97.7105 207.847 103.23 210.975C108.75 214.103 112.982 218.427 115.926 223.947C118.962 229.375 120.48 235.539 120.48 242.439ZM107.508 239.817C107.508 235.033 106.45 230.939 104.334 227.535C102.218 224.039 99.3205 221.417 95.6405 219.669C92.0525 217.829 88.0505 216.909 83.6345 216.909C77.2865 216.909 71.8585 218.933 67.3505 222.981C62.9345 227.029 60.4045 232.641 59.7605 239.817H107.508ZM132.365 245.199C132.365 237.379 133.929 230.571 137.057 224.775C140.185 218.887 144.509 214.333 150.029 211.113C155.641 207.893 162.035 206.283 169.211 206.283C178.503 206.283 186.139 208.537 192.119 213.045C198.191 217.553 202.193 223.809 204.125 231.813H190.601C189.313 227.213 186.783 223.579 183.011 220.911C179.331 218.243 174.731 216.909 169.211 216.909C162.035 216.909 156.239 219.393 151.823 224.361C147.407 229.237 145.199 236.183 145.199 245.199C145.199 254.307 147.407 261.345 151.823 266.313C156.239 271.281 162.035 273.765 169.211 273.765C174.731 273.765 179.331 272.477 183.011 269.901C186.691 267.325 189.221 263.645 190.601 258.861H204.125C202.101 266.589 198.053 272.799 191.981 277.491C185.909 282.091 178.319 284.391 169.211 284.391C162.035 284.391 155.641 282.781 150.029 279.561C144.509 276.341 140.185 271.787 137.057 265.899C133.929 260.011 132.365 253.111 132.365 245.199ZM253.863 284.391C246.779 284.391 240.339 282.781 234.543 279.561C228.839 276.341 224.331 271.787 221.019 265.899C217.799 259.919 216.189 253.019 216.189 245.199C216.189 237.471 217.845 230.663 221.157 224.775C224.561 218.795 229.161 214.241 234.957 211.113C240.753 207.893 247.239 206.283 254.415 206.283C261.591 206.283 268.077 207.893 273.873 211.113C279.669 214.241 284.223 218.749 287.535 224.637C290.939 230.525 292.641 237.379 292.641 245.199C292.641 253.019 290.893 259.919 287.397 265.899C283.993 271.787 279.347 276.341 273.459 279.561C267.571 282.781 261.039 284.391 253.863 284.391ZM253.863 273.351C258.371 273.351 262.603 272.293 266.559 270.177C270.515 268.061 273.689 264.887 276.081 260.655C278.565 256.423 279.807 251.271 279.807 245.199C279.807 239.127 278.611 233.975 276.219 229.743C273.827 225.511 270.699 222.383 266.835 220.359C262.971 218.243 258.785 217.185 254.277 217.185C249.677 217.185 245.445 218.243 241.581 220.359C237.809 222.383 234.773 225.511 232.473 229.743C230.173 233.975 229.023 239.127 229.023 245.199C229.023 251.363 230.127 256.561 232.335 260.793C234.635 265.025 237.671 268.199 241.443 270.315C245.215 272.339 249.355 273.351 253.863 273.351ZM321.71 219.807C323.918 215.483 327.046 212.125 331.094 209.733C335.234 207.341 340.248 206.145 346.136 206.145V219.117H342.824C328.748 219.117 321.71 226.753 321.71 242.025V283.149H309.152V207.525H321.71V219.807ZM355.941 245.061C355.941 237.333 357.505 230.571 360.633 224.775C363.761 218.887 368.039 214.333 373.467 211.113C378.987 207.893 385.151 206.283 391.959 206.283C397.847 206.283 403.321 207.663 408.381 210.423C413.441 213.091 417.305 216.633 419.973 221.049V181.029H432.669V283.149H419.973V268.935C417.489 273.443 413.809 277.169 408.933 280.113C404.057 282.965 398.353 284.391 391.821 284.391C385.105 284.391 378.987 282.735 373.467 279.423C368.039 276.111 363.761 271.465 360.633 265.485C357.505 259.505 355.941 252.697 355.941 245.061ZM419.973 245.199C419.973 239.495 418.823 234.527 416.523 230.295C414.223 226.063 411.095 222.843 407.139 220.635C403.275 218.335 398.997 217.185 394.305 217.185C389.613 217.185 385.335 218.289 381.471 220.497C377.607 222.705 374.525 225.925 372.225 230.157C369.925 234.389 368.775 239.357 368.775 245.061C368.775 250.857 369.925 255.917 372.225 260.241C374.525 264.473 377.607 267.739 381.471 270.039C385.335 272.247 389.613 273.351 394.305 273.351C398.997 273.351 403.275 272.247 407.139 270.039C411.095 267.739 414.223 264.473 416.523 260.241C418.823 255.917 419.973 250.903 419.973 245.199ZM522.891 242.439C522.891 244.831 522.753 247.361 522.477 250.029H462.033C462.493 257.481 465.023 263.323 469.623 267.555C474.315 271.695 479.973 273.765 486.597 273.765C492.025 273.765 496.533 272.523 500.121 270.039C503.801 267.463 506.377 264.059 507.849 259.827H521.373C519.349 267.095 515.301 273.029 509.229 277.629C503.157 282.137 495.613 284.391 486.597 284.391C479.421 284.391 472.981 282.781 467.277 279.561C461.665 276.341 457.249 271.787 454.029 265.899C450.809 259.919 449.199 253.019 449.199 245.199C449.199 237.379 450.763 230.525 453.891 224.637C457.019 218.749 461.389 214.241 467.001 211.113C472.705 207.893 479.237 206.283 486.597 206.283C493.773 206.283 500.121 207.847 505.641 210.975C511.161 214.103 515.393 218.427 518.337 223.947C521.373 229.375 522.891 235.539 522.891 242.439ZM509.919 239.817C509.919 235.033 508.861 230.939 506.745 227.535C504.629 224.039 501.731 221.417 498.051 219.669C494.463 217.829 490.461 216.909 486.045 216.909C479.697 216.909 474.269 218.933 469.761 222.981C465.345 227.029 462.815 232.641 462.171 239.817H509.919ZM552.025 219.807C554.233 215.483 557.361 212.125 561.409 209.733C565.549 207.341 570.563 206.145 576.451 206.145V219.117H573.139C559.063 219.117 552.025 226.753 552.025 242.025V283.149H539.467V207.525H552.025V219.807ZM750 192C777.614 192 800 169.614 800 142C800 114.386 777.614 92 750 92C722.386 92 700 114.386 700 142C700 169.614 722.386 192 750 192ZM924 284C1002.42 284 1066 220.424 1066 142C1066 63.5756 1002.42 0 924 0V25C988.617 25 1041 77.3827 1041 142C1041 206.617 988.617 259 924 259V284ZM924 192C951.614 192 974 169.614 974 142C974 114.386 951.614 92 924 92V192ZM576 92C548.386 92 526 114.386 526 142H576V92ZM576 0C497.576 0 434 63.5756 434 142H459C459 77.3827 511.383 25 576 25V0Z" fill="white"/>
</svg>
