<svg width="70" height="70" viewBox="0 0 70 70" fill="none" xmlns="http://www.w3.org/2000/svg">
<path d="M40 70H30V50H40V70ZM20.8574 56.2129L13.7871 63.2842L6.71582 56.2129L13.7871 49.1426L20.8574 56.2129ZM63.2842 56.2129L56.2129 63.2842L49.1426 56.2129L56.2129 49.1426L63.2842 56.2129ZM20 40H0V30H20V40ZM70 40H50V30H70V40ZM20.8574 13.7871L13.7871 20.8574L6.71582 13.7871L13.7871 6.71582L20.8574 13.7871ZM63.2842 13.7871L56.2129 20.8574L49.1426 13.7871L56.2129 6.71582L63.2842 13.7871ZM40 20H30V0H40V20Z" fill="white"/>
</svg>
