<svg width="400" height="305" viewBox="0 0 400 305" fill="none" xmlns="http://www.w3.org/2000/svg">
<path fill-rule="evenodd" clip-rule="evenodd" d="M285.714 228.571C348.833 228.571 400 177.404 400 114.286C400 51.1675 348.833 0 285.714 0C222.596 0 171.429 51.1675 171.429 114.286H10C4.47715 114.286 0 118.763 0 124.286V294.762C0 300.285 4.47716 304.762 10 304.762H275.714C281.237 304.762 285.714 300.285 285.714 294.762V228.571ZM171.429 114.286C171.429 177.404 222.596 228.571 285.714 228.571V124.286C285.714 118.763 281.237 114.286 275.714 114.286H171.429Z" fill="#080808"/>
</svg>

