<svg width="642" height="263" viewBox="0 0 642 263" fill="none" xmlns="http://www.w3.org/2000/svg">
<path fill-rule="evenodd" clip-rule="evenodd" d="M110 0.187506V20.1875L0 20.1875V0.1875L110 0.187506ZM284.4 141V0.600042H244.2L205.2 97.8L165.8 0.600042H125.4V141H159.6V56.6L191.2 141H218.8L250.2 56.8V141H284.4ZM335.594 141L343.994 116.2H396.394L404.794 141H440.994L390.194 0.600042H350.594L299.794 141H335.594ZM370.194 38.4L387.594 89.8H352.994L370.194 38.4ZM490.655 141V0.600042H456.455V141H490.655ZM606.839 141H641.039V0.600042H606.839V87.6L549.639 0.600042H515.439V141H549.639V54.4L606.839 141ZM100.638 261L128.514 164.814H114.99L93.8761 246.096L71.7961 164.814H57.7201L34.5361 246.372L13.5601 164.814H0.174117L27.0841 261.138L41.0221 261L64.2061 183.582L86.5621 261H100.638ZM210.843 227.88C211.119 225.212 211.257 222.682 211.257 220.29C211.257 213.39 209.739 207.226 206.703 201.798C203.759 196.278 199.527 191.954 194.007 188.826C188.487 185.698 182.139 184.134 174.963 184.134C167.603 184.134 161.071 185.744 155.367 188.964C149.755 192.092 145.385 196.6 142.257 202.488C139.129 208.376 137.565 215.23 137.565 223.05C137.565 230.87 139.175 237.77 142.395 243.75C145.615 249.638 150.031 254.192 155.643 257.412C161.347 260.632 167.787 262.242 174.963 262.242C183.979 262.242 191.523 259.988 197.595 255.48C203.667 250.88 207.715 244.946 209.739 237.678H196.215C194.743 241.91 192.167 245.314 188.487 247.89C184.899 250.374 180.391 251.616 174.963 251.616C168.339 251.616 162.681 249.546 157.989 245.406C153.389 241.174 150.859 235.332 150.399 227.88H210.843ZM195.111 205.386C197.227 208.79 198.285 212.884 198.285 217.668H150.537C151.181 210.492 153.711 204.88 158.127 200.832C162.635 196.784 168.063 194.76 174.411 194.76C178.827 194.76 182.829 195.68 186.417 197.52C190.097 199.268 192.995 201.89 195.111 205.386ZM251.707 188.412C246.739 191.264 242.967 194.944 240.391 199.452V158.88H227.833V261H240.391V247.062C242.875 251.478 246.555 255.112 251.431 257.964C256.399 260.816 262.149 262.242 268.681 262.242C275.397 262.242 281.469 260.586 286.897 257.274C292.417 253.962 296.741 249.316 299.869 243.336C302.997 237.356 304.561 230.548 304.561 222.912C304.561 215.184 302.997 208.422 299.869 202.626C296.741 196.738 292.463 192.184 287.035 188.964C281.607 185.744 275.489 184.134 268.681 184.134C262.333 184.134 256.675 185.56 251.707 188.412ZM288.277 208.008C290.577 212.24 291.727 217.208 291.727 222.912C291.727 228.708 290.577 233.768 288.277 238.092C285.977 242.324 282.849 245.59 278.893 247.89C275.029 250.098 270.751 251.202 266.059 251.202C261.459 251.202 257.181 250.098 253.225 247.89C249.361 245.59 246.233 242.324 243.841 238.092C241.541 233.768 240.391 228.754 240.391 223.05C240.391 217.438 241.541 212.516 243.841 208.284C246.233 203.96 249.361 200.694 253.225 198.486C257.181 196.186 261.459 195.036 266.059 195.036C270.751 195.036 275.029 196.14 278.893 198.348C282.849 200.556 285.977 203.776 288.277 208.008ZM332.269 259.344C336.869 261.276 342.067 262.242 347.863 262.242C353.291 262.242 358.075 261.322 362.215 259.482C366.447 257.55 369.713 254.928 372.013 251.616C374.313 248.304 375.463 244.578 375.463 240.438C375.371 235.838 374.083 232.112 371.599 229.26C369.207 226.408 366.309 224.292 362.905 222.912C359.501 221.44 355.085 219.968 349.657 218.496C345.333 217.3 341.929 216.242 339.445 215.322C337.053 214.31 335.029 213.022 333.373 211.458C331.809 209.802 331.027 207.732 331.027 205.248C331.027 202.12 332.361 199.59 335.029 197.658C337.697 195.726 341.285 194.76 345.793 194.76C350.669 194.76 354.533 195.956 357.385 198.348C360.329 200.74 361.939 203.914 362.215 207.87H374.773C374.405 200.51 371.645 194.714 366.493 190.482C361.341 186.25 354.579 184.134 346.207 184.134C340.779 184.134 335.949 185.1 331.717 187.032C327.485 188.872 324.219 191.402 321.919 194.622C319.619 197.842 318.469 201.384 318.469 205.248C318.469 210.124 319.711 214.08 322.195 217.116C324.771 220.06 327.807 222.314 331.303 223.878C334.891 225.35 339.491 226.822 345.103 228.294C351.267 229.858 355.821 231.468 358.765 233.124C361.709 234.688 363.181 237.126 363.181 240.438C363.181 243.658 361.801 246.326 359.041 248.442C356.281 250.558 352.509 251.616 347.725 251.616C342.573 251.616 338.387 250.42 335.167 248.028C332.039 245.636 330.291 242.554 329.923 238.782H316.951C317.227 243.382 318.699 247.476 321.367 251.064C324.035 254.56 327.669 257.32 332.269 259.344ZM393.605 170.61C395.261 172.266 397.285 173.094 399.677 173.094C401.977 173.094 403.909 172.266 405.473 170.61C407.129 168.954 407.957 166.93 407.957 164.538C407.957 162.146 407.129 160.122 405.473 158.466C403.909 156.81 401.977 155.982 399.677 155.982C397.285 155.982 395.261 156.81 393.605 158.466C391.949 160.122 391.121 162.146 391.121 164.538C391.121 166.93 391.949 168.954 393.605 170.61ZM405.749 261V185.376H393.191V261H405.749ZM442.47 240.3V195.726H462.204V185.376H442.47V166.332H429.911V185.376H420.114V195.726H429.911V240.3C429.911 247.66 431.66 252.95 435.156 256.17C438.652 259.39 443.896 261 450.888 261H462.204V250.374H452.958C449.094 250.374 446.38 249.638 444.816 248.166C443.252 246.602 442.47 243.98 442.47 240.3ZM546.005 227.88C546.281 225.212 546.419 222.682 546.419 220.29C546.419 213.39 544.901 207.226 541.865 201.798C538.921 196.278 534.689 191.954 529.169 188.826C523.649 185.698 517.301 184.134 510.125 184.134C502.765 184.134 496.233 185.744 490.529 188.964C484.917 192.092 480.547 196.6 477.419 202.488C474.291 208.376 472.727 215.23 472.727 223.05C472.727 230.87 474.337 237.77 477.557 243.75C480.777 249.638 485.193 254.192 490.805 257.412C496.509 260.632 502.949 262.242 510.125 262.242C519.141 262.242 526.685 259.988 532.757 255.48C538.829 250.88 542.877 244.946 544.901 237.678H531.377C529.905 241.91 527.329 245.314 523.649 247.89C520.061 250.374 515.553 251.616 510.125 251.616C503.501 251.616 497.843 249.546 493.151 245.406C488.551 241.174 486.021 235.332 485.561 227.88H546.005ZM530.273 205.386C532.389 208.79 533.447 212.884 533.447 217.668H485.699C486.343 210.492 488.873 204.88 493.289 200.832C497.797 196.784 503.225 194.76 509.573 194.76C513.989 194.76 517.991 195.68 521.579 197.52C525.259 199.268 528.157 201.89 530.273 205.386ZM110 140.188V107.188L0 107.188V140.188H110ZM110 67.1875V96.1875L0 96.1875V67.1875L110 67.1875ZM110 56.1875V31.1875L0 31.1875V56.1875L110 56.1875ZM561 262V248H641V262H561ZM561 161V185H641V161H561ZM561 214V193H641V214H561ZM561 222V240H641V222H561Z" fill="white"/>
</svg>
