<svg width="1225" height="317" viewBox="0 0 1225 317" fill="none" xmlns="http://www.w3.org/2000/svg">
<path fill-rule="evenodd" clip-rule="evenodd" d="M400 114.286C400 177.404 348.833 228.571 285.714 228.571V124.286C285.714 118.763 281.237 114.286 275.714 114.286H171.429C171.429 51.1675 222.596 0 285.714 0C348.833 0 400 51.1675 400 114.286ZM10 114.286H171.429C171.429 177.404 222.596 228.571 285.714 228.571V294.762C285.714 300.285 281.237 304.762 275.714 304.762H10C4.47716 304.762 0 300.285 0 294.762V124.286C0 118.763 4.47715 114.286 10 114.286ZM464.1 123.2H500.7V134.3H450.45V29.75H464.1V123.2ZM522.246 38.75C519.646 38.75 517.446 37.85 515.646 36.05C513.846 34.25 512.946 32.05 512.946 29.45C512.946 26.85 513.846 24.65 515.646 22.85C517.446 21.05 519.646 20.15 522.246 20.15C524.746 20.15 526.846 21.05 528.546 22.85C530.346 24.65 531.246 26.85 531.246 29.45C531.246 32.05 530.346 34.25 528.546 36.05C526.846 37.85 524.746 38.75 522.246 38.75ZM528.846 52.1V134.3H515.196V52.1H528.846ZM547.01 92.9C547.01 84.5 548.71 77.15 552.11 70.85C555.51 64.45 560.16 59.5 566.06 56C572.06 52.5 578.71 50.75 586.01 50.75C593.21 50.75 599.46 52.3 604.76 55.4C610.06 58.5 614.01 62.4 616.61 67.1V52.1H630.41V134.3H616.61V119C613.91 123.8 609.86 127.8 604.46 131C599.16 134.1 592.96 135.65 585.86 135.65C578.56 135.65 571.96 133.85 566.06 130.25C560.16 126.65 555.51 121.6 552.11 115.1C548.71 108.6 547.01 101.2 547.01 92.9ZM616.61 93.05C616.61 86.85 615.36 81.45 612.86 76.85C610.36 72.25 606.96 68.75 602.66 66.35C598.46 63.85 593.81 62.6 588.71 62.6C583.61 62.6 578.96 63.8 574.76 66.2C570.56 68.6 567.21 72.1 564.71 76.7C562.21 81.3 560.96 86.7 560.96 92.9C560.96 99.2 562.21 104.7 564.71 109.4C567.21 114 570.56 117.55 574.76 120.05C578.96 122.45 583.61 123.65 588.71 123.65C593.81 123.65 598.46 122.45 602.66 120.05C606.96 117.55 610.36 114 612.86 109.4C615.36 104.7 616.61 99.25 616.61 93.05ZM605.96 28.85L574.01 45.95V35.75L605.96 17V28.85ZM693.527 50.6C703.527 50.6 711.627 53.65 717.827 59.75C724.027 65.75 727.127 74.45 727.127 85.85V134.3H713.627V87.8C713.627 79.6 711.577 73.35 707.477 69.05C703.377 64.65 697.777 62.45 690.677 62.45C683.477 62.45 677.727 64.7 673.427 69.2C669.227 73.7 667.127 80.25 667.127 88.85V134.3H653.477V52.1H667.127V63.8C669.827 59.6 673.477 56.35 678.077 54.05C682.777 51.75 687.927 50.6 693.527 50.6ZM783.325 50.75C790.425 50.75 796.625 52.3 801.925 55.4C807.325 58.5 811.325 62.4 813.925 67.1V52.1H827.725V136.1C827.725 143.6 826.125 150.25 822.925 156.05C819.725 161.95 815.125 166.55 809.125 169.85C803.225 173.15 796.325 174.8 788.425 174.8C777.625 174.8 768.625 172.25 761.425 167.15C754.225 162.05 749.975 155.1 748.675 146.3H762.175C763.675 151.3 766.775 155.3 771.475 158.3C776.175 161.4 781.825 162.95 788.425 162.95C795.925 162.95 802.025 160.6 806.725 155.9C811.525 151.2 813.925 144.6 813.925 136.1V118.85C811.225 123.65 807.225 127.65 801.925 130.85C796.625 134.05 790.425 135.65 783.325 135.65C776.025 135.65 769.375 133.85 763.375 130.25C757.475 126.65 752.825 121.6 749.425 115.1C746.025 108.6 744.325 101.2 744.325 92.9C744.325 84.5 746.025 77.15 749.425 70.85C752.825 64.45 757.475 59.5 763.375 56C769.375 52.5 776.025 50.75 783.325 50.75ZM813.925 93.05C813.925 86.85 812.675 81.45 810.175 76.85C807.675 72.25 804.275 68.75 799.975 66.35C795.775 63.85 791.125 62.6 786.025 62.6C780.925 62.6 776.275 63.8 772.075 66.2C767.875 68.6 764.525 72.1 762.025 76.7C759.525 81.3 758.275 86.7 758.275 92.9C758.275 99.2 759.525 104.7 762.025 109.4C764.525 114 767.875 117.55 772.075 120.05C776.275 122.45 780.925 123.65 786.025 123.65C791.125 123.65 795.775 122.45 799.975 120.05C804.275 117.55 807.675 114 810.175 109.4C812.675 104.7 813.925 99.25 813.925 93.05ZM1132.98 29.75H1148.13L1133.73 63.8H1124.13L1132.98 29.75ZM1192.79 135.65C1186.49 135.65 1180.84 134.6 1175.84 132.5C1170.84 130.3 1166.89 127.3 1163.99 123.5C1161.09 119.6 1159.49 115.15 1159.19 110.15H1173.29C1173.69 114.25 1175.59 117.6 1178.99 120.2C1182.49 122.8 1187.04 124.1 1192.64 124.1C1197.84 124.1 1201.94 122.95 1204.94 120.65C1207.94 118.35 1209.44 115.45 1209.44 111.95C1209.44 108.35 1207.84 105.7 1204.64 104C1201.44 102.2 1196.49 100.45 1189.79 98.75C1183.69 97.15 1178.69 95.55 1174.79 93.95C1170.99 92.25 1167.69 89.8 1164.89 86.6C1162.19 83.3 1160.84 79 1160.84 73.7C1160.84 69.5 1162.09 65.65 1164.59 62.15C1167.09 58.65 1170.64 55.9 1175.24 53.9C1179.84 51.8 1185.09 50.75 1190.99 50.75C1200.09 50.75 1207.44 53.05 1213.04 57.65C1218.64 62.25 1221.64 68.55 1222.04 76.55H1208.39C1208.09 72.25 1206.34 68.8 1203.14 66.2C1200.04 63.6 1195.84 62.3 1190.54 62.3C1185.64 62.3 1181.74 63.35 1178.84 65.45C1175.94 67.55 1174.49 70.3 1174.49 73.7C1174.49 76.4 1175.34 78.65 1177.04 80.45C1178.84 82.15 1181.04 83.55 1183.64 84.65C1186.34 85.65 1190.04 86.8 1194.74 88.1C1200.64 89.7 1205.44 91.3 1209.14 92.9C1212.84 94.4 1215.99 96.7 1218.59 99.8C1221.29 102.9 1222.69 106.95 1222.79 111.95C1222.79 116.45 1221.54 120.5 1219.04 124.1C1216.54 127.7 1212.99 130.55 1208.39 132.65C1203.89 134.65 1198.69 135.65 1192.79 135.65ZM844.532 116.82V106.93L883.172 51.5H899.042V105.435H909.737V116.82H899.042V134.3H886.162V116.82H844.532ZM886.737 64.84L859.597 105.435H886.737V64.84ZM973.73 60.585L941.76 134.3H928.535L960.85 61.965H918.3V50.81H973.73V60.585ZM1001.28 111.53C1002.05 115.363 1003.7 118.277 1006.23 120.27C1008.76 122.263 1012.17 123.26 1016.46 123.26C1021.9 123.26 1025.89 121.113 1028.42 116.82C1030.95 112.527 1032.22 105.205 1032.22 94.855C1030.38 97.4617 1027.77 99.4933 1024.4 100.95C1021.1 102.33 1017.5 103.02 1013.59 103.02C1008.6 103.02 1004.08 102.023 1000.02 100.03C995.952 97.96 992.732 94.9317 990.355 90.945C988.055 86.8817 986.905 81.975 986.905 76.225C986.905 67.7917 989.359 61.0833 994.265 56.1C999.249 51.04 1006.07 48.51 1014.74 48.51C1025.16 48.51 1032.56 51.9983 1036.93 58.975C1041.38 65.875 1043.6 76.4933 1043.6 90.83C1043.6 100.72 1042.76 108.808 1041.07 115.095C1039.46 121.382 1036.62 126.135 1032.56 129.355C1028.5 132.575 1022.86 134.185 1015.66 134.185C1007.45 134.185 1001.13 132.038 996.68 127.745C992.234 123.452 989.742 118.047 989.205 111.53H1001.28ZM1015.89 91.98C1020.49 91.98 1024.09 90.5617 1026.7 87.725C1029.38 84.8117 1030.72 80.9783 1030.72 76.225C1030.72 70.935 1029.3 66.8333 1026.47 63.92C1023.71 60.93 1019.91 59.435 1015.08 59.435C1010.25 59.435 1006.42 60.9683 1003.58 64.035C1000.82 67.025 999.44 70.9733 999.44 75.88C999.44 80.5567 1000.78 84.4283 1003.47 87.495C1006.23 90.485 1010.37 91.98 1015.89 91.98ZM1057.72 71.165C1058.18 64.035 1060.9 58.4767 1065.88 54.49C1070.94 50.5033 1077.38 48.51 1085.2 48.51C1090.57 48.51 1095.21 49.4683 1099.12 51.385C1103.03 53.3017 1105.98 55.9083 1107.97 59.205C1109.97 62.5017 1110.96 66.22 1110.96 70.36C1110.96 75.1133 1109.7 79.1767 1107.17 82.55C1104.64 85.9233 1101.61 88.185 1098.08 89.335V89.795C1102.61 91.175 1106.13 93.705 1108.66 97.385C1111.19 100.988 1112.46 105.627 1112.46 111.3C1112.46 115.823 1111.42 119.848 1109.35 123.375C1107.28 126.902 1104.22 129.7 1100.15 131.77C1096.09 133.763 1091.22 134.76 1085.55 134.76C1077.27 134.76 1070.45 132.652 1065.08 128.435C1059.79 124.142 1056.95 118.008 1056.57 110.035H1069.22C1069.53 114.098 1071.1 117.433 1073.93 120.04C1076.77 122.57 1080.6 123.835 1085.43 123.835C1090.11 123.835 1093.71 122.57 1096.24 120.04C1098.77 117.433 1100.04 114.098 1100.04 110.035C1100.04 104.668 1098.31 100.873 1094.86 98.65C1091.49 96.35 1086.28 95.2 1079.22 95.2H1076.23V84.39H1079.34C1085.55 84.3133 1090.26 83.2783 1093.48 81.285C1096.78 79.2917 1098.43 76.1483 1098.43 71.855C1098.43 68.175 1097.24 65.2617 1094.86 63.115C1092.49 60.8917 1089.11 59.78 1084.74 59.78C1080.45 59.78 1077.12 60.8917 1074.74 63.115C1072.36 65.2617 1070.94 67.945 1070.48 71.165H1057.72ZM505.05 278L480.15 235.25H463.65V278H450V173.45H483.75C491.65 173.45 498.3 174.8 503.7 177.5C509.2 180.2 513.3 183.85 516 188.45C518.7 193.05 520.05 198.3 520.05 204.2C520.05 211.4 517.95 217.75 513.75 223.25C509.65 228.75 503.45 232.4 495.15 234.2L521.4 278H505.05ZM463.65 224.3H483.75C491.15 224.3 496.7 222.5 500.4 218.9C504.1 215.2 505.95 210.3 505.95 204.2C505.95 198 504.1 193.2 500.4 189.8C496.8 186.4 491.25 184.7 483.75 184.7H463.65V224.3ZM616.26 233.75C616.26 236.35 616.11 239.1 615.81 242H550.11C550.61 250.1 553.36 256.45 558.36 261.05C563.46 265.55 569.61 267.8 576.81 267.8C582.71 267.8 587.61 266.45 591.51 263.75C595.51 260.95 598.31 257.25 599.91 252.65H614.61C612.41 260.55 608.01 267 601.41 272C594.81 276.9 586.61 279.35 576.81 279.35C569.01 279.35 562.01 277.6 555.81 274.1C549.71 270.6 544.91 265.65 541.41 259.25C537.91 252.75 536.16 245.25 536.16 236.75C536.16 228.25 537.86 220.8 541.26 214.4C544.66 208 549.41 203.1 555.51 199.7C561.71 196.2 568.81 194.45 576.81 194.45C584.61 194.45 591.51 196.15 597.51 199.55C603.51 202.95 608.11 207.65 611.31 213.65C614.61 219.55 616.26 226.25 616.26 233.75ZM602.16 230.9C602.16 225.7 601.01 221.25 598.71 217.55C596.41 213.75 593.26 210.9 589.26 209C585.36 207 581.01 206 576.21 206C569.31 206 563.41 208.2 558.51 212.6C553.71 217 550.96 223.1 550.26 230.9H602.16ZM647.927 210.95C650.627 206.25 654.627 202.35 659.927 199.25C665.327 196.05 671.577 194.45 678.677 194.45C685.977 194.45 692.577 196.2 698.477 199.7C704.477 203.2 709.177 208.15 712.577 214.55C715.977 220.85 717.677 228.2 717.677 236.6C717.677 244.9 715.977 252.3 712.577 258.8C709.177 265.3 704.477 270.35 698.477 273.95C692.577 277.55 685.977 279.35 678.677 279.35C671.677 279.35 665.477 277.8 660.077 274.7C654.777 271.5 650.727 267.55 647.927 262.85V317H634.277V195.8H647.927V210.95ZM703.727 236.6C703.727 230.4 702.477 225 699.977 220.4C697.477 215.8 694.077 212.3 689.777 209.9C685.577 207.5 680.927 206.3 675.827 206.3C670.827 206.3 666.177 207.55 661.877 210.05C657.677 212.45 654.277 216 651.677 220.7C649.177 225.3 647.927 230.65 647.927 236.75C647.927 242.95 649.177 248.4 651.677 253.1C654.277 257.7 657.677 261.25 661.877 263.75C666.177 266.15 670.827 267.35 675.827 267.35C680.927 267.35 685.577 266.15 689.777 263.75C694.077 261.25 697.477 257.7 699.977 253.1C702.477 248.4 703.727 242.9 703.727 236.6ZM771.495 279.35C763.795 279.35 756.795 277.6 750.495 274.1C744.295 270.6 739.395 265.65 735.795 259.25C732.295 252.75 730.545 245.25 730.545 236.75C730.545 228.35 732.345 220.95 735.945 214.55C739.645 208.05 744.645 203.1 750.945 199.7C757.245 196.2 764.295 194.45 772.095 194.45C779.895 194.45 786.945 196.2 793.245 199.7C799.545 203.1 804.495 208 808.095 214.4C811.795 220.8 813.645 228.25 813.645 236.75C813.645 245.25 811.745 252.75 807.945 259.25C804.245 265.65 799.195 270.6 792.795 274.1C786.395 277.6 779.295 279.35 771.495 279.35ZM771.495 267.35C776.395 267.35 780.995 266.2 785.295 263.9C789.595 261.6 793.045 258.15 795.645 253.55C798.345 248.95 799.695 243.35 799.695 236.75C799.695 230.15 798.395 224.55 795.795 219.95C793.195 215.35 789.795 211.95 785.595 209.75C781.395 207.45 776.845 206.3 771.945 206.3C766.945 206.3 762.345 207.45 758.145 209.75C754.045 211.95 750.745 215.35 748.245 219.95C745.745 224.55 744.495 230.15 744.495 236.75C744.495 243.45 745.695 249.1 748.095 253.7C750.595 258.3 753.895 261.75 757.995 264.05C762.095 266.25 766.595 267.35 771.495 267.35ZM860.692 279.35C854.392 279.35 848.742 278.3 843.742 276.2C838.742 274 834.792 271 831.892 267.2C828.992 263.3 827.392 258.85 827.092 253.85H841.192C841.592 257.95 843.492 261.3 846.892 263.9C850.392 266.5 854.942 267.8 860.542 267.8C865.742 267.8 869.842 266.65 872.842 264.35C875.842 262.05 877.342 259.15 877.342 255.65C877.342 252.05 875.742 249.4 872.542 247.7C869.342 245.9 864.392 244.15 857.692 242.45C851.592 240.85 846.592 239.25 842.692 237.65C838.892 235.95 835.592 233.5 832.792 230.3C830.092 227 828.742 222.7 828.742 217.4C828.742 213.2 829.992 209.35 832.492 205.85C834.992 202.35 838.542 199.6 843.142 197.6C847.742 195.5 852.992 194.45 858.892 194.45C867.992 194.45 875.342 196.75 880.942 201.35C886.542 205.95 889.542 212.25 889.942 220.25H876.292C875.992 215.95 874.242 212.5 871.042 209.9C867.942 207.3 863.742 206 858.442 206C853.542 206 849.642 207.05 846.742 209.15C843.842 211.25 842.392 214 842.392 217.4C842.392 220.1 843.242 222.35 844.942 224.15C846.742 225.85 848.942 227.25 851.542 228.35C854.242 229.35 857.942 230.5 862.642 231.8C868.542 233.4 873.342 235 877.042 236.6C880.742 238.1 883.892 240.4 886.492 243.5C889.192 246.6 890.592 250.65 890.692 255.65C890.692 260.15 889.442 264.2 886.942 267.8C884.442 271.4 880.892 274.25 876.292 276.35C871.792 278.35 866.592 279.35 860.692 279.35ZM917.011 182.45C914.411 182.45 912.211 181.55 910.411 179.75C908.611 177.95 907.711 175.75 907.711 173.15C907.711 170.55 908.611 168.35 910.411 166.55C912.211 164.75 914.411 163.85 917.011 163.85C919.511 163.85 921.611 164.75 923.311 166.55C925.111 168.35 926.011 170.55 926.011 173.15C926.011 175.75 925.111 177.95 923.311 179.75C921.611 181.55 919.511 182.45 917.011 182.45ZM923.611 195.8V278H909.961V195.8H923.611ZM963.525 207.05V255.5C963.525 259.5 964.375 262.35 966.075 264.05C967.775 265.65 970.725 266.45 974.925 266.45H984.975V278H972.675C965.075 278 959.375 276.25 955.575 272.75C951.775 269.25 949.875 263.5 949.875 255.5V207.05H939.225V195.8H949.875V175.1H963.525V195.8H984.975V207.05H963.525ZM1037.36 279.35C1029.66 279.35 1022.66 277.6 1016.36 274.1C1010.16 270.6 1005.26 265.65 1001.66 259.25C998.164 252.75 996.414 245.25 996.414 236.75C996.414 228.35 998.214 220.95 1001.81 214.55C1005.51 208.05 1010.51 203.1 1016.81 199.7C1023.11 196.2 1030.16 194.45 1037.96 194.45C1045.76 194.45 1052.81 196.2 1059.11 199.7C1065.41 203.1 1070.36 208 1073.96 214.4C1077.66 220.8 1079.51 228.25 1079.51 236.75C1079.51 245.25 1077.61 252.75 1073.81 259.25C1070.11 265.65 1065.06 270.6 1058.66 274.1C1052.26 277.6 1045.16 279.35 1037.36 279.35ZM1037.36 267.35C1042.26 267.35 1046.86 266.2 1051.16 263.9C1055.46 261.6 1058.91 258.15 1061.51 253.55C1064.21 248.95 1065.56 243.35 1065.56 236.75C1065.56 230.15 1064.26 224.55 1061.66 219.95C1059.06 215.35 1055.66 211.95 1051.46 209.75C1047.26 207.45 1042.71 206.3 1037.81 206.3C1032.81 206.3 1028.21 207.45 1024.01 209.75C1019.91 211.95 1016.61 215.35 1014.11 219.95C1011.61 224.55 1010.36 230.15 1010.36 236.75C1010.36 243.45 1011.56 249.1 1013.96 253.7C1016.46 258.3 1019.76 261.75 1023.86 264.05C1027.96 266.25 1032.46 267.35 1037.36 267.35ZM1111.11 209.15C1113.51 204.45 1116.91 200.8 1121.31 198.2C1125.81 195.6 1131.26 194.3 1137.66 194.3V208.4H1134.06C1118.76 208.4 1111.11 216.7 1111.11 233.3V278H1097.46V195.8H1111.11V209.15ZM1224.22 195.8L1174.72 316.7H1160.62L1176.82 277.1L1143.67 195.8H1158.82L1184.62 262.4L1210.12 195.8H1224.22Z" fill="white"/>
</svg>
