<?xml version="1.0" standalone="no"?><!DOCTYPE svg PUBLIC "-//W3C//DTD SVG 1.1//EN" "http://www.w3.org/Graphics/SVG/1.1/DTD/svg11.dtd"><svg t="1653880909411" class="icon" viewBox="0 0 1024 1024" version="1.1" xmlns="http://www.w3.org/2000/svg" p-id="11235" xmlns:xlink="http://www.w3.org/1999/xlink" width="200" height="200"><defs><style type="text/css"></style></defs><path d="M325.184603 0c-5.288567 0.165268-10.907669 2.479016-17.35311 7.437047-15.700432-5.949637-30.905061-8.098118-44.62228 4.131692-20.988999-2.644283-27.930242 2.809551-33.053542 9.42026-4.627496-0.165268-34.540951-4.792763-48.25817 15.369896-34.540951-3.966425-45.448619 19.997393-33.053541 42.473801-7.106511 10.742401-14.37829 21.319534 2.14848 41.81273-5.78437 11.403472-2.14848 23.79855 11.568739 38.837911-3.63589 16.030968 3.470622 27.434439 16.361503 36.193628-2.313748 21.980605 20.493196 34.706218 27.269172 39.333714 2.644283 12.725613 8.098118 24.790156 34.210415 31.566132 4.29696 19.005786 19.997393 22.31114 35.202022 26.442833-50.241383 28.756581-93.210987 66.602886-92.880452 159.318069l-7.271779 12.890881c-57.513162 34.540951-109.241954 145.270314-28.426045 235.341215 5.288567 28.260778 14.213023 48.423438 21.980605 70.899846 11.734007 90.236168 88.914026 132.544701 109.241954 137.502732 29.748187 22.31114 61.479587 43.630675 104.449191 58.339501 40.490588 41.151659 84.28653 56.852091 128.413008 56.686823h1.983212c44.126478 0 87.92242-15.700432 128.413008-56.686823 42.969604-14.874094 74.701003-36.02836 104.449191-58.339501 20.327928-4.958031 97.342679-47.266564 109.241954-137.502732 7.93285-22.476408 16.692038-42.639068 21.980605-70.899846 80.981176-90.0709 29.252384-200.800264-28.426045-235.341215l-7.437047-12.890881c0.330535-92.715183-42.804336-130.561488-92.880451-159.318069 15.204629-3.966425 30.905061-7.271779 35.202021-26.442833 26.112298-6.610708 31.566132-18.675251 34.210415-31.566132 6.775976-4.627496 29.58292-17.353109 27.269172-39.333714 12.725613-8.759188 19.832125-20.16266 16.361503-36.193628 13.71722-15.039361 17.353109-27.434439 11.568739-38.837911 16.526771-20.493196 9.254992-31.070329 2.148481-41.81273 12.395078-22.476408 1.487409-46.440226-33.053542-42.473801-13.71722-20.16266-43.630675-15.535164-48.25817-15.535164-5.123299-6.445441-12.064543-12.064543-33.053541-9.420259-13.551952-12.22981-28.921849-10.08133-44.622281-4.131693-18.675251-14.543558-31.070329-2.809551-45.118084 1.487409-23.137479-7.106511-28.426046 2.809551-39.498982 6.941244-24.624888-5.123299-32.227203 6.114905-43.96121 17.848912l-0.826339-0.330535c-4.131693-1.983212-8.759188-1.817945-12.890881 0.165268-37.185234 21.65007-55.695217 65.61128-62.140657 88.087687-6.610708-22.641676-24.955424-66.602886-62.140658-88.087687l-0.661071-0.330536c-4.131693-1.817945-8.924456-1.652677-12.890881 0.495803l-0.165268 0.165268c-11.899275-11.734007-19.336322-22.972211-43.96121-17.848912-11.072936-4.131693-16.196235-14.047755-38.837911-6.775976-9.254992-2.809551-14.708826-9.254992-24.790156-8.924456l-3.140086-0.165268z" fill="#020203" p-id="11236"></path><path d="M251.805741 95.359467c98.664821 50.076115 156.012715 90.566703 187.413579 125.107654-16.030968 63.462799-99.986963 66.437618-130.726756 64.619673 6.280173-2.809551 11.568739-6.280173 13.386685-11.568739-7.767582-5.453834-35.036754-0.495803-54.042541-11.072937 7.271779-1.487409 10.742401-2.974819 14.213023-8.263385-18.01418-5.619102-37.350502-10.577133-48.753973-19.832125 6.114905 0 11.899275 1.322142 19.997392-4.131693-16.196235-8.759188-33.384077-15.535164-46.770761-28.591313 8.263385-0.165268 17.353109 0 19.997393-3.140086-14.708826-9.089724-27.269172-19.005786-37.51577-29.913455 11.734007 1.322142 16.526771 0.165268 19.50159-1.817945-11.238204-11.238204-25.285959-20.823731-32.061935-34.706218 8.593921 2.974819 16.526771 4.131693 22.31114-0.330536-3.801157-8.428653-19.997393-13.386684-29.417652-33.053541 9.089724 0.826339 18.840519 1.983212 20.658464 0-4.29696-17.022574-11.568739-26.608101-18.675251-36.524163 19.501589-0.330535 49.084509 0 47.762367-1.48741l-12.064543-12.22981c19.005786-5.123299 38.507376 0.826339 52.720399 5.123299 6.280173-4.958031-0.165268-11.238204-7.93285-17.518377 16.196235 2.14848 30.905061 5.78437 44.126478 10.907669 7.106511-6.280173-4.627496-12.560346-10.246598-18.840519 25.120691 4.627496 35.697825 11.238204 46.274958 17.848912 7.602315-7.271779 0.495803-13.386684-4.792764-19.666857 18.840519 6.941244 28.591313 15.700432 38.837911 24.624889 3.470622-4.627496 8.759188-7.93285 2.313748-19.171054 13.386684 7.602315 23.468014 16.526771 30.905061 26.6081 8.263385-5.123299 4.958031-12.395078 4.958031-18.840518 13.882487 11.238204 22.806944 22.972211 33.549345 34.706218 2.14848-1.487409 4.131693-6.941244 5.78437-15.204629 33.218809 31.7314 80.154838 111.72097 12.064542 143.45237-57.67843-47.266564-126.925599-81.476979-203.775082-107.093474zM774.38223 95.359467c-98.664821 50.076115-156.012715 90.566703-187.41358 125.107654 16.030968 63.462799 99.986963 66.437618 130.726756 64.619673-6.280173-2.809551-11.568739-6.280173-13.386684-11.568739 7.767582-5.453834 35.036754-0.495803 54.04254-11.072937-7.271779-1.487409-10.742401-2.974819-14.213023-8.263385 18.01418-5.619102 37.350502-10.577133 48.753974-19.832125-6.114905 0-11.899275 1.322142-19.997393-4.131693 16.196235-8.593921 33.384077-15.369897 46.770761-28.426045-8.263385-0.165268-17.353109 0-19.997392-3.140087 14.708826-9.089724 27.269172-19.005786 37.515769-29.913454-11.734007 1.322142-16.526771 0.165268-19.501589-1.817945 11.238204-11.238204 25.285959-20.823731 32.061935-34.706219-8.593921 2.974819-16.526771 4.131693-22.311141-0.330535 3.801157-8.428653 19.997393-13.386684 29.417652-33.053541-9.089724 0.826339-18.840519 1.983212-20.658463 0 4.29696-17.022574 11.568739-26.608101 18.675251-36.524164-19.501589-0.330535-49.084509 0-47.762368-1.487409l12.064543-12.22981c-19.005786-5.123299-38.672643 0.826339-52.720398 5.123299-6.280173-4.958031 0.165268-11.238204 7.93285-17.518377-16.196235 2.14848-30.905061 5.78437-44.126478 10.907668-7.106511-6.280173 4.627496-12.560346 10.246598-18.840518-25.120691 4.627496-35.697825 11.238204-46.274958 17.848912-7.602315-7.271779-0.495803-13.386684 4.792763-19.666857-18.840519 6.941244-28.591313 15.700432-38.837911 24.624888-3.470622-4.627496-8.759188-7.93285-2.313748-19.171054-13.386684 7.602315-23.468014 16.526771-30.905061 26.608101-8.263385-5.123299-4.958031-12.395078-4.958031-18.840518-13.882487 11.238204-22.806944 22.972211-33.549345 34.706218-2.14848-1.487409-4.131693-6.941244-5.784369-15.204629-33.218809 31.7314-80.154838 111.72097-12.064543 143.452369 57.843697-47.431832 127.090866-81.642247 203.775083-107.258741z" fill="#6ABF4B" p-id="11237"></path><path d="M632.417269 742.217271c0.330535 59.331107-52.224595 107.589277-117.505339 107.919812-65.280744 0.330535-118.496946-47.431832-118.827481-106.762938v-1.156874c-0.330535-59.331107 52.224595-107.589277 117.505339-107.919813 65.280744-0.330535 118.496946 47.431832 118.827481 106.762939v1.156874zM448.143776 435.480407c48.919241 31.566132 57.843697 103.292317 19.666858 159.97914-38.011573 56.686823-108.580883 77.180019-157.665393 45.613887-48.919241-31.566132-57.843697-103.292317-19.666857-159.97914s108.746151-77.180019 157.665392-45.613887zM580.357942 429.861305c-48.919241 31.566132-57.843697 103.292317-19.666857 159.97914 38.011573 56.686823 108.580883 77.180019 157.665392 45.613887 48.919241-31.566132 57.843697-103.292317 19.666857-159.97914-38.17684-56.852091-108.746151-77.180019-157.665392-45.613887zM206.522389 487.539735c52.885666-13.882487 17.848912 215.343822-25.120691 196.668571-47.431832-37.515769-62.636461-147.418794 25.120691-196.668571zM817.351833 484.730184c-52.885666-13.882487-17.848912 215.343822 25.120692 196.668571 47.431832-37.681037 62.636461-147.418794-25.120692-196.668571zM640.019584 313.51284c91.227774-15.204629 167.085652 38.17684 164.110833 135.684787-2.974819 37.350502-197.660177-130.065685-164.110833-135.684787zM387.986331 310.703289c-91.227774-15.204629-167.085652 38.17684-164.110833 135.684787 3.140086 37.350502 197.825445-130.230953 164.110833-135.684787zM513.755056 287.896345c-54.373076-1.322142-106.762939 39.829517-106.762939 63.628067-0.165268 29.087116 42.969604 58.835304 107.258742 59.496375 65.446012 0.495803 107.258742-23.79855 107.589277-53.712005 0-33.87988-59.82691-69.90824-108.08508-69.412437zM517.886749 883.355892c47.431832-1.983212 111.225167 15.039361 111.225166 37.681038 0.826339 21.980605-57.843697 71.726185-114.365253 70.899846-58.670036 2.479016-116.183198-47.431832-115.522127-64.619674-0.826339-25.285959 71.560917-45.118084 118.662214-43.96121zM342.207176 748.993247c33.714612 40.160053 49.249777 110.564096 20.988999 131.387827-26.608101 15.8657-91.55831 9.254992-137.502732-55.860485-31.070329-54.703611-27.103904-110.398828-5.288566-126.760331 32.723006-19.666857 82.964389 6.775976 121.802299 51.232989zM682.493385 736.267633c-36.524163 42.143265-56.852091 119.158017-30.243991 143.948173 25.451227 19.171054 94.037325 16.526771 144.609244-52.555131 36.689431-46.440226 24.459621-123.95078 3.470622-144.609243-31.235597-23.79855-76.023145 6.610708-117.835875 53.216201z" fill="#C31C4A" p-id="11238"></path></svg>