<svg width="989" height="312" viewBox="0 0 989 312" fill="none" xmlns="http://www.w3.org/2000/svg">
<path fill-rule="evenodd" clip-rule="evenodd" d="M79.9805 114.844C79.9805 112.305 79.5898 110.026 78.8086 108.008C78.0924 105.924 76.7253 104.036 74.707 102.344C72.6888 100.586 69.8568 98.8607 66.2109 97.168C62.5651 95.4753 57.8451 93.7174 52.0508 91.8945C45.6055 89.8112 39.4857 87.4674 33.6914 84.8633C27.9622 82.2591 22.8841 79.2318 18.457 75.7812C14.0951 72.2656 10.6445 68.1966 8.10547 63.5742C5.63151 58.9518 4.39453 53.5807 4.39453 47.4609C4.39453 41.5365 5.69661 36.1654 8.30078 31.3477C10.9049 26.4648 14.5508 22.2982 19.2383 18.8477C23.9258 15.332 29.4596 12.6302 35.8398 10.7422C42.2852 8.85417 49.349 7.91016 57.0312 7.91016C67.513 7.91016 76.6602 9.79818 84.4727 13.5742C92.2852 17.3503 98.3398 22.526 102.637 29.1016C106.999 35.6771 109.18 43.1966 109.18 51.6602H80.0781C80.0781 47.4935 79.1992 43.8477 77.4414 40.7227C75.7487 37.5326 73.1445 35.026 69.6289 33.2031C66.1784 31.3802 61.8164 30.4688 56.543 30.4688C51.4648 30.4688 47.2331 31.25 43.8477 32.8125C40.4622 34.3099 37.9232 36.3607 36.2305 38.9648C34.5378 41.5039 33.6914 44.3685 33.6914 47.5586C33.6914 49.9674 34.2773 52.1484 35.4492 54.1016C36.6862 56.0547 38.5091 57.8776 40.918 59.5703C43.3268 61.263 46.2891 62.8581 49.8047 64.3555C53.3203 65.8529 57.3893 67.3177 62.0117 68.75C69.7591 71.0938 76.5625 73.7305 82.4219 76.6602C88.3464 79.5898 93.2943 82.8776 97.2656 86.5234C101.237 90.1693 104.232 94.3034 106.25 98.9258C108.268 103.548 109.277 108.789 109.277 114.648C109.277 120.833 108.073 126.367 105.664 131.25C103.255 136.133 99.7721 140.267 95.2148 143.652C90.6576 147.038 85.2214 149.609 78.9062 151.367C72.5911 153.125 65.5273 154.004 57.7148 154.004C50.6836 154.004 43.75 153.092 36.9141 151.27C30.0781 149.382 23.8607 146.549 18.2617 142.773C12.7279 138.997 8.30078 134.18 4.98047 128.32C1.66016 122.461 0 115.527 0 107.52H29.3945C29.3945 111.947 30.0781 115.69 31.4453 118.75C32.8125 121.81 34.7331 124.284 37.207 126.172C39.7461 128.06 42.7409 129.427 46.1914 130.273C49.707 131.12 53.5482 131.543 57.7148 131.543C62.793 131.543 66.9596 130.827 70.2148 129.395C73.5352 127.962 75.9766 125.977 77.5391 123.438C79.1667 120.898 79.9805 118.034 79.9805 114.844ZM122.949 100.293V98.2422C122.949 90.4948 124.056 83.3659 126.27 76.8555C128.483 70.2799 131.706 64.5833 135.938 59.7656C140.169 54.9479 145.378 51.2044 151.562 48.5352C157.747 45.8008 164.844 44.4336 172.852 44.4336C180.859 44.4336 187.988 45.8008 194.238 48.5352C200.488 51.2044 205.729 54.9479 209.961 59.7656C214.258 64.5833 217.513 70.2799 219.727 76.8555C221.94 83.3659 223.047 90.4948 223.047 98.2422V100.293C223.047 107.975 221.94 115.104 219.727 121.68C217.513 128.19 214.258 133.887 209.961 138.77C205.729 143.587 200.521 147.331 194.336 150C188.151 152.669 181.055 154.004 173.047 154.004C165.039 154.004 157.91 152.669 151.66 150C145.475 147.331 140.234 143.587 135.938 138.77C131.706 133.887 128.483 128.19 126.27 121.68C124.056 115.104 122.949 107.975 122.949 100.293ZM151.074 98.2422V100.293C151.074 104.72 151.465 108.854 152.246 112.695C153.027 116.536 154.264 119.922 155.957 122.852C157.715 125.716 159.993 127.962 162.793 129.59C165.592 131.217 169.01 132.031 173.047 132.031C176.953 132.031 180.306 131.217 183.105 129.59C185.905 127.962 188.151 125.716 189.844 122.852C191.536 119.922 192.773 116.536 193.555 112.695C194.401 108.854 194.824 104.72 194.824 100.293V98.2422C194.824 93.9453 194.401 89.9089 193.555 86.1328C192.773 82.2917 191.504 78.9062 189.746 75.9766C188.053 72.9818 185.807 70.638 183.008 68.9453C180.208 67.2526 176.823 66.4062 172.852 66.4062C168.88 66.4062 165.495 67.2526 162.695 68.9453C159.961 70.638 157.715 72.9818 155.957 75.9766C154.264 78.9062 153.027 82.2917 152.246 86.1328C151.465 89.9089 151.074 93.9453 151.074 98.2422ZM276.172 152.051H247.852V66.3086H232.129V46.3867H247.852V37.0117C247.852 29.0039 249.414 22.2656 252.539 16.7969C255.729 11.263 260.189 7.09635 265.918 4.29688C271.712 1.43229 278.581 0 286.523 0C289.128 0 291.634 0.195312 294.043 0.585938C296.452 0.911458 298.796 1.33464 301.074 1.85547L300.781 23.0469C299.544 22.7214 298.242 22.4935 296.875 22.3633C295.508 22.2331 293.913 22.168 292.09 22.168C288.704 22.168 285.807 22.7539 283.398 23.9258C281.055 25.0326 279.264 26.6927 278.027 28.9062C276.79 31.1198 276.172 33.8216 276.172 37.0117V46.3867H297.266V66.3086H276.172V152.051ZM363.77 46.3867V66.3086H345.605V120.215C345.605 123.275 345.996 125.618 346.777 127.246C347.624 128.874 348.861 130.013 350.488 130.664C352.116 131.25 354.167 131.543 356.641 131.543C358.398 131.543 359.961 131.478 361.328 131.348C362.76 131.152 363.965 130.957 364.941 130.762L365.039 151.465C362.63 152.246 360.026 152.865 357.227 153.32C354.427 153.776 351.335 154.004 347.949 154.004C341.764 154.004 336.361 152.995 331.738 150.977C327.181 148.893 323.665 145.573 321.191 141.016C318.717 136.458 317.48 130.469 317.48 123.047V66.3086H302.246V46.3867H317.48V20.3125H345.605V46.3867H363.77ZM398.438 152.051H407.129H416.016H422.07L442.077 83.8509L462.109 152.051H468.262H477.148H485.742L512.5 46.3867H485.254L471.571 115.061L452.246 46.3867H449.805H434.57H431.934L412.646 115.135L398.828 46.3867H371.68L398.438 152.051ZM581.543 145.508C582.723 144.412 583.812 143.286 584.81 142.13C585.52 146.064 586.514 149.371 587.793 152.051H616.211V150.391C614.844 147.656 613.802 144.466 613.086 140.82C612.37 137.109 612.012 132.357 612.012 126.562V81.3477C612.012 73.1445 610.156 66.3086 606.445 60.8398C602.799 55.3711 597.786 51.2695 591.406 48.5352C585.026 45.8008 577.734 44.4336 569.531 44.4336C562.695 44.4336 556.51 45.3125 550.977 47.0703C545.508 48.8281 540.788 51.2695 536.816 54.3945C532.845 57.4544 529.818 61.0026 527.734 65.0391C525.651 69.0755 524.609 73.3398 524.609 77.832H552.734C552.734 75.1628 553.353 72.8516 554.59 70.8984C555.827 68.8802 557.585 67.3503 559.863 66.3086C562.142 65.2018 564.844 64.6484 567.969 64.6484C571.615 64.6484 574.577 65.332 576.855 66.6992C579.199 68.0664 580.924 69.987 582.031 72.4609C583.138 74.8698 583.691 77.7669 583.691 81.1523V87.6953H571.094C563.021 87.6953 555.924 88.4766 549.805 90.0391C543.685 91.5365 538.574 93.7826 534.473 96.7773C530.436 99.707 527.376 103.32 525.293 107.617C523.21 111.914 522.168 116.829 522.168 122.363C522.168 128.483 523.73 133.952 526.855 138.77C530.046 143.522 534.342 147.266 539.746 150C545.215 152.669 551.302 154.004 558.008 154.004C563.281 154.004 567.839 153.223 571.68 151.66C575.521 150.033 578.809 147.982 581.543 145.508ZM582.422 124.219C582.91 123.531 583.334 122.854 583.691 122.186V103.613H571.875C568.164 103.613 564.941 104.036 562.207 104.883C559.473 105.729 557.227 106.934 555.469 108.496C553.711 109.993 552.409 111.751 551.562 113.77C550.781 115.788 550.391 118.001 550.391 120.41C550.391 122.819 550.944 125 552.051 126.953C553.158 128.841 554.753 130.339 556.836 131.445C558.919 132.487 561.361 133.008 564.16 133.008C568.392 133.008 572.07 132.161 575.195 130.469C578.32 128.776 580.729 126.693 582.422 124.219ZM661.816 152.051V82.3563C662.738 80.2927 663.943 78.4916 665.43 76.9531C667.383 75 669.792 73.5352 672.656 72.5586C675.586 71.5169 679.036 70.9961 683.008 70.9961C684.57 70.9961 686.296 71.0938 688.184 71.2891C690.137 71.4193 691.797 71.582 693.164 71.7773L693.652 45.7031C692.611 45.3125 691.276 45.0195 689.648 44.8242C688.021 44.5638 686.426 44.4336 684.863 44.4336C679.915 44.4336 675.521 45.6055 671.68 47.9492C667.839 50.293 664.583 53.6133 661.914 57.9102C661.632 58.376 661.357 58.8506 661.089 59.3341L660.156 46.3867H633.691V152.051H661.816ZM753.613 154.004C745.41 154.004 738.053 152.702 731.543 150.098C725.033 147.428 719.499 143.75 714.941 139.062C710.449 134.375 706.999 128.939 704.59 122.754C702.181 116.504 700.977 109.863 700.977 102.832V98.9258C700.977 90.918 702.116 83.5938 704.395 76.9531C706.673 70.3125 709.928 64.5508 714.16 59.668C718.457 54.7852 723.665 51.0417 729.785 48.4375C735.905 45.7682 742.806 44.4336 750.488 44.4336C757.975 44.4336 764.616 45.6706 770.41 48.1445C776.204 50.6185 781.055 54.1341 784.961 58.6914C788.932 63.2487 791.927 68.7174 793.945 75.0977C795.964 81.4128 796.973 88.444 796.973 96.1914V107.91H729.499C729.783 110.236 730.269 112.449 730.957 114.551C732.194 118.132 733.919 121.224 736.133 123.828C738.411 126.432 741.146 128.451 744.336 129.883C747.591 131.315 751.27 132.031 755.371 132.031C760.449 132.031 765.169 131.055 769.531 129.102C773.958 127.083 777.767 124.056 780.957 120.02L794.629 134.863C792.415 138.053 789.388 141.113 785.547 144.043C781.771 146.973 777.214 149.382 771.875 151.27C766.536 153.092 760.449 154.004 753.613 154.004ZM730.371 86.0352C730.168 87.0504 729.991 88.0921 729.841 89.1602H769.336V87.0117C769.336 83.1055 768.62 79.6224 767.188 76.5625C765.82 73.4375 763.737 70.9635 760.938 69.1406C758.138 67.3177 754.557 66.4062 750.195 66.4062C746.484 66.4062 743.294 67.2201 740.625 68.8477C737.956 70.4753 735.775 72.7539 734.082 75.6836C732.454 78.6133 731.217 82.0638 730.371 86.0352ZM31.1982 283H17.6543H10.7139H4.64941V184.891H10.3096H17.6543H32.4111C38.835 184.891 44.6973 185.969 49.998 188.125C55.2988 190.236 59.8584 193.313 63.6768 197.356C67.54 201.354 70.5049 206.206 72.5713 211.911C74.6377 217.571 75.6709 223.95 75.6709 231.048V236.91C75.6709 244.008 74.6377 250.409 72.5713 256.114C70.5049 261.774 67.5176 266.604 63.6094 270.602C59.7461 274.6 55.0742 277.677 49.5938 279.833C44.1582 281.944 38.0264 283 31.1982 283ZM31.1982 272.421H17.6543V195.537H32.4111C37.2627 195.537 41.5527 196.323 45.2812 197.896C49.0547 199.468 52.2441 201.781 54.8496 204.836C57.4551 207.846 59.4316 211.552 60.7793 215.954C62.127 220.312 62.8008 225.298 62.8008 230.913V236.91C62.8008 244.053 61.6104 250.297 59.2295 255.643C56.8936 260.943 53.3896 265.076 48.7178 268.041C44.0459 270.961 38.2061 272.421 31.1982 272.421ZM123.58 284.348C118.504 284.348 113.899 283.494 109.767 281.787C105.679 280.035 102.152 277.587 99.1875 274.442C96.2676 271.298 94.0215 267.569 92.4492 263.257C90.877 258.944 90.0908 254.228 90.0908 249.106V246.276C90.0908 240.347 90.9668 235.068 92.7188 230.441C94.4707 225.77 96.8516 221.816 99.8613 218.582C102.871 215.348 106.285 212.899 110.104 211.237C113.922 209.575 117.875 208.744 121.963 208.744C127.174 208.744 131.666 209.643 135.439 211.439C139.258 213.236 142.38 215.752 144.806 218.986C147.231 222.176 149.028 225.949 150.196 230.307C151.364 234.619 151.948 239.336 151.948 244.457V250.05H102.636C102.714 253.159 103.182 256.101 104.039 258.877C105.027 261.887 106.442 264.537 108.284 266.828C110.171 269.119 112.439 270.916 115.09 272.219C117.785 273.521 120.84 274.173 124.254 274.173C128.656 274.173 132.385 273.274 135.439 271.478C138.494 269.681 141.167 267.277 143.458 264.268L151.005 270.265C149.433 272.646 147.434 274.914 145.008 277.07C142.582 279.227 139.595 280.979 136.046 282.326C132.542 283.674 128.387 284.348 123.58 284.348ZM104.039 234.619C103.582 236.25 103.236 238.002 103.001 239.875H139.482V238.932C139.303 235.697 138.629 232.553 137.461 229.498C136.338 226.443 134.541 223.928 132.07 221.951C129.6 219.975 126.23 218.986 121.963 218.986C119.133 218.986 116.527 219.593 114.146 220.806C111.766 221.974 109.722 223.726 108.015 226.062C106.308 228.397 104.982 231.25 104.039 234.619ZM184.696 283H185.842H193.052H194.197L220.409 210.092H207.674L189.604 265.951L171.085 210.092H158.282L184.696 283ZM261.715 284.348C256.639 284.348 252.034 283.494 247.901 281.787C243.813 280.035 240.287 277.587 237.322 274.442C234.402 271.298 232.156 267.569 230.584 263.257C229.012 258.944 228.226 254.228 228.226 249.106V246.276C228.226 240.347 229.102 235.068 230.854 230.441C232.605 225.77 234.986 221.816 237.996 218.582C241.006 215.348 244.42 212.899 248.238 211.237C252.057 209.575 256.01 208.744 260.098 208.744C265.309 208.744 269.801 209.643 273.574 211.439C277.393 213.236 280.515 215.752 282.94 218.986C285.366 222.176 287.163 225.949 288.331 230.307C289.499 234.619 290.083 239.336 290.083 244.457V250.05H240.771C240.849 253.159 241.317 256.101 242.174 258.877C243.162 261.887 244.577 264.537 246.419 266.828C248.306 269.119 250.574 270.916 253.225 272.219C255.92 273.521 258.975 274.173 262.389 274.173C266.791 274.173 270.52 273.274 273.574 271.478C276.629 269.681 279.302 267.277 281.593 264.268L289.14 270.265C287.567 272.646 285.568 274.914 283.143 277.07C280.717 279.227 277.729 280.979 274.181 282.326C270.677 283.674 266.521 284.348 261.715 284.348ZM242.174 234.619C241.717 236.25 241.371 238.002 241.135 239.875H277.617V238.932C277.438 235.697 276.764 232.553 275.596 229.498C274.473 226.443 272.676 223.928 270.205 221.951C267.734 219.975 264.365 218.986 260.098 218.986C257.268 218.986 254.662 219.593 252.281 220.806C249.9 221.974 247.856 223.726 246.149 226.062C244.442 228.397 243.117 231.25 242.174 234.619ZM318.182 179.5V283H305.648V179.5H318.182ZM334.893 247.354V245.805C334.893 240.549 335.656 235.675 337.184 231.183C338.711 226.646 340.912 222.715 343.787 219.391C346.662 216.021 350.144 213.416 354.231 211.574C358.319 209.688 362.901 208.744 367.978 208.744C373.099 208.744 377.703 209.688 381.791 211.574C385.924 213.416 389.428 216.021 392.303 219.391C395.223 222.715 397.446 226.646 398.974 231.183C400.501 235.675 401.265 240.549 401.265 245.805V247.354C401.265 252.61 400.501 257.484 398.974 261.977C397.446 266.469 395.223 270.399 392.303 273.769C389.428 277.093 385.946 279.698 381.858 281.585C377.815 283.427 373.233 284.348 368.112 284.348C362.991 284.348 358.387 283.427 354.299 281.585C350.211 279.698 346.707 277.093 343.787 273.769C340.912 270.399 338.711 266.469 337.184 261.977C335.656 257.484 334.893 252.61 334.893 247.354ZM347.358 245.805V247.354C347.358 250.993 347.785 254.43 348.639 257.664C349.492 260.854 350.772 263.684 352.479 266.154C354.231 268.625 356.41 270.579 359.016 272.017C361.621 273.409 364.653 274.105 368.112 274.105C371.526 274.105 374.514 273.409 377.074 272.017C379.68 270.579 381.836 268.625 383.543 266.154C385.25 263.684 386.53 260.854 387.384 257.664C388.282 254.43 388.731 250.993 388.731 247.354V245.805C388.731 242.211 388.282 238.819 387.384 235.63C386.53 232.396 385.228 229.543 383.476 227.072C381.769 224.557 379.612 222.58 377.007 221.143C374.446 219.705 371.437 218.986 367.978 218.986C364.563 218.986 361.554 219.705 358.948 221.143C356.388 222.58 354.231 224.557 352.479 227.072C350.772 229.543 349.492 232.396 348.639 235.63C347.785 238.819 347.358 242.211 347.358 245.805ZM429.363 311.031V275.927C431.742 278.582 434.595 280.625 437.921 282.057C441.47 283.584 445.558 284.348 450.185 284.348C454.722 284.348 458.742 283.427 462.246 281.585C465.75 279.743 468.692 277.16 471.073 273.836C473.499 270.512 475.341 266.604 476.599 262.111C477.856 257.574 478.485 252.655 478.485 247.354V245.939C478.485 240.369 477.856 235.315 476.599 230.778C475.386 226.196 473.566 222.266 471.141 218.986C468.715 215.707 465.728 213.191 462.179 211.439C458.63 209.643 454.564 208.744 449.982 208.744C445.4 208.744 441.357 209.553 437.854 211.17C434.354 212.74 431.37 215.05 428.901 218.099L428.285 210.092H416.83V311.031H429.363ZM429.835 264.941C429.674 264.665 429.517 264.386 429.363 264.105V229.299C430.194 227.825 431.16 226.477 432.261 225.253C433.878 223.411 435.832 221.951 438.123 220.873C440.459 219.795 443.199 219.256 446.344 219.256C449.758 219.256 452.7 219.975 455.171 221.412C457.642 222.805 459.663 224.736 461.235 227.207C462.853 229.633 464.043 232.463 464.807 235.697C465.57 238.887 465.952 242.301 465.952 245.939V247.354C465.952 250.993 465.57 254.43 464.807 257.664C464.043 260.854 462.853 263.684 461.235 266.154C459.663 268.625 457.642 270.579 455.171 272.017C452.745 273.409 449.848 274.105 446.479 274.105C442.391 274.105 438.999 273.274 436.304 271.612C433.608 269.905 431.452 267.682 429.835 264.941ZM506.786 283V229.583C507.257 228.533 507.797 227.538 508.403 226.601C509.886 224.31 511.862 222.513 514.333 221.21C516.804 219.907 519.881 219.256 523.564 219.256C526.709 219.256 529.449 219.795 531.785 220.873C534.121 221.906 535.918 223.568 537.176 225.859C538.479 228.15 539.13 231.205 539.13 235.023V283H551.596V234.435C551.76 232.958 552.074 231.537 552.539 230.172C553.303 228.061 554.403 226.196 555.841 224.579C557.278 222.917 559.053 221.614 561.164 220.671C563.275 219.728 565.701 219.256 568.441 219.256C571.631 219.256 574.371 219.728 576.662 220.671C578.998 221.569 580.795 223.164 582.053 225.455C583.355 227.701 584.007 230.868 584.007 234.956V283H596.54V235.091C596.54 230.509 596.001 226.556 594.923 223.231C593.845 219.907 592.25 217.189 590.139 215.078C588.072 212.922 585.512 211.327 582.457 210.294C579.447 209.261 575.988 208.744 572.08 208.744C567.453 208.744 563.343 209.598 559.749 211.305C556.155 212.967 553.123 215.235 550.652 218.11C550.029 218.849 549.443 219.614 548.894 220.406C547.839 218.187 546.516 216.298 544.925 214.741C542.813 212.675 540.32 211.17 537.445 210.227C534.57 209.238 531.426 208.744 528.012 208.744C523.16 208.744 518.893 209.62 515.209 211.372C511.772 212.965 508.863 215.184 506.481 218.028L506.112 210.092H494.253V283H506.786ZM645.662 284.348C640.586 284.348 635.981 283.494 631.849 281.787C627.761 280.035 624.234 277.587 621.27 274.442C618.35 271.298 616.104 267.569 614.531 263.257C612.959 258.944 612.173 254.228 612.173 249.106V246.276C612.173 240.347 613.049 235.068 614.801 230.441C616.553 225.77 618.934 221.816 621.943 218.582C624.953 215.348 628.367 212.899 632.186 211.237C636.004 209.575 639.957 208.744 644.045 208.744C649.256 208.744 653.748 209.643 657.521 211.439C661.34 213.236 664.462 215.752 666.888 218.986C669.313 222.176 671.11 225.949 672.278 230.307C673.446 234.619 674.03 239.336 674.03 244.457V250.05H624.718C624.796 253.159 625.264 256.101 626.121 258.877C627.109 261.887 628.524 264.537 630.366 266.828C632.253 269.119 634.521 270.916 637.172 272.219C639.867 273.521 642.922 274.173 646.336 274.173C650.738 274.173 654.467 273.274 657.521 271.478C660.576 269.681 663.249 267.277 665.54 264.268L673.087 270.265C671.515 272.646 669.516 274.914 667.09 277.07C664.664 279.227 661.677 280.979 658.128 282.326C654.624 283.674 650.469 284.348 645.662 284.348ZM626.121 234.619C625.664 236.25 625.318 238.002 625.083 239.875H661.564V238.932C661.385 235.697 660.711 232.553 659.543 229.498C658.42 226.443 656.623 223.928 654.152 221.951C651.682 219.975 648.312 218.986 644.045 218.986C641.215 218.986 638.609 219.593 636.229 220.806C633.848 221.974 631.804 223.726 630.097 226.062C628.39 228.397 627.064 231.25 626.121 234.619ZM701.051 283V230.97C701.841 229.398 702.762 227.942 703.813 226.601C705.655 224.31 707.834 222.513 710.35 221.21C712.91 219.907 715.74 219.256 718.84 219.256C721.984 219.256 724.635 219.795 726.791 220.873C728.947 221.906 730.587 223.591 731.71 225.927C732.833 228.218 733.395 231.272 733.395 235.091V283H745.928V235.226C745.928 230.419 745.389 226.354 744.311 223.029C743.232 219.66 741.66 216.92 739.594 214.809C737.572 212.697 735.124 211.17 732.249 210.227C729.374 209.238 726.14 208.744 722.546 208.744C718.144 208.744 714.123 209.62 710.484 211.372C706.891 213.079 703.791 215.505 701.186 218.649C701.045 218.819 700.907 218.99 700.77 219.162L700.377 210.092H688.585V283H701.051ZM795.387 210.092V219.66H781.775V264.941C781.775 267.412 782.157 269.276 782.921 270.534C783.685 271.792 784.673 272.623 785.886 273.027C787.099 273.432 788.401 273.634 789.794 273.634C790.827 273.634 791.905 273.544 793.028 273.364C794.196 273.14 795.072 272.96 795.656 272.825L795.724 283C794.735 283.314 793.433 283.606 791.815 283.876C790.243 284.19 788.334 284.348 786.088 284.348C783.033 284.348 780.226 283.741 777.665 282.528C775.104 281.315 773.061 279.294 771.533 276.464C770.051 273.589 769.31 269.726 769.31 264.874V219.66H755.968V210.092H769.31V192.37H781.775V210.092H795.387ZM979.059 286.578H832V266.697H969.118V67.8815H832V48H979.059C984.527 48 989 52.4733 989 57.9408V276.638C989 282.105 984.527 286.578 979.059 286.578ZM869.711 181.455L832 219.322V191.083L855.794 167.289L832 143.691V115.661L869.711 153.372L929.604 92.982L943.77 107.148L883.876 167.289L944.018 227.431L929.852 241.596L869.711 181.455Z" fill="white"/>
</svg>
