<svg width="1090" height="313" viewBox="0 0 1090 313" fill="none" xmlns="http://www.w3.org/2000/svg">
<path fill-rule="evenodd" clip-rule="evenodd" d="M55.4617 158.451C45.1951 158.451 35.9951 156.784 27.8617 153.451C19.7284 150.117 13.1951 145.184 8.26174 138.651C3.46174 132.117 0.92841 124.251 0.661743 115.051H37.0617C37.5951 120.251 39.3951 124.251 42.4617 127.051C45.5284 129.717 49.5284 131.051 54.4617 131.051C59.5284 131.051 63.5284 129.917 66.4617 127.651C69.3951 125.251 70.8617 121.984 70.8617 117.851C70.8617 114.384 69.6617 111.517 67.2617 109.251C64.9951 106.984 62.1284 105.117 58.6617 103.651C55.3284 102.184 50.5284 100.517 44.2617 98.6507C35.1951 95.8507 27.7951 93.0507 22.0617 90.2507C16.3284 87.4507 11.3951 83.3174 7.26174 77.8507C3.12841 72.3841 1.06174 65.2507 1.06174 56.4507C1.06174 43.3841 5.79508 33.1841 15.2617 25.8507C24.7284 18.3841 37.0617 14.6507 52.2617 14.6507C67.7284 14.6507 80.1951 18.3841 89.6617 25.8507C99.1284 33.1841 104.195 43.4507 104.862 56.6507H67.8617C67.5951 52.1174 65.9284 48.5841 62.8617 46.0507C59.7951 43.3841 55.8617 42.0507 51.0617 42.0507C46.9284 42.0507 43.5951 43.1841 41.0617 45.4507C38.5284 47.5841 37.2617 50.7174 37.2617 54.8507C37.2617 59.3841 39.3951 62.9174 43.6617 65.4507C47.9284 67.9841 54.5951 70.7174 63.6617 73.6507C72.7284 76.7174 80.0617 79.6507 85.6617 82.4507C91.3951 85.2507 96.3284 89.3174 100.462 94.6507C104.595 99.9841 106.662 106.851 106.662 115.251C106.662 123.251 104.595 130.517 100.462 137.051C96.4617 143.584 90.5951 148.784 82.8617 152.651C75.1284 156.517 65.9951 158.451 55.4617 158.451ZM178.509 158.651C167.575 158.651 157.709 156.317 148.909 151.651C140.242 146.984 133.375 140.317 128.309 131.651C123.375 122.984 120.909 112.851 120.909 101.251C120.909 89.7841 123.442 79.7174 128.509 71.0507C133.575 62.2507 140.509 55.5174 149.309 50.8507C158.109 46.1841 167.975 43.8507 178.909 43.8507C189.842 43.8507 199.709 46.1841 208.509 50.8507C217.309 55.5174 224.242 62.2507 229.309 71.0507C234.375 79.7174 236.909 89.7841 236.909 101.251C236.909 112.717 234.309 122.851 229.109 131.651C224.042 140.317 217.042 146.984 208.109 151.651C199.309 156.317 189.442 158.651 178.509 158.651ZM178.509 129.051C185.042 129.051 190.575 126.651 195.109 121.851C199.775 117.051 202.109 110.184 202.109 101.251C202.109 92.3174 199.842 85.4507 195.309 80.6507C190.909 75.8507 185.442 73.4507 178.909 73.4507C172.242 73.4507 166.709 75.8507 162.309 80.6507C157.909 85.3174 155.709 92.1841 155.709 101.251C155.709 110.184 157.842 117.051 162.109 121.851C166.509 126.651 171.975 129.051 178.509 129.051ZM311.052 73.8507H292.652V157.051H258.452V73.8507H246.052V45.4507H258.452V42.2507C258.452 28.5174 262.386 18.1174 270.252 11.0507C278.119 3.85073 289.652 0.250732 304.852 0.250732C307.386 0.250732 309.252 0.317397 310.452 0.450729V29.4507C303.919 29.0507 299.319 29.9841 296.652 32.2507C293.986 34.5174 292.652 38.5841 292.652 44.4507V45.4507H311.052V73.8507ZM389.323 128.051V157.051H371.923C359.523 157.051 349.856 154.051 342.923 148.051C335.989 141.917 332.523 131.984 332.523 118.251V73.8507H318.923V45.4507H332.523V18.2507H366.723V45.4507H389.123V73.8507H366.723V118.651C366.723 121.984 367.523 124.384 369.123 125.851C370.723 127.317 373.389 128.051 377.123 128.051H389.323ZM568.573 45.4507L538.373 157.051H500.573L482.973 84.6507L464.773 157.051H427.173L396.773 45.4507H430.973L446.773 125.251L465.573 45.4507H501.773L520.773 124.851L536.373 45.4507H568.573ZM574.815 101.051C574.815 89.5841 576.948 79.5174 581.215 70.8507C585.615 62.1841 591.548 55.5174 599.015 50.8507C606.482 46.1841 614.815 43.8507 624.015 43.8507C631.882 43.8507 638.748 45.4507 644.615 48.6507C650.615 51.8507 655.215 56.0507 658.415 61.2507V45.4507H692.615V157.051H658.415V141.251C655.082 146.451 650.415 150.651 644.415 153.851C638.548 157.051 631.682 158.651 623.815 158.651C614.748 158.651 606.482 156.317 599.015 151.651C591.548 146.851 585.615 140.117 581.215 131.451C576.948 122.651 574.815 112.517 574.815 101.051ZM658.415 101.251C658.415 92.7174 656.015 85.9841 651.215 81.0507C646.548 76.1174 640.815 73.6507 634.015 73.6507C627.215 73.6507 621.415 76.1174 616.615 81.0507C611.948 85.8507 609.615 92.5174 609.615 101.051C609.615 109.584 611.948 116.384 616.615 121.451C621.415 126.384 627.215 128.851 634.015 128.851C640.815 128.851 646.548 126.384 651.215 121.451C656.015 116.517 658.415 109.784 658.415 101.251ZM751.557 64.0507C755.557 57.9174 760.557 53.1174 766.557 49.6507C772.557 46.0507 779.224 44.2507 786.557 44.2507V80.4507H777.157C768.624 80.4507 762.224 82.3174 757.957 86.0507C753.69 89.6507 751.557 96.0507 751.557 105.251V157.051H717.357V45.4507H751.557V64.0507ZM908.104 99.4507C908.104 102.651 907.904 105.984 907.504 109.451H830.104C830.637 116.384 832.837 121.717 836.704 125.451C840.704 129.051 845.571 130.851 851.304 130.851C859.837 130.851 865.771 127.251 869.104 120.051H905.504C903.637 127.384 900.237 133.984 895.304 139.851C890.504 145.717 884.437 150.317 877.104 153.651C869.771 156.984 861.571 158.651 852.504 158.651C841.571 158.651 831.837 156.317 823.304 151.651C814.771 146.984 808.104 140.317 803.304 131.651C798.504 122.984 796.104 112.851 796.104 101.251C796.104 89.6507 798.437 79.5174 803.104 70.8507C807.904 62.1841 814.571 55.5174 823.104 50.8507C831.637 46.1841 841.437 43.8507 852.504 43.8507C863.304 43.8507 872.904 46.1174 881.304 50.6507C889.704 55.1841 896.237 61.6507 900.904 70.0507C905.704 78.4507 908.104 88.2507 908.104 99.4507ZM873.104 90.4507C873.104 84.5841 871.104 79.9174 867.104 76.4507C863.104 72.9841 858.104 71.2507 852.104 71.2507C846.371 71.2507 841.504 72.9174 837.504 76.2507C833.637 79.5841 831.237 84.3174 830.304 90.4507H873.104ZM32.8337 180.814C43.3217 180.814 52.3837 182.792 60.0197 186.748C67.7477 190.612 73.6357 196.178 77.6837 203.446C81.8237 210.714 83.8937 219.27 83.8937 229.114C83.8937 238.958 81.8237 247.514 77.6837 254.782C73.6357 261.958 67.7477 267.478 60.0197 271.342C52.3837 275.114 43.3217 277 32.8337 277H2.88774V180.814H32.8337ZM32.8337 266.65C45.2537 266.65 54.7297 263.384 61.2617 256.852C67.7937 250.228 71.0597 240.982 71.0597 229.114C71.0597 217.154 67.7477 207.816 61.1237 201.1C54.5917 194.384 45.1617 191.026 32.8337 191.026H15.4457V266.65H32.8337ZM169.458 236.29C169.458 238.682 169.32 241.212 169.044 243.88H108.6C109.06 251.332 111.59 257.174 116.19 261.406C120.882 265.546 126.54 267.616 133.164 267.616C138.592 267.616 143.1 266.374 146.688 263.89C150.368 261.314 152.944 257.91 154.416 253.678H167.94C165.916 260.946 161.868 266.88 155.796 271.48C149.724 275.988 142.18 278.242 133.164 278.242C125.988 278.242 119.548 276.632 113.844 273.412C108.232 270.192 103.816 265.638 100.596 259.75C97.3761 253.77 95.7661 246.87 95.7661 239.05C95.7661 231.23 97.3301 224.376 100.458 218.488C103.586 212.6 107.956 208.092 113.568 204.964C119.272 201.744 125.804 200.134 133.164 200.134C140.34 200.134 146.688 201.698 152.208 204.826C157.728 207.954 161.96 212.278 164.904 217.798C167.94 223.226 169.458 229.39 169.458 236.29ZM156.486 233.668C156.486 228.884 155.428 224.79 153.312 221.386C151.196 217.89 148.298 215.268 144.618 213.52C141.03 211.68 137.028 210.76 132.612 210.76C126.264 210.76 120.836 212.784 116.328 216.832C111.912 220.88 109.382 226.492 108.738 233.668H156.486ZM214.186 265.408L237.646 201.376H251.032L221.362 277H206.734L177.064 201.376H190.588L214.186 265.408ZM332.39 236.29C332.39 238.682 332.252 241.212 331.976 243.88H271.532C271.992 251.332 274.522 257.174 279.122 261.406C283.814 265.546 289.472 267.616 296.096 267.616C301.524 267.616 306.032 266.374 309.62 263.89C313.3 261.314 315.876 257.91 317.348 253.678H330.872C328.848 260.946 324.8 266.88 318.728 271.48C312.656 275.988 305.112 278.242 296.096 278.242C288.92 278.242 282.48 276.632 276.776 273.412C271.164 270.192 266.748 265.638 263.528 259.75C260.308 253.77 258.698 246.87 258.698 239.05C258.698 231.23 260.262 224.376 263.39 218.488C266.518 212.6 270.888 208.092 276.5 204.964C282.204 201.744 288.736 200.134 296.096 200.134C303.272 200.134 309.62 201.698 315.14 204.826C320.66 207.954 324.892 212.278 327.836 217.798C330.872 223.226 332.39 229.39 332.39 236.29ZM319.418 233.668C319.418 228.884 318.36 224.79 316.244 221.386C314.128 217.89 311.23 215.268 307.55 213.52C303.962 211.68 299.96 210.76 295.544 210.76C289.196 210.76 283.768 212.784 279.26 216.832C274.844 220.88 272.314 226.492 271.67 233.668H319.418ZM361.524 174.88V277H348.966V174.88H361.524ZM415.909 278.242C408.825 278.242 402.385 276.632 396.589 273.412C390.885 270.192 386.377 265.638 383.065 259.75C379.845 253.77 378.235 246.87 378.235 239.05C378.235 231.322 379.891 224.514 383.203 218.626C386.607 212.646 391.207 208.092 397.003 204.964C402.799 201.744 409.285 200.134 416.461 200.134C423.637 200.134 430.123 201.744 435.919 204.964C441.715 208.092 446.269 212.6 449.581 218.488C452.985 224.376 454.687 231.23 454.687 239.05C454.687 246.87 452.939 253.77 449.443 259.75C446.039 265.638 441.393 270.192 435.505 273.412C429.617 276.632 423.085 278.242 415.909 278.242ZM415.909 267.202C420.417 267.202 424.649 266.144 428.605 264.028C432.561 261.912 435.735 258.738 438.127 254.506C440.611 250.274 441.853 245.122 441.853 239.05C441.853 232.978 440.657 227.826 438.265 223.594C435.873 219.362 432.745 216.234 428.881 214.21C425.017 212.094 420.831 211.036 416.323 211.036C411.723 211.036 407.491 212.094 403.627 214.21C399.855 216.234 396.819 219.362 394.519 223.594C392.219 227.826 391.069 232.978 391.069 239.05C391.069 245.214 392.173 250.412 394.381 254.644C396.681 258.876 399.717 262.05 403.489 264.166C407.261 266.19 411.401 267.202 415.909 267.202ZM483.756 215.314C486.24 210.99 489.92 207.402 494.796 204.55C499.764 201.606 505.514 200.134 512.046 200.134C518.762 200.134 524.834 201.744 530.262 204.964C535.782 208.184 540.106 212.738 543.234 218.626C546.362 224.422 547.926 231.184 547.926 238.912C547.926 246.548 546.362 253.356 543.234 259.336C540.106 265.316 535.782 269.962 530.262 273.274C524.834 276.586 518.762 278.242 512.046 278.242C505.606 278.242 499.902 276.816 494.934 273.964C490.058 271.02 486.332 267.386 483.756 263.062V312.88H471.198V201.376H483.756V215.314ZM535.092 238.912C535.092 233.208 533.942 228.24 531.642 224.008C529.342 219.776 526.214 216.556 522.258 214.348C518.394 212.14 514.116 211.036 509.424 211.036C504.824 211.036 500.546 212.186 496.59 214.486C492.726 216.694 489.598 219.96 487.206 224.284C484.906 228.516 483.756 233.438 483.756 239.05C483.756 244.754 484.906 249.768 487.206 254.092C489.598 258.324 492.726 261.59 496.59 263.89C500.546 266.098 504.824 267.202 509.424 267.202C514.116 267.202 518.394 266.098 522.258 263.89C526.214 261.59 529.342 258.324 531.642 254.092C533.942 249.768 535.092 244.708 535.092 238.912ZM655.398 199.996C661.286 199.996 666.53 201.238 671.13 203.722C675.73 206.114 679.364 209.748 682.032 214.624C684.7 219.5 686.034 225.434 686.034 232.426V277H673.614V234.22C673.614 226.676 671.728 220.926 667.956 216.97C664.276 212.922 659.262 210.898 652.914 210.898C646.382 210.898 641.184 213.014 637.32 217.246C633.456 221.386 631.524 227.412 631.524 235.324V277H619.104V234.22C619.104 226.676 617.218 220.926 613.446 216.97C609.766 212.922 604.752 210.898 598.404 210.898C591.872 210.898 586.674 213.014 582.81 217.246C578.946 221.386 577.014 227.412 577.014 235.324V277H564.456V201.376H577.014V212.278C579.498 208.322 582.81 205.286 586.95 203.17C591.182 201.054 595.828 199.996 600.888 199.996C607.236 199.996 612.848 201.422 617.724 204.274C622.6 207.126 626.234 211.312 628.626 216.832C630.742 211.496 634.238 207.356 639.114 204.412C643.99 201.468 649.418 199.996 655.398 199.996ZM775.634 236.29C775.634 238.682 775.496 241.212 775.22 243.88H714.776C715.236 251.332 717.766 257.174 722.366 261.406C727.058 265.546 732.716 267.616 739.34 267.616C744.768 267.616 749.276 266.374 752.864 263.89C756.544 261.314 759.12 257.91 760.592 253.678H774.116C772.092 260.946 768.044 266.88 761.972 271.48C755.9 275.988 748.356 278.242 739.34 278.242C732.164 278.242 725.724 276.632 720.02 273.412C714.408 270.192 709.992 265.638 706.772 259.75C703.552 253.77 701.942 246.87 701.942 239.05C701.942 231.23 703.506 224.376 706.634 218.488C709.762 212.6 714.132 208.092 719.744 204.964C725.448 201.744 731.98 200.134 739.34 200.134C746.516 200.134 752.864 201.698 758.384 204.826C763.904 207.954 768.136 212.278 771.08 217.798C774.116 223.226 775.634 229.39 775.634 236.29ZM762.662 233.668C762.662 228.884 761.604 224.79 759.488 221.386C757.372 217.89 754.474 215.268 750.794 213.52C747.206 211.68 743.204 210.76 738.788 210.76C732.44 210.76 727.012 212.784 722.504 216.832C718.088 220.88 715.558 226.492 714.914 233.668H762.662ZM829.056 199.996C838.256 199.996 845.708 202.802 851.412 208.414C857.116 213.934 859.968 221.938 859.968 232.426V277H847.548V234.22C847.548 226.676 845.662 220.926 841.89 216.97C838.118 212.922 832.966 210.898 826.434 210.898C819.81 210.898 814.52 212.968 810.564 217.108C806.7 221.248 804.768 227.274 804.768 235.186V277H792.21V201.376H804.768V212.14C807.252 208.276 810.61 205.286 814.842 203.17C819.166 201.054 823.904 199.996 829.056 199.996ZM895.799 211.726V256.3C895.799 259.98 896.581 262.602 898.146 264.166C899.709 265.638 902.424 266.374 906.287 266.374H915.534V277H904.217C897.225 277 891.982 275.39 888.485 272.17C884.99 268.95 883.242 263.66 883.242 256.3V211.726H873.443V201.376H883.242V182.332H895.799V201.376H915.534V211.726H895.799ZM1080.06 276.578H933V256.697H1070.12V57.8815H933V38H1080.06C1085.53 38 1090 42.4733 1090 47.9408V266.638C1090 272.105 1085.53 276.578 1080.06 276.578ZM970.711 171.455L933 209.322V181.083L956.794 157.289L933 133.691V105.661L970.711 143.372L1030.6 82.9819L1044.77 97.1475L984.876 157.289L1045.02 217.431L1030.85 231.596L970.711 171.455Z" fill="white"/>
</svg>
