<svg width="775" height="300" viewBox="0 0 775 300" fill="none" xmlns="http://www.w3.org/2000/svg">
<path fill-rule="evenodd" clip-rule="evenodd" d="M50.7 106.2H14.1V12.75H0.449986V117.3H50.7V106.2ZM65.6461 19.05C67.4461 20.85 69.6461 21.75 72.2461 21.75C74.7461 21.75 76.8461 20.85 78.5461 19.05C80.3461 17.25 81.2461 15.05 81.2461 12.45C81.2461 9.85001 80.3461 7.65001 78.5461 5.85001C76.8461 4.05001 74.7461 3.15001 72.2461 3.15001C69.6461 3.15001 67.4461 4.05001 65.6461 5.85001C63.8461 7.65001 62.9461 9.85001 62.9461 12.45C62.9461 15.05 63.8461 17.25 65.6461 19.05ZM78.8461 117.3V35.1H65.1961V117.3H78.8461ZM102.11 53.85C98.7101 60.15 97.0101 67.5 97.0101 75.9C97.0101 84.2 98.7101 91.6 102.11 98.1C105.51 104.6 110.16 109.65 116.06 113.25C121.96 116.85 128.56 118.65 135.86 118.65C142.96 118.65 149.16 117.1 154.46 114C159.86 110.8 163.91 106.8 166.61 102V117.3H180.41V35.1H166.61V50.1C164.01 45.4 160.06 41.5 154.76 38.4C149.46 35.3 143.21 33.75 136.01 33.75C128.71 33.75 122.06 35.5 116.06 39C110.16 42.5 105.51 47.45 102.11 53.85ZM162.86 59.85C165.36 64.45 166.61 69.85 166.61 76.05C166.61 82.25 165.36 87.7 162.86 92.4C160.36 97 156.96 100.55 152.66 103.05C148.46 105.45 143.81 106.65 138.71 106.65C133.61 106.65 128.96 105.45 124.76 103.05C120.56 100.55 117.21 97 114.71 92.4C112.21 87.7 110.96 82.2 110.96 75.9C110.96 69.7 112.21 64.3 114.71 59.7C117.21 55.1 120.56 51.6 124.76 49.2C128.96 46.8 133.61 45.6 138.71 45.6C143.81 45.6 148.46 46.85 152.66 49.35C156.96 51.75 160.36 55.25 162.86 59.85ZM124.01 28.95L155.96 11.85V0L124.01 18.75V28.95ZM267.827 42.75C261.627 36.65 253.527 33.6 243.527 33.6C237.927 33.6 232.777 34.75 228.077 37.05C223.477 39.35 219.827 42.6 217.127 46.8V35.1H203.477V117.3H217.127V71.85C217.127 63.25 219.227 56.7 223.427 52.2C227.727 47.7 233.477 45.45 240.677 45.45C247.777 45.45 253.377 47.65 257.477 52.05C261.577 56.35 263.627 62.6 263.627 70.8V117.3H277.127V68.85C277.127 57.45 274.027 48.75 267.827 42.75ZM351.925 38.4C346.625 35.3 340.425 33.75 333.325 33.75C326.025 33.75 319.375 35.5 313.375 39C307.475 42.5 302.825 47.45 299.425 53.85C296.025 60.15 294.325 67.5 294.325 75.9C294.325 84.2 296.025 91.6 299.425 98.1C302.825 104.6 307.475 109.65 313.375 113.25C319.375 116.85 326.025 118.65 333.325 118.65C340.425 118.65 346.625 117.05 351.925 113.85C357.225 110.65 361.225 106.65 363.925 101.85V119.1C363.925 127.6 361.525 134.2 356.725 138.9C352.025 143.6 345.925 145.95 338.425 145.95C331.825 145.95 326.175 144.4 321.475 141.3C316.775 138.3 313.675 134.3 312.175 129.3H298.675C299.975 138.1 304.225 145.05 311.425 150.15C318.625 155.25 327.625 157.8 338.425 157.8C346.325 157.8 353.225 156.15 359.125 152.85C365.125 149.55 369.725 144.95 372.925 139.05C376.125 133.25 377.725 126.6 377.725 119.1V35.1H363.925V50.1C361.325 45.4 357.325 41.5 351.925 38.4ZM360.175 59.85C362.675 64.45 363.925 69.85 363.925 76.05C363.925 82.25 362.675 87.7 360.175 92.4C357.675 97 354.275 100.55 349.975 103.05C345.775 105.45 341.125 106.65 336.025 106.65C330.925 106.65 326.275 105.45 322.075 103.05C317.875 100.55 314.525 97 312.025 92.4C309.525 87.7 308.275 82.2 308.275 75.9C308.275 69.7 309.525 64.3 312.025 59.7C314.525 55.1 317.875 51.6 322.075 49.2C326.275 46.8 330.925 45.6 336.025 45.6C341.125 45.6 345.775 46.85 349.975 49.35C354.275 51.75 357.675 55.25 360.175 59.85ZM698.13 12.75H682.98L674.13 46.8H683.73L698.13 12.75ZM725.842 115.5C730.842 117.6 736.492 118.65 742.792 118.65C748.692 118.65 753.892 117.65 758.392 115.65C762.992 113.55 766.542 110.7 769.042 107.1C771.542 103.5 772.792 99.45 772.792 94.95C772.692 89.95 771.292 85.9 768.592 82.8C765.992 79.7 762.842 77.4 759.142 75.9C755.442 74.3 750.642 72.7 744.742 71.1C740.042 69.8 736.342 68.65 733.642 67.65C731.042 66.55 728.842 65.15 727.042 63.45C725.342 61.65 724.492 59.4 724.492 56.7C724.492 53.3 725.942 50.55 728.842 48.45C731.742 46.35 735.642 45.3 740.542 45.3C745.842 45.3 750.042 46.6 753.142 49.2C756.342 51.8 758.092 55.25 758.392 59.55H772.042C771.642 51.55 768.642 45.25 763.042 40.65C757.442 36.05 750.092 33.75 740.992 33.75C735.092 33.75 729.842 34.8 725.242 36.9C720.642 38.9 717.092 41.65 714.592 45.15C712.092 48.65 710.842 52.5 710.842 56.7C710.842 62 712.192 66.3 714.892 69.6C717.692 72.8 720.992 75.25 724.792 76.95C728.692 78.55 733.692 80.15 739.792 81.75C746.492 83.45 751.442 85.2 754.642 87C757.842 88.7 759.442 91.35 759.442 94.95C759.442 98.45 757.942 101.35 754.942 103.65C751.942 105.95 747.842 107.1 742.642 107.1C737.042 107.1 732.492 105.8 728.992 103.2C725.592 100.6 723.692 97.25 723.292 93.15H709.192C709.492 98.15 711.092 102.6 713.992 106.5C716.892 110.3 720.842 113.3 725.842 115.5ZM394.532 89.93V99.82H436.162V117.3H449.042V99.82H459.737V88.435H449.042V34.5H433.172L394.532 89.93ZM409.597 88.435L436.737 47.84V88.435H409.597ZM491.76 117.3L523.73 43.585V33.81H468.3V44.965H510.85L478.535 117.3H491.76ZM556.225 103.27C553.695 101.277 552.047 98.3633 551.28 94.53H539.205C539.742 101.047 542.234 106.452 546.68 110.745C551.127 115.038 557.452 117.185 565.655 117.185C572.862 117.185 578.497 115.575 582.56 112.355C586.624 109.135 589.46 104.382 591.07 98.095C592.757 91.8083 593.6 83.72 593.6 73.83C593.6 59.4933 591.377 48.875 586.93 41.975C582.56 34.9983 575.162 31.51 564.735 31.51C556.072 31.51 549.249 34.04 544.265 39.1C539.359 44.0833 536.905 50.7917 536.905 59.225C536.905 64.975 538.055 69.8817 540.355 73.945C542.732 77.9317 545.952 80.96 550.015 83.03C554.079 85.0233 558.602 86.02 563.585 86.02C567.495 86.02 571.099 85.33 574.395 83.95C577.769 82.4933 580.375 80.4617 582.215 77.855C582.215 88.205 580.95 95.5267 578.42 99.82C575.89 104.113 571.904 106.26 566.46 106.26C562.167 106.26 558.755 105.263 556.225 103.27ZM576.695 70.725C574.089 73.5617 570.485 74.98 565.885 74.98C560.365 74.98 556.225 73.485 553.465 70.495C550.782 67.4283 549.44 63.5567 549.44 58.88C549.44 53.9733 550.82 50.025 553.58 47.035C556.417 43.9683 560.25 42.435 565.08 42.435C569.91 42.435 573.705 43.93 576.465 46.92C579.302 49.8333 580.72 53.935 580.72 59.225C580.72 63.9783 579.379 67.8117 576.695 70.725ZM615.883 37.49C610.9 41.4767 608.178 47.035 607.718 54.165H620.483C620.943 50.945 622.362 48.2617 624.738 46.115C627.115 43.8917 630.45 42.78 634.743 42.78C639.113 42.78 642.487 43.8917 644.863 46.115C647.24 48.2617 648.428 51.175 648.428 54.855C648.428 59.1483 646.78 62.2917 643.483 64.285C640.263 66.2783 635.548 67.3133 629.338 67.39H626.233V78.2H629.223C636.277 78.2 641.49 79.35 644.863 81.65C648.313 83.8733 650.038 87.6683 650.038 93.035C650.038 97.0983 648.773 100.433 646.243 103.04C643.713 105.57 640.11 106.835 635.433 106.835C630.603 106.835 626.77 105.57 623.933 103.04C621.097 100.433 619.525 97.0983 619.218 93.035H606.568C606.952 101.008 609.788 107.142 615.078 111.435C620.445 115.652 627.268 117.76 635.548 117.76C641.222 117.76 646.09 116.763 650.153 114.77C654.217 112.7 657.283 109.902 659.353 106.375C661.423 102.848 662.458 98.8233 662.458 94.3C662.458 88.6267 661.193 83.9883 658.663 80.385C656.133 76.705 652.607 74.175 648.083 72.795V72.335C651.61 71.185 654.638 68.9233 657.168 65.55C659.698 62.1767 660.963 58.1133 660.963 53.36C660.963 49.22 659.967 45.5017 657.973 42.205C655.98 38.9083 653.028 36.3017 649.118 34.385C645.208 32.4683 640.57 31.51 635.203 31.51C627.383 31.51 620.943 33.5033 615.883 37.49ZM30.15 218.25L55.05 261H71.4L45.15 217.2C53.45 215.4 59.65 211.75 63.75 206.25C67.95 200.75 70.05 194.4 70.05 187.2C70.05 181.3 68.7 176.05 66 171.45C63.3 166.85 59.2 163.2 53.7 160.5C48.3 157.8 41.65 156.45 33.75 156.45H0V261H13.65V218.25H30.15ZM33.75 207.3H13.65V167.7H33.75C41.25 167.7 46.8 169.4 50.4 172.8C54.1 176.2 55.95 181 55.95 187.2C55.95 193.3 54.1 198.2 50.4 201.9C46.7 205.5 41.15 207.3 33.75 207.3ZM165.81 225C166.11 222.1 166.26 219.35 166.26 216.75C166.26 209.25 164.61 202.55 161.31 196.65C158.11 190.65 153.51 185.95 147.51 182.55C141.51 179.15 134.61 177.45 126.81 177.45C118.81 177.45 111.71 179.2 105.51 182.7C99.4098 186.1 94.6598 191 91.2598 197.4C87.8598 203.8 86.1598 211.25 86.1598 219.75C86.1598 228.25 87.9098 235.75 91.4098 242.25C94.9098 248.65 99.7098 253.6 105.81 257.1C112.01 260.6 119.01 262.35 126.81 262.35C136.61 262.35 144.81 259.9 151.41 255C158.01 250 162.41 243.55 164.61 235.65H149.91C148.31 240.25 145.51 243.95 141.51 246.75C137.61 249.45 132.71 250.8 126.81 250.8C119.61 250.8 113.46 248.55 108.36 244.05C103.36 239.45 100.61 233.1 100.11 225H165.81ZM148.71 200.55C151.01 204.25 152.16 208.7 152.16 213.9H100.26C100.96 206.1 103.71 200 108.51 195.6C113.41 191.2 119.31 189 126.21 189C131.01 189 135.36 190 139.26 192C143.26 193.9 146.41 196.75 148.71 200.55ZM209.927 182.25C204.627 185.35 200.627 189.25 197.927 193.95V178.8H184.277V300H197.927V245.85C200.727 250.55 204.777 254.5 210.077 257.7C215.477 260.8 221.677 262.35 228.677 262.35C235.977 262.35 242.577 260.55 248.477 256.95C254.477 253.35 259.177 248.3 262.577 241.8C265.977 235.3 267.677 227.9 267.677 219.6C267.677 211.2 265.977 203.85 262.577 197.55C259.177 191.15 254.477 186.2 248.477 182.7C242.577 179.2 235.977 177.45 228.677 177.45C221.577 177.45 215.327 179.05 209.927 182.25ZM249.977 203.4C252.477 208 253.727 213.4 253.727 219.6C253.727 225.9 252.477 231.4 249.977 236.1C247.477 240.7 244.077 244.25 239.777 246.75C235.577 249.15 230.927 250.35 225.827 250.35C220.827 250.35 216.177 249.15 211.877 246.75C207.677 244.25 204.277 240.7 201.677 236.1C199.177 231.4 197.927 225.95 197.927 219.75C197.927 213.65 199.177 208.3 201.677 203.7C204.277 199 207.677 195.45 211.877 193.05C216.177 190.55 220.827 189.3 225.827 189.3C230.927 189.3 235.577 190.5 239.777 192.9C244.077 195.3 247.477 198.8 249.977 203.4ZM300.495 257.1C306.795 260.6 313.795 262.35 321.495 262.35C329.295 262.35 336.395 260.6 342.795 257.1C349.195 253.6 354.245 248.65 357.945 242.25C361.745 235.75 363.645 228.25 363.645 219.75C363.645 211.25 361.795 203.8 358.095 197.4C354.495 191 349.545 186.1 343.245 182.7C336.945 179.2 329.895 177.45 322.095 177.45C314.295 177.45 307.245 179.2 300.945 182.7C294.645 186.1 289.645 191.05 285.945 197.55C282.345 203.95 280.545 211.35 280.545 219.75C280.545 228.25 282.295 235.75 285.795 242.25C289.395 248.65 294.295 253.6 300.495 257.1ZM335.295 246.9C330.995 249.2 326.395 250.35 321.495 250.35C316.595 250.35 312.095 249.25 307.995 247.05C303.895 244.75 300.595 241.3 298.095 236.7C295.695 232.1 294.495 226.45 294.495 219.75C294.495 213.15 295.745 207.55 298.245 202.95C300.745 198.35 304.045 194.95 308.145 192.75C312.345 190.45 316.945 189.3 321.945 189.3C326.845 189.3 331.395 190.45 335.595 192.75C339.795 194.95 343.195 198.35 345.795 202.95C348.395 207.55 349.695 213.15 349.695 219.75C349.695 226.35 348.345 231.95 345.645 236.55C343.045 241.15 339.595 244.6 335.295 246.9ZM393.742 259.2C398.742 261.3 404.392 262.35 410.692 262.35C416.592 262.35 421.792 261.35 426.292 259.35C430.892 257.25 434.442 254.4 436.942 250.8C439.442 247.2 440.692 243.15 440.692 238.65C440.592 233.65 439.192 229.6 436.492 226.5C433.892 223.4 430.742 221.1 427.042 219.6C423.342 218 418.542 216.4 412.642 214.8C407.942 213.5 404.242 212.35 401.542 211.35C398.942 210.25 396.742 208.85 394.942 207.15C393.242 205.35 392.392 203.1 392.392 200.4C392.392 197 393.842 194.25 396.742 192.15C399.642 190.05 403.542 189 408.442 189C413.742 189 417.942 190.3 421.042 192.9C424.242 195.5 425.992 198.95 426.292 203.25H439.942C439.542 195.25 436.542 188.95 430.942 184.35C425.342 179.75 417.992 177.45 408.892 177.45C402.992 177.45 397.742 178.5 393.142 180.6C388.542 182.6 384.992 185.35 382.492 188.85C379.992 192.35 378.742 196.2 378.742 200.4C378.742 205.7 380.092 210 382.792 213.3C385.592 216.5 388.892 218.95 392.692 220.65C396.592 222.25 401.592 223.85 407.692 225.45C414.392 227.15 419.342 228.9 422.542 230.7C425.742 232.4 427.342 235.05 427.342 238.65C427.342 242.15 425.842 245.05 422.842 247.35C419.842 249.65 415.742 250.8 410.542 250.8C404.942 250.8 400.392 249.5 396.892 246.9C393.492 244.3 391.592 240.95 391.192 236.85H377.092C377.392 241.85 378.992 246.3 381.892 250.2C384.792 254 388.742 257 393.742 259.2ZM460.411 162.75C462.211 164.55 464.411 165.45 467.011 165.45C469.511 165.45 471.611 164.55 473.311 162.75C475.111 160.95 476.011 158.75 476.011 156.15C476.011 153.55 475.111 151.35 473.311 149.55C471.611 147.75 469.511 146.85 467.011 146.85C464.411 146.85 462.211 147.75 460.411 149.55C458.611 151.35 457.711 153.55 457.711 156.15C457.711 158.75 458.611 160.95 460.411 162.75ZM473.611 261V178.8H459.961V261H473.611ZM513.525 238.5V190.05H534.975V178.8H513.525V158.1H499.875V178.8H489.225V190.05H499.875V238.5C499.875 246.5 501.775 252.25 505.575 255.75C509.375 259.25 515.075 261 522.675 261H534.975V249.45H524.925C520.725 249.45 517.775 248.65 516.075 247.05C514.375 245.35 513.525 242.5 513.525 238.5ZM566.364 257.1C572.664 260.6 579.664 262.35 587.364 262.35C595.164 262.35 602.264 260.6 608.664 257.1C615.064 253.6 620.114 248.65 623.814 242.25C627.614 235.75 629.514 228.25 629.514 219.75C629.514 211.25 627.664 203.8 623.964 197.4C620.364 191 615.414 186.1 609.114 182.7C602.814 179.2 595.764 177.45 587.964 177.45C580.164 177.45 573.114 179.2 566.814 182.7C560.514 186.1 555.514 191.05 551.814 197.55C548.214 203.95 546.414 211.35 546.414 219.75C546.414 228.25 548.164 235.75 551.664 242.25C555.264 248.65 560.164 253.6 566.364 257.1ZM601.164 246.9C596.864 249.2 592.264 250.35 587.364 250.35C582.464 250.35 577.964 249.25 573.864 247.05C569.764 244.75 566.464 241.3 563.964 236.7C561.564 232.1 560.364 226.45 560.364 219.75C560.364 213.15 561.614 207.55 564.114 202.95C566.614 198.35 569.914 194.95 574.014 192.75C578.214 190.45 582.814 189.3 587.814 189.3C592.714 189.3 597.264 190.45 601.464 192.75C605.664 194.95 609.064 198.35 611.664 202.95C614.264 207.55 615.564 213.15 615.564 219.75C615.564 226.35 614.214 231.95 611.514 236.55C608.914 241.15 605.464 244.6 601.164 246.9ZM671.311 181.2C666.911 183.8 663.511 187.45 661.111 192.15V178.8H647.461V261H661.111V216.3C661.111 199.7 668.761 191.4 684.061 191.4H687.661V177.3C681.261 177.3 675.811 178.6 671.311 181.2ZM724.718 299.7L774.218 178.8H760.118L734.618 245.4L708.818 178.8H693.668L726.818 260.1L710.618 299.7H724.718Z" fill="white"/>
</svg>
