<svg width="698" height="284" viewBox="0 0 698 284" fill="none" xmlns="http://www.w3.org/2000/svg">
<path fill-rule="evenodd" clip-rule="evenodd" d="M64.6729 112.5V101.001H14.1357V5.85938H0V112.5H11.3525H14.1357H64.6729ZM93.5303 112.5V33.252H79.9072V112.5H93.5303ZM80.8594 6.66504C79.541 8.17871 78.8818 10.0342 78.8818 12.2314C78.8818 14.3311 79.541 16.1377 80.8594 17.6514C82.2266 19.1162 84.2285 19.8486 86.8652 19.8486C89.4531 19.8486 91.4307 19.1162 92.7979 17.6514C94.2139 16.1377 94.9219 14.3311 94.9219 12.2314C94.9219 10.0342 94.2139 8.17871 92.7979 6.66504C91.4307 5.15137 89.4531 4.39453 86.8652 4.39453C84.2285 4.39453 82.2266 5.15137 80.8594 6.66504ZM162.317 104.124C161.672 104.8 160.984 105.468 160.254 106.128C157.764 108.374 154.785 110.254 151.318 111.768C147.9 113.232 144.043 113.965 139.746 113.965C134.375 113.965 129.663 112.915 125.61 110.815C121.606 108.716 118.481 105.908 116.235 102.393C114.038 98.8281 112.939 94.8486 112.939 90.4541C112.939 86.2061 113.77 82.4707 115.43 79.248C117.09 75.9766 119.482 73.2666 122.607 71.1182C125.732 68.9209 129.492 67.2607 133.887 66.1377C138.281 65.0146 143.188 64.4531 148.608 64.4531H162.012V58.1543C162.012 55.0293 161.377 52.3193 160.107 50.0244C158.887 47.6807 157.031 45.874 154.541 44.6045C152.051 43.335 148.975 42.7002 145.312 42.7002C141.895 42.7002 138.892 43.2861 136.304 44.458C133.765 45.6299 131.763 47.168 130.298 49.0723C128.882 50.9766 128.174 53.0273 128.174 55.2246H114.624C114.624 52.3926 115.356 49.585 116.821 46.8018C118.286 44.0186 120.386 41.5039 123.12 39.2578C125.903 36.9629 129.224 35.1562 133.081 33.8379C136.987 32.4707 141.333 31.7871 146.118 31.7871C151.88 31.7871 156.958 32.7637 161.353 34.7168C165.796 36.6699 169.263 39.624 171.753 43.5791C174.292 47.4854 175.562 52.3926 175.562 58.3008V95.2148C175.562 97.8516 175.781 100.659 176.221 103.638C176.709 106.616 177.417 109.18 178.345 111.328V112.5H164.209C163.525 110.938 162.988 108.862 162.598 106.274C162.489 105.542 162.396 104.825 162.317 104.124ZM162.012 90.2194C161.547 91.142 160.961 92.0747 160.254 93.0176C158.398 95.5566 155.884 97.7051 152.71 99.4629C149.536 101.221 145.874 102.1 141.724 102.1C138.403 102.1 135.596 101.514 133.301 100.342C131.055 99.1211 129.37 97.4854 128.247 95.4346C127.124 93.3838 126.562 91.1133 126.562 88.623C126.562 86.1816 127.1 84.0576 128.174 82.251C129.248 80.3955 130.811 78.8574 132.861 77.6367C134.912 76.416 137.451 75.5127 140.479 74.9268C143.506 74.292 146.948 73.9746 150.806 73.9746H162.012V90.2194ZM154.321 0L140.112 21.5332H151.025L170.654 0H154.321ZM210.425 55.9452V112.5H196.875V33.252H209.692L210.119 43.1113C210.268 42.9237 210.419 42.7378 210.571 42.5537C213.403 39.1357 216.772 36.499 220.679 34.6436C224.634 32.7393 229.004 31.7871 233.789 31.7871C237.695 31.7871 241.211 32.3242 244.336 33.3984C247.461 34.4238 250.122 36.084 252.319 38.3789C254.565 40.6738 256.274 43.6523 257.446 47.3145C258.618 50.9277 259.204 55.3467 259.204 60.5713V112.5H245.581V60.4248C245.581 56.2744 244.971 52.9541 243.75 50.4639C242.529 47.9248 240.747 46.0938 238.403 44.9707C236.06 43.7988 233.179 43.2129 229.761 43.2129C226.392 43.2129 223.315 43.9209 220.532 45.3369C217.798 46.7529 215.43 48.7061 213.428 51.1963C212.285 52.6538 211.284 54.2368 210.425 55.9452ZM343.433 33.252H331.128L330.496 42.0936C330.463 42.0516 330.429 42.0096 330.396 41.9678C327.808 38.6475 324.634 36.1328 320.874 34.4238C317.163 32.666 312.817 31.7871 307.837 31.7871C303.003 31.7871 298.657 32.7637 294.8 34.7168C290.942 36.6211 287.646 39.3555 284.912 42.9199C282.227 46.4844 280.151 50.7568 278.687 55.7373C277.271 60.6689 276.562 66.1621 276.562 72.2168V73.7549C276.562 79.5166 277.271 84.8633 278.687 89.7949C280.151 94.6777 282.251 98.9258 284.985 102.539C287.72 106.152 290.991 108.96 294.8 110.962C298.657 112.964 302.954 113.965 307.69 113.965C312.72 113.965 317.114 113.11 320.874 111.401C324.389 109.758 327.392 107.453 329.883 104.487V111.475C329.883 116.064 329.004 119.922 327.246 123.047C325.537 126.221 323.12 128.613 319.995 130.225C316.87 131.836 313.159 132.642 308.862 132.642C305.298 132.642 301.685 131.86 298.022 130.298C294.409 128.735 290.942 125.952 287.622 121.948L280.518 130.005C282.91 133.423 285.864 136.133 289.38 138.135C292.944 140.186 296.558 141.626 300.22 142.456C303.931 143.335 307.153 143.774 309.888 143.774C316.479 143.774 322.29 142.48 327.319 139.893C332.397 137.354 336.353 133.618 339.185 128.687C342.017 123.755 343.433 117.798 343.433 110.815V33.252ZM329.883 54.7444V90.5607C329.624 91.069 329.355 91.5706 329.077 92.0654C327.368 95.1904 325.049 97.7051 322.119 99.6094C319.189 101.514 315.479 102.466 310.986 102.466C307.324 102.466 304.175 101.733 301.538 100.269C298.901 98.7549 296.729 96.6797 295.02 94.043C293.359 91.4062 292.114 88.3545 291.284 84.8877C290.503 81.4209 290.112 77.71 290.112 73.7549V72.2168C290.112 68.2617 290.503 64.5508 291.284 61.084C292.114 57.5684 293.359 54.4922 295.02 51.8555C296.729 49.1699 298.901 47.0703 301.538 45.5566C304.224 43.9941 307.422 43.2129 311.133 43.2129C314.551 43.2129 317.529 43.7988 320.068 44.9707C322.607 46.1426 324.731 47.7295 326.44 49.7314C327.789 51.23 328.937 52.9009 329.883 54.7444ZM627.788 9.375V0H614.312V9.59473C614.312 13.5498 613.701 17.2363 612.48 20.6543C611.309 24.0234 609.575 27.3193 607.28 30.542L615.044 35.8887C617.729 33.6426 620.024 31.0303 621.929 28.0518C623.833 25.0244 625.273 21.8994 626.25 18.6768C627.275 15.4053 627.788 12.3047 627.788 9.375ZM680.742 86.0596C681.621 87.7197 682.061 89.5264 682.061 91.4795C682.061 93.6768 681.401 95.6299 680.083 97.3389C678.765 99.0479 676.836 100.391 674.297 101.367C671.807 102.344 668.706 102.832 664.995 102.832C662.212 102.832 659.404 102.393 656.572 101.514C653.74 100.586 651.348 99.0479 649.395 96.8994C647.441 94.7021 646.367 91.748 646.172 88.0371H632.549C632.549 92.4316 633.794 96.6064 636.284 100.562C638.774 104.517 642.437 107.739 647.271 110.229C652.104 112.72 658.013 113.965 664.995 113.965C669.634 113.965 673.809 113.403 677.52 112.28C681.279 111.108 684.502 109.497 687.188 107.446C689.922 105.347 691.997 102.856 693.413 99.9756C694.878 97.0947 695.61 93.9209 695.61 90.4541C695.61 86.2061 694.585 82.5928 692.534 79.6143C690.483 76.6357 687.358 74.1211 683.159 72.0703C678.96 70.0195 673.613 68.2617 667.119 66.7969C663.408 65.9668 660.356 65.1367 657.964 64.3066C655.571 63.4766 653.716 62.5977 652.397 61.6699C651.079 60.6934 650.151 59.6436 649.614 58.5205C649.126 57.3486 648.882 56.0303 648.882 54.5654C648.882 52.6123 649.395 50.7568 650.42 48.999C651.494 47.2412 653.179 45.8008 655.474 44.6777C657.817 43.5059 660.869 42.9199 664.629 42.9199C668.193 42.9199 671.196 43.6035 673.638 44.9707C676.128 46.3379 678.008 48.0713 679.277 50.1709C680.596 52.2217 681.255 54.3457 681.255 56.543H694.805C694.805 52.002 693.608 47.876 691.216 44.165C688.823 40.4053 685.381 37.4023 680.889 35.1562C676.396 32.9102 670.977 31.7871 664.629 31.7871C660.186 31.7871 656.157 32.3975 652.544 33.6182C648.931 34.8389 645.83 36.5234 643.242 38.6719C640.703 40.8203 638.726 43.2861 637.31 46.0693C635.942 48.8525 635.259 51.8066 635.259 54.9316C635.259 58.2031 635.918 61.0596 637.236 63.501C638.555 65.9424 640.435 68.0664 642.876 69.873C645.366 71.6797 648.369 73.2178 651.885 74.4873C655.449 75.7568 659.429 76.8555 663.823 77.7832C669.048 78.8086 672.954 80.0293 675.542 81.4453C678.179 82.8125 679.912 84.3506 680.742 86.0596ZM413.467 94.9365V84.624H403.691V34.2969H400.737H390.747H390.371L356.641 87.1484L357.07 94.9365H390.747V112.5H403.691V94.9365H413.467ZM390.747 51.4093L389.512 53.5254L370.122 84.624H390.747V51.4093ZM474.053 41.3867V34.2969H419.858V44.6094H460.356L429.15 112.5H442.793L474.053 41.3867ZM496.128 102.295H495.054V112.983H496.235C502.036 112.983 507.085 112.231 511.382 110.728C515.715 109.188 519.367 107.057 522.339 104.336C525.347 101.579 527.764 98.3919 529.59 94.7754C531.452 91.123 532.795 87.1663 533.618 82.9053C534.442 78.6084 534.854 74.1504 534.854 69.5312V64.9658C534.854 60.5615 534.299 56.4437 533.188 52.6123C532.078 48.7809 530.431 45.415 528.247 42.5146C526.063 39.6143 523.377 37.3405 520.19 35.6934C517.004 34.0462 513.298 33.2227 509.072 33.2227C505.098 33.2227 501.535 33.9388 498.384 35.3711C495.269 36.7676 492.619 38.737 490.435 41.2793C488.25 43.7858 486.585 46.6862 485.439 49.9805C484.294 53.2747 483.721 56.8018 483.721 60.5615C483.721 64.0348 484.186 67.347 485.117 70.498C486.048 73.6491 487.445 76.4421 489.307 78.877C491.204 81.3119 493.568 83.2454 496.396 84.6777C499.261 86.0742 502.555 86.7725 506.279 86.7725C509.359 86.7725 512.205 86.1279 514.819 84.8389C517.469 83.5498 519.779 81.8311 521.748 79.6826C521.783 79.6443 521.818 79.606 521.853 79.5676C521.675 82.0681 521.282 84.4339 520.674 86.665C519.814 89.8161 518.4 92.5553 516.431 94.8828C514.461 97.2103 511.812 99.0365 508.481 100.361C505.187 101.65 501.069 102.295 496.128 102.295ZM521.963 68.0957V62.9248C521.963 59.738 521.623 56.945 520.942 54.5459C520.298 52.111 519.367 50.0879 518.149 48.4766C516.968 46.8294 515.589 45.5941 514.014 44.7705C512.474 43.9469 510.809 43.5352 509.019 43.5352C507.049 43.5352 505.277 43.9827 503.701 44.8779C502.161 45.7373 500.854 46.9368 499.78 48.4766C498.742 49.9805 497.936 51.7529 497.363 53.7939C496.826 55.7992 496.558 57.9476 496.558 60.2393C496.558 62.3877 496.808 64.4645 497.31 66.4697C497.847 68.4391 498.634 70.1937 499.673 71.7334C500.711 73.2731 502.018 74.4906 503.594 75.3857C505.169 76.2809 507.013 76.7285 509.126 76.7285C511.131 76.7285 512.975 76.3525 514.658 75.6006C516.341 74.8128 517.809 73.7565 519.062 72.4316C520.285 71.1396 521.252 69.6943 521.963 68.0957ZM570.088 67.5439H562.354V70.5518V74.7412V77.6416H570.088C573.06 77.6416 575.638 78.1071 577.822 79.0381C580.007 79.9333 581.689 81.3298 582.871 83.2275C584.053 85.1253 584.644 87.596 584.644 90.6396C584.644 93.3252 584.106 95.6169 583.032 97.5146C581.994 99.4124 580.49 100.845 578.521 101.812C576.551 102.778 574.206 103.262 571.484 103.262C568.906 103.262 566.615 102.76 564.609 101.758C562.64 100.755 561.1 99.3766 559.99 97.6221C558.916 95.8317 558.379 93.7728 558.379 91.4453H545.435C545.435 95.0977 546.133 98.3203 547.529 101.113C548.962 103.87 550.895 106.18 553.33 108.042C555.765 109.868 558.522 111.247 561.602 112.178C564.681 113.109 567.904 113.574 571.27 113.574C575.029 113.574 578.503 113.073 581.689 112.07C584.912 111.068 587.723 109.582 590.122 107.612C592.521 105.643 594.365 103.244 595.654 100.415C596.979 97.5505 597.642 94.292 597.642 90.6396C597.642 87.9541 597.158 85.4118 596.191 83.0127C595.26 80.6136 593.774 78.4831 591.733 76.6211C589.799 74.8222 587.317 73.3932 584.288 72.3343C586.62 71.2682 588.618 69.9758 590.283 68.457C592.324 66.5592 593.864 64.4645 594.902 62.1729C595.941 59.8812 596.46 57.6253 596.46 55.4053C596.46 50.5355 595.404 46.4534 593.291 43.1592C591.178 39.8649 588.224 37.3942 584.429 35.7471C580.669 34.0641 576.265 33.2227 571.216 33.2227C566.489 33.2227 562.228 34.1536 558.433 36.0156C554.673 37.8418 551.701 40.3662 549.517 43.5889C547.332 46.8115 546.24 50.4997 546.24 54.6533H559.238C559.238 52.3617 559.775 50.3923 560.85 48.7451C561.924 47.0622 563.374 45.7731 565.2 44.8779C567.062 43.9469 569.139 43.4814 571.431 43.4814C574.152 43.4814 576.39 43.9648 578.145 44.9316C579.935 45.8984 581.26 47.277 582.119 49.0674C583.014 50.8219 583.462 52.9346 583.462 55.4053C583.462 57.7686 582.979 59.8633 582.012 61.6895C581.045 63.5156 579.559 64.9479 577.554 65.9863C575.584 67.0247 573.096 67.5439 570.088 67.5439ZM35.3027 144.859H0V251.5H14.1357V208.287H39.1513L62.3291 251.5H77.417V250.621L52.3672 205.336C55.6578 204.08 58.5878 202.476 61.1572 200.523C64.8682 197.691 67.7002 194.273 69.6533 190.27C71.6553 186.217 72.6562 181.749 72.6562 176.866C72.6562 169.933 71.1914 164.098 68.2617 159.361C65.3809 154.576 61.1572 150.963 55.5908 148.521C50.0732 146.08 43.3105 144.859 35.3027 144.859ZM14.1357 196.788H35.7422C40.8203 196.788 45.0439 195.909 48.4131 194.151C51.7822 192.345 54.3213 189.928 56.0303 186.9C57.7393 183.873 58.5938 180.528 58.5938 176.866C58.5938 172.765 57.7881 169.176 56.1768 166.1C54.5654 163.023 52.0264 160.655 48.5596 158.995C45.1416 157.286 40.7227 156.432 35.3027 156.432H14.1357V196.788ZM108.252 250.182C112.744 252.037 117.749 252.965 123.267 252.965C128.491 252.965 133.008 252.232 136.816 250.768C140.674 249.303 143.921 247.398 146.558 245.055C149.194 242.711 151.367 240.245 153.076 237.657L144.873 231.139C142.383 234.41 139.478 237.022 136.157 238.976C132.837 240.929 128.784 241.905 123.999 241.905C120.288 241.905 116.968 241.197 114.038 239.781C111.157 238.365 108.691 236.412 106.641 233.922C104.639 231.432 103.101 228.551 102.026 225.279C101.095 222.262 100.586 219.064 100.501 215.685H154.102V209.605C154.102 204.039 153.467 198.912 152.197 194.225C150.928 189.488 148.975 185.387 146.338 181.92C143.701 178.404 140.308 175.67 136.157 173.717C132.056 171.764 127.173 170.787 121.509 170.787C117.065 170.787 112.769 171.69 108.618 173.497C104.468 175.304 100.757 177.965 97.4854 181.48C94.2139 184.996 91.626 189.293 89.7217 194.371C87.8174 199.4 86.8652 205.138 86.8652 211.583V214.659C86.8652 220.226 87.7197 225.353 89.4287 230.04C91.1377 234.728 93.5791 238.78 96.7529 242.198C99.9756 245.616 103.809 248.277 108.252 250.182ZM100.898 204.625C101.154 202.589 101.53 200.685 102.026 198.912C103.052 195.25 104.492 192.149 106.348 189.61C108.203 187.071 110.425 185.167 113.013 183.897C115.601 182.579 118.433 181.92 121.509 181.92C126.147 181.92 129.81 182.994 132.495 185.143C135.181 187.291 137.134 190.025 138.354 193.346C139.624 196.666 140.356 200.084 140.552 203.6V204.625H100.898ZM183.472 243.812V281.969H169.849V172.252H182.3L182.969 180.955C185.653 177.641 188.896 175.131 192.7 173.424C196.509 171.666 200.903 170.787 205.884 170.787C210.864 170.787 215.283 171.764 219.141 173.717C222.998 175.621 226.245 178.355 228.882 181.92C231.519 185.484 233.496 189.757 234.814 194.737C236.182 199.669 236.865 205.162 236.865 211.217V212.755C236.865 218.517 236.182 223.863 234.814 228.795C233.447 233.678 231.445 237.926 228.809 241.539C226.221 245.152 223.022 247.96 219.214 249.962C215.405 251.964 211.035 252.965 206.104 252.965C201.074 252.965 196.631 252.135 192.773 250.475C189.158 248.919 186.058 246.698 183.472 243.812ZM183.472 230.962C183.639 231.267 183.81 231.57 183.984 231.871C185.742 234.85 188.086 237.267 191.016 239.122C193.945 240.929 197.632 241.832 202.075 241.832C205.737 241.832 208.887 241.075 211.523 239.562C214.209 237.999 216.406 235.875 218.115 233.189C219.873 230.504 221.167 227.428 221.997 223.961C222.827 220.445 223.242 216.71 223.242 212.755V211.217C223.242 207.262 222.827 203.551 221.997 200.084C221.167 196.568 219.873 193.492 218.115 190.855C216.406 188.17 214.209 186.07 211.523 184.557C208.838 182.994 205.64 182.213 201.929 182.213C198.511 182.213 195.532 182.799 192.993 183.971C190.503 185.143 188.379 186.729 186.621 188.731C185.424 190.061 184.374 191.527 183.472 193.129V230.962ZM250.562 211.07V212.755C250.562 218.468 251.392 223.766 253.052 228.648C254.712 233.531 257.104 237.804 260.229 241.466C263.403 245.079 267.212 247.911 271.655 249.962C276.099 251.964 281.104 252.965 286.67 252.965C292.236 252.965 297.217 251.964 301.611 249.962C306.055 247.911 309.839 245.079 312.964 241.466C316.138 237.804 318.555 233.531 320.215 228.648C321.875 223.766 322.705 218.468 322.705 212.755V211.07C322.705 205.357 321.875 200.06 320.215 195.177C318.555 190.245 316.138 185.973 312.964 182.359C309.839 178.697 306.03 175.865 301.538 173.863C297.095 171.812 292.09 170.787 286.523 170.787C281.006 170.787 276.025 171.812 271.582 173.863C267.139 175.865 263.354 178.697 260.229 182.359C257.104 185.973 254.712 190.245 253.052 195.177C251.392 200.06 250.562 205.357 250.562 211.07ZM264.111 212.755V211.07C264.111 207.164 264.575 203.478 265.503 200.011C266.431 196.495 267.822 193.395 269.678 190.709C271.582 187.975 273.926 185.826 276.709 184.264C279.541 182.701 282.812 181.92 286.523 181.92C290.283 181.92 293.555 182.701 296.338 184.264C299.17 185.826 301.514 187.975 303.369 190.709C305.273 193.395 306.689 196.495 307.617 200.011C308.594 203.478 309.082 207.164 309.082 211.07V212.755C309.082 216.71 308.594 220.445 307.617 223.961C306.689 227.428 305.298 230.504 303.442 233.189C301.587 235.875 299.243 237.999 296.411 239.562C293.628 241.075 290.381 241.832 286.67 241.832C282.91 241.832 279.614 241.075 276.782 239.562C273.95 237.999 271.582 235.875 269.678 233.189C267.822 230.504 266.431 227.428 265.503 223.961C264.575 220.445 264.111 216.71 264.111 212.755ZM384.521 225.06C385.4 226.72 385.84 228.526 385.84 230.479C385.84 232.677 385.181 234.63 383.862 236.339C382.544 238.048 380.615 239.391 378.076 240.367C375.586 241.344 372.485 241.832 368.774 241.832C365.991 241.832 363.184 241.393 360.352 240.514C357.52 239.586 355.127 238.048 353.174 235.899C351.221 233.702 350.146 230.748 349.951 227.037H336.328C336.328 231.432 337.573 235.606 340.063 239.562C342.554 243.517 346.216 246.739 351.05 249.229C355.884 251.72 361.792 252.965 368.774 252.965C373.413 252.965 377.588 252.403 381.299 251.28C385.059 250.108 388.281 248.497 390.967 246.446C393.701 244.347 395.776 241.856 397.192 238.976C398.657 236.095 399.39 232.921 399.39 229.454C399.39 225.206 398.364 221.593 396.313 218.614C394.263 215.636 391.138 213.121 386.938 211.07C382.739 209.02 377.393 207.262 370.898 205.797C367.188 204.967 364.136 204.137 361.743 203.307C359.351 202.477 357.495 201.598 356.177 200.67C354.858 199.693 353.931 198.644 353.394 197.521C352.905 196.349 352.661 195.03 352.661 193.565C352.661 191.612 353.174 189.757 354.199 187.999C355.273 186.241 356.958 184.801 359.253 183.678C361.597 182.506 364.648 181.92 368.408 181.92C371.973 181.92 374.976 182.604 377.417 183.971C379.907 185.338 381.787 187.071 383.057 189.171C384.375 191.222 385.034 193.346 385.034 195.543H398.584C398.584 191.002 397.388 186.876 394.995 183.165C392.603 179.405 389.16 176.402 384.668 174.156C380.176 171.91 374.756 170.787 368.408 170.787C363.965 170.787 359.937 171.397 356.323 172.618C352.71 173.839 349.609 175.523 347.021 177.672C344.482 179.82 342.505 182.286 341.089 185.069C339.722 187.853 339.038 190.807 339.038 193.932C339.038 197.203 339.697 200.06 341.016 202.501C342.334 204.942 344.214 207.066 346.655 208.873C349.146 210.68 352.148 212.218 355.664 213.487C359.229 214.757 363.208 215.855 367.603 216.783C372.827 217.809 376.733 219.029 379.321 220.445C381.958 221.812 383.691 223.351 384.521 225.06ZM431.909 251.5V172.252H418.286V251.5H431.909ZM419.238 145.665C417.92 147.179 417.261 149.034 417.261 151.231C417.261 153.331 417.92 155.138 419.238 156.651C420.605 158.116 422.607 158.849 425.244 158.849C427.832 158.849 429.81 158.116 431.177 156.651C432.593 155.138 433.301 153.331 433.301 151.231C433.301 149.034 432.593 147.179 431.177 145.665C429.81 144.151 427.832 143.395 425.244 143.395C422.607 143.395 420.605 144.151 419.238 145.665ZM486.841 182.652V172.252H472.046V152.989H458.496V172.252H443.994V182.652H458.496V231.798C458.496 237.071 459.302 241.271 460.913 244.396C462.573 247.472 464.795 249.669 467.578 250.987C470.361 252.306 473.413 252.965 476.733 252.965C479.175 252.965 481.25 252.794 482.959 252.452C484.717 252.159 486.133 251.842 487.207 251.5L487.134 240.44C486.499 240.587 485.547 240.782 484.277 241.026C483.057 241.222 481.885 241.319 480.762 241.319C479.248 241.319 477.832 241.1 476.514 240.66C475.195 240.221 474.121 239.317 473.291 237.95C472.461 236.583 472.046 234.557 472.046 231.871V182.652H486.841ZM497.681 211.07V212.755C497.681 218.468 498.511 223.766 500.171 228.648C501.831 233.531 504.224 237.804 507.349 241.466C510.522 245.079 514.331 247.911 518.774 249.962C523.218 251.964 528.223 252.965 533.789 252.965C539.355 252.965 544.336 251.964 548.73 249.962C553.174 247.911 556.958 245.079 560.083 241.466C563.257 237.804 565.674 233.531 567.334 228.648C568.994 223.766 569.824 218.468 569.824 212.755V211.07C569.824 205.357 568.994 200.06 567.334 195.177C565.674 190.245 563.257 185.973 560.083 182.359C556.958 178.697 553.149 175.865 548.657 173.863C544.214 171.812 539.209 170.787 533.643 170.787C528.125 170.787 523.145 171.812 518.701 173.863C514.258 175.865 510.474 178.697 507.349 182.359C504.224 185.973 501.831 190.245 500.171 195.177C498.511 200.06 497.681 205.357 497.681 211.07ZM511.23 212.755V211.07C511.23 207.164 511.694 203.478 512.622 200.011C513.55 196.495 514.941 193.395 516.797 190.709C518.701 187.975 521.045 185.826 523.828 184.264C526.66 182.701 529.932 181.92 533.643 181.92C537.402 181.92 540.674 182.701 543.457 184.264C546.289 185.826 548.633 187.975 550.488 190.709C552.393 193.395 553.809 196.495 554.736 200.011C555.713 203.478 556.201 207.164 556.201 211.07V212.755C556.201 216.71 555.713 220.445 554.736 223.961C553.809 227.428 552.417 230.504 550.562 233.189C548.706 235.875 546.362 237.999 543.53 239.562C540.747 241.075 537.5 241.832 533.789 241.832C530.029 241.832 526.733 241.075 523.901 239.562C521.069 237.999 518.701 235.875 516.797 233.189C514.941 230.504 513.55 227.428 512.622 223.961C511.694 220.445 511.23 216.71 511.23 212.755ZM600.366 195.159V251.5H586.816V172.252H600L600.268 181.347C600.3 181.294 600.333 181.241 600.366 181.188C602.368 177.916 604.907 175.377 607.983 173.57C611.108 171.715 614.819 170.787 619.116 170.787C620.093 170.787 621.216 170.909 622.485 171.153C623.755 171.349 624.634 171.568 625.122 171.812L625.049 184.41C623.926 184.166 622.852 184.02 621.826 183.971C620.85 183.873 619.727 183.824 618.457 183.824C615.332 183.824 612.573 184.312 610.181 185.289C607.788 186.266 605.762 187.633 604.102 189.391C602.563 191.02 601.318 192.943 600.366 195.159ZM658.536 250.645L630.249 172.252H645.044L664.878 231.542L683.276 172.252H697.778L665.991 263.731C665.259 265.685 664.282 267.784 663.062 270.03C661.89 272.325 660.376 274.498 658.521 276.549C656.665 278.6 654.419 280.26 651.782 281.529C649.194 282.848 646.094 283.507 642.48 283.507C641.406 283.507 640.039 283.36 638.379 283.067C636.719 282.774 635.547 282.53 634.863 282.335L634.79 271.349C635.181 271.397 635.791 271.446 636.621 271.495C637.5 271.593 638.11 271.642 638.452 271.642C641.528 271.642 644.141 271.227 646.289 270.396C648.438 269.615 650.244 268.272 651.709 266.368C653.223 264.513 654.517 261.949 655.591 258.678L658.536 250.645Z" fill="white"/>
</svg>
