<?xml version="1.0" standalone="no"?><!DOCTYPE svg PUBLIC "-//W3C//DTD SVG 1.1//EN" "http://www.w3.org/Graphics/SVG/1.1/DTD/svg11.dtd"><svg t="1653181957530" class="icon" viewBox="0 0 1024 1024" version="1.1" xmlns="http://www.w3.org/2000/svg" p-id="4158" xmlns:xlink="http://www.w3.org/1999/xlink" width="200" height="200"><defs><style type="text/css"></style></defs><path d="M512 1024C229.2224 1024 0 794.7776 0 512S229.2224 0 512 0s512 229.2224 512 512-229.2224 512-512 512z m268.8768-623.2832v-17.664c24.8576-17.6384 46.1568-42.3424 63.9232-67.0464-21.2992 10.5984-46.1568 17.664-71.04 21.1712 24.8832-14.1056 46.1824-42.3424 56.832-70.5792-24.8576 14.1056-49.7152 24.704-78.1312 31.744-21.2992-24.704-56.832-42.3424-92.3392-42.3424-71.0144 0-124.288 56.4736-124.288 130.6112 0 10.5728 0 21.1712 3.5328 31.744-102.9888-7.04-195.328-59.9808-259.2512-141.184-17.7408 14.1312-24.832 35.328-24.832 60.0064 0 45.9008 21.2736 88.2432 56.8064 112.9728-21.3248 0-39.0656-7.0656-56.832-17.664 0 63.5392 42.624 120.0128 99.456 130.6112-10.6752 3.5328-21.3248 3.5328-32 3.5328-7.0912 0-14.1824 0-24.832-3.5328 14.208 52.9408 63.9232 91.776 117.1968 91.776a241.8176 241.8176 0 0 1-156.2624 56.4736c-10.6496 0-21.3248 0-28.416-3.5328 56.832 38.8352 120.7552 60.0064 191.7696 60.0064 230.8608 7.0656 358.7072-194.1504 358.7072-367.104z" fill="#3298F0" p-id="4159"></path></svg>