<?xml version="1.0" standalone="no"?><!DOCTYPE svg PUBLIC "-//W3C//DTD SVG 1.1//EN" "http://www.w3.org/Graphics/SVG/1.1/DTD/svg11.dtd"><svg t="1646477527534" class="icon" viewBox="0 0 1024 1024" version="1.1" xmlns="http://www.w3.org/2000/svg" p-id="5876" xmlns:xlink="http://www.w3.org/1999/xlink" width="200" height="200"><defs><style type="text/css"></style></defs><path d="M343.466667 981.333333c76.8 0 153.6-29.866667 213.333333-87.466666L896 556.8c17.066667-17.066667 17.066667-42.666667 0-59.733333-17.066667-17.066667-42.666667-17.066667-59.733333 0L497.066667 834.133333c-85.333333 83.2-221.866667 83.2-305.066667 0-40.533333-40.533333-64-93.866667-64-151.466666s23.466667-110.933333 64-151.466667L567.466667 157.866667c55.466667-55.466667 145.066667-55.466667 198.4 0 25.6 25.6 40.533333 61.866667 40.533333 98.133333 0 36.266667-14.933333 72.533333-40.533333 98.133333L390.4 727.466667c-25.6 25.6-66.133333 25.6-91.733333 0-12.8-12.8-19.2-27.733333-19.2-44.8s6.4-34.133333 19.2-44.8l305.066666-302.933334c17.066667-17.066667 17.066667-42.666667 0-59.733333-17.066667-17.066667-42.666667-17.066667-59.733333 0L238.933333 576c-27.733333 27.733333-44.8 66.133333-44.8 106.666667s14.933333 76.8 44.8 106.666666c57.6 57.6 153.6 57.6 213.333334 0l375.466666-373.333333 8.533334-8.533333c2.133333-2.133333 4.266667-4.266667 4.266666-6.4a225.28 225.28 0 0 0-12.8-305.066667C744.533333 12.8 610.133333 8.533333 522.666667 83.2c-2.133333 2.133333-4.266667 2.133333-6.4 4.266667L132.266667 469.333333C74.666667 526.933333 42.666667 601.6 42.666667 682.666667s32 155.733333 87.466666 211.2c59.733333 57.6 136.533333 87.466667 213.333334 87.466666" fill="#002FA7" p-id="5877"></path></svg>