<?xml version="1.0" standalone="no"?><!DOCTYPE svg PUBLIC "-//W3C//DTD SVG 1.1//EN" "http://www.w3.org/Graphics/SVG/1.1/DTD/svg11.dtd"><svg t="1660994614376" class="icon" viewBox="0 0 1024 1024" version="1.1" xmlns="http://www.w3.org/2000/svg" p-id="2621" xmlns:xlink="http://www.w3.org/1999/xlink" width="200" height="200"><defs><style type="text/css"></style></defs><path d="M903.36 780.8a37.888 37.888 0 0 0 27.632 9.04 43.488 43.488 0 0 0 26.704-12.64A238.112 238.112 0 0 0 1024 618.144c0-133.696-121.6-252.944-277.184-272.816C709.072 200.784 552.512 96 373.872 96 167.6 96 0 238.736 0 413.088a277.648 277.648 0 0 0 81.04 194.224 37.28 37.28 0 0 0 28.544 11.744 37.504 37.504 0 0 0 27.632-63.232 206.4 206.4 0 0 1-60.8-142.736c0-133.696 132.608-242.096 296.512-242.096 131.68 0 253.232 72.272 291.92 172.544-162.064 15.36-288.224 134.608-288.224 274.624a238.736 238.736 0 0 0 2.768 36.128h-6.4a449.824 449.824 0 0 1-90.24-11.744c-6.4-0.896-12.896-2.704-19.344-3.616a34.128 34.128 0 0 0-24.864 3.616L121.6 700.352a37.264 37.264 0 0 0-17.6 50.592 37.952 37.952 0 0 0 34.064 20.8 60.448 60.448 0 0 0 17.504-3.616l104.976-51.488 6.4 0.896a483.792 483.792 0 0 0 105.904 13.552c9.216 0 19.344 0 30.4-0.896a283.536 283.536 0 0 0 69.072 86.72 353.6 353.6 0 0 0 227.456 78.592 399.808 399.808 0 0 0 94.848-14.4l78.272 42.464a42.56 42.56 0 0 0 18.416 4.512 39.248 39.248 0 0 0 34.08-19.872 37.328 37.328 0 0 0-15.648-51.488l-92.08-49.68a41.696 41.696 0 0 0-27.632-3.616 385.472 385.472 0 0 1-91.2 15.36c-133.52-0.896-244.032-90.336-244.032-201.456s110.496-200.544 246.784-200.544c133.52 0 245.872 92.144 245.872 200.544a165.632 165.632 0 0 1-47.888 110.208 37.76 37.76 0 0 0 3.792 53.264z" p-id="2622" fill="#ffffff"></path><path d="M262.144 315.728m-49.184 0a49.184 49.184 0 1 0 98.368 0 49.184 49.184 0 1 0-98.368 0Z" p-id="2623" fill="#ffffff"></path><path d="M495.392 315.728m-49.184 0a49.184 49.184 0 1 0 98.368 0 49.184 49.184 0 1 0-98.368 0Z" p-id="2624" fill="#ffffff"></path><path d="M608.8 549.44m-49.184 0a49.184 49.184 0 1 0 98.368 0 49.184 49.184 0 1 0-98.368 0Z" p-id="2625" fill="#ffffff"></path><path d="M797.792 549.44m-49.184 0a49.184 49.184 0 1 0 98.368 0 49.184 49.184 0 1 0-98.368 0Z" p-id="2626" fill="#ffffff"></path></svg>