<svg width="1000" height="504" viewBox="0 0 1000 504" fill="none" xmlns="http://www.w3.org/2000/svg">
<path d="M842.459 1H1000V82.8662L949.071 133.795L949.021 133.744L948.848 133.918L878.929 64H864.07L904.395 104.324L904.422 104.298L911.493 111.369L911.466 111.395L911.493 111.422L904.422 118.493L904.395 118.466L888.716 134.145L937.527 182.956L930.5 189.982V190H930.482L930.456 190.026L930.43 190H898.892L843.071 245.82L843 245.749V246H813V259.929L847.117 294.046L859 282.163V282H934V282.095L934.083 282.013L998.955 346.884L998.89 346.948L999.239 347.15L972 394.33V395H959.698L907.492 485.421L918.042 495.971L910.971 503.042L910.929 503H873.013L872.971 503.042L857 487.071L857.071 487H857V371.071L844 358.071L844.071 358H844V305.071L823.929 285H789.139L788.938 285.2L725.252 221.514H725V180.07L680.929 136H652.202L641.571 146.632L641.565 146.626L641.561 146.632L609 114.071L609.024 114.046L608.954 114.006L632.068 73.9697L632.468 74.2002H715.251L842 1.02148V1H842.037L842.354 0.817383L842.459 1ZM854.188 301.116L854.234 301.163L854 301.397V353.929L867.042 366.971L867 367.013V482.929L877.071 493H900.929L895 487.071L895.006 487.064L895 487.061L953.86 385.11L954 385.19V385H965.84L986.735 348.807L929.929 292H863.305L854.188 301.116ZM396.032 353H451V353.071L451.071 353L480.034 381.963L479.997 382H480V433.5H479.96L443.287 443.327L443.286 443.323L443.27 443.341L420.929 421H402.038L367.928 430.14L367.891 430.002L367.767 430.036L357.463 391.584L357.477 391.58L357.4 391.504L395.968 352.936L396.032 353ZM368.586 394.459L374.874 417.925L401.006 410.923L401.026 411H425V411.071L425.071 411L446.251 432.18L470 425.815V386.071L446.929 363H400.046L368.586 394.459ZM324.992 20.9648L415.12 73H499V73.2197L580.886 95.1621L580.91 95.1484L580.924 95.1719L580.936 95.1758L580.932 95.1865L585.91 103.809L506.897 149.426L485.149 187.097L484.982 187H475V149H451.2L446 154.2V171.479H445.851L400 217.33V242.397L400.016 242.413L343.112 299.316L336.041 292.245L336.107 292.179L307.773 263.845L288 283.618V310.5H278.524L278.227 310.798L229.599 262.17L168 323.769V382.786L168.027 382.814L125.071 425.771L125 425.7V426H99V425.884L98.6816 425.97L69.4834 317H27.1338L27.0312 317.103L0.00488281 290.076L0.245117 289.836H0V253.836H0.135742L0 253.7L32.8145 220.886L16.1953 204.267L16.1699 204.293L9.09863 197.222L62 144.32V120.5H62.0635L104.819 77.7441L105.075 78H171.732L200.928 61.1426L201.071 61L201.109 61.0381L201.21 60.9805L201.426 61.3545L221.031 80.96L324.98 20.9443L324.992 20.9648ZM219.848 93.1895L219.483 93.5547L219.385 93.4561L219 93.6797L218.168 92.2393L199.464 73.5352L175 87.6602V88H108.705L72 124.705V148.454L72.0039 148.459L72 148.463V148.5H71.9629L23.2666 197.195L42.0713 216H107V226H41.8418L10 257.842V285.929L31.0713 307H77V307.005L77.1475 306.966L106.363 416H120.7L158 378.7V319.8H158.027L157.928 319.7L183.778 293.849L144.823 254.895L151.895 247.823L190.849 286.778L222.528 255.1L222.429 255H198.645L198.537 255.107L180.86 237.432L187.932 230.36L202.571 245H226.515V245.023L226.555 244.983L278 296.429V279.5H278.035L278.006 279.471L300.702 256.773L300.677 256.748L307.748 249.677L343.179 285.107L390 238.286V213.41H390.026L389.902 213.286L436 167.188V150H436.058L447 139.058V139H485V167.354L499.639 142L499.743 142.061L499.722 142.022L568.638 102.232L496.86 83H412V82.7461L324.969 32.498L219.848 93.1895ZM718 84.1602V84.2002H637.709L621.443 112.372L641.565 132.494L648 126.061V126H648.062L648.106 125.955L648.151 126H685V126.071L685.071 126L734.585 175.514H735V217.119L792.881 275H813.929L803.042 264.113H803V264.071L802.99 264.062L803 264.052V236H838.749L894.5 180.249V180H920.43L874.606 134.178L875.032 133.751L875 133.72L897.324 111.395L849.968 64.0381L850.006 64H850V54H883V54.0713L883.071 54L948.897 119.826L990 78.7246V11H844.718L718 84.1602Z" fill="white"/>
</svg>
